<?xml version="1.0" encoding="utf-8"?>
<!-- Generator: Adobe Illustrator 25.2.0, SVG Export Plug-In . SVG Version: 6.00 Build 0)  -->
<svg version="1.1" id="Layer_1" xmlns="http://www.w3.org/2000/svg" xmlns:xlink="http://www.w3.org/1999/xlink" x="0px" y="0px"
	 viewBox="0 0 1000 1000" style="enable-background:new 0 0 1000 1000;" xml:space="preserve">
<style type="text/css">
	.st0{fill:#5F5E5E;}
</style>
<g id="Layer_2_1_">
</g>
<g>
	<path class="st0" d="M647.5,187L618.3,20.2c-2-11.7-12.2-20.2-24-20.2H344.8c-11.8,0-22,8.5-24,20.2l-29.3,167.3
		c-56.4,10.7-99.2,60.3-99.2,119.7v385.7c0,59.4,42.8,109,99.2,119.7l29.3,167.3c2,11.7,12.2,20.2,24,20.2h249.5
		c11.8,0,22-8.5,24-20.2L647.5,813c57.6-9.7,101.6-59.8,101.6-120.1V307.1C749.1,246.8,705.1,196.7,647.5,187z M241,677.7V322.3
		h459.4v355.4H241z M365.2,48.7h208.5l23.9,136.6H341.3L365.2,48.7z M314.1,234h312.6h0.6c28.2,0,52.7,16.1,64.9,39.5h-443
		C261.4,250.1,285.9,234,314.1,234z M573.8,951.3H365.2l-23.9-136.6h256.4L573.8,951.3z M627.3,766h-0.6H314.1
		c-28.2,0-52.7-16.1-64.9-39.5h443C680,749.9,655.5,766,627.3,766z"/>
	<path class="st0" d="M602.7,397.3c-9.5-9.5-24.9-9.5-34.5,0l-97.5,97.5l-59.8-59.8c-9.5-9.5-24.9-9.5-34.5,0
		c-9.5,9.5-9.5,24.9,0,34.5l77.1,77.1c4.6,4.6,10.8,7.1,17.2,7.1c6.5,0,12.7-2.6,17.2-7.1l114.7-114.7
		C612.2,422.2,612.2,406.8,602.7,397.3z"/>
	<path class="st0" d="M791.5,321.4c-9,0-16.2,7.3-16.2,16.2v88.3c0,9,7.3,16.2,16.2,16.2s16.2-7.3,16.2-16.2v-88.3
		C807.7,328.7,800.4,321.4,791.5,321.4z"/>
	<path class="st0" d="M791.5,486.8c-9,0-16.2,7.3-16.2,16.2v159.3c0,9,7.3,16.2,16.2,16.2s16.2-7.3,16.2-16.2V503
		C807.7,494.1,800.4,486.8,791.5,486.8z"/>
</g>
</svg>
