<?xml version="1.0" encoding="utf-8"?>
<!-- Generator: Adobe Illustrator 24.1.0, SVG Export Plug-In . SVG Version: 6.00 Build 0)  -->
<svg version="1.1" xmlns="http://www.w3.org/2000/svg" xmlns:xlink="http://www.w3.org/1999/xlink" x="0px" y="0px"
	 viewBox="0 0 1000 1000" style="enable-background:new 0 0 1000 1000;" xml:space="preserve">
<style type="text/css">
	.st0{fill:#5F5E5E;}
	.st1{fill-rule:evenodd;clip-rule:evenodd;fill:#5F5E5E;}
</style>
<g id="Layer_2">
</g>
<g id="Layer_1">
	<path class="st0" d="M475,871.3c0-13.5,11.3-24.9,24.9-24.9c13.5,0,24.9,11.4,24.9,24.9c0,13.5-11.5,24.9-24.9,24.9
		C486.4,896.3,475,884.8,475,871.3z"/>
	<path class="st0" d="M842.8,760.8c0.1-204.2,0.1-408.3,0-612.5c0-3.1-0.1-6.1-0.3-9.1c-0.4-9.9-1.8-19.7-4.2-29.2
		c-9.2-37.9-32.1-68.9-64.6-88.4C761,13.8,747,7.8,732.1,4.2c-5.9-1.4-11.9-2.8-17.8-4.2c-0.3,0-0.6,0-0.9,0
		C571.2,0,428.8,0,286.5,0c-0.3,0-0.6,0-0.9,0c-5.9,1.4-11.9,2.8-17.8,4.2C253,7.8,239,13.8,226.4,21.7
		c-32.5,19.5-55.4,50.6-64.6,88.4c-2.4,9.5-3.8,19.2-4.2,29.2c-0.2,3-0.3,6-0.3,9.1c-0.1,204.2-0.1,408.3,0,612.5
		c-0.1,23.7-0.1,47.5,0,71.2c0,6.4,0,12.9,0,19.3c0,71.4,44.4,127.2,108.9,143.6c2.7,0.7,5.4,1.4,8.1,1.9c5.3,1.1,10.8,1.8,16.3,2.3
		c5.1,0.5,10.3,0.7,15.5,0.7c64.6,0,129.3,0.1,193.9,0c64.6,0,129.3,0,193.9,0c5.3,0,10.5-0.3,15.5-0.7c5.5-0.5,11-1.2,16.3-2.3
		c2.7-0.6,5.4-1.2,8.1-1.9c64.4-16.4,108.8-72.3,108.9-143.6c0-6.4,0-12.9,0-19.3C842.8,808.3,842.8,784.6,842.8,760.8z
		 M792.6,716.7c-0.1,45.2,0.7,90.5-0.5,135.7c-0.4,14.2-3.1,29.6-9.1,42.3c-7.8,16.7-18.3,29.4-31.2,38.3c-0.3,0.2-0.6,0.4-0.8,0.6
		c-0.8,0.5-1.6,1-2.4,1.5c-14,8.6-30.6,13.7-49.1,14.5c-5.1,0.2-10.2,0.3-15.4,0.4c-15.4,0-30.7,0-46.1,0c-3.6,0-7.2,0-10.8,0
		c-24.7,0-49.4,0-74,0c-17.7,0-35.5,0-53.2,0c-17.7,0-35.5,0-53.2,0c-24.7,0-49.4,0-74,0c-3.6,0-7.2,0-10.8,0c-15.4,0-30.7,0-46.1,0
		c-5.1-0.1-10.3-0.2-15.4-0.4c-18.5-0.8-35.1-5.9-49.1-14.5c-0.8-0.5-1.6-1-2.4-1.5c-0.3-0.2-0.6-0.4-0.8-0.6
		c-12.8-9-23.3-21.6-31.2-38.3c-6-12.8-8.7-28.1-9.1-42.3c-1.1-45.2-0.3-90.5-0.5-135.7c0-2.3-0.2-4.5-0.6-6.6
		c-0.1-187.3,0-374.6,0.4-561.9c0-0.7,0-1.5,0.1-2.2c0.1-0.9,0.2-1.8,0.2-2.8c0.3-6.3,1.1-12.4,2.4-18.3c0.2-0.7,0.3-1.3,0.5-2
		c0.2-0.7,0.4-1.5,0.5-2.2c1.4-5.2,3.2-10.2,5.3-14.9c3.1-6.8,6.7-12.9,10.7-18.3c16.4-21.8,42.1-35.7,72.7-37.2
		c6.4-0.3,12.9-0.4,19.3-0.5c5.7,0,11.4,0,17.1,0c4.5,0,9,0.1,13.4,0.1c39.7,0,79.4,0,119.1,0c10.5,0,21,0,31.5,0
		c10.5,0,21,0,31.5,0c39.7,0,79.4,0,119.1,0c4.5,0,9,0,13.4-0.1c5.7,0,11.4,0,17.1,0c6.4,0,12.9,0.1,19.3,0.5
		c30.6,1.5,56.2,15.4,72.7,37.2c4,5.5,7.6,11.6,10.7,18.3c2.2,4.7,3.9,9.7,5.3,14.9c0.2,0.7,0.4,1.5,0.5,2.2c0.2,0.7,0.3,1.3,0.5,2
		c1.3,5.9,2.1,12,2.4,18.3c0,1,0.1,1.9,0.2,2.8c0,0.7,0.1,1.5,0.1,2.2c0.4,187.3,0.5,374.6,0.4,561.9
		C792.8,712.2,792.6,714.4,792.6,716.7z"/>
	<path class="st0" d="M758.6,131.7c-2-10-9.9-17.3-20-18.6c-2.4-0.3-4.8-0.5-7.2-0.5c-0.5,0-1,0-1.5,0c-0.6,0-1.2,0-1.7,0
		c-1.2,0-2.5,0-3.7,0c-74.8,0-149.5,0-224.3,0c-74.8,0-149.5,0-224.3,0c-1.2,0-2.5,0-3.7,0c-0.6,0-1.2,0-1.7,0c-0.5,0-1,0-1.5,0
		c-2.4,0.1-4.9,0.2-7.2,0.5c-10.2,1.3-18,8.6-20,18.6c-0.9,4.4-1,9-1,13.6c0,210.9,0,421.8,0,632.6c0,4.2,0.1,8.5,0.8,12.6
		c0.3,1.6,0.6,3,1.1,4.4c0.6,1.8,1.4,3.5,2.4,5c0.1,0.2,0.2,0.4,0.4,0.5c0.2,0.2,0.3,0.5,0.5,0.7c3.9,5.4,10,8.8,17.4,9.6
		c0.4,0,0.8,0,1.2,0.1c0.1,0,0.3,0,0.4,0c0.6,0,1.2,0.1,1.8,0.1c0.9,0,1.8,0.1,2.6,0.1c1.8,0,3.5,0,5.3,0c75.2,0,150.5,0,225.7,0
		c75.2,0,150.5,0,225.7,0c1.8,0,3.5,0,5.3,0c0.9,0,1.8-0.1,2.6-0.1c0.6,0,1.2,0,1.8-0.1c0.1,0,0.3,0,0.4,0c0.4,0,0.8,0,1.2-0.1
		c7.4-0.8,13.5-4.2,17.4-9.6c0.2-0.2,0.3-0.5,0.5-0.7c0.1-0.2,0.2-0.4,0.4-0.5c1-1.5,1.8-3.2,2.4-5c0.5-1.4,0.9-2.9,1.1-4.4
		c0.7-4.1,0.8-8.4,0.8-12.6c0-210.9,0-421.8,0-632.6C759.6,140.7,759.4,136.1,758.6,131.7z M709.1,760.9c-140.3,0-279.1,0-418.2,0
		c0-9.3,0.1-18.5,0-27.6c0-190.4,0-380.3,0-571.1c5,0,8.9,0,12.8,0c65.4,0,130.9,0,196.3,0c65.4,0,130.9,0,196.3,0
		c3.9,0,7.8,0,12.8,0c0,190.9,0,380.7,0,571.1C709.1,742.4,709.1,751.5,709.1,760.9z"/>
	<path class="st0" d="M571,513.2v-27.7l-39.4,39.5l39.4,39.5v-27.7h87.1v-23.7H571z M618.8,580.4h-87.1v23.7h87.1v27.7l39.4-39.5
		l-39.4-39.5V580.4z M460.5,355.1c17.4,0,31.6-14.2,31.6-31.6s-14.2-31.6-31.6-31.6s-31.6,14.2-31.6,31.6S443.1,355.1,460.5,355.1z
		 M401.2,408.8l-43.5,223h33.2l27.7-126.5l34,31.6v94.9h31.6V512.4L451.8,480l9.5-47.4c20.6,25.3,51.4,41.1,86.2,41.1V442
		c-29.3,0-54.6-15.8-68.8-38.7l-15-25.3c-5.5-9.5-15.8-15-26.9-15c-4,0-7.9,0.8-11.9,2.4l-83,34v74.3h31.6v-53L401.2,408.8"/>
</g>
</svg>
