<?xml version="1.0" encoding="utf-8"?>
<!-- Generator: Adobe Illustrator 24.1.0, SVG Export Plug-In . SVG Version: 6.00 Build 0)  -->
<svg version="1.1" xmlns="http://www.w3.org/2000/svg" xmlns:xlink="http://www.w3.org/1999/xlink" x="0px" y="0px"
	 viewBox="0 0 1024 1024" style="enable-background:new 0 0 1024 1024;" xml:space="preserve">
<style type="text/css">
	.st0{fill:#5F5E5E;}
	.st1{fill-rule:evenodd;clip-rule:evenodd;fill:#5F5E5E;}
</style>
<g id="Layer_2">
</g>
<g id="Layer_1">
	<g>
		<path class="st0" d="M65.7,1012c-2-0.6-3.9-1.3-5.9-1.8c-28.3-7-47.8-31.6-47.8-60.7c0-250,0-499.9,0-749.9
			c0-34.9,27.7-62.5,62.7-62.5c34.3,0,68.7-0.1,103,0.1c3.3,0,4.7-1,6.1-4c11.4-24.5,30.8-37.3,57.7-37.8
			c25.7-0.5,51.4-0.1,77.1-0.1c1.8,0,3.5,0,5.6,0c1-26.9,11.3-49.1,32.4-65.7c16.4-12.9,35.3-18.6,56.1-17.4
			c41.7,2.3,77.6,36,78.9,83.1c1.7,0,3.4,0,5.2,0c24.9,0,49.8-0.1,74.7,0c28.5,0.1,49.2,12.7,60.9,39c1.4,3.1,3.4,2.9,5.8,2.9
			c34.2,0,68.4,0,102.5,0c35.1,0,63,27.2,63.1,62.1c0.3,48.3,0.1,96.7,0,145c0,12.9-9,22.2-21,22.2c-12.1,0-20.8-9.3-20.8-22.2
			c0-47.2-0.3-94.4,0.2-141.6c0.1-12.3-8.3-24.2-24-23.8c-31.6,0.7-63.1,0.2-94.7,0.2c-1.9,0-3.9,0-6.5,0c0,6.9,0,13.5,0,20.1
			c0,30.1-19.8,55-49.1,61.6c-4.2,1-8.7,1.4-13.1,1.4c-111.3,0.1-222.7,0.1-334,0c-34.4,0-62-27.8-62-62.1c0-6.8,0-13.6,0-21
			c-2.2,0-3.9,0-5.7,0c-32.4,0-64.8,0-97.2,0c-13.7,0-22.2,8.4-22.2,22.2c0,249,0,498,0,747c0,13.5,8.5,22.1,21.8,22.1
			c221.5,0,443,0,664.5,0c13.1,0,21.8-8.9,21.8-22.3c0-48,0-96,0-144c0-9.3,5.3-16.9,13.8-19.9c8.5-3,17.8-0.9,23.1,6.7
			c2.7,3.9,4.7,9.2,4.7,13.9c0.3,48.3,0.4,96.7,0.1,145c-0.1,30.9-21.7,55.9-52.3,61.5c-0.8,0.1-1.5,0.6-2.2,0.9
			C521.4,1012,293.6,1012,65.7,1012z M407.5,220.2c55.3,0,110.6,0,166,0c13.1,0,21.7-8.6,21.7-21.7c0-12.9-0.7-25.7,0.1-38.5
			c0.8-13-9.8-23.3-23.7-23c-28.6,0.6-57.3,0.3-85.9,0.1c-4.1,0-6.3,1.3-8.5,4.6c-17.1,25-41.1,37.7-71.2,37.1
			c-29.5-0.6-52.5-14.2-68.9-38.9c-0.9-1.3-3-2.6-4.5-2.6c-30.6-0.2-61.2-0.2-91.8-0.1c-10.9,0.1-19.7,8.4-20.1,19.3
			c-0.5,13.8-0.7,27.6-0.5,41.5c0.3,14.4,8.8,22.4,23.2,22.4C298.2,220.2,352.8,220.2,407.5,220.2z M366.3,95.1
			c-0.1,23,18.4,41.7,41.2,41.9c22.6,0.2,41.8-18.7,41.9-41.4c0.2-22.8-18.5-41.7-41.4-41.8C385,53.9,366.4,72.1,366.3,95.1z"/>
		<path class="st0" d="M1012,450.5c-0.8,3.6-1.5,7.2-2.4,10.8c-4.2,17.9-12.9,33.2-25.9,46.2c-82.3,82.3-164.5,164.6-247,246.7
			c-3.4,3.4-8.2,6.2-12.8,7.5c-47.3,13.8-94.7,27.1-142,40.7c-8.4,2.4-15.9,1.3-22.1-4.8c-6.5-6.3-7.3-14.1-4.9-22.5
			c13.5-47.2,26.8-94.4,40.6-141.5c1.3-4.6,4.1-9.4,7.5-12.8c82.6-82.9,165.2-165.8,248.2-248.2c27.1-26.8,60.4-34.3,96.4-22.3
			c35.9,12,56.8,38.1,63.4,75.5c0.2,1.1,0.6,2.1,1,3.2C1012,436.2,1012,443.4,1012,450.5z M605,752.4c34.8-10,68.6-19.6,102.3-29.3
			c1.6-0.5,3.1-1.7,4.4-2.9c81.3-81.2,162.6-162.4,243.7-243.7c12.4-12.5,17.1-28,14.1-45.2c-3.6-20.8-15.9-35.1-36.1-41.5
			c-20.7-6.6-38.9-1.3-54.1,13.9C798.6,484,718,564.6,637.5,645.2c-1.6,1.6-2.9,3.9-3.6,6.1c-6.3,21.7-12.5,43.4-18.7,65.1
			C611.9,728.1,608.6,739.8,605,752.4z"/>
		<path class="st0" d="M408.2,387.1c83,0,166,0,248.9,0c9.6,0,17,4.9,20.2,13.3c3.1,8.2,1.3,17.7-5.8,23c-3.8,2.8-9.1,3.8-13.7,5.5
			c-0.9,0.3-1.9,0.1-2.9,0.1c-164.7,0-329.3,0-494,0c-10.2,0-18.2-3.3-22.4-13.1c-5.9-13.9,4.3-28.7,19.7-28.7
			C241.6,387,324.9,387.1,408.2,387.1z"/>
		<path class="st0" d="M354.7,595.2c-65.6,0-131.2,0-196.7,0c-15,0-24.9-14.1-19.7-28c2.8-7.4,8.3-11.9,16.2-13.2
			c2.4-0.4,4.9-0.4,7.3-0.4c128.7,0,257.4,0,386.2,0.1c4.5,0,9.2,0.5,13.3,2.2c9.2,3.8,13.6,13.9,11.3,23.9
			c-2.1,9-10.3,15.4-20.1,15.4C486.6,595.2,420.6,595.2,354.7,595.2z"/>
		<path class="st0" d="M323.8,762c-55.2,0-110.3,0-165.5,0c-8.6,0-15.1-3.7-19-11.4c-3.8-7.5-3.2-14.8,1.6-21.7
			c4.4-6.2,10.7-8.8,18.1-8.8c23.3,0,46.5,0,69.8,0c86.6,0,173.1,0,259.7,0c13.7,0,22.8,8.6,22.7,21.3c-0.1,11.6-9,20.4-21,20.5
			c-18.9,0.1-37.8,0-56.6,0C397,762,360.4,762,323.8,762z"/>
	</g>
</g>
</svg>
