<?xml version="1.0" encoding="utf-8"?>
<!-- Generator: Adobe Illustrator 24.1.0, SVG Export Plug-In . SVG Version: 6.00 Build 0)  -->
<svg version="1.1" xmlns="http://www.w3.org/2000/svg" xmlns:xlink="http://www.w3.org/1999/xlink" x="0px" y="0px"
	 viewBox="0 0 1024 1024" style="enable-background:new 0 0 1024 1024;" xml:space="preserve">
<style type="text/css">
	.st0{fill:#5F5E5E;}
	.st1{fill-rule:evenodd;clip-rule:evenodd;fill:#5F5E5E;}
</style>
<g id="Layer_2">
</g>
<g id="Layer_1">
	<g>
		<path class="st0" d="M12,486.7c0.6-5.6,1.3-11.2,1.8-16.8c8.8-100.8,44.4-191,107.7-269.9c68.8-85.8,156.7-143,263-171.4
			c55.5-14.9,112-19.6,169.2-14.7c114.8,10,214.9,54.1,299.1,132.5c79.7,74.2,130.8,165.1,150.2,272.3c26.8,148-5.4,283-97.9,401.8
			c-76.5,98.3-177.4,158.8-299.8,182.6c-21.3,4.1-43.2,5.5-64.8,8.1c-1.1,0.1-2.1,0.5-3.2,0.8c-16.9,0-33.8,0-50.8,0
			c-1.2-0.3-2.4-0.7-3.7-0.8c-33.4-1.9-66.3-6.9-98.5-15.6C278.1,967,190.2,909.9,121.4,824.1C58.2,745.2,22.5,655,13.8,554.2
			c-0.5-5.6-1.2-11.2-1.8-16.8C12,520.5,12,503.6,12,486.7z M156,800.2c6.4-4.1,12.6-8.1,18.8-11.8c97.5-58.7,204.2-85,317.1-88.6
			c55.6-1.8,110.8,3.1,165.3,14.5c71.7,15,139.3,40.5,201.3,80c3.1,2,6.2,4,9.3,5.9c139.4-167.9,144.4-437.9-35.2-615.5
			c-176.3-174.3-465-174.3-641.3,0C11.8,362.1,16.5,632.1,156,800.2z M183.8,832.4c96.1,94.3,210.8,142,345.5,137.3
			c121.4-4.3,224.4-51.9,310.7-137.4C655.4,710.2,365,711.9,183.8,832.4z"/>
		<path class="st0" d="M513.7,616.4c-59,0.1-106.3-46.7-106-104.1c0.2-33.1,12.7-61.4,39.4-81.3c31-23,62.9-45.1,95.4-66
			c78.1-50.1,156.9-99.2,235.3-148.8c5.4-3.4,10.9-5.8,17.4-4.6c15.1,2.7,22,18.9,13.7,32.5c-16.3,26.4-32.4,53-49.2,79.1
			c-47.6,74.1-95.3,148.2-143.4,222c-9.4,14.4-19.8,28.3-31.5,40.8C565.5,606.7,540.3,615.7,513.7,616.4z M725.2,299.8
			c-0.3-0.3-0.6-0.6-0.9-0.9c-1.5,0.9-3,1.8-4.5,2.7c-56.3,35.9-112.9,71.5-168.9,108c-26.8,17.5-53.3,35.6-78.7,55.1
			c-19.8,15.1-26.5,36.8-21,61c5.7,25.3,21.9,41.5,47.2,47.2c24.3,5.5,45.1-1.9,61.2-20.9c6.7-7.9,13-16.3,18.6-25
			c44.7-68.7,89.3-137.4,133.8-206.2C716.5,313.8,720.8,306.8,725.2,299.8z"/>
		<path class="st0" d="M326.5,308.2c-0.3,6.5-4.2,13.1-12.3,16.6c-8.4,3.7-16.3,2.3-23-3.9c-6.8-6.3-13.2-13-19.7-19.6
			c-7.9-7.9-15.9-15.8-23.8-23.8c-9.1-9.2-9.5-22-1.1-30.5c8.5-8.7,21.5-8.4,30.8,0.9c14.1,14,28,28,42.1,42
			C324,294.4,326.7,299.5,326.5,308.2z"/>
		<path class="st0" d="M491.3,189.2c0-10.6-0.1-21.1,0-31.7c0.1-11.5,9-20.3,20.4-20.4c11.7-0.1,20.8,8.7,20.9,20.4
			c0.1,21.1,0.1,42.2,0,63.4c0,11.5-9.6,20.7-21,20.5c-11.3-0.2-20.3-9.2-20.4-20.6C491.2,210.3,491.3,199.7,491.3,189.2z"/>
		<path class="st0" d="M189,532.7c-10.6,0-21.1,0.1-31.7,0c-11.5-0.1-20.3-9-20.4-20.5c-0.1-11.7,8.7-20.8,20.5-20.8
			c21.1-0.1,42.2-0.1,63.4,0c11.3,0,20.3,9.1,20.5,20.4c0.2,11.4-9,20.8-20.6,20.9C210.1,532.8,199.6,532.7,189,532.7z"/>
		<path class="st0" d="M835,491.4c10.4,0,20.8,0,31.2,0c11.8,0.1,20.7,9,20.7,20.6c0,11.7-8.8,20.7-20.6,20.7
			c-21,0.1-41.9,0.1-62.9,0c-11.7,0-20.8-9.1-20.8-20.6c0-11.5,9.1-20.6,20.7-20.7C813.9,491.3,824.4,491.4,835,491.4z"/>
	</g>
</g>
</svg>
