<?xml version="1.0" encoding="utf-8"?>
<!-- Generator: Adobe Illustrator 24.1.0, SVG Export Plug-In . SVG Version: 6.00 Build 0)  -->
<svg version="1.1" xmlns="http://www.w3.org/2000/svg" xmlns:xlink="http://www.w3.org/1999/xlink" x="0px" y="0px"
	 viewBox="0 0 1024 1024" style="enable-background:new 0 0 1024 1024;" xml:space="preserve">
<style type="text/css">
	.st0{fill:#5F5E5E;}
	.st1{fill-rule:evenodd;clip-rule:evenodd;fill:#5F5E5E;}
	.st2{fill:#004E7C;}
</style>
<g id="Layer_2">
</g>
<g id="Layer_1">
	<g>
		<path class="st0" d="M586.6,1012c-3.2-0.9-6.4-1.8-9.6-2.8c-26.4-8.2-44-32.1-44-59.7c0-110.5,0-221,0-331.5
			c0-37,26.7-64.2,63.8-64.4c42.6-0.2,85.2-0.2,127.9,0c30,0.1,56.1,10.5,77.4,31.5c24.5,24,49.3,47.9,72.5,73.1
			c21.7,23.6,32.9,52.5,33.1,84.8c0.3,68.2,0.1,136.4,0.1,204.5c0,32.7-19.9,57-52.1,63.6c-0.6,0.1-1.1,0.6-1.6,0.9
			C764.9,1012,675.7,1012,586.6,1012z M720.3,595.3c-42.3,0-83.8-0.2-125.2,0.1c-12.5,0.1-20.4,9.5-20.4,22.1
			c0,110.2,0,220.3,0,330.5c0,13.6,8.6,22.1,22.3,22.1c82.1,0,164.3,0,246.4,0c13.9,0,22.5-8.5,22.5-22.5c0-67,0-134.1,0-201.1
			c0-1.6-0.1-3.2-0.2-5.2c-2,0-3.8,0-5.5,0c-25.1,0-50.1,0-75.2,0c-37.5-0.1-64.7-27.3-64.7-64.6c0-25.2,0-50.4,0-75.7
			C720.3,599.3,720.3,597.6,720.3,595.3z M854.1,699.6c-4.2-5.5-7.2-10.3-11-14.2c-23.4-23.7-47-47.2-70.7-70.8
			c-2.9-2.9-6.3-5.3-10.3-8.5c0,2.6,0,3.9,0,5.2c0,22.1,0,44.2,0,66.4c0,12.9,8.7,21.7,21.7,21.9c8.1,0.1,16.3,0,24.4,0
			C822.9,699.6,837.7,699.6,854.1,699.6z"/>
		<path class="st0" d="M116.1,822.6c2.1-4.1,3.4-8.9,6.3-12.3c5.9-6.8,13.8-8.2,22.2-5.3c8.3,2.8,13.5,10.2,13.6,19
			c0.1,13.3,0,26.7,0,40c0,14.4,8.7,23,23.1,23.1c12.8,0,25.7,0,38.5,0c11.5,0,20.6,8,21.3,18.6c0.8,12.2-6.3,22.3-18.3,22.7
			c-18.6,0.6-37.6,1.4-55.9-1.3c-28-4.2-47-26.7-50.1-54.8c-0.1-0.9-0.5-1.8-0.8-2.7C116.1,853.8,116.1,838.2,116.1,822.6z"/>
		<path class="st0" d="M116.1,239.7c0.3-0.9,0.7-1.8,0.9-2.7c2.4-10.5,11.9-17.7,22.1-16.6c11,1.1,18.9,9.5,19,20.5
			c0.1,13.3,0,26.7,0,40c0,14.1,8.7,22.7,22.8,22.7c12.8,0,25.7-0.2,38.5,0.1c17,0.4,27,16.3,19.3,30.6c-3.7,7-9.7,10.9-17.7,10.9
			c-15.1,0.1-30.3,0.2-45.4,0c-29.3-0.5-55.8-25.3-58.8-54.6c-0.1-1.4-0.6-2.7-1-4.1C116.1,270.9,116.1,255.3,116.1,239.7z"/>
		<path class="st0" d="M116.1,614.6c0.3-0.7,0.7-1.4,0.9-2.2c2.4-10.9,11.8-18.2,22.2-17.1c11.2,1.1,19,9.6,19.1,20.9
			c0.1,34.6,0.1,69.3,0,103.9c0,11.6-7.9,19.9-19.5,21.1c-10.1,1-19.4-6.3-21.8-17c-0.2-0.8-0.6-1.5-0.9-2.2
			C116.1,686.2,116.1,650.4,116.1,614.6z"/>
		<path class="st0" d="M116.1,30.7c2.4-8,6.2-14.9,14.9-17.6c13.2-4.2,27,5.2,27.1,19.1c0.2,35.1,0.1,70.3,0,105.4
			c0,10.2-7.6,18.8-17.2,20.1c-11.1,1.5-20.8-4.6-23.7-15c-0.3-1.2-0.8-2.4-1.2-3.6C116.1,103,116.1,66.9,116.1,30.7z"/>
		<path class="st0" d="M116.1,405.7c2.4-8,6.2-14.9,14.9-17.6c13.2-4.2,27,5.2,27.1,19.1c0.2,35.1,0.1,70.3,0,105.4
			c0,10.2-7.6,18.8-17.2,20.1c-11.1,1.5-20.8-4.6-23.7-15c-0.3-1.2-0.8-2.4-1.2-3.6C116.1,477.9,116.1,441.8,116.1,405.7z"/>
		<path class="st0" d="M532.9,241.3c0-55.5,0-111,0-166.5c0-34.9,27.7-62.6,62.6-62.6c41.8,0,83.6-0.5,125.4,0.2
			c32.3,0.6,60.8,12.5,84.2,34.5c23.3,22,46,44.7,68,68c21.9,23.3,34.1,51.7,34.4,83.8c0.7,70,0.2,139.9,0.2,209.9
			c0,33.9-27.9,61.7-61.9,61.7c-83.6,0-167.2,0-250.8,0c-34.2,0-62-27.8-62.1-62.1C532.9,352.5,532.9,296.9,532.9,241.3z M720.3,54
			c-2.1,0-3.6,0-5.2,0c-39.4,0-78.7,0-118.1,0c-14,0-22.3,8.4-22.3,22.6c0,109.8,0,219.6,0,329.5c0,14.1,8.4,22.6,22.3,22.6
			c82.1,0,164.3,0,246.4,0c14,0,22.4-8.4,22.4-22.5c0-67,0-134.1,0-201.1c0-1.7,0-3.4,0-5.4c-2.5,0-4.3,0-6.1,0
			c-25.4,0-50.7,0-76.1,0c-35.8,0-63.4-27.5-63.4-63.3c0-25.5,0-51.1,0-76.6C720.3,58,720.3,56.3,720.3,54z M762.1,67.4
			c0,1.8,0,3.3,0,4.9c0,21.1,0,42.3,0,63.4c0,13.6,8.6,22.1,22.3,22.1c21.3,0,42.6,0,63.9,0c1.4,0,2.7-0.2,4.2-0.3
			C847.5,146.1,773,71.7,762.1,67.4z"/>
		<path class="st0" d="M387.3,887c20.3,0,40.6,0,60.9,0c12.7,0,22,8.4,22.2,20.2c0.2,12.2-8.6,21.2-21.5,21.6
			c-9.1,0.2-18.2,0.1-27.3,0.1c-31.7,0-63.4,0-95.1,0c-12.1,0-20.4-6.6-22.4-17.5c-2.3-12.6,7.3-24.2,20.2-24.2
			C345.3,887,366.3,887,387.3,887z"/>
		<path class="st0" d="M387.3,345.3c-20.6,0-41.3,0-61.9,0c-12.3,0-21.3-8.5-21.7-20.3c-0.3-11.1,8.2-20.2,19.9-21.2
			c3.2-0.3,6.5-0.2,9.7-0.2c37.9,0,75.7,0,113.6,0c12.2,0,20.2,5.5,22.9,15.7c3.4,13.1-6.1,25.8-19.6,25.9
			C429.2,345.4,408.3,345.3,387.3,345.3z"/>
	</g>
</g>
</svg>
