<?xml version="1.0" encoding="utf-8"?>
<!-- Generator: Adobe Illustrator 24.1.0, SVG Export Plug-In . SVG Version: 6.00 Build 0)  -->
<svg version="1.1" xmlns="http://www.w3.org/2000/svg" xmlns:xlink="http://www.w3.org/1999/xlink" x="0px" y="0px"
	 viewBox="0 0 1024 1024" style="enable-background:new 0 0 1024 1024;" xml:space="preserve">
<style type="text/css">
	.st0{fill:#5F5E5E;}
	.st1{fill-rule:evenodd;clip-rule:evenodd;fill:#5F5E5E;}
	.st2{fill:#E30613;}
</style>
<g id="Layer_2">
</g>
<g id="Layer_1">
	<g>
		<g>
			<g>
				<path class="st0" d="M753.5,770.5H318.8c-62.6,0-113.5-50.9-113.5-113.5V318.8c0-9.3,7.6-16.9,16.9-16.9h96.6
					c9.3,0,16.9,7.6,16.9,16.9V640h417.9c9.3,0,16.9,7.6,16.9,16.9v96.6C770.5,762.9,762.9,770.5,753.5,770.5z M239.1,335.7v321.3
					c0,44,35.8,79.7,79.7,79.7h417.9v-62.8H318.8c-9.3,0-16.9-7.6-16.9-16.9V335.7H239.1z"/>
			</g>
			<g>
				<path class="st0" d="M898.5,577.2H512c-62.6,0-113.5-50.9-113.5-113.5V173.8c0-62.6,50.9-113.5,113.5-113.5h386.5
					c62.6,0,113.5,50.9,113.5,113.5v289.9C1012,526.3,961.1,577.2,898.5,577.2z M512,94.1c-44,0-79.7,35.8-79.7,79.7v289.9
					c0,44,35.8,79.7,79.7,79.7h386.5c44,0,79.7-35.8,79.7-79.7V173.8c0-44-35.8-79.7-79.7-79.7H512z M898.5,480.6H512
					c-9.3,0-16.9-7.6-16.9-16.9V270.5c0-9.3,7.6-16.9,16.9-16.9h386.5c9.3,0,16.9,7.6,16.9,16.9v193.2
					C915.4,473,907.8,480.6,898.5,480.6z M528.9,446.8h352.7V287.4H528.9V446.8z"/>
			</g>
			<g>
				<path class="st0" d="M560.3,963.7H125.5C62.9,963.7,12,912.8,12,850.2V512c0-9.3,7.6-16.9,16.9-16.9h96.6
					c9.3,0,16.9,7.6,16.9,16.9v321.3h417.9c9.3,0,16.9,7.6,16.9,16.9v96.6C577.2,956.1,569.6,963.7,560.3,963.7z M45.8,528.9v321.3
					c0,44,35.8,79.7,79.7,79.7h417.9v-62.8H125.5c-9.3,0-16.9-7.6-16.9-16.9V528.9H45.8z"/>
			</g>
		</g>
	</g>
</g>
</svg>
