<?xml version="1.0" encoding="utf-8"?>
<!-- Generator: Adobe Illustrator 24.1.0, SVG Export Plug-In . SVG Version: 6.00 Build 0)  -->
<svg version="1.1" xmlns="http://www.w3.org/2000/svg" xmlns:xlink="http://www.w3.org/1999/xlink" x="0px" y="0px"
	 viewBox="0 0 1024 1024" style="enable-background:new 0 0 1024 1024;" xml:space="preserve">
<style type="text/css">
	.st0{fill:#5F5E5E;}
	.st1{fill-rule:evenodd;clip-rule:evenodd;fill:#5F5E5E;}
	.st2{fill:#E30613;}
</style>
<g id="Layer_2">
</g>
<g id="Layer_1">
	<g>
		<path class="st0" d="M850.2,1012H173.8c-62.6,0-113.5-50.9-113.5-113.5V222.1c0-62.6,50.9-113.5,113.5-113.5h31.4V28.9
			c0-9.3,7.6-16.9,16.9-16.9h96.6c9.3,0,16.9,7.6,16.9,16.9v79.7h352.7V28.9c0-9.3,7.6-16.9,16.9-16.9h96.6
			c9.3,0,16.9,7.6,16.9,16.9v79.7h31.4c62.6,0,113.5,50.9,113.5,113.5v676.3C963.7,961.1,912.8,1012,850.2,1012z M173.8,142.4
			c-44,0-79.7,35.8-79.7,79.7v676.3c0,44,35.8,79.7,79.7,79.7h676.3c44,0,79.7-35.8,79.7-79.7V222.1c0-44-35.8-79.7-79.7-79.7h-48.3
			c-9.3,0-16.9-7.6-16.9-16.9V45.8h-62.8v79.7c0,9.3-7.6,16.9-16.9,16.9H318.8c-9.3,0-16.9-7.6-16.9-16.9V45.8h-62.8v79.7
			c0,9.3-7.6,16.9-16.9,16.9H173.8z M801.9,867.1H222.1c-9.3,0-16.9-7.6-16.9-16.9v-48.3c0-27.5,12.4-53.2,37-76.4
			c19.9-18.8,47.5-35.7,82.1-50.3c65.7-27.6,141.6-40,187.7-40s122,12.4,187.7,40c34.5,14.5,62.2,31.4,82.1,50.3
			c24.5,23.2,37,48.9,37,76.4v48.3C818.8,859.5,811.2,867.1,801.9,867.1z M239.1,833.3h545.9v-31.4c0-20.3-12.8-59.6-98.3-95.5
			C625.2,680.5,554.7,669,512,669s-113.2,11.5-174.6,37.3c-85.6,35.9-98.3,75.3-98.3,95.5V833.3z M512,577.2
			c-43.3,0-84-16.8-114.5-47.3c-30.5-30.5-47.3-71.2-47.3-114.5s16.8-84,47.3-114.5s71.2-47.3,114.5-47.3s84,16.8,114.5,47.3
			s47.3,71.2,47.3,114.5s-16.8,84-47.3,114.5C596,560.4,555.3,577.2,512,577.2z M512,287.4c-34.3,0-66.4,13.3-90.6,37.4
			c-24.1,24.1-37.4,56.3-37.4,90.6s13.3,66.4,37.4,90.6c24.1,24.1,56.3,37.4,90.6,37.4s66.4-13.3,90.6-37.4
			c24.1-24.1,37.4-56.3,37.4-90.6s-13.3-66.4-37.4-90.6C578.4,300.7,546.3,287.4,512,287.4z"/>
	</g>
</g>
</svg>
