<?xml version="1.0" encoding="utf-8"?>
<!-- Generator: Adobe Illustrator 24.1.0, SVG Export Plug-In . SVG Version: 6.00 Build 0)  -->
<svg version="1.1" xmlns="http://www.w3.org/2000/svg" xmlns:xlink="http://www.w3.org/1999/xlink" x="0px" y="0px"
	 viewBox="0 0 1024 1024" style="enable-background:new 0 0 1024 1024;" xml:space="preserve">
<style type="text/css">
	.st0{fill:#5F5E5E;}
	.st1{fill-rule:evenodd;clip-rule:evenodd;fill:#5F5E5E;}
	.st2{fill:#E30613;}
</style>
<g id="Layer_2">
</g>
<g id="Layer_1">
	<g>
		<path class="st0" d="M431.5,1012c-2.2,0-4.4-0.4-6.5-1.3c-6.3-2.6-10.4-8.8-10.4-15.6v-63.6H230.2c-9.3,0-16.9-7.6-16.9-16.9
			v-80.5c0-9.3,7.6-16.9,16.9-16.9h184.4v-46.7H310.7c-53.7,0-97.4-43.7-97.4-97.4V109.4c0-53.7,43.7-97.4,97.4-97.4h402.6
			c53.7,0,97.4,43.7,97.4,97.4V673c0,53.7-43.7,97.4-97.4,97.4h-241l91.9,91.9c6.6,6.6,6.6,17.3,0,23.9L443.4,1007
			C440.2,1010.3,435.9,1012,431.5,1012z M247.1,897.7h184.4c9.3,0,16.9,7.6,16.9,16.9v39.7l80-80l-80-80v39.7
			c0,9.3-7.6,16.9-16.9,16.9H247.1V897.7z M431.6,736.6h281.7c35.1,0,63.6-28.5,63.6-63.6V109.4c0-35.1-28.5-63.6-63.6-63.6H310.7
			c-35.1,0-63.6,28.5-63.6,63.6V673c0,35.1,28.5,63.6,63.6,63.6h120.6C431.4,736.6,431.5,736.6,431.6,736.6z M793.8,931.5H592.5
			c-9.3,0-16.9-7.6-16.9-16.9v-80.5c0-9.3,7.6-16.9,16.9-16.9h201.3c9.3,0,16.9,7.6,16.9,16.9v80.5
			C810.7,923.9,803.1,931.5,793.8,931.5z M609.4,897.7h167.5V851H609.4V897.7z M713.3,549c-9.3,0-16.9-7.6-16.9-16.9
			c0-12.7-8.4-37.3-64.8-59.8c-41.3-16.5-89.8-23.9-119.6-23.9s-78.3,7.4-119.6,23.9c-24.2,9.7-64.8,30.3-64.8,59.8
			c0,9.3-7.6,16.9-16.9,16.9c-9.3,0-16.9-7.6-16.9-16.9V109.4c0-9.3,7.6-16.9,16.9-16.9h402.6c9.3,0,16.9,7.6,16.9,16.9v422.7
			C730.2,541.5,722.6,549,713.3,549z M512,414.6c30.6,0,83.5,6.9,132.1,26.3c21.3,8.5,38.7,18.3,52.2,29.2V126.3H327.6v343.7
			c13.5-10.9,31-20.7,52.2-29.2C410.2,428.8,463.1,414.6,512,414.6z M512,367.9c-53.5,0-97-43.7-97-97.4s43.5-97.4,97-97.4
			c53.7,0,97.4,43.7,97.4,97.4S565.7,367.9,512,367.9z M512,206.8c-34.9,0-63.2,28.5-63.2,63.6s28.4,63.6,63.2,63.6
			c35.1,0,63.6-28.5,63.6-63.6S547.1,206.8,512,206.8z"/>
	</g>
</g>
</svg>
