<?xml version="1.0" encoding="utf-8"?>
<!-- Generator: Adobe Illustrator 24.1.0, SVG Export Plug-In . SVG Version: 6.00 Build 0)  -->
<svg version="1.1" xmlns="http://www.w3.org/2000/svg" xmlns:xlink="http://www.w3.org/1999/xlink" x="0px" y="0px"
	 viewBox="0 0 1024 1024" style="enable-background:new 0 0 1024 1024;" xml:space="preserve">
<style type="text/css">
	.st0{fill:#5F5E5E;}
	.st1{fill-rule:evenodd;clip-rule:evenodd;fill:#5F5E5E;}
	.st2{fill:#004E7C;}
</style>
<g id="Layer_2">
</g>
<g id="Layer_1">
	<g>
		<path class="st0" d="M704.4,1012c-128.3,0-256.5,0-384.8,0c-1.3-0.6-2.6-1.2-3.9-1.8c-10.7-5.1-15.2-17.6-10-28.1
			c4.2-8.5,11.5-11.9,20.7-11.9c16.9,0,33.9,0.1,50.8-0.1c1.8,0,4.3-1,5.2-2.3c17.9-29.4,32.9-60.2,40.6-94c2.1-9.1,3.3-18.4,5-28.2
			c-3.4,0-5.7,0-7.9,0c-114.4,0-228.8,0-343.2,0c-38,0-64.8-27-64.8-64.9c0-235.3,0-470.6,0-706C12,39.8,39.7,12,74.6,12
			c291.6,0,583.3,0,874.9,0c27.9,0,52.1,18.1,60.1,44.9c0.9,2.9,1.6,5.9,2.4,8.8c0,241.9,0,483.7,0,725.6c-1.4,4.8-2.4,9.7-4.2,14.4
			c-9.8,24.9-32.6,39.8-60.8,39.8c-114.5,0-229.1,0-343.6,0c-2.2,0-4.4,0-7.4,0c1.6,9.2,2.7,17.4,4.4,25.5c7.2,34,22,64.7,39.5,94.4
			c2,3.5,4.2,5,8.4,4.9c16.6-0.3,33.2-0.2,49.8-0.1c14.5,0.1,23.7,10.3,22,24.3C718.9,1003.8,712.5,1008.8,704.4,1012z M970.2,678.6
			c0-2,0-3.7,0-5.5c0-198.9,0-397.7,0-596.6c0-14.4-8.3-22.6-22.7-22.6c-290.3,0-580.6,0-871,0c-14.4,0-22.6,8.3-22.6,22.8
			c0,198.9,0,397.7,0,596.6c0,1.7,0,3.5,0,5.4C359.5,678.6,664.6,678.6,970.2,678.6z M970.2,720.9c-305.8,0-610.9,0-915.9,0
			c-0.2,0.8-0.4,1.3-0.4,1.7c0,20.5-0.3,41,0.2,61.5c0.1,4.2,2.4,8.8,5,12.3c4.6,6.2,11.7,7.5,19.2,7.5c127.1,0,254.2,0,381.3,0
			c41.2,0,82.3,0,123.5,0c120.6,0,241.2,0,361.8,0c1.5,0,2.9,0.1,4.4,0c12.8-0.7,20.9-9.3,21-22.2c0-12.5,0-25.1,0-37.6
			C970.2,736.4,970.2,728.8,970.2,720.9z M594.3,970c-2.8-5.4-5.4-10.4-7.9-15.4c-16.6-33.3-28.2-68.1-31.5-105.3
			c-0.4-4-2.7-3.7-5.4-3.7c-23.6,0-47.2,0-70.8,0c-8.9,0-9,0-10,8.6c-4.6,38.2-17.1,73.9-34.9,107.8c-1.3,2.5-2.6,5.1-4.2,8
			C484.8,970,539.2,970,594.3,970z"/>
		<path class="st0" d="M305.9,450.8c0.3-17.9,6.1-32,17.2-44c9.9-10.7,19.9-21.4,29.9-32.2c5.7-6.2,5.7-10.8,0-17
			c-9.9-10.8-20-21.4-29.9-32.2c-16.2-17.8-21.4-38.6-14-61.5c7.4-23,23.4-37.4,47.2-42.5c12-2.6,23.6-0.1,35.2,2.7
			c11.2,2.7,22.5,5.2,33.7,7.8c8,1.9,12.1-0.4,14.4-8.1c4.3-14.1,8.6-28.3,12.9-42.4c8.1-26.9,31.4-44.5,59.2-44.5
			c28.2,0,51.6,17.3,59.8,44.4c4.3,14.1,8.6,28.3,12.9,42.4c2.4,7.8,6.4,10.1,14.3,8.2c14.1-3.3,28.2-6.5,42.3-9.8
			c27.7-6.5,54.5,4.9,68.6,29.1c14,24.2,10.7,53.3-8.4,74c-9.8,10.6-19.7,21.2-29.5,31.8c-6.3,6.8-6.3,11.2,0.1,18.1
			c9.7,10.5,19.6,20.9,29.2,31.5c16.7,18.4,21.9,39.8,13.5,63.3c-8.4,23.8-25.7,37.8-50.8,41.5c-9.8,1.5-19.4-0.6-28.9-2.9
			c-12.2-2.9-24.4-5.7-36.6-8.5c-7.3-1.7-11.4,0.8-13.6,8c-4.4,14.5-8.6,29-13.2,43.4c-14,44.1-67.5,58.4-101.7,27.2
			c-8.4-7.6-13.8-17.2-17-28c-4.2-14-8.5-28-12.8-42c-2.4-8-6.3-10.3-14.6-8.5c-16.2,3.6-32.2,8-48.5,10.8
			c-32.6,5.6-64.6-18-69.7-50.8C306.4,456.7,306.1,453,305.9,450.8z M398.9,365.6c-0.1,13.6-4.3,25.3-13.2,35.1
			c-10.7,11.8-21.7,23.3-32.4,35.1c-6.6,7.3-7.4,16.2-2.6,24.3c4.9,8.2,12.8,11.5,22.5,9.3c15-3.4,30.1-7,45.1-10.3
			c26.7-5.9,52.3,9,60.5,35.2c4.6,14.6,8.9,29.2,13.5,43.8c3.1,10.1,10.4,15.9,19.8,15.7c9.3-0.1,16.4-5.7,19.4-15.6
			c4.6-14.7,8.9-29.5,13.6-44.3c8.1-25.8,33.9-40.7,60.2-34.9c15.2,3.4,30.4,7,45.6,10.4c5.8,1.3,11.3,0.8,16.3-2.8
			c10.7-7.7,12-21.5,2.9-31.5c-10.3-11.3-20.9-22.3-31.1-33.7c-19.2-21.3-18.6-51.1,1-71.9c10.6-11.3,21.1-22.6,31.4-34.1
			c6.1-6.8,6.4-15.4,1.7-23.5c-4.5-7.6-12.3-11.2-21.2-9.3c-14.8,3.2-29.5,6.7-44.2,10.1c-29.6,6.7-54.8-8.1-63.5-37.2
			c-4.1-13.7-8.3-27.3-12.5-41c-3.2-10.4-9.9-15.8-19.6-15.8c-9.8,0-16.6,5.3-19.7,15.6c-4.5,14.7-8.9,29.6-13.6,44.2
			c-8,24.8-31.8,39.6-57.5,35c-16.6-3-33-7.3-49.4-11c-7.8-1.7-14.1,0.9-19.1,6.8c-6.8,8.1-6.7,18.7,0.4,26.7
			c10.2,11.4,20.7,22.5,31.1,33.7C393.7,340.1,398.8,352,398.9,365.6z"/>
		<path class="st0" d="M511.3,447c-45.7-1.3-81.3-37.9-80.2-82.3c1.1-45.7,38.6-80.8,84.5-79.3c43,1.4,78.5,39.1,77.2,82.2
			C591.6,412.2,554.6,448.3,511.3,447z M511.9,327.3c-21.5,0-39.1,17.8-39,39.1c0.2,21.1,17.7,38.7,38.9,39
			c21.1,0.2,39.2-17.8,39.2-39.1C551.1,344.9,533.4,327.2,511.9,327.3z"/>
	</g>
</g>
</svg>
