<?xml version="1.0" encoding="utf-8"?>
<!-- Generator: Adobe Illustrator 24.1.0, SVG Export Plug-In . SVG Version: 6.00 Build 0)  -->
<svg version="1.1" xmlns="http://www.w3.org/2000/svg" xmlns:xlink="http://www.w3.org/1999/xlink" x="0px" y="0px"
	 viewBox="0 0 1024 1024" style="enable-background:new 0 0 1024 1024;" xml:space="preserve">
<style type="text/css">
	.st0{fill:#5F5E5E;}
	.st1{fill-rule:evenodd;clip-rule:evenodd;fill:#5F5E5E;}
	.st2{fill:#E30613;}
</style>
<g id="Layer_2">
</g>
<g id="Layer_1">
	<g>
		<g>
			<path class="st0" d="M946.8,1012c-4.4,0-8.7-1.7-12-5l-60.5-60.5l-60.5,60.5c-6.6,6.6-17.3,6.6-23.9,0l-60.5-60.5l-60.5,60.5
				c-6.6,6.6-17.3,6.6-23.9,0l-60.5-60.5L524,1007c-6.6,6.6-17.3,6.6-23.9,0l-60.5-60.5L379,1007c-6.6,6.6-17.3,6.6-23.9,0
				l-60.5-60.5l-60.5,60.5c-6.6,6.6-17.3,6.6-23.9,0l-60.5-60.5L89.2,1007c-4.8,4.8-12.1,6.3-18.4,3.7c-6.3-2.6-10.4-8.8-10.4-15.6
				V28.9c0-6.8,4.1-13,10.4-15.6c6.3-2.6,13.6-1.2,18.4,3.7l60.5,60.5L210.2,17c6.6-6.6,17.3-6.6,23.9,0l60.5,60.5L355.1,17
				c6.6-6.6,17.3-6.6,23.9,0l60.5,60.5L500,17c6.6-6.6,17.3-6.6,23.9,0l60.5,60.5L645,17c6.6-6.6,17.3-6.6,23.9,0l60.5,60.5
				L789.9,17c6.6-6.6,17.3-6.6,23.9,0l60.5,60.5L934.8,17c4.8-4.8,12.1-6.3,18.4-3.7c6.3,2.6,10.4,8.8,10.4,15.6v966.2
				c0,6.8-4.1,13-10.4,15.6C951.2,1011.6,949,1012,946.8,1012z M729.4,905.7c4.3,0,8.7,1.7,12,5l60.5,60.5l60.5-60.5
				c6.6-6.6,17.3-6.6,23.9,0l43.6,43.6V69.7l-43.6,43.6c-6.6,6.6-17.3,6.6-23.9,0l-60.5-60.5l-60.5,60.5c-6.6,6.6-17.3,6.6-23.9,0
				l-60.5-60.5l-60.5,60.5c-6.6,6.6-17.3,6.6-23.9,0L512,52.8l-60.5,60.5c-6.6,6.6-17.3,6.6-23.9,0l-60.5-60.5l-60.5,60.5
				c-6.6,6.6-17.3,6.6-23.9,0l-60.5-60.5l-60.5,60.5c-6.6,6.6-17.3,6.6-23.9,0L94.1,69.7v884.5l43.6-43.6c6.6-6.6,17.3-6.6,23.9,0
				l60.5,60.5l60.5-60.5c6.6-6.6,17.3-6.6,23.9,0l60.5,60.5l60.5-60.5c6.6-6.6,17.3-6.6,23.9,0l60.5,60.5l60.5-60.5
				c6.6-6.6,17.3-6.6,23.9,0l60.5,60.5l60.5-60.5C720.7,907.4,725.1,905.7,729.4,905.7z M239.1,736.6h545.9v-62.8H239.1V736.6z
				 M239.1,543.4h545.9v-62.8H239.1V543.4z M239.1,350.2h545.9v-62.8H239.1V350.2z"/>
		</g>
	</g>
</g>
</svg>
