<?xml version="1.0" encoding="utf-8"?>
<!-- Generator: Adobe Illustrator 24.1.0, SVG Export Plug-In . SVG Version: 6.00 Build 0)  -->
<svg version="1.1" xmlns="http://www.w3.org/2000/svg" xmlns:xlink="http://www.w3.org/1999/xlink" x="0px" y="0px"
	 viewBox="0 0 1000 1000" style="enable-background:new 0 0 1000 1000;" xml:space="preserve">
<style type="text/css">
	.st0{fill:#5F5E5E;}
	.st1{fill-rule:evenodd;clip-rule:evenodd;fill:#5F5E5E;}
	.st2{fill:#004E7C;}
</style>
<g id="Layer_2">
</g>
<g id="Layer_1">
	<path class="st0" d="M692.4,1000c-128.3,0-256.5,0-384.8,0c-1.3-0.6-2.6-1.2-3.9-1.8c-10.7-5.1-15.2-17.6-10-28.1
		c4.2-8.5,11.5-11.9,20.7-11.9c16.9,0,33.9,0.1,50.8-0.1c1.8,0,4.3-1,5.2-2.3c17.9-29.4,32.9-60.2,40.6-94c2.1-9.1,3.3-18.4,5-28.2
		c-3.4,0-5.7,0-7.9,0c-114.4,0-228.8,0-343.2,0c-38,0-64.8-27-64.8-64.9C0,533.3,0,298,0,62.6C0,27.8,27.7,0,62.6,0
		c291.6,0,583.3,0,874.9,0c27.9,0,52.1,18.1,60.1,44.9c0.9,2.9,1.6,5.9,2.4,8.8c0,241.9,0,483.7,0,725.6c-1.4,4.8-2.4,9.7-4.2,14.4
		c-9.8,24.9-32.6,39.8-60.8,39.8c-114.5,0-229.1,0-343.6,0c-2.2,0-4.4,0-7.4,0c1.6,9.2,2.7,17.4,4.4,25.5c7.2,34,22,64.7,39.5,94.4
		c2,3.5,4.2,5,8.4,4.9c16.6-0.3,33.2-0.2,49.8-0.1c14.5,0.1,23.7,10.3,22,24.3C706.9,991.8,700.5,996.8,692.4,1000z M958.2,666.6
		c0-2,0-3.7,0-5.5c0-198.9,0-397.7,0-596.6c0-14.4-8.3-22.6-22.7-22.6c-290.3,0-580.6,0-871,0c-14.4,0-22.6,8.3-22.6,22.8
		c0,198.9,0,397.7,0,596.6c0,1.7,0,3.5,0,5.4C347.5,666.6,652.6,666.6,958.2,666.6z M958.2,708.9c-305.8,0-610.9,0-915.9,0
		c-0.2,0.8-0.4,1.3-0.4,1.7c0,20.5-0.3,41,0.2,61.5c0.1,4.2,2.4,8.8,5,12.3c4.6,6.2,11.7,7.5,19.2,7.5c127.1,0,254.2,0,381.3,0
		c41.2,0,82.3,0,123.5,0c120.6,0,241.2,0,361.8,0c1.5,0,2.9,0.1,4.4,0c12.8-0.7,20.9-9.3,21-22.2c0-12.5,0-25.1,0-37.6
		C958.2,724.4,958.2,716.8,958.2,708.9z M582.3,958c-2.8-5.4-5.4-10.4-7.9-15.4c-16.6-33.3-28.2-68.1-31.5-105.3
		c-0.4-4-2.7-3.7-5.4-3.7c-23.6,0-47.2,0-70.8,0c-8.9,0-9,0-10,8.6c-4.6,38.2-17.1,73.9-34.9,107.8c-1.3,2.5-2.6,5.1-4.2,8
		C472.8,958,527.2,958,582.3,958z"/>
	<g>
		<path class="st0" d="M398.3,435.6c-36.3,0-63-28-63-64.3v-34.1c0-36.3,26.7-64.3,63-64.3h58.4c15.7,0,28.9-13.1,28.9-28.9
			c0-15.7-13.1-28.9-28.9-28.9H397c-69.1,0-122,52.9-122,122v34.1c0,69.1,52.9,122,122,122h59.7c15.7,0,28.9-13.1,28.9-28.9
			c0-15.7-13.1-28.9-28.9-28.9L398.3,435.6z"/>
		<path class="st0" d="M614.4,347v14.5c0,11.9-9.7,21.6-21.6,21.6H407.3c-11.9,0-21.6-9.7-21.6-21.6V347c0-11.9,9.7-21.6,21.6-21.6
			h185.5C604.7,325.4,614.4,335.1,614.4,347z"/>
		<path class="st0" d="M601.7,435.6c36.3,0,63-28,63-64.3v-34.1c0-36.3-26.7-64.3-63-64.3h-58.4c-15.7,0-28.9-13.1-28.9-28.9
			c0-15.7,13.1-28.9,28.9-28.9H603c69.1,0,122,52.9,122,122v34.1c0,69.1-52.9,122-122,122h-59.7c-15.7,0-28.9-13.1-28.9-28.9
			c0-15.7,13.1-28.9,28.9-28.9L601.7,435.6z"/>
	</g>
</g>
</svg>
