<?xml version="1.0" encoding="utf-8"?>
<!-- Generator: Adobe Illustrator 24.1.0, SVG Export Plug-In . SVG Version: 6.00 Build 0)  -->
<svg version="1.1" xmlns="http://www.w3.org/2000/svg" xmlns:xlink="http://www.w3.org/1999/xlink" x="0px" y="0px"
	 viewBox="0 0 1024 1024" style="enable-background:new 0 0 1024 1024;" xml:space="preserve">
<style type="text/css">
	.st0{fill:#5F5E5E;}
	.st1{fill-rule:evenodd;clip-rule:evenodd;fill:#5F5E5E;}
	.st2{fill:#004E7C;}
</style>
<g id="Layer_2">
</g>
<g id="Layer_1">
	<g>
		<path class="st0" d="M1012,512.1c0,120.3,0,240.7,0,361c0,36.4-28,64.4-64.4,64.4c-176.5,0-353,0-529.5,0
			c-12.7,0-20.9-6.6-22.8-18.4c-2-11.8,7.6-23.6,19.6-24c1.5-0.1,3,0,4.5,0c174.3,0,348.7,0,523,0c3.8,0,7.7-0.1,11.4-1
			c9.1-2.1,15.3-10.3,15.6-19.6c0-1.5,0-3,0-4.5c0-238.7-0.1-477.3,0.2-716c0-16.2-11.3-25-24.8-25c-175.3,0.3-350.7,0.2-526,0.2
			c-12.4,0-20.9-6.3-23.1-16.9c-2.7-13,6.4-24.9,19.6-25.7c1.5-0.1,3,0,4.5,0c175.7,0,351.3,0,527,0c37.3,0,65.3,27.9,65.3,65.1
			C1012,271.8,1012,392,1012,512.1z"/>
		<path class="st0" d="M600.4,527.8c-47.6-44.1-45.7-115.7-2.1-156.7c43.4-40.9,108.9-39,150.8,4.3c38.5,39.8,40.8,108.4-6.2,152.2
			c0.7,0.5,1.2,0.9,1.9,1.3c47.6,24.5,75.8,64.2,89.7,114.9c5.2,19,7.2,38.5,7.5,58.1c0.2,13.4-8.8,22.8-22.2,22.8
			c-98.9,0-197.8,0-296.6,0c-12.1,0-21.6-8.6-21.7-20.1c-0.2-47.5,11.4-91.4,40.8-129.5c14.6-19,32.6-33.9,53.9-45
			C597.5,529.4,598.8,528.7,600.4,527.8z M797.9,681.9c-0.2-2.5-0.2-4.5-0.5-6.4c-2.8-18.7-8-36.6-16.7-53.4
			c-34.7-66.8-109.5-82.3-164.5-54.1c-34.1,17.5-54.2,46.5-64.8,82.6c-2.9,10.1-4.6,20.5-6.9,31.3
			C629.6,681.9,713.4,681.9,797.9,681.9z M671.5,384.5c-35,0-63.6,28.7-63.6,63.9c0,36.1,28.9,63.7,66.3,63.6
			c32.6-0.1,61.5-30.2,61.3-63.9C735.4,413.2,706.5,384.5,671.5,384.5z"/>
		<path class="st0" d="M203.4,203.3c0,1.8,0,3.5,0,5.3c0,221.5,0,443.1,0.1,664.6c0,12.4-9,21.8-21,21.9c-12.2,0.1-21.3-9.3-21.3-22
			c0-221.4,0-442.8,0-664.1c0-1.9,0-3.8,0-6.9c-2.1,2-3.4,3.2-4.7,4.4C121,242,85.5,277.5,50,313c-9.7,9.7-22.6,10.4-31.5,1.7
			c-7.8-7.6-8.7-19.5-2.2-28.1c1.1-1.5,2.4-2.8,3.6-4.1c48.8-48.9,97.7-97.9,146.5-146.8c9-9,22.6-8.9,31.6,0.1
			c48.7,48.8,97.5,97.6,146.2,146.4c10.1,10.2,11,22.8,2.3,31.9c-7.7,8-19.8,8.9-28.5,2.1c-1.7-1.3-3.2-2.9-4.7-4.4
			c-35-35-70-70-105.1-105.1c-1.3-1.3-2.4-2.7-3.6-4.1C204.3,202.9,203.9,203.1,203.4,203.3z"/>
	</g>
</g>
</svg>
