<?xml version="1.0" encoding="utf-8"?>
<!-- Generator: Adobe Illustrator 24.1.0, SVG Export Plug-In . SVG Version: 6.00 Build 0)  -->
<svg version="1.1" xmlns="http://www.w3.org/2000/svg" xmlns:xlink="http://www.w3.org/1999/xlink" x="0px" y="0px"
	 viewBox="0 0 1024 1024" style="enable-background:new 0 0 1024 1024;" xml:space="preserve">
<style type="text/css">
	.st0{fill:#5F5E5E;}
	.st1{fill-rule:evenodd;clip-rule:evenodd;fill:#5F5E5E;}
	.st2{fill:#004E7C;}
</style>
<g id="Layer_2">
</g>
<g id="Layer_1">
	<g>
		<path class="st0" d="M958.3,1011.9c-297.5,0-595,0-892.6,0c-1.2-0.4-2.3-0.9-3.5-1.2c-24.5-5.8-40.5-20.7-47.9-44.7
			c-0.9-2.9-1.5-5.9-2.3-8.8c0-296.9,0-593.7,0-890.6c0.3-1,0.8-2.1,1-3.1C18.1,34,44.1,12,73.6,12c292.3,0,584.6,0,876.9,0
			c33.6,0,61.5,28,61.5,61.7c0,292.1,0,584.3,0,876.4c0,23-10.5,40.8-29.9,52.6C974.9,1007,966.3,1008.9,958.3,1011.9z M53.8,511.4
			c0,144.7,0,289.3,0,434c0,2.9,0,5.9,0.6,8.7c2.4,10.2,10.6,15.9,22.6,15.9c290,0,580,0,870,0c1.1,0,2.3,0,3.4,0
			c6.8-0.3,12.1-3.4,16.1-8.8c3.6-4.9,3.9-10.5,3.9-16.3c0-288.7,0-577.4,0-866.1c0-1.6,0-3.3-0.1-4.9c-1-12.4-9.4-20.2-21.8-20.2
			c-291,0-582,0-872.9,0c-2.3,0-4.6,0.2-6.7,0.8C59,57.4,53.8,65.3,53.8,77.4C53.8,222.1,53.8,366.7,53.8,511.4z"/>
		<path class="st0" d="M515.4,428.9c-77.5,0-154.9,0-232.4,0c-68.6,0-128.2-48-142.9-114.9c-17.4-79.3,34-158.4,113.3-174.1
			c9.2-1.8,18.7-2.8,28-2.8c153.6-0.2,307.2-0.1,460.8-0.1c70.6,0,131.9,52.3,142.9,122c12,76-34.6,147-109,165.3
			c-11.6,2.8-23.8,4.3-35.7,4.3c-75,0.4-150,0.2-225,0.2C515.4,428.8,515.4,428.9,515.4,428.9z M385.8,386.9c1.8,0,2.8,0,3.7,0
			c117.3,0,234.7,0,352-0.1c7.3,0,14.7-0.8,21.7-2.4c54.4-12.2,88.6-62.1,80.8-117.7c-6.7-48.5-51-87.8-99.8-87.9
			c-118-0.2-236-0.1-353.9,0c-1.3,0-2.7,0.2-4.5,0.4C441.1,234.2,444.9,327.7,385.8,386.9z M387,283c0-56.8-46.1-103.4-101.7-104.2
			c-58-0.8-106.5,45.7-106.3,104.3c0.2,55.6,44.1,103.4,104.5,103.8C340.4,387.2,387,340,387,283z"/>
		<path class="st0" d="M512.8,886.9c-77.1,0-154.3,0-231.4,0c-70.5,0-132.6-53.8-142.6-123.5c-11.5-79.9,39.7-151.3,119.3-166.1
			c8.3-1.5,16.8-2.2,25.2-2.2c144-0.1,288-0.1,432-0.1c13.5,0,27-0.2,40.4,0.9c32.7,2.7,61,15.9,84.9,38.1
			c24.8,23,40.3,51.4,44.9,84.8c6.7,48.5-6.8,91-41.8,125.8c-28.2,28.1-62.6,42.1-102.6,42.1C665.1,887,589,886.9,512.8,886.9z
			 M638.6,845.1c-28.4-29.7-43.1-63.9-43.1-104c0-40.3,14.9-74.6,43.3-104.2c-2.9,0-4.8,0-6.7,0c-115.4,0-230.7,0-346.1,0
			c-5.2,0-10.4,0.3-15.6,0.8c-48.3,5.1-88,46.5-91.3,95.2c-4.2,61.2,43.2,112.1,104.4,112.1c116,0,232,0,348.1,0
			C633.5,845.1,635.4,845.1,638.6,845.1z M845.2,741.4c0.5-54.2-42.7-103.5-103.4-104.3c-56.5-0.7-104,46-104.7,101.3
			c-0.8,61.1,48,105.2,100.3,106.7C798.2,846.8,845.4,797.9,845.2,741.4z"/>
	</g>
</g>
</svg>
