<?xml version="1.0" encoding="utf-8"?>
<!-- Generator: Adobe Illustrator 24.1.0, SVG Export Plug-In . SVG Version: 6.00 Build 0)  -->
<svg version="1.1" xmlns="http://www.w3.org/2000/svg" xmlns:xlink="http://www.w3.org/1999/xlink" x="0px" y="0px"
	 viewBox="0 0 1024 1024" style="enable-background:new 0 0 1024 1024;" xml:space="preserve">
<style type="text/css">
	.st0{fill:#5F5E5E;}
	.st1{fill-rule:evenodd;clip-rule:evenodd;fill:#5F5E5E;}
	.st2{fill:#004E7C;}
</style>
<g id="Layer_2">
</g>
<g id="Layer_1">
	<g>
		<path class="st0" d="M12,127.8c2.2-6.4,3.7-13.1,6.8-19.1c11.6-22.3,30.3-34,55.3-34.4c28.1-0.5,56.3-0.2,84.4-0.1
			c33.9,0.1,61.6,28,61.6,62c0,28.3,0,56.6,0,85c0,33.7-27.7,61.5-61.5,61.5c-27.8,0-55.6,0-83.4,0c-31.3,0-56-20.4-62.3-51.2
			c-0.1-0.7-0.6-1.4-0.9-2.1C12,195.6,12,161.7,12,127.8z M53.8,178.1c0,13.7-0.1,27.4,0.1,41c0,3,0.4,6.3,1.6,9
			c4,9.4,11.7,13,21.5,13c25.5,0,51.1,0,76.6,0c17,0,25.2-8.1,25.2-25.1c0-24.9,0-49.8,0-74.8c0-1.9-0.1-3.9-0.3-5.8
			c-1.4-11.9-9.6-19.4-21.6-19.4c-27.2,0-54.3,0-81.5,0c-12.7,0-21.4,8.8-21.5,21.5C53.8,151.1,53.8,164.6,53.8,178.1z"/>
		<path class="st0" d="M12,462.1c1.2-4.2,2-8.5,3.6-12.5c10.1-25.7,29-40.5,56.6-41.4c30.4-1,60.9-0.9,91.2,0.3
			c31.6,1.2,56.7,29.2,56.7,61c0,28.3,0,56.7,0,85c0,33.6-27.1,61.5-60.7,62c-28.8,0.4-57.6,0.3-86.4,0c-29.2-0.3-54.1-21.5-60-50.6
			c-0.2-1.1-0.7-2.1-1-3.1C12,529.2,12,495.6,12,462.1z M53.8,512c0,13.7,0,27.4,0,41c0,12.7,8.7,21.5,21.4,21.6
			c27.3,0.1,54.7,0.1,82,0c9.6,0,17.4-5.3,20.1-14.1c1.1-3.5,1.4-7.4,1.4-11.1c0.1-24.9,0.1-49.8,0-74.8c0-1.9-0.1-3.9-0.3-5.8
			c-1.4-11.6-9.6-19.2-21.4-19.3c-27.3-0.2-54.7-0.2-82,0c-12.7,0.1-21.2,9.1-21.3,21.8C53.8,484.9,53.8,498.4,53.8,512z"/>
		<path class="st0" d="M12,795.3c3-8,4.9-16.6,9.3-23.8c11.8-19.5,29.7-29.7,52.6-29.9c28.1-0.2,56.3-0.1,84.4-0.1
			c34.1,0,61.8,27.7,61.8,61.7c0,28.3,0,56.7,0,85c0,33.8-27.7,61.5-61.4,61.6c-28.1,0.1-56.3,0-84.4,0c-30.3,0-55.8-21.4-61.3-51.3
			c-0.2-0.9-0.6-1.8-0.9-2.7C12,862.5,12,828.9,12,795.3z M53.8,845.7c0,13.7,0,27.4,0,41c0.1,12.5,8.5,21.4,21,21.4
			c27.5,0.1,55,0.1,82.5,0c9.8,0,17.7-5.8,20.2-14.6c0.8-2.8,1.2-5.8,1.2-8.7c0.1-26.2,0.1-52.4,0-78.7c0-1.8-0.3-3.6-0.5-5.3
			c-1.6-9.8-9-16.7-18.8-17.4c-5.2-0.4-10.4-0.4-15.6-0.4c-23.1,0-46.2-0.3-69.3,0.3c-13.3,0.3-20.7,8.9-20.7,22.2
			C53.8,819,53.8,832.3,53.8,845.7z"/>
		<path class="st0" d="M679,824.8c103.5,0,207,0,310.4,0c13.3,0,22.5,8.7,22.5,21.1c0,11-8.4,19.9-19.3,20.7c-1.1,0.1-2.3,0-3.4,0
			c-207,0-413.9,0-620.9,0c-12.1,0-20.4-6.2-22.5-16.7c-2.6-12.6,6.5-24.4,19.4-25.1c1.5-0.1,2.9,0,4.4,0
			C472.6,824.8,575.8,824.8,679,824.8z"/>
		<path class="st0" d="M678.4,491.4c104.1,0,208.2,0,312.4,0c10.7,0,19.3,7.2,21,17.4c1.6,9.8-3.9,19.6-13.4,22.9
			c-3,1-6.4,1.2-9.6,1.2c-154.7,0.1-309.4,0-464.2,0c-52.5,0-105.1,0-157.6,0c-16.9,0-27.1-16.8-19-31c4.1-7.3,10.6-10.5,19-10.5
			C470.8,491.4,574.6,491.4,678.4,491.4z"/>
		<path class="st0" d="M677.9,199.3c-103.6,0-207.3,0-310.9,0c-14.7,0-24.4-12.1-21-26c2-8.1,8.8-14.2,17.1-15.3
			c1.9-0.3,3.9-0.3,5.8-0.3c206.5,0,412.9,0,619.4,0c11.5,0,19.2,4.7,22.4,13.7c5,13.8-4.9,27.9-19.9,28c-50.4,0.1-100.9,0-151.3,0
			C785.6,199.3,731.7,199.3,677.9,199.3z"/>
	</g>
</g>
</svg>
