<?xml version="1.0" encoding="utf-8"?>
<!-- Generator: Adobe Illustrator 24.1.0, SVG Export Plug-In . SVG Version: 6.00 Build 0)  -->
<svg version="1.1" xmlns="http://www.w3.org/2000/svg" xmlns:xlink="http://www.w3.org/1999/xlink" x="0px" y="0px"
	 viewBox="0 0 1024 1024" style="enable-background:new 0 0 1024 1024;" xml:space="preserve">
<style type="text/css">
	.st0{fill:#5F5E5E;}
	.st1{fill-rule:evenodd;clip-rule:evenodd;fill:#5F5E5E;}
	.st2{fill:#E30613;}
</style>
<g id="Layer_2">
</g>
<g id="Layer_1">
	<g>
		<path class="st0" d="M638.2,1012h-252c-32.5,0-58.9-26.4-58.9-58.9V449c0-32.5,26.4-58.9,58.9-58.9h252
			c32.5,0,58.9,26.4,58.9,58.9v504.1C697.2,985.6,670.7,1012,638.2,1012z M386.2,423.9c-13.8,0-25.1,11.3-25.1,25.1v504.1
			c0,13.8,11.3,25.1,25.1,25.1h252c13.8,0,25.1-11.3,25.1-25.1V449c0-13.8-11.3-25.1-25.1-25.1H386.2z M512.2,675.9
			c-55.6,0-100.9-45.3-100.9-100.9s45.3-100.9,100.9-100.9S613.1,519.4,613.1,575S567.9,675.9,512.2,675.9z M512.2,507.9
			c-37,0-67.1,30.1-67.1,67.1c0,37,30.1,67.1,67.1,67.1s67.1-30.1,67.1-67.1C579.3,538,549.2,507.9,512.2,507.9z M660.9,359.2
			c-4.3,0-8.6-1.6-11.9-4.9c-36.8-36.4-85.4-56.4-136.8-56.4c-51.4,0-100,20-136.8,56.4c-6.6,6.5-17.3,6.5-23.8-0.1L292.3,295
			c-3.2-3.2-5-7.5-5-12c0-4.5,1.8-8.8,5-12C351,212.4,429.1,180,512.2,180s161.2,32.3,219.9,91.1c3.2,3.2,5,7.5,5,12
			c0,4.5-1.8,8.8-5,12l-59.2,59.2C669.6,357.5,665.2,359.2,660.9,359.2z M328.5,283.4l35.5,35.5c41.4-35.5,93.4-54.8,148.2-54.8
			c54.8,0,106.8,19.4,148.2,54.8l35.5-35.5c-50.7-45-115.3-69.6-183.7-69.6S379.2,238.4,328.5,283.4z M779.4,240.7
			C779.4,240.7,779.4,240.7,779.4,240.7c-4.5,0-8.8-1.8-12-5c-33-33.2-71.5-59.3-114.5-77.5c-44.5-18.9-91.8-28.4-140.7-28.4
			c-96.4,0-187.2,37.5-255.7,105.6c-6.6,6.6-17.3,6.6-23.9,0l-59.2-59.2c-3.2-3.2-5-7.5-5-12c0-4.5,1.8-8.8,5-12
			c44-44,95.2-78.5,152.2-102.6C384.7,24.7,447.5,12,512.2,12c64.8,0,127.5,12.7,186.5,37.7c57.1,24.2,108.2,58.9,151.9,103
			c6.5,6.6,6.5,17.3-0.1,23.9l-59.2,59.2C788.2,239,783.9,240.7,779.4,240.7z M512.2,96c53.4,0,105.2,10.5,153.9,31.1
			c41.8,17.7,79.8,42.3,113.1,73l35.4-35.4c-37.8-35.5-81.2-63.7-129-83.9c-54.8-23.2-113.1-35-173.3-35
			c-60.2,0-118.5,11.8-173.4,35c-47.8,20.2-91.3,48.3-129.3,83.6l35.4,35.4c33.5-30.6,71.6-55.1,113.4-72.7
			C407.1,106.5,458.9,96,512.2,96z"/>
	</g>
</g>
</svg>
