<?xml version="1.0" encoding="utf-8"?>
<!-- Generator: Adobe Illustrator 24.1.0, SVG Export Plug-In . SVG Version: 6.00 Build 0)  -->
<svg version="1.1" xmlns="http://www.w3.org/2000/svg" xmlns:xlink="http://www.w3.org/1999/xlink" x="0px" y="0px"
	 viewBox="0 0 1024 1024" style="enable-background:new 0 0 1024 1024;" xml:space="preserve">
<style type="text/css">
	.st0{fill:#5F5E5E;}
	.st1{fill-rule:evenodd;clip-rule:evenodd;fill:#5F5E5E;}
	.st2{fill:#004E7C;}
</style>
<g id="Layer_2">
</g>
<g id="Layer_1">
	<g>
		<path class="st0" d="M12,398.8c1.4-4.4,2.5-9,4.1-13.3c9.3-24.3,32.4-40.2,58.6-40.2c55-0.1,110,0,165,0
			c13.2,0,22.4,8.9,22.3,21.3c-0.1,12.1-9.4,20.5-22.5,20.5c-54,0-108.1,0-162.1,0c-15.3,0-23.6,8.3-23.6,23.4
			c0,178.8,0,357.7,0,536.5c0,15,8.2,23.2,23.2,23.2c178.8,0,357.7,0,536.5,0c15.1,0,23.4-8.4,23.4-23.6c0-165.2,0-330.3,0-495.5
			c0-14.5,10.8-24.2,24.5-22c9.6,1.5,16.7,9.8,17.3,20.2c0.1,1.6,0,3.3,0,4.9c0,163.7,0,327.4,0,491.1c0,35.3-18.9,58.7-53.3,66.1
			c-0.4,0.1-0.8,0.5-1.2,0.7c-186.2,0-372.4,0-558.6,0c-1.2-0.4-2.3-0.9-3.5-1.2c-22.7-5.3-38.4-18.7-46.7-40.6
			c-1.5-3.9-2.4-8-3.5-12C12,771.8,12,585.3,12,398.8z"/>
		<path class="st0" d="M761.9,387.1c-2.2,0-3.8,0-5.4,0c-69.5,0-139-0.1-208.4,0.1c-17.4,0-34.8,1.1-51.7,5.9c-3.4,1-6.7,2.3-10,3.7
			c-9.6,4.2-14.5,11.8-15.4,22c-0.6,7-0.8,14-0.8,20.9c-0.1,30.8,0,61.5,0,92.3c0,10-4.8,17.4-13.4,20.5c-8.8,3.2-17.9,0.8-24-7.1
			c-36.6-48-61.7-101.2-65.8-162.1c-3.9-58.8,6.5-115.2,38.4-165.9c33.4-53.2,82.6-79.6,145.2-80.1c68.3-0.6,136.7-0.1,205-0.1
			c1.9,0,3.8,0,6.4,0c0-2.1,0-3.8,0-5.5c0-32.4,0-64.8,0-97.1c0-10.4,4.8-17.9,13.4-21.1c8.6-3.2,17.2-0.8,24.1,6.9
			c68,74.8,136.1,149.7,204.2,224.5c6.3,7,10.4,14.4,7.1,23.8c-1.2,3.5-3.6,6.9-6.2,9.7c-47.3,52.2-94.7,104.2-142.1,156.3
			c-21.2,23.3-42.4,46.7-63.6,70c-5.7,6.3-12.7,8.9-21.1,6.9c-8.1-2-13.3-7.3-15.3-15.4c-0.5-2-0.5-4.2-0.6-6.3
			c0-32.2,0-64.4,0-96.7C761.9,391.3,761.9,389.6,761.9,387.1z M804.9,88.4c-0.4,0.1-0.7,0.3-1.1,0.4c0,1.7,0,3.5,0,5.2
			c0,20,0,40,0,60c0,16.8-8.1,24.9-24.8,24.9c-75.8,0-151.6-0.1-227.5,0.1c-50.5,0.1-89.9,21.6-113.8,66
			c-36.3,67.3-40.3,137.4-10.8,208.6c0.3,0.6,0.8,1.1,1.8,2.5c0-11.6-0.1-22.2,0-32.7c0.3-32.9,16.8-56.3,47.6-67.7
			c23.1-8.6,47.3-10.1,71.6-10.2c77.3-0.3,154.6-0.1,231.9-0.1c15.5,0,23.9,8.4,23.9,23.8c0,20.5,0,41,0,61.5c0,1.7,0.1,3.4,0.3,6.2
			c53.4-58.7,106-116.6,158.8-174.6C909.8,203.8,857.4,146.1,804.9,88.4z"/>
	</g>
</g>
</svg>
