<?xml version="1.0" encoding="utf-8"?>
<!-- Generator: Adobe Illustrator 24.1.0, SVG Export Plug-In . SVG Version: 6.00 Build 0)  -->
<svg version="1.1" xmlns="http://www.w3.org/2000/svg" xmlns:xlink="http://www.w3.org/1999/xlink" x="0px" y="0px"
	 viewBox="0 0 1024 1024" style="enable-background:new 0 0 1024 1024;" xml:space="preserve">
<style type="text/css">
	.st0{fill:#5F5E5E;}
	.st1{fill-rule:evenodd;clip-rule:evenodd;fill:#5F5E5E;}
	.st2{fill:#004E7C;}
</style>
<g id="Layer_2">
</g>
<g id="Layer_1">
	<g>
		<path class="st0" d="M487.2,887c-11.8-4.2-16.5-12.6-16.2-25.1c0.5-26.5,0.1-52.9,0.2-79.4c0-10.7,8.1-19.3,18.5-20.3
			c10.5-1.1,20.1,5.8,22.4,16.1c0.4,1.9,0.4,3.9,0.4,5.8c0,25.7-0.4,51.3,0.2,77c0.3,12.6-4,21.3-15.8,26
			C493.7,887,490.4,887,487.2,887z"/>
		<path class="st0" d="M471.1,54.8c-7.4,0-14.2,0.2-21,0c-10.9-0.3-19.7-8.3-20.5-18.5c-0.9-11.3,5.5-20.3,16.2-22.8
			c1.9-0.4,3.9-0.5,5.8-0.5c26.8,0,53.6,0,80.5,0c13,0,22.3,8.6,22.3,20.7c0.1,12.2-9.3,21-22.5,21.1c-6.2,0-12.3,0-18.9,0
			c0,27.8,0,55.3,0,83.5c47.8,2.4,94.3,12.3,139,30c44.7,17.7,85.4,42.3,121.8,73.1c17.4-17.5,34.6-34.7,52.2-52.2
			c-4.8-4.7-9.9-9.7-14.9-14.8c-9-9.1-9.5-22-1.1-30.5c8.2-8.4,21.2-8.5,30.1,0.4c20.6,20.3,41.1,40.8,61.4,61.4
			c9,9.2,8.8,22.1,0.1,30.5c-8.5,8.2-21.1,7.7-30.1-1.3c-5-5-9.9-10.2-14.6-15c-17.3,17.3-34.2,34.2-51,51
			c9.2,10.8,19.2,21.7,28.3,33.2c48.5,61.5,79.1,130.9,89.9,208.6c2.8,20.1,3.6,40.4,4.6,60.7c0.7,13.4-8,21.9-21.5,22.4
			c-1.3,0.1-2.6,0-3.9,0c-135.7,0-271.4,0-407.2,0c-2.4,0-4.9-0.1-7.3-0.4c-10-1.3-17.4-9.4-17.7-19.5c-0.2-7,0-14,0-21
			c0-127.3,0-254.6,0-381.9c0-37.1,0-74.1,0-111.2C471.1,59.8,471.1,57.7,471.1,54.8z M886,554c-7.4-200.2-178.9-367.2-373.1-373.4
			c0,124.4,0,248.8,0,373.4C637.4,554,761.5,554,886,554z"/>
		<path class="st0" d="M346.3,450.7c-6-0.6-11-2.8-15.1-6.8c-20.7-20.7-41.4-41.3-62-62c-8.4-8.4-8.5-21-0.6-29.4
			c7.8-8.3,20.6-9,29.3-0.8c11.5,10.8,22.4,22.1,33.6,33.2c9.5,9.5,19.2,18.9,28.6,28.6c10.7,11,8.9,27.2-3.8,33.9
			C353.2,449,349.6,449.6,346.3,450.7z"/>
		<path class="st0" d="M367.1,720c-0.2,6.7-2.6,11.9-6.9,16.2c-20.3,20.3-40.6,40.7-61,61c-8.9,8.8-21.8,9.1-30.1,0.8
			c-8.4-8.3-8.5-21.2,0.3-30.1c18.6-18.9,37.4-37.5,56.1-56.2c2.4-2.4,4.7-5,7.4-7.1c6.8-5.4,14.4-6.4,22.4-2.7
			C363.1,705.5,366.6,712.1,367.1,720z"/>
		<path class="st0" d="M615.5,721.3c1.3-9.2,5-15.6,12.7-19.4c7.8-3.9,15.4-2.8,22.4,2.4c1,0.8,2,1.7,2.9,2.6
			c20,20,39.9,40,59.9,59.9c6.4,6.4,9,13.9,6.2,22.6c-4.5,14.3-22.8,19.5-33.6,9c-21.7-21-42.9-42.5-64-64.1
			C618.8,731.1,617.7,725.7,615.5,721.3z"/>
		<path class="st0" d="M242.4,554.2c13.6,0,27.3,0,40.9,0c11.7,0,20.7,8.3,21.3,19.6c0.6,11.4-7.7,20.8-19.6,21.8
			c-4.7,0.4-9.4,0.2-14.1,0.2c-22.9,0-45.8,0.1-68.7,0c-13.9-0.1-22.8-8.9-22.4-22c0.3-10.7,9-19.4,19.7-19.6
			C213.8,554.1,228.1,554.2,242.4,554.2z"/>
		<path class="st0" d="M616.7,429.4c-0.2-6.1,2.1-11.1,6.3-15.3c20.5-20.6,41-41.2,61.7-61.6c8.9-8.8,21.8-8.7,30.1-0.2
			c8.2,8.4,8,21.2-0.8,30.1c-20.4,20.5-40.8,40.9-61.3,61.3c-6.7,6.7-15.6,8.4-23.7,4.6C621,444.5,616.9,438.1,616.7,429.4z"/>
	</g>
</g>
</svg>
