<?xml version="1.0" encoding="utf-8"?>
<!-- Generator: Adobe Illustrator 24.1.0, SVG Export Plug-In . SVG Version: 6.00 Build 0)  -->
<svg version="1.1" xmlns="http://www.w3.org/2000/svg" xmlns:xlink="http://www.w3.org/1999/xlink" x="0px" y="0px"
	 viewBox="0 0 1024 1024" style="enable-background:new 0 0 1024 1024;" xml:space="preserve">
<style type="text/css">
	.st0{fill:#5F5E5E;}
	.st1{fill-rule:evenodd;clip-rule:evenodd;fill:#5F5E5E;}
	.st2{fill:#004E7C;}
</style>
<g id="Layer_2">
</g>
<g id="Layer_1">
	<g>
		<path class="st0" d="M134.1,1012c-6.5-1.2-13.1-2.2-19.5-3.8c-37.9-9-67.5-30.1-89-62.5c-1.6-2.4-2.6-5.7-2.6-8.5
			c-0.2-28.8-0.1-57.6-0.1-86.3c0-1.6,0-3.2,0-5.3c34.7,0,69.1,0,104.2,0c0-2.7,0-4.9,0-7.1c0-148.1,0-296.2,0-444.3
			c0-49.6,40-89.5,89.5-89.5c53.3,0,106.7,0,160,0c9.3,0,16.9,5.4,19.8,13.8c3,8.6,0.1,17.8-7.2,23.6c-4.8,3.7-10.4,4.3-16.1,4.3
			c-50.6,0-101.1,0.7-151.7-0.3c-27.2-0.5-53.4,18.6-53.1,53.1c0.4,66.8,0.1,133.6,0.1,200.5c0,79.7,0,159.3,0,239
			c0,2.1,0,4.2,0,6.6c222.1,0,443.8,0,666.2,0c0-1.8,0-3.7,0-5.6c0-81,0-161.9,0-242.9c0-9,3.8-15.7,12-19.6
			c8-3.8,15.6-2.6,22.3,2.9c5.7,4.7,7.5,11.1,7.5,18.2c0,45.8,0,91.7,0,137.5c0,34.5,0,68.9,0,103.4c0,1.9,0,3.8,0,6.3
			c2.4,0,4.3,0,6.2,0c31.4,0,62.8,0,94.1,0c17.1,0,25.3,9.3,24.4,26.5c-2,38.5-16.3,71.6-43.8,98.6c-23.6,23.2-52.1,36.7-85,40.6
			c-0.9,0.1-1.7,0.6-2.6,0.9C624.5,1012,379.3,1012,134.1,1012z M46.1,887.3c0.1,1.3,0.2,2.1,0.3,2.9c10.4,46.1,52.9,80,100.3,80
			c236.2,0,472.4,0.1,708.7-0.1c41.1,0,71.5-19.6,91.8-55c4.9-8.5,8.3-17.8,9.9-27.8C653.3,887.3,349.9,887.3,46.1,887.3z"/>
		<path class="st0" d="M727.9,12c133.1,1,248.3,97.7,269.2,228.4c14.3,89.3-9.4,168.3-71.6,234.3c-51.2,54.3-115,82.2-189.7,84.8
			c-49.2,1.7-95.3-9.7-138.5-33.1c-2.6-1.4-4.6-1.5-7.2-0.2c-46.7,22.3-93.5,44.6-140.2,66.9c-14.7,7-29.8-0.2-31.3-15.8
			c-0.5-4.8,1.4-10.3,3.5-14.8c21.7-46.1,43.7-92.1,65.7-138c1.4-3,1.3-5.2-0.2-8.1c-16.5-31.8-24.1-66-26.7-101.5
			c-2.7-37.1-0.7-73.9,10.8-109.4C505.1,102.9,574,39.3,680.1,17.3C695.7,14.1,712,13.7,727.9,12z M483.5,530.5c2.3-1,3.5-1.4,4.6-2
			c30.9-14.7,61.9-29.2,92.7-44.3c10.6-5.2,19.6-4.8,29.7,1.3c36,21.8,75.3,32.5,117.3,32.5c39.7,0,77-9.8,112-28.8
			c80.6-44,128.9-135.8,118.6-226.6c-6.4-56.5-29.5-105.1-71.2-144c-56.4-52.7-123.7-73.9-199.4-60c-88.6,16.4-146.1,70.7-175,155.4
			c-11.2,32.8-12.8,66.8-9.9,101.1c2.7,32.8,10.5,64,27.8,92.4c4.4,7.1,4.6,14.3,1,21.8c-11.7,24.5-23.3,48.9-35,73.4
			C492.5,511.6,488.2,520.5,483.5,530.5z"/>
		<path class="st0" d="M709.7,241.8c0-20.3,0-40.6,0-60.9c0-12.8,8.9-22.3,20.8-22.3c11.8,0,20.9,9.6,21,22.3
			c0.1,40.8,0.1,81.5,0,122.3c0,13-8.8,22-21,22c-12.2,0-20.8-9.1-20.8-22.1C709.7,282.7,709.7,262.2,709.7,241.8z"/>
		<path class="st0" d="M761.6,377.1c0,17.7-13.3,31.3-30.9,31.5c-17,0.3-31.4-13.9-31.6-31.1c-0.2-17,14-31.5,31.2-31.6
			C747.6,345.7,761.5,359.6,761.6,377.1z"/>
	</g>
</g>
</svg>
