<?xml version="1.0" encoding="utf-8"?>
<!-- Generator: Adobe Illustrator 24.1.0, SVG Export Plug-In . SVG Version: 6.00 Build 0)  -->
<svg version="1.1" xmlns="http://www.w3.org/2000/svg" xmlns:xlink="http://www.w3.org/1999/xlink" x="0px" y="0px"
	 viewBox="0 0 1024 1024" style="enable-background:new 0 0 1024 1024;" xml:space="preserve">
<style type="text/css">
	.st0{fill:#5F5E5E;}
	.st1{fill-rule:evenodd;clip-rule:evenodd;fill:#5F5E5E;}
	.st2{fill:#004E7C;}
</style>
<g id="Layer_2">
</g>
<g id="Layer_1">
	<g>
		<path class="st0" d="M704.2,1011.5c-128.1,0-256.3,0-384.4,0c-4.3-3.3-9.5-5.9-12.7-10c-4.8-6.3-4.4-13.8-0.8-20.8
			c4-7.6,10.8-11,19.3-11c17.2-0.1,34.5,0,51.7-0.1c1.8,0,4.3-1,5.1-2.4c19.6-32,35.4-65.7,42.5-102.9c1.2-6.3,1.8-12.6,2.8-19.5
			c-3.1,0-5.2,0-7.3,0c-115.3,0-230.6,0-345.8,0c-27.3,0-50.8-17.2-59.2-43.1c-1.1-3.5-2-7.1-3-10.7c0-241.6,0-483.3,0-724.9
			c0.3-0.7,0.8-1.4,0.9-2.1c6-30.9,31-51.5,62.5-51.5c290.9,0,581.8,0,872.8,0c35.3,0,62.9,27.5,62.9,62.7c0,235.8,0,471.5,0,707.3
			c0,34.9-27.6,62.4-62.6,62.4c-115.3,0-230.6,0-345.9,0c-2.1,0-4.1,0-7.1,0c1.5,9.1,2.6,17.4,4.4,25.6c7.3,34.3,22.2,65.3,40,95.2
			c1.8,3.1,3.8,4.1,7.3,4.1c17.1-0.2,34.1-0.2,51.2,0c9.8,0.1,17.6,5.8,20.3,14.6c2.8,8.7-0.2,18-7.8,23.3
			C709.2,1009.2,706.6,1010.2,704.2,1011.5z M54.2,678.3c305.6,0,610.4,0,915.5,0c0-2.3,0-4.2,0-6.1c0-198.2,0-396.4,0-594.6
			c0-15.4-8-23.4-23.4-23.4c-289.6,0-579.2,0-868.8,0c-15.4,0-23.4,7.9-23.4,23.4c0,198.2,0,396.4,0,594.6
			C54.2,674.2,54.2,676.1,54.2,678.3z M54.7,720.2c-0.2,0.9-0.4,1.4-0.4,1.8c0,20.6-0.2,41.3,0.1,61.9c0.1,7.8,4.2,13.9,11.3,16.9
			c4.3,1.8,9.4,2.6,14.2,2.6c126.8,0.1,253.7,0.1,380.5,0.1c41.1,0,82.3,0,123.4,0c119.8,0,239.7,0,359.5,0c2.1,0,4.2,0,6.3-0.2
			c13-1.3,20.2-9.3,20.3-22.2c0-18.7,0-37.4,0-56.1c0-1.6-0.2-3.1-0.3-4.8C664.4,720.2,359.7,720.2,54.7,720.2z M594.3,969.5
			c-2.6-5.2-5-9.6-7.2-14.1c-17-33.8-28.9-69.1-32.2-107c-0.3-3.5-2.1-3.7-4.8-3.7c-23.7,0.1-47.4,0-71.2,0c-8.9,0-9,0-10.1,9
			c-4.6,38-17,73.5-34.7,107.2c-1.4,2.7-2.7,5.4-4.3,8.5C484.8,969.5,539.2,969.5,594.3,969.5z"/>
		<path class="st0" d="M511.9,179c32.5-0.1,63.2,7.1,92.2,21.4c8,4,12.8,12.2,12.1,20.1c-0.8,9-6.3,16.1-14.8,18.7
			c-5.7,1.7-11.1,0.9-16.5-1.6c-53.3-24.6-106.4-23.8-156.8,6.3c-57.5,34.3-85.4,86.6-81.9,153.7c4.1,78.7,62.5,141.7,140.8,154.3
			c86.3,13.9,171.5-45.4,187.9-131.2c2.2-11.4,2.6-23.2,3.7-34.8c1.1-12.2,9.8-19.8,22.4-19.3c10.7,0.4,18.9,9.3,19,20.7
			c1.3,95.4-68,183-161.6,202.7c-74.7,15.7-140.5-2.8-194.6-56.8c-79.3-79.2-80.4-207.4-3.2-288.8
			C401.6,201.1,452.4,179.8,511.9,179z"/>
		<path class="st0" d="M513,420.7c1.2-1.8,2-3.7,3.4-5.1c62.3-62.4,124.6-124.6,186.9-187c5.9-5.9,12.4-9.3,20.9-7.6
			c15,3,21.8,20.3,12.8,32.7c-1.2,1.7-2.7,3.2-4.2,4.7c-67.9,68-135.9,135.9-203.8,203.8c-11,11-22.8,11-33.7,0.1
			c-26.7-26.7-53.4-53.3-80-80c-11.7-11.7-8.8-29.5,5.7-35.3c9.2-3.7,17.1-1.2,24,5.7c21,21,42.1,42.1,63.1,63.1
			C509.2,417.1,510.5,418.3,513,420.7z"/>
	</g>
</g>
</svg>
