<?xml version="1.0" encoding="utf-8"?>
<!-- Generator: Adobe Illustrator 24.1.0, SVG Export Plug-In . SVG Version: 6.00 Build 0)  -->
<svg version="1.1" xmlns="http://www.w3.org/2000/svg" xmlns:xlink="http://www.w3.org/1999/xlink" x="0px" y="0px"
	 viewBox="0 0 1024 1024" style="enable-background:new 0 0 1024 1024;" xml:space="preserve">
<style type="text/css">
	.st0{fill:#5F5E5E;}
	.st1{fill-rule:evenodd;clip-rule:evenodd;fill:#5F5E5E;}
	.st2{fill:#E30613;}
</style>
<g id="Layer_2">
</g>
<g id="Layer_1">
	<g>
		<path class="st0" d="M512,1012c-3.3,0-6.5-0.9-9.4-2.8L146,771.6c0,0-0.1-0.1-0.1-0.1c-28.8-19.6-46.1-52.1-46.1-86.9l0.4-567.9
			C100.3,59,147.1,12,204.6,12h614.8c57.8,0,104.7,47,104.7,104.7l-0.4,567.9c0,34.8-17.2,67.3-46.1,86.9c0,0-0.1,0.1-0.1,0.1
			l-356.2,237.6C518.5,1011.1,515.3,1012,512,1012z M164.8,743.5L512,974.8l346.7-231.3c19.5-13.3,31.2-35.3,31.2-58.9l0.4-567.9
			c0-39.1-31.8-70.9-70.9-70.9H204.6c-38.9,0-70.5,31.8-70.5,70.9l-0.4,567.9C133.7,708.2,145.3,730.2,164.8,743.5z M424.2,704.6
			c-4.5,0-8.8-1.8-12-5L192.6,480c-6.6-6.6-6.6-17.3,0-23.9l61.9-61.9c6.6-6.6,17.3-6.6,23.9,0l145.7,145.3l321.4-321.4
			c3.2-3.2,7.5-5,12-5c0,0,0,0,0,0c4.5,0,8.8,1.8,12,5l61.9,62.4c6.6,6.6,6.5,17.3,0,23.9L436.1,699.6
			C432.9,702.8,428.6,704.6,424.2,704.6z M228.5,468.1l195.7,195.7l371.4-371.4L757.5,254L436.1,575.3c-6.6,6.6-17.3,6.6-23.9,0
			L266.5,430.1L228.5,468.1z"/>
	</g>
</g>
</svg>
