<?xml version="1.0" encoding="utf-8"?>
<!-- Generator: Adobe Illustrator 24.1.0, SVG Export Plug-In . SVG Version: 6.00 Build 0)  -->
<svg version="1.1" xmlns="http://www.w3.org/2000/svg" xmlns:xlink="http://www.w3.org/1999/xlink" x="0px" y="0px"
	 viewBox="0 0 1024 1024" style="enable-background:new 0 0 1024 1024;" xml:space="preserve">
<style type="text/css">
	.st0{fill:#5F5E5E;}
	.st1{fill-rule:evenodd;clip-rule:evenodd;fill:#5F5E5E;}
	.st2{fill:#E30613;}
</style>
<g id="Layer_2">
</g>
<g id="Layer_1">
	<g>
		<g>
			<path class="st0" d="M887.7,1012H136.3C67.7,1012,12,956.3,12,887.7V673c0-9.3,7.6-16.9,16.9-16.9h107.4
				c9.3,0,16.9,7.6,16.9,16.9v197.8h717.7V153.2H153.2V351c0,9.3-7.6,16.9-16.9,16.9H28.9c-9.3,0-16.9-7.6-16.9-16.9V136.3
				C12,67.7,67.7,12,136.3,12h751.5c68.5,0,124.3,55.7,124.3,124.3v751.5C1012,956.3,956.3,1012,887.7,1012z M45.8,689.9v197.8
				c0,49.9,40.6,90.4,90.4,90.4h751.5c49.9,0,90.4-40.6,90.4-90.4V136.3c0-49.9-40.6-90.4-90.4-90.4H136.3
				c-49.9,0-90.4,40.6-90.4,90.4v197.8h73.5V136.3c0-9.3,7.6-16.9,16.9-16.9h751.5c9.3,0,16.9,7.6,16.9,16.9v751.5
				c0,9.3-7.6,16.9-16.9,16.9H136.3c-9.3,0-16.9-7.6-16.9-16.9V689.9H45.8z M485.2,797.3c-4.3,0-8.7-1.7-12-5l-75.7-75.7
				c-6.6-6.6-6.6-17.3,0-23.9l109.8-110.2H28.9c-9.3,0-16.9-7.6-16.9-16.9V458.3c0-9.3,7.6-16.9,16.9-16.9h478.3L397.5,331.2
				c-6.6-6.6-6.6-17.3,0-23.9l75.7-75.7c6.6-6.6,17.3-6.6,23.9,0L765.5,500c6.6,6.6,6.6,17.3,0,23.9L497.1,792.3
				C493.8,795.6,489.5,797.3,485.2,797.3z M433.4,704.7l51.8,51.8L729.6,512L485.2,267.5l-51.8,51.8l126.6,127.1
				c4.8,4.8,6.3,12.1,3.6,18.4c-2.6,6.3-8.8,10.4-15.6,10.4H45.8v73.5H548c6.8,0,13,4.1,15.6,10.4c2.6,6.3,1.2,13.6-3.6,18.4
				L433.4,704.7z"/>
		</g>
	</g>
</g>
</svg>
