<?xml version="1.0" encoding="utf-8"?>
<!-- Generator: Adobe Illustrator 24.1.0, SVG Export Plug-In . SVG Version: 6.00 Build 0)  -->
<svg version="1.1" xmlns="http://www.w3.org/2000/svg" xmlns:xlink="http://www.w3.org/1999/xlink" x="0px" y="0px"
	 viewBox="0 0 1024 1024" style="enable-background:new 0 0 1024 1024;" xml:space="preserve">
<style type="text/css">
	.st0{fill:#5F5E5E;}
	.st1{fill-rule:evenodd;clip-rule:evenodd;fill:#5F5E5E;}
	.st2{fill:#004E7C;}
</style>
<g id="Layer_2">
</g>
<g id="Layer_1">
	<g>
		<path class="st0" d="M893.4,52.1H130.6c-59.9,0-108.7,48.8-108.7,108.7v17.5c0,59.9,48.8,108.7,108.7,108.7h762.8
			c59.9,0,108.7-48.7,108.7-108.7v-17.5C1002.1,100.9,953.3,52.1,893.4,52.1z M960.1,178.4c0,36.8-29.9,66.7-66.7,66.7H130.6
			c-36.8,0-66.7-29.9-66.7-66.7v-17.5c0-36.8,29.9-66.7,66.7-66.7h762.8c36.8,0,66.7,29.9,66.7,66.7V178.4z"/>
		<path class="st0" d="M893.4,394.6H130.6c-59.9,0-108.7,48.8-108.7,108.7v17.5c0,59.9,48.8,108.7,108.7,108.7h762.8
			c59.9,0,108.7-48.7,108.7-108.7v-17.5C1002.1,443.3,953.3,394.6,893.4,394.6z M960.1,520.8c0,36.8-29.9,66.7-66.7,66.7H130.6
			c-36.8,0-66.7-29.9-66.7-66.7v-17.5c0-36.8,29.9-66.7,66.7-66.7h762.8c36.8,0,66.7,29.9,66.7,66.7V520.8z"/>
		<path class="st0" d="M893.4,737H130.6c-59.9,0-108.7,48.8-108.7,108.7v17.5c0,59.9,48.8,108.7,108.7,108.7h762.8
			c59.9,0,108.7-48.7,108.7-108.7v-17.5C1002.1,785.7,953.3,737,893.4,737z M960.1,863.2c0,36.8-29.9,66.7-66.7,66.7H130.6
			c-36.8,0-66.7-29.9-66.7-66.7v-17.5c0-36.8,29.9-66.7,66.7-66.7h762.8c36.8,0,66.7,29.9,66.7,66.7V863.2z"/>
	</g>
</g>
</svg>
