<?xml version="1.0" encoding="utf-8"?>
<!-- Generator: Adobe Illustrator 24.1.0, SVG Export Plug-In . SVG Version: 6.00 Build 0)  -->
<svg version="1.1" xmlns="http://www.w3.org/2000/svg" xmlns:xlink="http://www.w3.org/1999/xlink" x="0px" y="0px"
	 viewBox="0 0 1024 1024" style="enable-background:new 0 0 1024 1024;" xml:space="preserve">
<style type="text/css">
	.st0{fill:#5F5E5E;}
	.st1{fill-rule:evenodd;clip-rule:evenodd;fill:#5F5E5E;}
	.st2{fill:#E30613;}
</style>
<g id="Layer_2">
</g>
<g id="Layer_1">
	<g>
		<g>
			<path class="st0" d="M512,1012c-67.5,0-132.9-13.2-194.6-39.3c-59.5-25.2-113-61.3-158.9-107.2c-45.9-45.9-82-99.4-107.2-158.9
				C25.2,644.9,12,579.5,12,512s13.2-132.9,39.3-194.6c25.2-59.5,61.3-113,107.2-158.9c45.9-45.9,99.4-82,158.9-107.2
				C379.1,25.2,444.5,12,512,12s132.9,13.2,194.6,39.3c59.5,25.2,113,61.3,158.9,107.2c45.9,45.9,82,99.4,107.2,158.9
				c26.1,61.7,39.3,127.1,39.3,194.6s-13.2,132.9-39.3,194.6c-25.2,59.5-61.3,113-107.2,158.9c-45.9,45.9-99.4,82-158.9,107.2
				C644.9,998.8,579.5,1012,512,1012z M512,45.8c-62.9,0-123.9,12.3-181.4,36.6c-55.5,23.5-105.4,57.1-148.2,99.9
				c-42.8,42.8-76.5,92.7-99.9,148.2C58.1,388.1,45.8,449.1,45.8,512s12.3,123.9,36.6,181.4c23.5,55.5,57.1,105.4,99.9,148.2
				c42.8,42.8,92.7,76.5,148.2,99.9c57.5,24.3,118.5,36.6,181.4,36.6s123.9-12.3,181.4-36.6c55.5-23.5,105.4-57.1,148.2-99.9
				c42.8-42.8,76.5-92.7,99.9-148.2c24.3-57.5,36.6-118.5,36.6-181.4s-12.3-123.9-36.6-181.4c-23.5-55.5-57.1-105.4-99.9-148.2
				c-42.8-42.8-92.7-76.5-148.2-99.9C635.9,58.1,574.9,45.8,512,45.8z M512,915.4c-222.4,0-403.4-181-403.4-403.4
				s181-403.4,403.4-403.4s403.4,181,403.4,403.4S734.4,915.4,512,915.4z M512,142.4c-203.8,0-369.6,165.8-369.6,369.6
				S308.2,881.6,512,881.6S881.6,715.8,881.6,512S715.8,142.4,512,142.4z M656.9,722.1h-96.6c-9.3,0-16.9-7.6-16.9-16.9V318.8
				c0-9.3,7.6-16.9,16.9-16.9h96.6c9.3,0,16.9,7.6,16.9,16.9v386.5C673.8,714.6,666.3,722.1,656.9,722.1z M577.2,688.3H640V335.7
				h-62.8V688.3z M463.7,722.1h-96.6c-9.3,0-16.9-7.6-16.9-16.9V318.8c0-9.3,7.6-16.9,16.9-16.9h96.6c9.3,0,16.9,7.6,16.9,16.9
				v386.5C480.6,714.6,473,722.1,463.7,722.1z M384,688.3h62.8V335.7H384V688.3z"/>
		</g>
	</g>
</g>
</svg>
