<?xml version="1.0" encoding="utf-8"?>
<!-- Generator: Adobe Illustrator 24.1.0, SVG Export Plug-In . SVG Version: 6.00 Build 0)  -->
<svg version="1.1" xmlns="http://www.w3.org/2000/svg" xmlns:xlink="http://www.w3.org/1999/xlink" x="0px" y="0px"
	 viewBox="0 0 1024 1024" style="enable-background:new 0 0 1024 1024;" xml:space="preserve">
<style type="text/css">
	.st0{fill:#5F5E5E;}
	.st1{fill-rule:evenodd;clip-rule:evenodd;fill:#5F5E5E;}
	.st2{fill:#004E7C;}
</style>
<g id="Layer_2">
</g>
<g id="Layer_1">
	<g>
		<g>
			<g>
				<path class="st0" d="M422.9,481.9h16.2v16.2h16.2v16.2h-81.1v-16.2h16.2v-32.4h32.4L422.9,481.9
					C422.9,481.9,422.9,481.9,422.9,481.9z M633.6,627.8h16.2v-16.2h-16.2V627.8z M439.1,481.9h16.2v-16.2h-16.2V481.9z M666,627.8
					h16.2v-16.2H666V627.8z M471.5,644h32.4v-16.2h-32.4C471.5,627.8,471.5,644,471.5,644z M617.4,644v-16.2h-16.2V644H617.4z
					 M552.5,644h16.2v-32.4h-16.2V644z M422.9,433.3v16.2h48.6v-16.2H422.9z M406.7,449.5v-16.2h-32.4v32.4h16.2v-16.2
					C390.4,449.5,406.7,449.5,406.7,449.5z M455.3,417.1H341.8V303.6h113.5V417.1z M439.1,319.8H358v81h81.1V319.8z M374.2,611.6
					h48.6V563h-48.6V611.6z M536.3,595.4v16.2h16.2v-16.2H536.3z M422.9,336h-48.6v48.6h48.6C422.9,384.7,422.9,336,422.9,336z
					 M682.2,303.6v113.5H568.7V303.6H682.2z M666,319.8h-81v81h81C666,400.9,666,319.8,666,319.8z M341.8,530.5h113.5V644H341.8
					V530.5z M358,627.8h81.1v-81.1H358V627.8z M358,433.3h-16.2v81.1H358V433.3z M568.7,514.3v16.2h16.2v-16.2H568.7z M520.1,579.2
					V563h-16.2v16.2h-32.4v32.4h32.4v16.2h16.2v-32.4h16.2v-16.2L520.1,579.2L520.1,579.2z M471.5,368.5h32.4v-16.2h-32.4
					C471.5,352.2,471.5,368.5,471.5,368.5z M601.2,498.1h32.5v16.2h16.2v-48.6h-16.2v-32.4h-16.2v48.6h-48.6v16.2H585v16.2h16.2
					L601.2,498.1L601.2,498.1L601.2,498.1z M617.4,546.7h-16.2v-16.2h-16.2V563h-48.6v16.2h32.5v32.4H585v16.2h16.2v-32.4H666v-16.2
					h-48.6L617.4,546.7L617.4,546.7z M617.4,546.7h16.2v-32.4h-16.2V546.7z M487.7,546.7v-16.2h16.2v-16.2h16.2v-16.2h16.2v-32.4
					h48.6v-32.4h-16.2v16.2h-16.2v-64.8h-16.2v-32.4h16.2v-48.6h-16.2V336h-16.2v-32.4h-48.6V336h16.2v-16.2h16.2v32.4h16.2v48.6
					h16.2v16.2h-16.2v32.4h-16.2v-32.4h-16.2v-16.2h-16.2v32.4h16.2v16.2h-16.2v48.6h16.2v-32.4h16.2v32.4h-16.2v16.2h-16.2V563
					h32.4v-16.2H487.7z M666,563v-16.2h-32.4V563H666z M649.8,336h-48.6v48.6h48.6V336z M520.1,546.7h32.5v-16.2h-16.2v-16.2h-16.2
					L520.1,546.7L520.1,546.7z M552.5,514.3v-16.2h-16.2v16.2H552.5z M649.8,449.5h32.4v-16.2h-32.4V449.5z M666,579.2h16.2V563H666
					V579.2z M666,481.9h16.2v-16.2H666V481.9z M520.1,400.9h-16.2v16.2h16.2V400.9z"/>
			</g>
		</g>
		<path class="st0" d="M487,883.3c0-13.5,11.3-24.9,24.9-24.9c13.5,0,24.9,11.4,24.9,24.9c0,13.5-11.5,24.9-24.9,24.9
			C498.4,908.3,487,896.8,487,883.3z"/>
		<path class="st0" d="M854.8,772.8c0.1-204.2,0.1-408.3,0-612.5c0-3.1-0.1-6.1-0.3-9.1c-0.4-9.9-1.8-19.7-4.2-29.2
			c-9.2-37.9-32.1-68.9-64.6-88.4C773,25.8,759,19.8,744.1,16.2c-5.9-1.4-11.9-2.8-17.8-4.2c-0.3,0-0.6,0-0.9,0
			c-142.3,0-284.6,0-426.9,0c-0.3,0-0.6,0-0.9,0c-5.9,1.4-11.9,2.8-17.8,4.2c-14.9,3.6-28.8,9.6-41.4,17.5
			c-32.5,19.5-55.4,50.6-64.6,88.4c-2.4,9.5-3.8,19.2-4.2,29.2c-0.2,3-0.3,6-0.3,9.1c-0.1,204.2-0.1,408.3,0,612.5
			c-0.1,23.7-0.1,47.5,0,71.2c0,6.4,0,12.9,0,19.3c0,71.4,44.4,127.2,108.9,143.6c2.7,0.7,5.4,1.4,8.1,1.9
			c5.3,1.1,10.8,1.8,16.3,2.3c5.1,0.5,10.3,0.7,15.5,0.7c64.6,0,129.3,0.1,193.9,0c64.6,0,129.3,0,193.9,0c5.3,0,10.5-0.3,15.5-0.7
			c5.5-0.5,11-1.2,16.3-2.3c2.7-0.6,5.4-1.2,8.1-1.9c64.4-16.4,108.8-72.3,108.9-143.6c0-6.4,0-12.9,0-19.3
			C854.8,820.3,854.8,796.6,854.8,772.8z M804.6,728.7c-0.1,45.2,0.7,90.5-0.5,135.7c-0.4,14.2-3.1,29.6-9.1,42.3
			c-7.8,16.7-18.3,29.4-31.2,38.3c-0.3,0.2-0.6,0.4-0.8,0.6c-0.8,0.5-1.6,1-2.4,1.5c-14,8.6-30.6,13.7-49.1,14.5
			c-5.1,0.2-10.2,0.3-15.4,0.4c-15.4,0-30.7,0-46.1,0c-3.6,0-7.2,0-10.8,0c-24.7,0-49.4,0-74,0c-17.7,0-35.5,0-53.2,0
			c-17.7,0-35.5,0-53.2,0c-24.7,0-49.4,0-74,0c-3.6,0-7.2,0-10.8,0c-15.4,0-30.7,0-46.1,0c-5.1-0.1-10.3-0.2-15.4-0.4
			c-18.5-0.8-35.1-5.9-49.1-14.5c-0.8-0.5-1.6-1-2.4-1.5c-0.3-0.2-0.6-0.4-0.8-0.6c-12.8-9-23.3-21.6-31.2-38.3
			c-6-12.8-8.7-28.1-9.1-42.3c-1.1-45.2-0.3-90.5-0.5-135.7c0-2.3-0.2-4.5-0.6-6.6c-0.1-187.3,0-374.6,0.4-561.9
			c0-0.7,0-1.5,0.1-2.2c0.1-0.9,0.2-1.8,0.2-2.8c0.3-6.3,1.1-12.4,2.4-18.3c0.2-0.7,0.3-1.3,0.5-2c0.2-0.7,0.4-1.5,0.5-2.2
			c1.4-5.2,3.2-10.2,5.3-14.9c3.1-6.8,6.7-12.9,10.7-18.3c16.4-21.8,42.1-35.7,72.7-37.2c6.4-0.3,12.9-0.4,19.3-0.5
			c5.7,0,11.4,0,17.1,0c4.5,0,9,0.1,13.4,0.1c39.7,0,79.4,0,119.1,0c10.5,0,21,0,31.5,0c10.5,0,21,0,31.5,0c39.7,0,79.4,0,119.1,0
			c4.5,0,9,0,13.4-0.1c5.7,0,11.4,0,17.1,0c6.4,0,12.9,0.1,19.3,0.5c30.6,1.5,56.2,15.4,72.7,37.2c4,5.5,7.6,11.6,10.7,18.3
			c2.2,4.7,3.9,9.7,5.3,14.9c0.2,0.7,0.4,1.5,0.5,2.2c0.2,0.7,0.3,1.3,0.5,2c1.3,5.9,2.1,12,2.4,18.3c0,1,0.1,1.9,0.2,2.8
			c0,0.7,0.1,1.5,0.1,2.2c0.4,187.3,0.5,374.6,0.4,561.9C804.8,724.2,804.6,726.4,804.6,728.7z"/>
		<path class="st0" d="M770.6,143.7c-2-10-9.9-17.3-20-18.6c-2.4-0.3-4.8-0.5-7.2-0.5c-0.5,0-1,0-1.5,0c-0.6,0-1.2,0-1.7,0
			c-1.2,0-2.5,0-3.7,0c-74.8,0-149.5,0-224.3,0c-74.8,0-149.5,0-224.3,0c-1.2,0-2.5,0-3.7,0c-0.6,0-1.2,0-1.7,0c-0.5,0-1,0-1.5,0
			c-2.4,0.1-4.9,0.2-7.2,0.5c-10.2,1.3-18,8.6-20,18.6c-0.9,4.4-1,9-1,13.6c0,210.9,0,421.8,0,632.6c0,4.2,0.1,8.5,0.8,12.6
			c0.3,1.6,0.6,3,1.1,4.4c0.6,1.8,1.4,3.5,2.4,5c0.1,0.2,0.2,0.4,0.4,0.5c0.2,0.2,0.3,0.5,0.5,0.7c3.9,5.4,10,8.8,17.4,9.6
			c0.4,0,0.8,0,1.2,0.1c0.1,0,0.3,0,0.4,0c0.6,0,1.2,0.1,1.8,0.1c0.9,0,1.8,0.1,2.6,0.1c1.8,0,3.5,0,5.3,0c75.2,0,150.5,0,225.7,0
			c75.2,0,150.5,0,225.7,0c1.8,0,3.5,0,5.3,0c0.9,0,1.8-0.1,2.6-0.1c0.6,0,1.2,0,1.8-0.1c0.1,0,0.3,0,0.4,0c0.4,0,0.8,0,1.2-0.1
			c7.4-0.8,13.5-4.2,17.4-9.6c0.2-0.2,0.3-0.5,0.5-0.7c0.1-0.2,0.2-0.4,0.4-0.5c1-1.5,1.8-3.2,2.4-5c0.5-1.4,0.9-2.9,1.1-4.4
			c0.7-4.1,0.8-8.4,0.8-12.6c0-210.9,0-421.8,0-632.6C771.6,152.7,771.4,148.1,770.6,143.7z M721.1,772.9c-140.3,0-279.1,0-418.2,0
			c0-9.3,0.1-18.5,0-27.6c0-190.4,0-380.3,0-571.1c5,0,8.9,0,12.8,0c65.4,0,130.9,0,196.3,0c65.4,0,130.9,0,196.3,0
			c3.9,0,7.8,0,12.8,0c0,190.9,0,380.7,0,571.1C721.1,754.4,721.1,763.5,721.1,772.9z"/>
	</g>
</g>
</svg>
