<?xml version="1.0" encoding="utf-8"?>
<!-- Generator: Adobe Illustrator 24.1.0, SVG Export Plug-In . SVG Version: 6.00 Build 0)  -->
<svg version="1.1" xmlns="http://www.w3.org/2000/svg" xmlns:xlink="http://www.w3.org/1999/xlink" x="0px" y="0px"
	 viewBox="0 0 1000 1000" style="enable-background:new 0 0 1000 1000;" xml:space="preserve">
<style type="text/css">
	.st0{fill:#5F5E5E;}
	.st1{fill-rule:evenodd;clip-rule:evenodd;fill:#5F5E5E;}
	.st2{fill:#004E7C;}
</style>
<g id="Layer_2">
</g>
<g id="Layer_1">
	<path class="st0" d="M692.4,1000c-128.3,0-256.5,0-384.8,0c-1.3-0.6-2.6-1.2-3.9-1.8c-10.7-5.1-15.2-17.6-10-28.1
		c4.2-8.5,11.5-11.9,20.7-11.9c16.9,0,33.9,0.1,50.8-0.1c1.8,0,4.3-1,5.2-2.3c17.9-29.4,32.9-60.2,40.6-94c2.1-9.1,3.3-18.4,5-28.2
		c-3.4,0-5.7,0-7.9,0c-114.4,0-228.8,0-343.2,0c-38,0-64.8-27-64.8-64.9C0,533.3,0,298,0,62.6C0,27.8,27.7,0,62.6,0
		c291.6,0,583.3,0,874.9,0c27.9,0,52.1,18.1,60.1,44.9c0.9,2.9,1.6,5.9,2.4,8.8c0,241.9,0,483.7,0,725.6c-1.4,4.8-2.4,9.7-4.2,14.4
		c-9.8,24.9-32.6,39.8-60.8,39.8c-114.5,0-229.1,0-343.6,0c-2.2,0-4.4,0-7.4,0c1.6,9.2,2.7,17.4,4.4,25.5c7.2,34,22,64.7,39.5,94.4
		c2,3.5,4.2,5,8.4,4.9c16.6-0.3,33.2-0.2,49.8-0.1c14.5,0.1,23.7,10.3,22,24.3C706.9,991.8,700.5,996.8,692.4,1000z M958.2,666.6
		c0-2,0-3.7,0-5.5c0-198.9,0-397.7,0-596.6c0-14.4-8.3-22.6-22.7-22.6c-290.3,0-580.6,0-871,0c-14.4,0-22.6,8.3-22.6,22.8
		c0,198.9,0,397.7,0,596.6c0,1.7,0,3.5,0,5.4C347.5,666.6,652.6,666.6,958.2,666.6z M958.2,708.9c-305.8,0-610.9,0-915.9,0
		c-0.2,0.8-0.4,1.3-0.4,1.7c0,20.5-0.3,41,0.2,61.5c0.1,4.2,2.4,8.8,5,12.3c4.6,6.2,11.7,7.5,19.2,7.5c127.1,0,254.2,0,381.3,0
		c41.2,0,82.3,0,123.5,0c120.6,0,241.2,0,361.8,0c1.5,0,2.9,0.1,4.4,0c12.8-0.7,20.9-9.3,21-22.2c0-12.5,0-25.1,0-37.6
		C958.2,724.4,958.2,716.8,958.2,708.9z M582.3,958c-2.8-5.4-5.4-10.4-7.9-15.4c-16.6-33.3-28.2-68.1-31.5-105.3
		c-0.4-4-2.7-3.7-5.4-3.7c-23.6,0-47.2,0-70.8,0c-8.9,0-9,0-10,8.6c-4.6,38.2-17.1,73.9-34.9,107.8c-1.3,2.5-2.6,5.1-4.2,8
		C472.8,958,527.2,958,582.3,958z"/>
	<g>
		<path class="st0" d="M527.6,129.3h-55.2c-111.8,0-197.4,85.6-197.4,197.4v55.2c0,111.8,85.6,197.4,197.4,197.4h55.2
			c51.7,0,97.7-18.3,132.4-49l-20.1-20.1l-6.9,6.9l-16.6-16.6c-9.3,7-20.2,9.4-32.4,8.7c-22.2-1.2-42.6-8.6-62.3-18.1
			c-43.7-21.3-81.1-50.7-112.5-88c-23.2-27.5-42.3-57.6-54.9-91.4c-6.1-16.3-10.5-33.1-9.1-50.9c0.9-10.9,4.9-20.3,13-27.9
			c8.7-8.3,16.9-16.9,25.5-25.3c11.1-11,25.1-11,36.3-0.1c6.9,6.8,13.7,13.7,20.6,20.6c6.6,6.7,13.3,13.3,19.9,20
			c11.7,11.8,11.7,25.5,0.1,37.2c-8.3,8.4-16.6,16.8-25.1,25c-2.2,2.2-2.4,4-1.3,6.7c5.6,13.4,13.7,25.3,22.8,36.5
			c18.3,22.4,38.9,42.3,63.5,57.8c5.3,3.3,11.1,5.7,16.6,8.7c2.8,1.6,4.7,1.1,7-1.3c8.3-8.6,16.8-17,25.3-25.4
			c11.1-11.1,25.1-11.1,36.3,0c13.6,13.6,27.3,27.1,40.8,40.7c11.3,11.4,11.3,25.4-0.1,37c-0.6,0.6-1.3,1.2-1.9,1.8l16.4,16.4
			L654,496l20.2,20.2C706,481.4,725,434.5,725,381.9v-55.2C725,214.9,639.4,129.3,527.6,129.3z"/>
	</g>
</g>
</svg>
