<?xml version="1.0" encoding="utf-8"?>
<!-- Generator: Adobe Illustrator 24.1.0, SVG Export Plug-In . SVG Version: 6.00 Build 0)  -->
<svg version="1.1" xmlns="http://www.w3.org/2000/svg" xmlns:xlink="http://www.w3.org/1999/xlink" x="0px" y="0px"
	 viewBox="0 0 1024 1024" style="enable-background:new 0 0 1024 1024;" xml:space="preserve">
<style type="text/css">
	.st0{fill:#5F5E5E;}
	.st1{fill-rule:evenodd;clip-rule:evenodd;fill:#5F5E5E;}
	.st2{fill:#E30613;}
</style>
<g id="Layer_2">
</g>
<g id="Layer_1">
	<g>
		<path class="st0" d="M496.4,807.5c-4.3,0-8.7-1.7-12-5L252.2,570.3c-3.2-3.2-5-7.5-5-12c0-4.5,1.8-8.8,5-12l58.6-58.6
			c6.6-6.6,17.3-6.6,23.9,0l161.7,161.4l427.7-427.7c6.6-6.6,17.3-6.6,23.9,0l59,58.6c3.2,3.2,5,7.5,5,12c0,4.5-1.8,8.8-5,12
			L508.4,802.6C505.1,805.9,500.7,807.5,496.4,807.5z M288,558.3l208.4,208.4L971.1,292l-35-34.8L508.4,685
			c-6.6,6.6-17.3,6.6-23.9,0L322.7,523.6L288,558.3z M261.2,807.5c-4.3,0-8.7-1.7-12-5L17,570.3c-3.2-3.2-5-7.5-5-12
			c0-4.5,1.8-8.8,5-12l59-58.6c6.6-6.6,17.3-6.5,23.9,0.1l231.9,232.3c6.6,6.6,6.6,17.3,0,23.9l-58.6,58.6
			C269.9,805.9,265.5,807.5,261.2,807.5z M52.9,558.4l208.3,208.3l34.7-34.7l-208-208.4L52.9,558.4z M496.4,572.3
			c-4.3,0-8.7-1.7-12-5l-58.6-58.6c-3.2-3.2-5-7.5-5-12c0-4.5,1.8-8.8,5-12l263.5-263.5c6.6-6.6,17.3-6.6,23.9,0l58.6,58.6
			c3.2,3.2,5,7.5,5,12s-1.8,8.8-5,12L508.4,567.4C505.1,570.7,500.7,572.3,496.4,572.3z M461.7,496.8l34.7,34.7L736,292l-34.7-34.7
			L461.7,496.8z"/>
	</g>
</g>
</svg>
