<?xml version="1.0" encoding="utf-8"?>
<!-- Generator: Adobe Illustrator 24.1.0, SVG Export Plug-In . SVG Version: 6.00 Build 0)  -->
<svg version="1.1" xmlns="http://www.w3.org/2000/svg" xmlns:xlink="http://www.w3.org/1999/xlink" x="0px" y="0px"
	 viewBox="0 0 1024 1024" style="enable-background:new 0 0 1024 1024;" xml:space="preserve">
<style type="text/css">
	.st0{fill:#5F5E5E;}
	.st1{fill-rule:evenodd;clip-rule:evenodd;fill:#5F5E5E;}
	.st2{fill:#004E7C;}
</style>
<g id="Layer_2">
</g>
<g id="Layer_1">
	<g>
		<path class="st0" d="M12,505.9c0.9-3.9,1.8-7.8,2.9-11.7c7.8-27.5,31.9-47,60.5-47.3c45.6-0.5,91.3-0.5,136.9,0
			c30.8,0.4,58.6,28.1,60.5,58.8c2.6,40.6-26.4,71.4-67.1,71.4c-42.1,0-84.1,0-126.2,0c-35.1,0-61.3-22.5-66.7-57.4
			c-0.1-0.6-0.6-1.1-0.9-1.7C12,514,12,509.9,12,505.9z M142.3,533.5c21.9,0,43.8,0.1,65.6,0c9.2,0,15.9-4.6,19.7-12.9
			c3.7-7.9,2.4-15.6-3-22.4c-5.1-6.3-12.1-8.2-19.9-8.2c-41.2,0.1-82.4,0-123.6,0.1c-3.3,0-6.8,0.3-10,1.2
			c-10,3.1-16.6,13.4-15.1,23.2c1.7,10.9,10.3,18.9,21.2,19C98.9,533.6,120.6,533.5,142.3,533.5z"/>
		<path class="st0" d="M507,1012c-2.9-0.6-5.9-1.3-8.8-1.9c-29.7-6.4-51.3-32.9-51.3-63.2c0-43.8,0-87.6,0-131.4
			c0-35.5,29.2-64.5,65-64.7c35.9-0.2,65.4,29,65.4,64.7c0,43.8,0,87.6,0,131.4c0,32.5-24.4,60-56.8,64.1c-1.1,0.1-2.2,0.6-3.3,0.9
			C513.8,1012,510.4,1012,507,1012z M490.5,881.2c0,21.9-0.1,43.7,0,65.6c0.1,14.2,14,24.3,27.5,20.4c10.3-3,15.8-11.5,15.9-24.9
			c0-40.7,0-81.4,0-122.1c0-3.4-0.2-6.8-1-10.1c-2.8-10-13.1-17-22.7-15.8c-11.5,1.5-19.6,10.2-19.6,21.6
			C490.4,837.7,490.5,859.4,490.5,881.2z"/>
		<path class="st0" d="M881.1,577.2c-21.6,0-43.1,0-64.7,0c-34.1,0-63.1-26.9-65.2-59.7c-2.5-37.8,24.8-66.7,57.7-70.4
			c2.5-0.3,5.1-0.4,7.6-0.4c44.5,0,88.9-0.3,133.4,0.3c33.2,0.4,60,28.1,61.9,63c1.8,31.1-22.9,61.6-54,66.1
			c-8.3,1.2-16.9,1-25.4,1.1C915.4,577.3,898.2,577.2,881.1,577.2z M881.1,533.5c21.9,0,43.7,0.1,65.6,0c14.8-0.1,25-14.5,20.4-28.3
			c-3.3-9.8-11.6-15.1-23.9-15.1c-41.2,0-82.4,0-123.6,0c-1.4,0-2.7,0.1-4.1,0.2c-13,1.2-21.5,10.6-20.9,22.9
			c0.6,11.9,10,20.3,22.9,20.4C838.7,533.6,859.9,533.5,881.1,533.5z"/>
		<path class="st0" d="M577.2,142.7c0,21.6,0,43.1,0,64.7c0,36.5-28.8,65.4-65.1,65.4c-36.3,0-65.2-28.9-65.2-65.3
			c0-43.3,0-86.5,0-129.8c0-34.8,25.9-62.7,61-65.5c32.9-2.7,63.3,21.8,68.5,55.3c0.5,3.3,0.8,6.7,0.8,10.1
			C577.3,99.3,577.2,121,577.2,142.7z M490.5,142.7c0,21.4,0,42.8,0,64.1c0,12.7,9.3,22.4,21.4,22.5c12.2,0.1,21.7-9.7,21.7-22.6
			c0-42.8,0-85.5,0-128.3c0-2.3-0.2-4.8-0.8-7c-2.9-10.3-12.9-16.9-23.3-15.6c-10.5,1.3-18.9,10.4-18.9,21.2
			C490.4,99,490.5,120.9,490.5,142.7z"/>
		<path class="st0" d="M358.1,730.6c-0.4,18.7-7.6,34.4-20.8,47.6c-30.2,30-60.1,60.4-90.5,90.3c-18.3,18-40.6,23.6-65.2,16.1
			c-24.4-7.4-39.6-24.4-44.7-49.4c-4.4-21.9,1-41.7,16.7-57.7c30.5-31.2,61.4-62,92.4-92.7c30.8-30.5,80.7-24.8,102.6,11.4
			C355,706.8,358,718.3,358.1,730.6z M314.5,728.6c-0.6-7.7-4.6-14.6-13.1-18.2c-8.7-3.7-16.8-2.2-23.5,4.3
			c-12.5,12.2-24.7,24.6-37.1,37c-18.5,18.5-37,36.8-55.4,55.4c-8.7,8.8-8.6,22.1-0.1,30.6c8.4,8.4,21.9,8.5,30.6-0.2
			c30.6-30.5,61.2-61.1,91.7-91.7C312.2,741.5,314.5,736.2,314.5,728.6z"/>
		<path class="st0" d="M146.6,214.6c0-31.3,15.8-55,40.2-65.1c24.4-10.1,52.4-4.5,71,14.2c30.6,30.6,61.5,61,91.9,91.8
			c18.2,18.4,24,40.8,16.5,65.6c-7.3,24.2-24.1,39.4-48.9,44.6c-22.2,4.7-42.3-0.9-58.6-16.9c-30.8-30.2-61.1-60.9-91.7-91.2
			C153.7,244.3,146.8,228.5,146.6,214.6z M212.5,186.9c-0.2,0.4-0.4,0.9-0.7,1.3c-8.7-0.1-16.6,5.2-20,13.2
			c-3.6,8.5-1.8,17.3,5.1,24.3c28.7,28.8,57.5,57.6,86.3,86.3c2,2,4,4.2,6.1,6.1c8.8,7.8,21.9,7.4,29.9-0.9
			c8.2-8.4,8.6-21.5,0.4-29.8c-30.9-31.2-62-62.3-93.3-93C222.9,190.8,217.2,189.3,212.5,186.9z"/>
		<path class="st0" d="M729,361.3c-29.4,0-53.1-15.9-63.2-40.3c-10.1-24.5-4.7-52.3,14-71c30.8-30.9,61.6-61.7,92.5-92.5
			c25.3-25.2,66.9-24.9,92.2,0.4c25.2,25.3,25.1,66.8-0.1,92.1c-30.7,30.7-61.5,61.4-92.2,92.2C759.4,354.9,743.9,360.8,729,361.3z
			 M725.4,317.6c7.3-0.1,12.5-2.8,17-7.3c13.5-13.6,27.1-27.1,40.6-40.7c16.7-16.7,33.4-33.3,50-50c10.4-10.5,8.7-26.5-3.5-34.2
			c-9.1-5.7-19.7-4-28.5,4.8c-29.6,29.6-59.2,59.2-88.8,88.8c-1.3,1.3-2.6,2.7-3.7,4.2c-5,7.2-5.7,14.9-1.7,22.6
			C710.8,313.6,717.5,317.5,725.4,317.6z"/>
		<path class="st0" d="M826.5,889.3c-18.2-0.1-33.7-6.4-46.6-19.3c-30.7-30.7-61.4-61.4-92.1-92.1c-25.3-25.3-25.2-66.6,0.2-92
			c25.3-25.3,66.8-25.4,92.1-0.2c31,30.9,62,61.8,92.8,92.8c18.8,18.9,23.9,46.7,13.4,71.5C876.2,873.9,852.8,889.3,826.5,889.3z
			 M712.5,731.1c0,6.8,2.1,12.1,6.3,16.4c30.6,30.6,61,61.3,91.9,91.6c3.6,3.5,9.3,5.7,14.3,6.5c8.7,1.4,17.2-4.3,20.9-12.3
			c4-8.7,2.2-17.8-5.1-25.1c-30.1-30.1-60.2-60.2-90.3-90.3c-1.5-1.5-3.2-3-5.1-4.2c-7.1-4.3-14.5-4.4-21.8-0.5
			C716.5,717.2,713,723.6,712.5,731.1z"/>
	</g>
</g>
</svg>
