<?xml version="1.0" encoding="utf-8"?>
<!-- Generator: Adobe Illustrator 24.1.0, SVG Export Plug-In . SVG Version: 6.00 Build 0)  -->
<svg version="1.1" xmlns="http://www.w3.org/2000/svg" xmlns:xlink="http://www.w3.org/1999/xlink" x="0px" y="0px"
	 viewBox="0 0 1024 1024" style="enable-background:new 0 0 1024 1024;" xml:space="preserve">
<style type="text/css">
	.st0{fill:#5F5E5E;}
	.st1{fill-rule:evenodd;clip-rule:evenodd;fill:#5F5E5E;}
	.st2{fill:#E30613;}
</style>
<g id="Layer_2">
</g>
<g id="Layer_1">
	<g>
		<path class="st0" d="M941.4,1012c-125.5,0-247.2-24.6-361.8-73c-110.7-46.8-210.1-113.8-295.4-199.2
			C198.8,654.5,131.8,555.1,85,444.4C36.6,329.8,12,208.1,12,82.6C12,43.7,43.7,12,82.6,12h187.9c38.9,0,70.6,31.7,70.6,70.6
			c0,63.9,10,126.6,29.7,186.3c0,0.1,0.1,0.2,0.1,0.2c8.1,25.6,1.3,52.9-17.7,71.3L243.9,450.2c36.8,69.7,83.9,133.4,140.1,189.4
			c56.1,56,119.9,103,189.7,139.9l109.3-109.3c0.1-0.1,0.1-0.1,0.2-0.2c19-18.3,46.4-24.7,71.6-16.8c0.1,0,0.2,0.1,0.2,0.1
			C814.8,673,877.5,683,941.4,683c38.9,0,70.6,31.7,70.6,70.6v187.9C1012,980.3,980.3,1012,941.4,1012z M82.6,45.8
			c-20.3,0-36.8,16.5-36.8,36.8c0,120.9,23.7,238.2,70.4,348.6c45.1,106.6,109.7,202.4,191.9,284.7c82.3,82.3,178,146.8,284.7,191.9
			c110.4,46.7,227.7,70.4,348.6,70.4c20.3,0,36.8-16.5,36.8-36.8V753.5c0-20.3-16.5-36.8-36.8-36.8c-67.5,0-133.7-10.6-196.8-31.4
			c-13.5-4.2-27.6-0.9-37.7,8.9l-118,118c-5.2,5.2-13.1,6.4-19.6,3.1C492,776,421.7,725,360.2,663.6
			c-61.6-61.5-112.8-131.8-152-208.9c-3.3-6.5-2.1-14.4,3.1-19.6l118.1-118.6c0.1-0.1,0.2-0.2,0.2-0.2c9.7-9.4,13.2-23.5,9.1-36.9
			c-20.8-63.1-31.4-129.3-31.4-196.8c0-20.3-16.5-36.8-36.8-36.8H82.6z M995.1,475.2H887.7c-9.3,0-16.9-7.6-16.9-16.9V351
			c0-9.3,7.6-16.9,16.9-16.9h107.4c9.3,0,16.9,7.6,16.9,16.9v107.4C1012,467.7,1004.4,475.2,995.1,475.2z M904.6,441.4h73.5v-73.5
			h-73.5V441.4z M780.4,475.2H673c-9.3,0-16.9-7.6-16.9-16.9V351c0-9.3,7.6-16.9,16.9-16.9h107.4c9.3,0,16.9,7.6,16.9,16.9v107.4
			C797.3,467.7,789.7,475.2,780.4,475.2z M689.9,441.4h73.5v-73.5h-73.5V441.4z M565.7,475.2H458.3c-9.3,0-16.9-7.6-16.9-16.9V351
			c0-9.3,7.6-16.9,16.9-16.9h107.4c9.3,0,16.9,7.6,16.9,16.9v107.4C582.6,467.7,575,475.2,565.7,475.2z M475.2,441.4h73.5v-73.5
			h-73.5V441.4z"/>
	</g>
</g>
</svg>
