<?xml version="1.0" encoding="utf-8"?>
<!-- Generator: Adobe Illustrator 24.1.0, SVG Export Plug-In . SVG Version: 6.00 Build 0)  -->
<svg version="1.1" xmlns="http://www.w3.org/2000/svg" xmlns:xlink="http://www.w3.org/1999/xlink" x="0px" y="0px"
	 viewBox="0 0 1024 1024" style="enable-background:new 0 0 1024 1024;" xml:space="preserve">
<style type="text/css">
	.st0{fill:#5F5E5E;}
	.st1{fill-rule:evenodd;clip-rule:evenodd;fill:#5F5E5E;}
	.st2{fill:#004E7C;}
</style>
<g id="Layer_2">
</g>
<g id="Layer_1">
	<g>
		<path class="st0" d="M756.1,12c6.9,0.9,13.8,1.8,20.7,2.7c110.7,15.7,201,97.3,227.3,205.4c35.9,147.5-53.4,295.3-200.9,331.3
			c-67.1,16.4-131.7,7.9-192.9-24.4c-4.5-2.4-7.8-2.4-12.4-0.2c-45.8,22.1-91.7,43.9-137.6,65.7c-9.7,4.6-19.1,3.3-25.7-3.4
			c-6.3-6.5-7.6-16-3.1-25.3c22.2-46.6,44.4-93.3,66.7-139.9c1.2-2.6,1.9-4.7,0.4-7.6c-17.8-33.9-25.3-70.4-27.6-108.3
			c-2.6-44,2.5-86.8,19.6-127.5C528.2,90.9,594.7,35.7,690.2,16.3c8.6-1.7,17.4-2.2,26.1-3.4c1.2-0.2,2.4-0.6,3.6-0.9
			C732,12,744,12,756.1,12z M493.9,529.9c2.2-1,3.4-1.4,4.5-1.9c31.2-14.9,62.6-29.6,93.7-44.7c9.9-4.8,18.4-4.5,28,1.2
			c45.8,27.4,95.5,38,148.4,31c54.2-7.1,100.6-30.5,137.9-70.4c51.2-54.7,71.7-119.9,61.2-193.9c-8.4-59.1-36.4-108.4-83.3-145.4
			c-66.1-52.3-140.6-66.6-220.3-39c-77.3,26.7-124.3,83.1-145,161.6c-8.4,31.9-8.5,64.4-4.6,96.9c3.4,28.5,11,55.8,26.2,80.5
			c4.9,7.9,5.2,15.6,1.2,24c-11,22.8-21.8,45.7-32.7,68.6C504,508.6,499.2,518.7,493.9,529.9z"/>
		<path class="st0" d="M12,229.7c1.9-7.5,3.3-15.2,5.7-22.5c14.1-41.9,53.8-70.2,98-70.2c103.8,0,207.7,0,311.5,0
			c9.2,0,16.2,3.6,20.2,11.9c3.8,7.9,2.7,15.6-2.8,22.4c-4.5,5.6-10.7,7.6-17.7,7.6c-40.4,0-80.7,0-121.1,0c-62.7,0-125.3,0-188,0
			c-36.9,0-64,27.2-64,64.1c0,20,0,40,0,60.8c2.3,0,4.3,0,6.4,0c115.5,0,231.1,0,346.6,0c17,0,27.2,16.3,19.2,30.8
			c-3.3,6.1-8.5,9.7-15.5,10.5c-2.6,0.3-5.2,0.3-7.8,0.3c-113.8,0-227.5,0-341.3,0c-2.3,0-4.5,0-7.6,0c0,2.5,0,4.7,0,6.9
			c0,211.9,0,423.8,0,635.6c0,8.7-2.3,16.1-10.1,20.9c-10.6,6.6-24.5,2.4-29.9-8.8c-0.6-1.3-1.3-2.5-1.9-3.8
			C12,740.8,12,485.3,12,229.7z"/>
		<path class="st0" d="M359.5,823.7c15.6,3.3,32.2,5.4,47.9,10.3c69.7,21.7,115,69,140.6,136.4c2,5.3,3.8,10.7,5.1,16.2
			c2.6,11.1-3.7,21.4-14.6,24.6c-10.7,3.1-21.5-2.8-25.5-13.3c-4.4-11.7-8.2-23.7-13.9-34.8c-27.8-54.3-71.7-87.3-132.4-95.2
			c-52.2-6.7-98.4,8.5-137.4,44.2c-25.2,23.1-41.2,52-51.2,84.4c-3.2,10.3-11.1,15.8-21.6,15.4c-9-0.4-17.1-7-18.8-16.3
			c-0.7-3.7-0.5-7.9,0.6-11.5c18.6-59.7,53.5-106.4,109.6-135.9c25.4-13.3,52.5-20.8,81-23c1.2-0.1,2.3-0.3,3.6-0.9
			c-37.1-5.7-66-23.8-85.5-55.9c-14.3-23.6-19.1-49.3-14.8-76.4c9.1-56.2,57.3-97.3,113.3-97c57.4,0.3,105.2,41.7,113.4,99.1
			c4.5,31.7-3.4,60.8-23.2,86.1C416.1,805.5,390,819.6,359.5,823.7z M345.4,782.6c40,0,72.7-32.5,72.8-72.4
			c0.1-40.2-33.1-73.4-73.2-73.2c-39.9,0.2-72.4,32.9-72.4,72.9C272.6,750.2,305,782.6,345.4,782.6z"/>
		<path class="st0" d="M720.1,803.9c0,62.1,0,124.3,0,186.4c0,12.6-8.7,21.6-20.8,21.5c-11.9,0-20.6-9-20.6-21.2
			c0-124.8,0-249.5,0-374.3c0-12.1,9.1-21.3,20.8-21.2c11.7,0.1,20.6,9.3,20.6,21.4C720.1,679,720.1,741.5,720.1,803.9
			C720.1,803.9,720.1,803.9,720.1,803.9z"/>
		<path class="st0" d="M355.5,262c-17.1,0-34.2,0-51.3,0c-11.9,0-20.5-7.9-21.5-19.5c-0.9-10.6,7.2-20.3,18.6-22
			c1.4-0.2,2.9-0.3,4.4-0.3c33.4,0,66.7,0,100.1,0c12,0,20.3,6.4,22.5,16.9c2.6,12.9-6.9,24.8-20,24.9
			C390.6,262,373.1,262,355.5,262z"/>
		<path class="st0" d="M824.9,241.2c-0.4,46.2-38.2,83.8-84,83.2c-11.1-0.1-19.6-8-20.7-19.3c-1-10,6.5-19.9,16.9-21.8
			c4.3-0.8,8.8-0.7,13-1.7c21.5-4.8,35.3-25.1,32.2-46.7c-3-20.7-22.2-36.5-43-35.4c-21.8,1.1-39.1,18.7-39.8,40.5
			c-0.5,13.3-8.8,22-21,21.9c-11.7-0.1-20.6-9.1-20.8-21.3c-0.8-39.9,31.7-77.1,71.9-82.1c44.9-5.6,84.3,22.4,93.4,66.7
			C824,230.5,824.2,235.9,824.9,241.2z"/>
		<path class="st0" d="M739.9,407.8c-18.8-1.2-31.1-15.6-29.8-34.9c1.1-15.5,16.6-28.8,32.3-27.7c17.6,1.2,31.2,15.9,30.1,32.6
			C771.3,395.5,756.7,408.9,739.9,407.8z"/>
	</g>
</g>
</svg>
