<?xml version="1.0" encoding="utf-8"?>
<!-- Generator: Adobe Illustrator 24.1.0, SVG Export Plug-In . SVG Version: 6.00 Build 0)  -->
<svg version="1.1" xmlns="http://www.w3.org/2000/svg" xmlns:xlink="http://www.w3.org/1999/xlink" x="0px" y="0px"
	 viewBox="0 0 1024 1024" style="enable-background:new 0 0 1024 1024;" xml:space="preserve">
<style type="text/css">
	.st0{fill:#5F5E5E;}
	.st1{fill-rule:evenodd;clip-rule:evenodd;fill:#5F5E5E;}
	.st2{fill:#004E7C;}
</style>
<g id="Layer_2">
</g>
<g id="Layer_1">
	<g>
		<path class="st0" d="M422.4,380.8c4.1,0,8.2-0.7,12.1-2.2l190-69.1c0,0,0,0,0.1,0c19.9-7.3,33.2-26.4,33.2-47.5
			c0-21.2-13.4-40.3-33.3-47.5l-190-69.1c-10.7-3.9-22.8-2.4-32.3,4.2c-9.5,6.6-15.2,17.5-15.2,29.1v166.7
			c0,11.6,5.7,22.5,15.2,29.1C408.2,378.6,415.3,380.8,422.4,380.8z M428.7,187.6l181.6,66c3.5,1.3,5.9,4.7,5.9,8.4
			c0,3.7-2.4,7.1-5.9,8.4l-181.6,66V187.6z"/>
		<path class="st0" d="M907.8,12H116.2c-34.5,0-62.5,28-62.5,62.5v500c0,34.5,28,62.5,62.5,62.5h791.7c34.5,0,62.5-28,62.5-62.5
			v-500C970.3,40,942.3,12,907.8,12z M116.2,53.7h791.7c11.5,0,20.8,9.3,20.8,20.8v395.8H95.3V74.5C95.3,63,104.7,53.7,116.2,53.7z
			 M907.8,595.3H116.2c-11.5,0-20.8-9.4-20.8-20.8V512h833.3v62.5C928.7,586,919.3,595.3,907.8,595.3z"/>
		<path class="st0" d="M890.3,751.9c-4.6-18.6-21.3-31.6-40.4-31.6H174.1c-19.2,0-35.8,13-40.4,31.6L81.6,960.1
			c-3.2,12.3-0.4,25.7,7.5,35.9c7.9,10,20.1,16,32.8,16h780c12.9,0,24.8-5.8,32.8-16c7.8-10,10.7-23.4,7.6-35.7L890.3,751.9z
			 M122,970.3L174.1,762h675.8L902,970.3H122z"/>
		<path class="st0" d="M282.8,803.7h-41.7c-11.5,0-20.8,9.3-20.8,20.8s9.3,20.8,20.8,20.8h41.7c11.5,0,20.8-9.3,20.8-20.8
			S294.3,803.7,282.8,803.7z"/>
		<path class="st0" d="M366.2,845.3h41.7c11.5,0,20.8-9.3,20.8-20.8s-9.3-20.8-20.8-20.8h-41.7c-11.5,0-20.8,9.3-20.8,20.8
			S354.7,845.3,366.2,845.3z"/>
		<path class="st0" d="M491.2,845.3h41.7c11.5,0,20.8-9.3,20.8-20.8s-9.3-20.8-20.8-20.8h-41.7c-11.5,0-20.8,9.3-20.8,20.8
			S479.7,845.3,491.2,845.3z"/>
		<path class="st0" d="M616.2,845.3h41.7c11.5,0,20.8-9.3,20.8-20.8s-9.3-20.8-20.8-20.8h-41.7c-11.5,0-20.8,9.3-20.8,20.8
			S604.7,845.3,616.2,845.3z"/>
		<path class="st0" d="M803.7,824.5c0-11.5-9.3-20.8-20.8-20.8h-41.7c-11.5,0-20.8,9.3-20.8,20.8s9.3,20.8,20.8,20.8h41.7
			C794.3,845.3,803.7,836,803.7,824.5z"/>
		<path class="st0" d="M241.2,887h-41.7c-11.5,0-20.8,9.3-20.8,20.8c0,11.5,9.3,20.8,20.8,20.8h41.7c11.5,0,20.8-9.3,20.8-20.8
			C262,896.3,252.7,887,241.2,887z"/>
		<path class="st0" d="M699.5,887h-375c-11.5,0-20.8,9.3-20.8,20.8c0,11.5,9.3,20.8,20.8,20.8h375c11.5,0,20.8-9.3,20.8-20.8
			C720.3,896.3,711,887,699.5,887z"/>
		<path class="st0" d="M824.5,887h-41.7c-11.5,0-20.8,9.3-20.8,20.8c0,11.5,9.3,20.8,20.8,20.8h41.7c11.5,0,20.8-9.3,20.8-20.8
			C845.3,896.3,836,887,824.5,887z"/>
	</g>
</g>
</svg>
