<?xml version="1.0" encoding="utf-8"?>
<!-- Generator: Adobe Illustrator 24.1.0, SVG Export Plug-In . SVG Version: 6.00 Build 0)  -->
<svg version="1.1" xmlns="http://www.w3.org/2000/svg" xmlns:xlink="http://www.w3.org/1999/xlink" x="0px" y="0px"
	 viewBox="0 0 1024 1024" style="enable-background:new 0 0 1024 1024;" xml:space="preserve">
<style type="text/css">
	.st0{fill:#5F5E5E;}
	.st1{fill-rule:evenodd;clip-rule:evenodd;fill:#5F5E5E;}
	.st2{fill:#E30613;}
</style>
<g id="Layer_2">
</g>
<g id="Layer_1">
	<g>
		<g>
			<path class="st0" d="M512,1012c-67.5,0-132.9-13.2-194.6-39.3c-59.5-25.2-113-61.3-158.9-107.2c-45.9-45.9-82-99.4-107.2-158.9
				C25.2,644.9,12,579.5,12,512s13.2-132.9,39.3-194.6c25.2-59.5,61.3-113,107.2-158.9c45.9-45.9,99.4-82,158.9-107.2
				C379.1,25.2,444.5,12,512,12h48.3c9.3,0,16.9,7.6,16.9,16.9v390.7c30,20.8,48.3,55.4,48.3,92.4c0,62.6-50.9,113.5-113.5,113.5
				S398.5,574.6,398.5,512c0-37.2,17.9-71,48.3-92.3v-70.8c-66.4,26.6-111.1,90.8-111.1,163.1c0,47.1,18.3,91.4,51.6,124.7
				c33.3,33.3,77.6,51.6,124.7,51.6s91.4-18.3,124.7-51.6c33.3-33.3,51.6-77.6,51.6-124.7c0-46.7-18.3-91.1-51.7-124.8
				c-6.5-6.6-6.5-17.3,0.1-23.8l68.1-68.1c6.6-6.6,17.2-6.6,23.9-0.1c28.3,28,50.4,60.7,65.9,97.3c16,37.8,24.1,78,24.1,119.5
				c0,169.2-137.6,306.8-306.8,306.8S205.2,681.2,205.2,512c0-72.9,26.1-143.5,73.4-198.9c43.6-51,102.9-86.4,168.2-100.6v-64
				C365.4,163,291,204.5,235.7,266.7c-60.1,67.5-93.2,154.7-93.2,245.3c0,49.9,9.8,98.3,29,143.9c18.6,44,45.2,83.5,79.2,117.5
				c33.9,33.9,73.5,60.6,117.5,79.2c45.6,19.3,94,29,143.9,29s98.3-9.8,143.9-29c44-18.6,83.5-45.2,117.5-79.2
				c33.9-33.9,60.6-73.5,79.2-117.5c19.3-45.6,29-94,29-143.9c0-49.8-9.8-98.2-29.1-143.9c-18.6-44-45.2-83.5-79-117.6
				c-6.6-6.6-6.5-17.3,0-23.9l68.1-68.1c6.6-6.6,17.3-6.6,23.9,0c45.9,45.9,82,99.4,107.2,158.9c26.1,61.7,39.3,127.1,39.3,194.6
				s-13.2,132.9-39.3,194.6c-25.2,59.5-61.3,113-107.2,158.9c-45.9,45.9-99.4,82-158.9,107.2C644.9,998.8,579.5,1012,512,1012z
				 M512,45.8c-62.9,0-123.9,12.3-181.4,36.6c-55.5,23.5-105.4,57.1-148.2,99.9c-42.8,42.8-76.5,92.7-99.9,148.2
				C58.1,388.1,45.8,449.1,45.8,512s12.3,123.9,36.6,181.4c23.5,55.5,57.1,105.4,99.9,148.2c42.8,42.8,92.7,76.5,148.2,99.9
				c57.5,24.3,118.5,36.6,181.4,36.6s123.9-12.3,181.4-36.6c55.5-23.5,105.4-57.1,148.2-99.9c42.8-42.8,76.5-92.7,99.9-148.2
				c24.3-57.5,36.6-118.5,36.6-181.4s-12.3-123.9-36.6-181.4c-21.3-50.3-50.9-96-88.2-136l-44.3,44.3
				c31.4,34.3,56.4,73.3,74.6,116.1c21.1,49.8,31.8,102.7,31.8,157.1c0,54.5-10.7,107.3-31.7,157.1c-20.3,48-49.4,91.2-86.4,128.2
				c-37,37-80.2,66.1-128.2,86.4c-49.7,21-102.6,31.7-157.1,31.7s-107.3-10.7-157.1-31.7c-48-20.3-91.2-49.4-128.2-86.4
				c-37-37-66.1-80.2-86.4-128.2c-21-49.7-31.7-102.6-31.7-157.1c0-99,36.2-194.1,101.8-267.8c65.1-73.1,154.3-120,251.2-132
				c4.8-0.6,9.6,0.9,13.3,4.1c3.6,3.2,5.7,7.8,5.7,12.7v97.6c0,8.3-6,15.3-14.1,16.7c-63,10.6-120.6,43.3-162.2,92
				c-42.1,49.2-65.3,112-65.3,176.9c0,150.5,122.4,272.9,272.9,272.9S784.9,662.5,784.9,512c0-67.5-24.2-131-68.4-180.6l-44.4,44.4
				c32.4,38.3,50.1,86.1,50.1,136.2c0,56.2-21.9,108.9-61.5,148.6c-39.7,39.7-92.5,61.5-148.6,61.5s-108.9-21.9-148.6-61.5
				c-39.7-39.7-61.5-92.5-61.5-148.6c0-95.2,64.8-178.6,157.6-202.8c5.1-1.3,10.5-0.2,14.6,3c4.1,3.2,6.6,8.1,6.6,13.4v103.4
				c0,6-3.2,11.6-8.4,14.6c-25,14.6-39.9,40.2-39.9,68.5c0,44,35.8,79.7,79.7,79.7s79.7-35.8,79.7-79.7c0-28.7-14.9-54.3-39.7-68.4
				c-5.3-3-8.6-8.6-8.6-14.7V45.8H512z"/>
		</g>
	</g>
</g>
</svg>
