<?xml version="1.0" encoding="utf-8"?>
<!-- Generator: Adobe Illustrator 24.1.0, SVG Export Plug-In . SVG Version: 6.00 Build 0)  -->
<svg version="1.1" xmlns="http://www.w3.org/2000/svg" xmlns:xlink="http://www.w3.org/1999/xlink" x="0px" y="0px"
	 viewBox="0 0 1024 1024" style="enable-background:new 0 0 1024 1024;" xml:space="preserve">
<style type="text/css">
	.st0{fill:#5F5E5E;}
	.st1{fill-rule:evenodd;clip-rule:evenodd;fill:#5F5E5E;}
	.st2{fill:#E30613;}
</style>
<g id="Layer_2">
</g>
<g id="Layer_1">
	<g>
		<g>
			<path class="st0" d="M850.2,1012H173.8c-62.6,0-113.5-50.9-113.5-113.5V222.1c0-62.6,50.9-113.5,113.5-113.5h190.5
				c11.8-26.4,30.1-49.1,53.7-66.1c27.6-20,60-30.5,94-30.5s66.4,10.6,94,30.5c23.5,17,41.9,39.7,53.7,66.1h190.5
				c62.6,0,113.5,50.9,113.5,113.5v676.3C963.7,961.1,912.8,1012,850.2,1012z M173.8,142.4c-44,0-79.7,35.8-79.7,79.7v676.3
				c0,44,35.8,79.7,79.7,79.7h676.3c44,0,79.7-35.8,79.7-79.7V222.1c0-44-35.8-79.7-79.7-79.7H648.2c-7.1,0-13.5-4.5-15.9-11.2
				C613.8,80.2,565.5,45.8,512,45.8s-101.8,34.3-120.3,85.5c-2.4,6.7-8.8,11.2-15.9,11.2H173.8z M287.4,784.9h304.3v-62.8H287.4
				V784.9z M287.4,591.7h449.3v-62.8H287.4V591.7z M287.4,398.5h449.3v-62.8H287.4V398.5z M512,239.1c-36,0-65.2-29.3-65.2-65.2
				s29.3-65.2,65.2-65.2s65.2,29.3,65.2,65.2S548,239.1,512,239.1z M512,142.4c-17.3,0-31.4,14.1-31.4,31.4s14.1,31.4,31.4,31.4
				s31.4-14.1,31.4-31.4S529.3,142.4,512,142.4z"/>
		</g>
	</g>
</g>
</svg>
