<?xml version="1.0" encoding="utf-8"?>
<!-- Generator: Adobe Illustrator 24.1.0, SVG Export Plug-In . SVG Version: 6.00 Build 0)  -->
<svg version="1.1" xmlns="http://www.w3.org/2000/svg" xmlns:xlink="http://www.w3.org/1999/xlink" x="0px" y="0px"
	 viewBox="0 0 1024 1024" style="enable-background:new 0 0 1024 1024;" xml:space="preserve">
<style type="text/css">
	.st0{fill:#5F5E5E;}
	.st1{fill-rule:evenodd;clip-rule:evenodd;fill:#5F5E5E;}
	.st2{fill:#004E7C;}
</style>
<g id="Layer_2">
</g>
<g id="Layer_1">
	<g>
		<path class="st0" d="M500.3,1012c-6.1-1.4-12.4-2.4-18.4-4.4c-36.4-11.9-60.1-36.3-70.5-73.2c-1.2-4.4-2.8-5.7-7.4-5.7
			c-81.5,0.2-163.1,0.1-244.6,0.1c-17.6,0-27.9-16.7-19.5-31.4c3.9-6.8,10-10.1,17.7-10.4c36.8-1.2,62.7-27.8,62.7-64.6
			c0-61.4-1.1-122.7,0.2-184.1c2.7-119.9,58.1-207.8,164.1-263.9c1.6-0.9,3.2-3.1,3.5-4.9c8.5-55.6,50.3-97.6,106-106.3
			c65.8-10.3,130.5,36.4,141,102c0.9,5.3,2.6,8.5,7.8,11.2c86.6,45.6,139.3,116.5,156.8,212.9c2.9,15.9,3.9,32.3,4,48.5
			c0.4,61.8,0.2,123.7,0.2,185.5c0,35.6,26.7,62.8,62.2,63.6c11.7,0.2,20.7,8.9,21,20.1c0.3,11.7-8.1,20.9-19.9,21.7
			c-1.6,0.1-3.3,0-4.9,0c-80.9,0-161.8,0-242.7-0.1c-4.1,0-5.7,1.1-6.8,5.2c-10.7,41.3-44.5,71.3-86.4,77.1
			c-0.9,0.1-1.8,0.6-2.7,0.9C515.9,1012,508.1,1012,500.3,1012z M782.2,886.8c-17-27.8-20.2-39.3-20.2-71.6
			c0-59.9,0.1-119.8,0-179.7c0-20.1-2.3-39.9-7.6-59.3c-21.4-79.3-69.9-135.5-144.7-169.1c-9.8-4.4-14.4-11.5-14.6-22
			c-0.1-4.9-0.5-9.8-1.5-14.5c-8.9-42.2-47.1-70.3-89.9-66.4c-41.7,3.8-74.1,39.2-74.9,81.9c-0.2,9.9-4.7,16.9-14,20.8
			c-6.1,2.6-12.2,5.3-18,8.6c-86.5,48.3-132.2,122-134.5,221.1c-1.4,62.8-0.3,125.6-0.3,188.5c0,15-3,29.4-9.5,43
			c-3,6.4-6.8,12.4-10.3,18.9C422.1,886.8,601.9,886.8,782.2,886.8z M570.2,929.3c-39,0-77.8,0-116.6,0
			c8.7,25.4,33.5,41.7,61.8,40.9C539.4,969.5,564.1,951.1,570.2,929.3z"/>
		<path class="st0" d="M12,364.5c0.9-7.7,1.8-15.3,2.8-23c9.1-74,37.5-139.6,85.7-196.4c57.7-68,130.9-110.3,218.5-127
			c22.1-4.2,44.4-6.2,66.9-6.1c12.7,0,21.7,8.6,21.8,20.6c0.1,12.3-8.9,21.1-21.8,21.2c-91.9,1.1-170.7,33.9-235.6,98.8
			c-52.4,52.5-83.6,116.1-93.5,189.8c-2,14.6-2.2,29.5-3,44.2c-0.6,10.1-6.6,18.3-15.6,20.6c-9.4,2.4-19.1-1.8-23.7-10.2
			c-0.9-1.7-1.7-3.5-2.5-5.2C12,382.8,12,373.7,12,364.5z"/>
		<path class="st0" d="M1012,391.9c-3.1,7.7-7.8,13.9-16.6,15.6c-13.9,2.6-25.3-7.1-25.2-21.8c0-33.4-4.7-66.2-15-97.9
			C926.6,199.9,871.5,134.1,789.8,91c-47.4-25.1-98.3-37-151.9-37.2c-12.9,0-21.7-8.9-21.6-21.4c0.1-11.8,9-20.6,21.5-20.4
			c98.6,1.1,184.5,34.8,256.4,102.3c59.2,55.5,96.2,123.7,111.4,203.5c2.7,14.3,3.7,29,5.6,43.5c0.2,1.4,0.6,2.8,0.9,4.2
			C1012,374.3,1012,383.1,1012,391.9z"/>
		<path class="st0" d="M379.6,137c2.1,0,4.2,0,6.3,0c12.7,0.1,21.7,8.6,21.8,20.7c0.1,12.3-9,21.1-21.9,21.1
			c-24.5,0.1-48.4,3.8-71.1,12.9c-75.6,30.4-120.5,85.8-133.9,166.3c-1.5,9.1-1.7,18.4-2,27.7c-0.4,12.8-9.1,22.2-21.1,22.2
			c-12,0-20.8-9.4-20.8-22.2c-0.3-117.6,85.5-221.8,201-243.8c13.7-2.6,27.7-3.8,41.5-5.7C379.6,136.5,379.6,136.7,379.6,137z"/>
		<path class="st0" d="M644.2,137.2c66.2,2.5,123.5,26.5,170.2,73.7c47.7,48.2,71.7,106.7,72.6,174.6c0.2,13-8.5,22.2-20.6,22.4
			c-12.1,0.2-21-9.4-21.2-22.5c-0.6-53.2-18.7-99.7-54.6-138.7c-40.8-44.4-91.9-66.9-152.3-67.9c-11.7-0.2-21-7.7-21.9-18
			c-1.1-11.9,5.8-21.6,17.1-23.5C636.9,136.8,640.6,137.2,644.2,137.2z"/>
	</g>
</g>
</svg>
