<?xml version="1.0" encoding="utf-8"?>
<!-- Generator: Adobe Illustrator 24.1.0, SVG Export Plug-In . SVG Version: 6.00 Build 0)  -->
<svg version="1.1" xmlns="http://www.w3.org/2000/svg" xmlns:xlink="http://www.w3.org/1999/xlink" x="0px" y="0px"
	 viewBox="0 0 1024 1024" style="enable-background:new 0 0 1024 1024;" xml:space="preserve">
<style type="text/css">
	.st0{fill:#5F5E5E;}
	.st1{fill-rule:evenodd;clip-rule:evenodd;fill:#5F5E5E;}
	.st2{fill:#E30613;}
</style>
<g id="Layer_2">
</g>
<g id="Layer_1">
	<g>
		<path class="st0" d="M512,1012c-67.5,0-132.9-13.2-194.6-39.3c-59.5-25.2-113-61.3-158.9-107.2c-45.9-45.9-82-99.4-107.2-158.9
			C25.2,644.9,12,579.5,12,512s13.2-132.9,39.3-194.6c25.2-59.5,61.3-113,107.2-158.9c45.9-45.9,99.4-82,158.9-107.2
			C379.1,25.2,444.5,12,512,12s132.9,13.2,194.6,39.3c59.5,25.2,113,61.3,158.9,107.2c45.9,45.9,82,99.4,107.2,158.9
			c26.1,61.7,39.3,127.1,39.3,194.6s-13.2,132.9-39.3,194.6c-25.2,59.5-61.3,113-107.2,158.9c-45.9,45.9-99.4,82-158.9,107.2
			C644.9,998.8,579.5,1012,512,1012z M512,45.8c-62.9,0-123.9,12.3-181.4,36.6c-55.5,23.5-105.4,57.1-148.2,99.9
			c-42.8,42.8-76.5,92.7-99.9,148.2C58.1,388.1,45.8,449.1,45.8,512s12.3,123.9,36.6,181.4c23.5,55.5,57.1,105.4,99.9,148.2
			c42.8,42.8,92.7,76.5,148.2,99.9c57.5,24.3,118.5,36.6,181.4,36.6s123.9-12.3,181.4-36.6c55.5-23.5,105.4-57.1,148.2-99.9
			c42.8-42.8,76.5-92.7,99.9-148.2c24.3-57.5,36.6-118.5,36.6-181.4s-12.3-123.9-36.6-181.4c-23.5-55.5-57.1-105.4-99.9-148.2
			c-42.8-42.8-92.7-76.5-148.2-99.9C635.9,58.1,574.9,45.8,512,45.8z M512,915.4c-15.3,0-28-0.6-40.1-2c-8.5-1-15-8.2-15-16.8V699.9
			c0-37.9,31.3-70,90.6-92.9c51.2-19.8,106.8-26.9,138.8-26.9c51.6,0,146.7,18.4,196.3,59.4c5.6,4.7,7.6,12.4,5,19.2
			c-29.4,74.6-79.8,138.4-145.8,184.4C674.1,890.4,594.6,915.4,512,915.4z M490.7,881c6.5,0.4,13.5,0.5,21.3,0.5
			c75.7,0,148.5-22.9,210.5-66.1c56.9-39.7,101.2-93.8,128.7-157.1c-18.2-12.1-43.9-22.9-73.8-31c-31.1-8.4-65.1-13.4-91.1-13.4
			c-31.4,0-82.7,7.6-126.6,24.6c-60.1,23.2-69,48.4-69,61.4V881z M396.5,898c-1.7,0-3.4-0.3-5-0.8c-59.2-18.5-114.3-51.2-159.1-94.6
			c-44.6-43.2-79.2-96.9-100.1-155.5c-2.1-6-0.7-12.6,3.6-17.2c55.6-59.3,188.4-87,260.6-87c26.4,0,59.3,3.8,95.1,11
			c7,1.4,12.4,7.1,13.4,14.1c1,7.1-2.5,14-8.8,17.4c-37.8,20-82.8,56.2-82.8,114.5v181.2c0,5.4-2.6,10.4-6.9,13.6
			C403.6,896.9,400.1,898,396.5,898z M167.9,645.9c19.4,49.7,49.6,95.3,87.9,132.4c35.5,34.3,77.9,61.4,123.8,79V699.9
			c0-24.3,6.2-47.6,18.4-69.2c10.6-18.7,25.4-35.7,44.4-50.7c-17-2.2-32.6-3.3-45.9-3.3c-36.3,0-85,7.6-127,19.9
			C225.2,609.5,189.7,626.8,167.9,645.9z M686.4,538.6c-29.5,0-57.2-11.4-78-32.2c-20.7-20.7-32.2-48.4-32.2-77.9
			c-0.3-29.2,10.9-56.8,31.5-77.5c20.9-21.1,48.8-32.7,78.6-32.7c29.5,0,57.2,11.4,78,32.2c20.8,20.8,32.2,48.4,32.2,78
			s-11.4,57.2-32.2,78S715.9,538.6,686.4,538.6z M686.4,352.1c-20.7,0-40.1,8-54.6,22.7c-14.2,14.3-21.9,33.3-21.7,53.5
			c0,0.1,0,0.1,0,0.2c0,20.5,7.9,39.7,22.3,54c14.4,14.4,33.6,22.3,54,22.3s39.7-7.9,54-22.3c14.4-14.4,22.3-33.6,22.3-54
			s-7.9-39.7-22.3-54C726.1,360,706.9,352.1,686.4,352.1z M396.5,503.8c-72.2,0-130.9-58.7-130.9-130.9c0-35.1,13.6-68,38.2-92.7
			c24.6-24.6,57.6-38.2,92.7-38.2c72.2,0,130.9,58.7,130.9,130.9S468.7,503.8,396.5,503.8z M396.5,275.8
			c-26.1,0-50.5,10.1-68.8,28.3c-18.3,18.3-28.3,42.7-28.3,68.8c0,53.5,43.6,97.1,97.1,97.1s97.1-43.6,97.1-97.1
			S450.1,275.8,396.5,275.8z"/>
	</g>
</g>
</svg>
