<?xml version="1.0" encoding="utf-8"?>
<!-- Generator: Adobe Illustrator 24.1.0, SVG Export Plug-In . SVG Version: 6.00 Build 0)  -->
<svg version="1.1" xmlns="http://www.w3.org/2000/svg" xmlns:xlink="http://www.w3.org/1999/xlink" x="0px" y="0px"
	 viewBox="0 0 1024 1024" style="enable-background:new 0 0 1024 1024;" xml:space="preserve">
<style type="text/css">
	.st0{fill:#5F5E5E;}
	.st1{fill-rule:evenodd;clip-rule:evenodd;fill:#5F5E5E;}
	.st2{fill:#004E7C;}
</style>
<g id="Layer_2">
</g>
<g id="Layer_1">
	<g>
		<path class="st0" d="M819.6,1012c-1.6-0.8-3.2-1.4-4.7-2.3c-6.9-4.1-11.1-9.8-11.1-18.2c0-25.7,0-51.4,0-77.1c0-1.9,0-3.9,0-6.7
			c-7.1,0-14.1,0-21,0c-10.3-0.1-18.2-6.3-20.4-16.2c-0.5-2-0.5-4.2-0.5-6.3c0-20,0-40,0-60.7c-6.4,0-12.5,0-18.6,0
			c-14.9,0-23.2-8.4-23.2-23.3c0-140.3,0-280.6,0-420.9c0-115.1,0-230.1,0-345.2c0-11.7,5.6-19.8,15.6-22.5c2.2-0.6,4.5-0.7,6.8-0.7
			c54.7,0,109.4,0,164,0c13.3,0,21.9,8.5,22.2,21.9c0.1,7.1,0,14.3,0,20.3c10.9,4.7,21.8,8.1,31.3,13.7c29.1,17.1,46,42.8,51,76.3
			c0.1,0.9,0.6,1.7,0.9,2.6c0,116.5,0,233.1,0,349.6c-0.8,1.5-1.6,3.1-2.4,4.6c-5.9,11-19.9,14.5-30.2,7.4c-7-4.8-9.2-11.7-9.2-19.8
			c0-109.7,0-219.4,0.1-329c0-11.3-2.3-21.9-7.9-31.8c-7.5-13.4-18.5-22.7-33.5-28.6c0,2.6,0,4.5,0,6.4c0,91.8,0,183.6,0,275.3
			c0,139.9,0,279.9,0,419.8c0,15.6-8.2,23.8-23.7,23.8c-6,0-11.9,0-18.1,0c0,20.7,0,40.7,0,60.7c0,1.9,0,3.9-0.3,5.8
			c-2,10.1-10.1,16.6-20.5,16.6c-6.9,0-13.8,0-21,0c0,2.2,0,3.5,0,4.8c0,25.9-0.1,51.7,0.1,77.6c0.1,8.9-3.6,15.3-11.1,19.7
			c-1.5,0.9-3.1,1.5-4.7,2.3C826.1,1012,822.9,1012,819.6,1012z M886.7,782.5c0-132.1,0-263.6,0-395.1c-41.7,0-83.1,0-124.3,0
			c0,131.9,0,263.4,0,395.1C803.9,782.5,845.2,782.5,886.7,782.5z M762.3,54.1c0,97.3,0,194,0,290.6c41.7,0,83.1,0,124.3,0
			c0-97.1,0-193.8,0-290.6C845.1,54.1,803.8,54.1,762.3,54.1z M844.8,865.8c0-14,0-27.5,0-41c-13.8,0-27.2,0-40.6,0
			c0,13.8,0,27.3,0,41C817.8,865.8,831.1,865.8,844.8,865.8z"/>
		<path class="st0" d="M12,511.8c0-117.8,0-235.7,0-353.5c0-35.5,27.6-63.2,63.2-63.2c166.2,0,332.3,0,498.5,0
			c35.8,0,63.3,27.6,63.3,63.5c0,179.7,0,359.4,0.1,539c0,7.8-2.4,13.9-8.3,18.8c-1.1,0.9-2.2,2-3.2,3
			c-66,65.9-131.9,131.9-197.8,197.9c-4.6,4.6-8.6,9.9-15.6,10.9c-1.8,0.3-3.5,0.6-5.3,0.6c-110.2,0-220.4,0-330.5-0.1
			c-31.1,0-56-19.4-62.8-49c-1-4.6-1.5-9.3-1.5-14C12,747.8,12,629.8,12,511.8z M595.2,678.5c0-2.7,0-4.6,0-6.5
			c0-170.5,0-341.1,0-511.6c0-15.2-8.2-23.3-23.6-23.3c-164.7,0-329.4,0-494.1,0c-15.6,0-23.7,8.1-23.7,23.8
			c0,234.2,0.1,468.4-0.2,702.5c0,14.4,10.1,23.9,24,23.8c101.2-0.3,202.4-0.1,303.7-0.1c1.7,0,3.5,0,5.7,0c0-2.2,0-4,0-5.7
			c0-59.9,0-119.8,0-179.7c0-2.3,0-4.6,0.5-6.8c2.4-10.6,10.6-16.3,23.4-16.3c59.1,0,118.1,0,177.2,0
			C590.2,678.5,592.3,678.5,595.2,678.5z M429.1,854.4c44.5-44.5,89.6-89.6,134-134c-43.7,0-88.7,0-134,0
			C429.1,765.7,429.1,810.8,429.1,854.4z"/>
		<path class="st0" d="M179.3,316.4c1.3-1.8,2.2-3.6,3.6-5c34.8-34.9,69.7-69.7,104.6-104.7c6.3-6.3,13.5-9,22.2-6.5
			c13.9,4.1,19.5,20.5,10.9,32.3c-1.4,2-3.2,3.7-4.9,5.4c-39.8,39.8-79.6,79.7-119.5,119.5c-11.7,11.7-23,11.7-34.7,0.1
			c-20-20-40.1-40-60-60.1c-7.3-7.4-8.2-18-2.6-26.4c5.5-8.2,16.3-11.6,25.4-7.5c2.9,1.3,5.6,3.4,7.8,5.6
			C147.6,284.6,162.9,300.1,179.3,316.4z"/>
		<path class="st0" d="M178.7,546.5c2-2.8,2.9-4.4,4.2-5.7c35.2-35.2,70.4-70.5,105.6-105.7c6.7-6.7,15.5-8.4,23.7-4.7
			c8,3.6,13.3,11.5,12,20.4c-0.6,4.5-2.6,9.8-5.7,13c-41.6,42.1-83.6,84-125.5,125.8c-7.7,7.7-20.4,8.1-28.3,0.4
			c-21.6-21.2-43-42.6-64.2-64.2c-7.9-8.1-6.9-21.2,1.4-29c8.1-7.7,20.8-7.5,29,0.6c14.6,14.4,29,29,43.5,43.5
			C175.7,542.1,176.6,543.7,178.7,546.5z"/>
		<path class="st0" d="M439.4,512c23.9,0,47.8,0,71.7,0c11.7,0,20.9,8.1,21.5,18.9c0.7,12.3-6.8,21.3-19.1,22.8
			c-1.3,0.2-2.6,0.2-3.9,0.2c-47.2,0-94.3,0-141.5,0c-11.9,0-20.3-6.4-22.4-16.9c-2.6-12.8,6.9-24.8,20-24.9
			C390.3,511.9,414.9,512,439.4,512z"/>
		<path class="st0" d="M438.6,345.2c-23.7,0-47.5,0-71.2,0c-12.8,0-21.8-8.3-22.2-20.3c-0.3-11.4,8.5-20.4,20.9-21.3
			c1.3-0.1,2.6-0.1,3.9-0.1c46.2,0,92.4,0,138.6,0c8.2,0,15.6,1.7,20.5,9c4.7,6.9,5.1,14.3,1.4,21.7c-3.7,7.3-9.9,11-18.1,11
			C487.7,345.2,463.2,345.2,438.6,345.2z"/>
	</g>
</g>
</svg>
