<?xml version="1.0" encoding="utf-8"?>
<!-- Generator: Adobe Illustrator 24.1.0, SVG Export Plug-In . SVG Version: 6.00 Build 0)  -->
<svg version="1.1" xmlns="http://www.w3.org/2000/svg" xmlns:xlink="http://www.w3.org/1999/xlink" x="0px" y="0px"
	 viewBox="0 0 1024 1024" style="enable-background:new 0 0 1024 1024;" xml:space="preserve">
<style type="text/css">
	.st0{fill:#5F5E5E;}
	.st1{fill-rule:evenodd;clip-rule:evenodd;fill:#5F5E5E;}
	.st2{fill:#E30613;}
</style>
<g id="Layer_2">
</g>
<g id="Layer_1">
	<g>
		<g>
			<path class="st0" d="M512,1012c-64,0-116-52-116-116c0-9.3,7.6-16.9,16.9-16.9h198.2c9.3,0,16.9,7.6,16.9,16.9
				C628,960,576,1012,512,1012z M431.6,912.9c7.8,37.2,40.9,65.3,80.4,65.3s72.6-28,80.4-65.3H431.6z M908.4,863.4H115.6
				c-9.3,0-16.9-7.6-16.9-16.9v-49.5c0-4.5,1.8-8.8,5-12l94.1-94.1V450.1c0-79.9,21.1-152.8,61.2-210.8
				c39.3-56.9,95-96.6,161.8-115.5v-20.6c0-50.3,40.9-91.2,91.2-91.2s91.2,40.9,91.2,91.2v20.6c66.6,18.9,122.3,58.6,161.6,115.6
				c40.1,58.1,61.3,130.9,61.3,210.6v240.7l94.1,94.1c3.2,3.2,5,7.5,5,12v49.5C925.3,855.8,917.7,863.4,908.4,863.4z M132.5,829.5
				h758.9v-25.6l-94.1-94.1c-3.2-3.2-5-7.5-5-12V450.1c0-72.8-19.1-138.9-55.3-191.4C700,205,646.5,168.6,582.4,153.4
				c-7.6-1.8-13-8.6-13-16.4v-33.7c0-31.7-25.8-57.4-57.4-57.4s-57.4,25.8-57.4,57.4v33.7c0,7.8-5.4,14.6-13,16.5
				c-64.3,15.2-117.8,51.6-154.8,105.1c-36.1,52.3-55.2,118.5-55.2,191.6v247.7c0,4.5-1.8,8.8-5,12l-94.1,94.1V829.5z"/>
		</g>
	</g>
</g>
</svg>
