<?xml version="1.0" encoding="utf-8"?>
<!-- Generator: Adobe Illustrator 24.1.0, SVG Export Plug-In . SVG Version: 6.00 Build 0)  -->
<svg version="1.1" xmlns="http://www.w3.org/2000/svg" xmlns:xlink="http://www.w3.org/1999/xlink" x="0px" y="0px"
	 viewBox="0 0 1024 1024" style="enable-background:new 0 0 1024 1024;" xml:space="preserve">
<style type="text/css">
	.st0{fill:#5F5E5E;}
	.st1{fill-rule:evenodd;clip-rule:evenodd;fill:#5F5E5E;}
	.st2{fill:#E30613;}
</style>
<g id="Layer_2">
</g>
<g id="Layer_1">
	<g>
		<g>
			<g>
				<path class="st0" d="M762,160.6c53.3,0,104.6,7.3,148.3,21c26.9,9,48.1,18.6,66.7,30.5v626.2c-60.4-28.3-134.2-43.1-215-43.1
					c-40.7,0-90.5,7.4-140.1,20.8c-40.7,11-78.2,25.3-108.1,41c-31.1-19.7-67.9-35-109.8-45.5c-43.5-10.9-91.3-16.4-142-16.4
					c-35,0-75.6,5.1-117.5,14.8c-35.2,8.1-68.5,18.9-97.5,31.3V212.1c52-33.3,127.5-51.4,215-51.4c95.7,0,176.9,21.7,228.8,61.1
					c6.3,4.7,13.7,7.1,21.2,7.1s14.9-2.4,21.2-7.1C585.1,182.3,666.3,160.6,762,160.6 M512,842.5c6.5,0,13-1.8,18.6-5.4
					c26.6-16.7,65.5-32.5,109.5-44.4c43.2-11.7,87.6-18.4,121.8-18.4c54.6,0,104.5,7.1,148.5,21.1c3.5,1.1,7.1,1.6,10.6,1.6
					c7.3,0,14.6-2.3,20.7-6.7c9-6.6,14.3-17.1,14.3-28.3V239.3c0-15.2-9.9-28.7-24.4-33.4c-50.8-16.2-107.9-24.4-169.7-24.4
					c-40.7,0-90.5,7.4-140.1,20.8c-50.6,13.7-96.3,32.4-128.5,52.7c-10.2,6.4-16.4,17.6-16.4,29.6v522.7c0,12.7,6.9,24.5,18.1,30.6
					C500.4,841,506.2,842.5,512,842.5 M762,125.6c-88.6,0-184.1,18.2-250,68.2c-65.9-50-161.4-68.2-250-68.2S77.9,143.8,12,193.8
					v665.9c0,11.4,11.4,22.7,22.7,22.7c4.5,0,6.8-2.3,11.4-2.3c61.4-29.5,150-50,215.9-50c88.6,0,184.1,18.2,250,68.2
					c61.4-38.6,172.7-68.2,250-68.2c75,0,152.3,13.6,215.9,47.7c4.5,2.3,6.8,2.3,11.4,2.3c11.4,0,22.7-11.4,22.7-22.7V193.8
					c-27.3-20.5-56.8-34.1-90.9-45.5C870.6,132.5,815.2,125.6,762,125.6L762,125.6z M512,807.5V284.7c61.4-38.6,172.7-68.2,250-68.2
					c54.5,0,109.1,6.8,159.1,22.7V762c-50-15.9-104.5-22.7-159.1-22.7C684.7,739.3,573.4,768.8,512,807.5L512,807.5z"/>
				<g>
					<path class="st0" d="M762,330.2c-77.3,0-147.3,13.2-204.5,37.7v75.5c51.4-29.1,122.7-45,204.5-45c40,0,78.6,4.1,113.6,11.8
						v-69.1C839.7,334.3,801.1,330.2,762,330.2L762,330.2z"/>
					<path class="st0" d="M762,451.1c-77.3,0-147.3,13.6-204.5,37.7v75.5c51.4-29.1,122.7-45,204.5-45c40,0,78.6,4.1,113.6,11.8V462
						C839.7,455.2,801.1,451.1,762,451.1L762,451.1z"/>
					<path class="st0" d="M762,572.5c-77.3,0-147.3,13.2-204.5,37.7v75.5c51.4-29.1,122.7-45,204.5-45c40,0,78.6,4.1,113.6,11.8
						v-69.1C839.7,576.1,801.1,572.5,762,572.5L762,572.5z"/>
				</g>
			</g>
		</g>
	</g>
</g>
</svg>
