<?xml version="1.0" encoding="utf-8"?>
<!-- Generator: Adobe Illustrator 24.1.0, SVG Export Plug-In . SVG Version: 6.00 Build 0)  -->
<svg version="1.1" xmlns="http://www.w3.org/2000/svg" xmlns:xlink="http://www.w3.org/1999/xlink" x="0px" y="0px"
	 viewBox="0 0 1024 1024" style="enable-background:new 0 0 1024 1024;" xml:space="preserve">
<style type="text/css">
	.st0{fill:#5F5E5E;}
	.st1{fill-rule:evenodd;clip-rule:evenodd;fill:#5F5E5E;}
	.st2{fill:#004E7C;}
</style>
<g id="Layer_2">
</g>
<g id="Layer_1">
	<g>
		<path class="st0" d="M12,188c1.2-5.3,2.3-10.7,3.7-15.9c12.4-45.1,53.1-76.6,99.8-76.6c152.5-0.1,305-0.1,457.5,0
			c11.8,0,21,7.5,22.1,17.9c1.2,11.6-5.1,21-16,23.4c-2.3,0.5-4.8,0.5-7.3,0.5c-151,0-302.1,0-453.1,0c-37.9,0-64.9,27-64.9,64.8
			c0,234.6,0,469.3,0,703.9c0,37.3,27,64.3,64.3,64.3c122.1,0,244.1,0,366.2,0c2.1,0,4.2,0,7,0c0-2,0-3.5,0-5.1
			c0-53.7,0-107.4-0.1-161.1c-0.1-35,27.3-62.6,62.4-62.6c53.4,0,106.8,0,160.2,0c1.9,0,3.8,0,6.4,0c0-2.5,0-4.6,0-6.6
			c0-73.1,0-146.1,0-219.2c0-2.6,0.1-5.2,0.6-7.7c2.3-11.1,11.7-17.5,23.6-16.3c9.6,1,17.6,10,17.6,20.2c0,83.8,0,167.6,0,251.4
			c0,5.7-2.5,10.3-6.4,14.2c-74.6,74.5-149.2,149-223.9,223.5c-4.2,4.1-9.2,7.4-13.8,11.1c-137.7,0-275.4,0-413.1,0
			c-0.9-0.3-1.8-0.8-2.7-0.9c-43.2-6-77.4-37.2-87.4-79.6c-1-4.1-1.8-8.2-2.7-12.2C12,675.5,12,431.7,12,188z M532.7,938.8
			c52.1-52.1,104.2-104.2,156.1-156.1c-0.9,0-2.5,0-4.1,0c-20.3,0-40.7,0-61,0c-22.3,0-44.6,0-66.8,0c-11.6,0-19.4,4.6-22.5,13.6
			c-1.2,3.6-1.7,7.6-1.7,11.5c-0.1,42.6-0.1,85.2-0.1,127.8C532.7,936.9,532.7,938.2,532.7,938.8z"/>
		<path class="st0" d="M1012,37.6c-4,11.7-15,17.7-22.3,27c7,12.6,11,26.1,11.1,40.7c0.2,24.2-8.5,44.6-25.6,61.7
			C909,233.2,842.9,299.3,776.7,365.5c-73.6,73.6-147.3,147.2-220.8,221c-6.5,6.5-13.5,11.2-22,14.5
			c-43.7,17.1-87.2,34.7-130.8,52.2c-2.6,1.1-5.1,2.8-7.2,4.8c-11.8,11.6-23.5,23.5-35.3,35.1c-5.9,5.8-12.9,8-21,5.7
			c-7.9-2.2-12.8-7.5-14.6-15.4c-1.8-8,0.7-14.7,6.5-20.4c11.6-11.6,23.3-23.2,34.8-34.9c1.9-1.9,3.5-4.3,4.5-6.8
			c18.5-46.1,36.9-92.3,55.4-138.4c1.2-3.1,3.1-6.2,5.4-8.5C536.4,369.5,641.3,264.8,746.2,160c15.7-15.6,31.3-31.3,46.9-46.9
			c1.1-1.1,2.2-2.3,4.6-4.8c-8.1-1.9-15.2-4.4-22.4-5.1c-20.9-2.1-38.5,5.3-53.3,20.1c-29.7,29.9-59.6,59.6-89.3,89.5
			c-5.3,5.3-11.2,7.8-18.7,7.7c-13.2-0.3-26.4,0-39.5-0.1c-12,0-20.6-8.7-20.6-20.6c0-11.9,8.6-20.6,20.5-20.7
			c9.4-0.1,18.9-0.1,28.3,0.1c3.4,0.1,5.7-1.1,8.1-3.4c27.4-27.6,55-55,82.5-82.5c36.1-36.1,88.3-42.4,132-16.1
			c0.7,0.4,1.4,0.8,3.1,1.8c4.4-4.7,8.8-9.6,13.5-14.3c7.3-7.4,14.3-15.3,22.4-21.7c28.2-22.3,58.9-25.3,91.4-10.2
			c1.3,0.6,2.6,1.3,4.5,2.3c4.7-4.8,9.4-9.7,14.2-14.5c13.3-13.3,29.4-10.3,37,7c0.1,0.2,0.5,0.4,0.7,0.6
			C1012,31.1,1012,34.4,1012,37.6z M829.4,137.7c-117.6,117.6-235.1,235.1-352,351.9c19,19,38.4,38.4,57,57
			c117.1-117.1,234.6-234.6,352-351.9C867.6,175.8,848.3,156.5,829.4,137.7z M918.1,164.8c9.6-9.6,19.6-19.4,29.3-29.4
			c14.9-15.2,15.6-39.9,1.9-55.4c-15-17-39.5-20.6-56.4-6.5c-11.9,10.1-21.8,22.6-32.3,33.8C879.1,125.8,898.4,145.2,918.1,164.8z
			 M424.7,599.4c24.9-10,48.5-19.4,71.9-28.8c-14.6-14.6-28.8-28.8-43.1-43.1C444.1,551,434.6,574.7,424.7,599.4z"/>
	</g>
</g>
</svg>
