<?xml version="1.0" encoding="utf-8"?>
<!-- Generator: Adobe Illustrator 24.1.0, SVG Export Plug-In . SVG Version: 6.00 Build 0)  -->
<svg version="1.1" xmlns="http://www.w3.org/2000/svg" xmlns:xlink="http://www.w3.org/1999/xlink" x="0px" y="0px"
	 viewBox="0 0 1024 1024" style="enable-background:new 0 0 1024 1024;" xml:space="preserve">
<style type="text/css">
	.st0{fill:#5F5E5E;}
	.st1{fill-rule:evenodd;clip-rule:evenodd;fill:#5F5E5E;}
	.st2{fill:#004E7C;}
</style>
<g id="Layer_2">
</g>
<g id="Layer_1">
	<g>
		<path class="st0" d="M12,486.6c0.6-5.7,1.1-11.5,1.8-17.2c2.3-17.5,4.5-35.1,7.3-52.6c2-12.7,12.8-20.1,24.7-17.9
			c11.7,2.2,18.6,13.1,16.2,25.8c-18.2,97.9-6.6,192.1,35.3,282.6c4.5,9.6,3,19.2-3.9,25.6c-6.8,6.3-17.1,7.8-24.8,2.6
			c-3.6-2.4-6.9-6.1-8.8-10c-16.9-35.1-29.2-71.9-37.2-110c-5.2-24.8-8.7-49.9-10-75.3c0-0.9-0.5-1.8-0.8-2.7
			C12,520.5,12,503.6,12,486.6z"/>
		<path class="st0" d="M523.6,1012c-1.2-0.5-2.3-1-3.5-1.5c-9.7-3.8-14.9-12.9-13.2-23.4c1.5-9.3,9.9-16.7,19.8-17
			c64.4-2.1,125.6-17.3,183.7-45.1c29.9-14.3,57.9-31.7,83.9-52.2c5.5-4.3,11.3-7.1,18.4-5.8c8.8,1.6,14.8,6.8,16.9,15.5
			c2.2,8.9-0.5,16.7-8,22c-16.3,11.6-32.3,23.7-49.3,34.2c-58,35.8-121,58.3-188.4,68.2c-14,2-28.1,2.9-42.2,4.3
			c-1.5,0.2-3.1,0.6-4.6,0.9C532.8,1012,528.2,1012,523.6,1012z"/>
		<path class="st0" d="M512,720.9c-53.3-0.6-103.1-14.7-150.7-37.7c-54.1-26.2-101.6-61.7-145.1-102.7c-8.5-8-16.9-16.2-24.9-24.8
			c-24-25.8-24.2-62.2,0.1-87.6c45.6-47.6,96.4-88.7,154.9-119.7c40.1-21.3,82.2-36.5,127.4-42.3c48.1-6.2,95-0.5,140.9,14.9
			c51.6,17.4,97.7,44.6,140.7,77.5c27.6,21.1,53.2,44.3,77.3,69.4c24.1,25.1,24.6,62.5,0.5,87.6c-45.6,47.6-96.3,88.7-154.8,119.9
			c-39.8,21.2-81.6,36.4-126.4,42.3C538.6,719.4,525.2,719.8,512,720.9z M512,678.6c34.2,0,67.2-6.8,99-18.8
			c75.4-28.5,137.2-76.7,192.4-134.1c7.7-8,7.5-19.8-0.6-27.7c-17-16.6-33.8-33.4-51.9-48.8c-40-34.3-83.7-62.8-132.9-82.2
			c-34.6-13.7-70.4-21.7-107.8-21.4c-42.3,0.3-82.3,10.9-120.6,28.3c-65.1,29.5-119.9,73.2-169.1,124.4c-7.6,7.9-7.4,19.9,0.2,27.9
			c7.2,7.5,14.5,14.9,22.1,22.1c40.8,38.9,85.5,72.6,136.4,97.4C421.2,665.8,465,678.5,512,678.6z"/>
		<path class="st0" d="M728.7,72.4c0.1,17.8-15,27.2-30,21.3c-18.1-7.1-36.2-14.5-54.8-20.3c-60-18.5-121.3-23.9-183.7-16.6
			c-15.5,1.8-30.8,4.8-46.1,7.5c-12,2.2-22.7-4.1-25.4-15.6c-2.7-11.5,4-22.4,15.9-25.1c38.9-8.8,78.3-12.6,118.1-11.6
			c66.8,1.6,130.7,15.8,191.9,42.8C723.4,58.8,728.3,65,728.7,72.4z"/>
		<path class="st0" d="M60.2,300.9c1.1-3.3,1.9-6.9,3.4-10c22-44.8,50.2-85.4,84.4-121.7c38.6-41,82.8-74.4,132.7-100.5
			c13.9-7.3,28.8-0.6,31.7,14.2c1.7,8.9-2.5,17.5-11.3,22.2c-26.5,14-51.6,30.1-75,48.9c-52.7,42.2-94.1,93.5-124.2,154
			c-3.7,7.5-8.8,12.8-17.4,13.9C71.7,323.5,60.8,313.9,60.2,300.9z"/>
		<path class="st0" d="M814,119.4c5.8-0.1,10.6,2.3,15,6c51.5,42.4,93,93,124.4,151.8c18.5,34.7,32.6,71.1,42.5,109.1
			c2.7,10.2-0.6,19.4-8.4,24.4c-7.8,5-18.1,4.8-24.8-1.8c-3.3-3.2-6-7.9-7.1-12.3c-12.5-47-31.6-91-57.9-132
			c-26.4-41.1-58.6-77.1-96.4-108c-7.4-6-9.9-15.1-6.8-23.7C797.4,124.8,805.2,119.4,814,119.4z"/>
		<path class="st0" d="M1011.9,530.1c-4.7,102.7-36.9,195.7-97.5,278.8c-5.8,7.9-13.3,11.3-22.9,9.3c-8.7-1.8-14.7-8.9-15.8-18.3
			c-0.7-5.8,1.2-10.8,4.7-15.4c27.5-37.3,49-77.7,64.2-121.5c16.8-48.2,25.5-97.7,25.5-148.7c0-10.7,5.8-18.9,15-21.5
			c9-2.6,18.7,0.8,23.4,8.8c1.9,3.2,2.9,7.2,3.3,11C1012.3,518.4,1011.9,524.2,1011.9,530.1z"/>
		<path class="st0" d="M402.5,999.8c-6.1-1.5-13-2.9-19.7-4.7c-89.4-24.3-166.4-69.7-231-136.2c-6.9-7.1-13.5-14.6-19.9-22.1
			c-8.3-9.7-7.6-22.7,1.4-30.5c9-7.7,21.9-6.4,30.3,3.4c25.3,29.5,53.9,55.5,85.8,77.8c48.2,33.7,101,57.2,158.3,70.7
			c9.8,2.3,16.3,10.1,16.6,19.7c0.3,9.6-5.5,17.8-14.7,20.6C407.5,999.2,405.3,999.3,402.5,999.8z"/>
		<path class="st0" d="M512.1,387c69.6,0,124.9,55.9,124.8,126.1c0,68.8-56.3,124.1-126.6,123.8c-68.4-0.3-124.2-57.1-123.5-127
			C387.5,442.6,443.6,387,512.1,387z M595.1,512.4c0-46.3-36.8-83.5-82.6-83.6c-46.3,0-83.6,36.8-83.7,82.5
			c-0.1,46.6,36.8,83.8,82.9,83.8C557.8,595.2,595.1,558.3,595.1,512.4z"/>
	</g>
</g>
</svg>
