<?xml version="1.0" encoding="utf-8"?>
<!-- Generator: Adobe Illustrator 24.1.0, SVG Export Plug-In . SVG Version: 6.00 Build 0)  -->
<svg version="1.1" xmlns="http://www.w3.org/2000/svg" xmlns:xlink="http://www.w3.org/1999/xlink" x="0px" y="0px"
	 viewBox="0 0 1024 1024" style="enable-background:new 0 0 1024 1024;" xml:space="preserve">
<style type="text/css">
	.st0{fill:#5F5E5E;}
	.st1{fill-rule:evenodd;clip-rule:evenodd;fill:#5F5E5E;}
	.st2{fill:#004E7C;}
</style>
<g id="Layer_2">
</g>
<g id="Layer_1">
	<path class="st0" d="M939.9,256.7c-3.3,0-5.3,0-7.4,0c-82.8,0-165.6,0-248.4,0c-13.8,0-22.5-6.7-24.8-18.9
		c-2.3-12.6,7.5-25,20.4-25.7c1.2-0.1,2.4,0,3.6,0c101.7,0,203.4,0.2,305.1-0.2c12.9,0,23.6,11.1,23.5,23.4c-0.4,88-0.2,176-0.2,264
		c0,10.6-6.2,19.2-15.8,22c-9.6,2.8-20.2-0.6-24.9-9.2c-2.4-4.3-3.8-9.8-3.8-14.8c-0.2-65.4-0.2-130.9-0.2-196.3c0-2,0-4,0-7.5
		c-4.7,5.3-8.5,9.5-12.2,13.7c-84.2,95.5-168.5,190.9-252.7,286.4c-23.4,26.5-65.2,30.6-92.7,8.2C568.1,568,527.2,533.4,486,499.1
		c-24.9-20.8-49.8-41.5-74.8-62.3c-11.8-9.8-25.3-9-35.5,2.5c-46.5,52.2-92.9,104.5-139.4,156.7c-61.7,69.4-123.3,138.7-185,208.1
		c-8.7,9.8-22.7,10.7-32.1,2.2c-9.3-8.4-9.8-22.2-1-32.2c33.5-37.8,67.1-75.5,100.6-113.2c73.8-83,148-165.6,221-249.1
		c26.6-30.4,70.9-34.4,102.4-7.6c63.5,54.2,128,107.1,192.2,160.5c12.5,10.4,25.4,9.4,36.2-2.7c40-45.2,79.9-90.5,119.9-135.8
		c48.4-54.9,96.9-109.8,145.3-164.7C936.9,260.3,938,259,939.9,256.7z"/>
</g>
</svg>
