<?xml version="1.0" encoding="utf-8"?>
<!-- Generator: Adobe Illustrator 24.1.0, SVG Export Plug-In . SVG Version: 6.00 Build 0)  -->
<svg version="1.1" xmlns="http://www.w3.org/2000/svg" xmlns:xlink="http://www.w3.org/1999/xlink" x="0px" y="0px"
	 viewBox="0 0 1024 1024" style="enable-background:new 0 0 1024 1024;" xml:space="preserve">
<style type="text/css">
	.st0{fill:#5F5E5E;}
	.st1{fill-rule:evenodd;clip-rule:evenodd;fill:#5F5E5E;}
	.st2{fill:#004E7C;}
</style>
<g id="Layer_2">
</g>
<g id="Layer_1">
	<g>
		<path class="st0" d="M12,958.3c0-297.5,0-595.1,0-892.6c0.4-1.2,0.9-2.4,1.1-3.6C19,33.1,44.5,12,74,12c292,0,584,0,876.1,0
			c28.2,0,53.1,19.5,60.1,46.8c0.6,2.3,1.3,4.6,1.9,6.9c0,297.5,0,595.1,0,892.6c-0.4,1-0.8,2-1,3.1c-5.5,24.4-20.1,40.5-43.9,48.2
			c-2.9,0.9-5.8,1.6-8.7,2.4c-297.5,0-595.1,0-892.6,0c-1-0.4-2-0.8-3.1-1c-24.4-5.5-40.5-20.1-48.2-43.9
			C13.5,964.2,12.8,961.2,12,958.3z M511.5,970.2c145,0,290,0,435.1,0c15.8,0,23.6-7.9,23.6-23.7c0-289.5-0.1-579.1,0.2-868.6
			c0-14.6-10-24.2-24-24.2c-289.6,0.3-579.1,0.3-868.7,0c-14.1,0-24.1,9.6-24,24.2c0.3,289.4,0.3,578.8,0,868.2
			c0,14.9,9.9,24.4,24.3,24.4C222.4,970,367,970.2,511.5,970.2z"/>
		<path class="st0" d="M720.3,470.2c-91.8,1-168.4-76-166.7-169.8c1.6-88.3,74.6-164.7,169.4-163.4c90.2,1.2,165.4,75.8,164,169.2
			C885.6,399.1,808.9,471.2,720.3,470.2z M844.8,310c-1.6,0-2.9-0.1-4.1,0c-22.1,2.7-44.2,5.4-66.3,8.1c-16.9,2.1-33.9,4.4-50.8,6.2
			c-15.9,1.7-26.7-10.7-23.3-26.4c6.5-29.7,13-59.3,19.5-89c2.1-9.8,4.2-19.6,6.4-29.5c-55-4.9-121.6,36.2-129.9,110.3
			c-8.2,72.5,47.5,136.6,119,138.9C790,430.9,843.2,370.9,844.8,310z M747.1,279.4c31.5-3.9,62.1-7.6,93.1-11.4
			c-12.6-38-36.6-64.4-73-80.2C760.5,218.5,753.8,248.6,747.1,279.4z"/>
		<path class="st0" d="M137,303.8c0-41.5,0-83,0-124.5c0-24.1,18.2-42.3,42.2-42.3c69.1,0,138.3,0,207.4,0c23.5,0,42,18,42.1,41.6
			c0.2,83.3,0.2,166.6,0,249.9c0,23.9-18.4,41.7-42.3,41.7c-69.1,0-138.3,0-207.4,0c-23.9,0-42-18-42-41.9
			C137,386.8,137,345.3,137,303.8z M179.1,179c0,83.5,0,166.4,0,249.5c69.4,0,138.4,0,207.5,0c0-83.3,0-166.4,0-249.5
			C317.4,179,248.4,179,179.1,179z"/>
		<path class="st0" d="M887,720.5c0,41.3,0,82.6,0,124c0,24.4-18.1,42.5-42.5,42.5c-69,0-138,0-207,0c-23.8,0-42.3-18-42.3-41.8
			c-0.1-83.1-0.1-166.3,0-249.4c0-24,18.3-41.9,42.1-41.9c69.3,0,138.6,0,207.9,0c23.6,0,41.7,18.1,41.7,41.7
			C887,637.2,887,678.8,887,720.5z M844.9,845c0-83.5,0-166.4,0-249.5c-69.3,0-138.4,0-207.5,0c0,83.3,0,166.4,0,249.5
			C706.6,845,775.6,845,844.9,845z"/>
		<path class="st0" d="M341.1,753.5c11.3-15,22.3-29.7,33.3-44.4c26.4-35.1,52.7-70.3,79.1-105.4c4.9-6.5,11.6-9.3,19.7-8.2
			c8.3,1.2,14,5.9,16.8,13.7c2.8,7.7,0.8,14.6-4.1,21c-23.6,31.3-47.1,62.7-70.6,94.1c-13.2,17.6-26.3,35.1-39.5,52.7
			c-15.6,20.8-40.6,24.4-61.4,8.8c-14.4-10.8-28.9-21.7-43.3-32.5c-1.4-1.1-2.9-2-4.6-3.3c-10.4,14.6-20.7,29-31,43.4
			c-20.1,28.2-40.2,56.4-60.4,84.5c-5.9,8.2-15.5,11.1-24.6,7.8c-8.6-3.2-14.3-11.6-13.3-21.1c0.4-3.9,1.9-8,4.2-11.2
			c30.3-42.7,60.7-85.4,91.3-127.9c14.2-19.7,40-23.3,59.6-8.8C308.3,728.9,324.4,741,341.1,753.5z"/>
		<path class="st0" d="M282.8,262c-13.7,0-27.3,0-41,0c-12.2,0-21.4-8.7-21.6-20.5c-0.2-11.2,8.7-21.1,20.5-21.2
			c28.1-0.3,56.3-0.3,84.4,0c12.3,0.2,20.5,9.8,20.1,22.2c-0.4,11.1-9.5,19.4-21.4,19.5C310.1,262,296.4,262,282.8,262z"/>
		<path class="st0" d="M261.9,303.8c7.2,0,14.3-0.1,21.5,0c11.3,0.1,20.4,9.3,20.4,20.6c0.1,11.3-9,20.7-20.3,20.7
			c-14.3,0.1-28.6,0.1-42.9,0c-11.3-0.1-20.4-9.2-20.4-20.6c-0.1-11.3,9-20.6,20.3-20.7C247.6,303.8,254.8,303.8,261.9,303.8z"/>
		<path class="st0" d="M740.9,720.2c-13.8,0-27.6,0-41.5,0c-12,0-20.7-8.7-20.7-20.5c0-12.1,8.6-20.8,20.9-20.8
			c27.6,0,55.3,0,82.9,0c12,0,21.3,9.1,21.2,20.8c-0.1,11.7-9.3,20.5-21.4,20.6C768.6,720.2,754.8,720.2,740.9,720.2z"/>
		<path class="st0" d="M720.8,762c6.5,0,13,0,19.5,0c11.9,0,21.1,8.2,21.7,19.3c0.6,11.8-7.2,21.7-19.1,22.3
			c-15.1,0.7-30.3,0.8-45.4-0.1c-12.2-0.7-19.4-10.5-18.7-23c0.6-10.4,10-18.4,21.4-18.5C707.1,762,713.9,762,720.8,762z"/>
	</g>
</g>
</svg>
