<?xml version="1.0" encoding="utf-8"?>
<!-- Generator: Adobe Illustrator 24.1.0, SVG Export Plug-In . SVG Version: 6.00 Build 0)  -->
<svg version="1.1" xmlns="http://www.w3.org/2000/svg" xmlns:xlink="http://www.w3.org/1999/xlink" x="0px" y="0px"
	 viewBox="0 0 1024 1024" style="enable-background:new 0 0 1024 1024;" xml:space="preserve">
<style type="text/css">
	.st0{fill:#5F5E5E;}
	.st1{fill-rule:evenodd;clip-rule:evenodd;fill:#5F5E5E;}
	.st2{fill:#004E7C;}
</style>
<g id="Layer_2">
</g>
<g id="Layer_1">
	<g>
		<path class="st0" d="M1012,65.7c0,255.9,0,511.7,0,767.6c-0.3,0.4-0.7,0.7-0.8,1.2c-4,27.7-29,53.3-65.1,52.7
			c-31.7-0.5-63.4-0.1-95.1-0.1c-1.9,0-3.7,0-5.8,0c0,21.5,0.2,42.1-0.1,62.7c-0.3,25.2-12.1,43.8-34.2,55.3
			c-6.3,3.3-13.7,4.7-20.6,6.9c-241.2,0-482.4,0-723.6,0c-0.7-0.3-1.4-0.8-2.1-0.9c-20.6-3.6-35.8-14.8-45.7-33
			c-6.1-11.2-7-23.4-7-35.9c0.1-233.8,0.1-467.6,0.1-701.4c0-32.4,24.8-59.8,57.1-61.7c20.6-1.2,41.3-0.4,62-0.5
			c1.9,0,3.7-0.2,5.9-0.3c0-2.3,0-4.1,0-5.8c0-32.9-0.2-65.7,0.1-98.6c0.1-20.7,9-37.2,25.3-49.8c8.1-6.3,17.7-9.2,27.4-12
			c256.5,0,513,0,769.5,0c1,0.4,2,0.8,3.1,1.1c22.5,5.4,38,18.9,46.2,40.6C1010,57.6,1010.9,61.7,1012,65.7z M970.2,449.5
			c0-67,0-134.1,0-201.1c0-57.6,0-115.2,0-172.8c0-10.4-5.5-18.5-14.8-21c-3.2-0.9-6.7-1-10.1-1c-247.2,0-494.4,0-741.5,0
			c-0.8,0-1.6,0-2.4,0c-14.1,0.3-22.3,8.7-22.4,22.7c0,44.4,0,88.9,0,133.3c0,203.9,0.1,407.8-0.2,611.7c0,14,9.4,24.1,24.2,24.1
			c247.8-0.2,495.7-0.2,743.5,0c14.9,0,24-10.5,24-23.8C970,697.5,970.2,573.5,970.2,449.5z M803.8,887c-2.4,0-4.3,0-6.2,0
			c-83.7,0-167.3,0-251,0c-114.9,0-229.8,0-344.7,0c-37.9,0-64.9-27-64.9-64.8c0-198.4,0-396.8,0-595.2c0-2.2,0-4.4,0-6.8
			c-20.6,0-40.5,0-60.3,0c-1.1,0-2.3,0-3.4,0.1c-11.4,1-19.4,9.8-19.4,21.7c0,235.5,0,471,0,706.5c0,2.4,0.2,4.9,1,7.2
			c3.1,9.7,10.8,14.5,22.8,14.5c233.9,0,467.7,0,701.6,0c16.4,0,24.5-8.1,24.6-24.6c0.1-13.8,0-27.7,0-41.5
			C803.8,898.5,803.8,893,803.8,887z"/>
		<path class="st0" d="M720.2,336.8c2.6-0.8,4.8-1.3,6.9-2c30-10,60-20,90.1-30c10.3-3.4,20.6,0.1,25.3,9c1.6,3,2.6,6.8,2.6,10.2
			c0.2,83.5,0.2,167,0.1,250.5c0,14.5-13.3,24.1-27.4,19.6c-25.2-8.1-50.3-16.7-75.4-25c-7.2-2.4-14.4-4.8-21.7-7.2
			c-0.5,9-0.3,17.6-1.6,26.1c-6.2,39.7-40.4,69.5-80.3,69.6c-84.5,0.2-168.9,0.2-253.4,0c-45-0.1-81.5-37.5-81.5-82.6
			c0-83.8,0-167.6,0-251.4c0-45,36.6-82.3,81.7-82.5c84.3-0.3,168.6-0.3,252.9,0c45.1,0.1,81.7,37.5,81.7,82.5
			C720.2,327.8,720.2,332,720.2,336.8z M803.6,353.5c-7.9,2.6-15.4,5.1-22.9,7.6c-24.4,8.1-48.8,16-73,24.4
			c-16.2,5.6-29.8-7-28.9-20.8c0.8-12.3,0.3-24.7,0.1-37.1c-0.3-27.6-17.8-44.9-45.4-44.9c-80.9,0-161.7,0-242.6,0
			c-27.5,0-45.4,16.9-45.5,44.3c-0.3,81.7-0.2,163.4,0,245.1c0.1,25.8,17.9,43.9,42.4,43.9c83,0.1,166,0.1,248.9,0
			c22.7,0,40.5-16.6,41.8-39.3c0.8-13.9,1.1-28,0.3-41.9c-0.9-15.5,13.7-27.1,29.7-21.3c21.2,7.7,42.8,14.4,64.2,21.5
			c10.3,3.4,20.5,6.8,31.1,10.3C803.6,481.2,803.6,417.6,803.6,353.5z"/>
	</g>
</g>
</svg>
