<?xml version="1.0" encoding="utf-8"?>
<!-- Generator: Adobe Illustrator 24.1.0, SVG Export Plug-In . SVG Version: 6.00 Build 0)  -->
<svg version="1.1" xmlns="http://www.w3.org/2000/svg" xmlns:xlink="http://www.w3.org/1999/xlink" x="0px" y="0px"
	 viewBox="0 0 1024 1024" style="enable-background:new 0 0 1024 1024;" xml:space="preserve">
<style type="text/css">
	.st0{fill:#5F5E5E;}
	.st1{fill-rule:evenodd;clip-rule:evenodd;fill:#5F5E5E;}
	.st2{fill:#E30613;}
</style>
<g id="Layer_2">
</g>
<g id="Layer_1">
	<g>
		<path class="st0" d="M621.8,1012H534c-9.3,0-16.9-7.6-16.9-16.9c0-51.1-10-100.6-29.7-147.3c-19.1-45.1-46.3-85.5-81.1-120.3
			c-34.8-34.8-75.2-62-120.3-81.1c-46.6-19.7-96.2-29.7-147.3-29.7c-9.3,0-16.9-7.6-16.9-16.9V512c0-9.3,7.6-16.9,16.9-16.9
			c67.5,0,133.1,13.2,194.7,39.3c59.6,25.2,113,61.2,158.9,107.1s81.9,99.4,107.1,158.9c26.1,61.7,39.3,127.2,39.3,194.7
			C638.7,1004.4,631.1,1012,621.8,1012z M550.5,978.2h54.1c-2-57-14.2-112.3-36.3-164.6c-23.5-55.5-57.1-105.4-99.9-148.2
			c-42.8-42.8-92.7-76.4-148.2-99.9c-52.3-22.1-107.6-34.3-164.6-36.3v54.1c49.7,2,97.9,12.7,143.5,32.1
			c49.1,20.8,93.2,50.5,131,88.3c37.8,37.8,67.6,81.9,88.3,131C537.8,880.3,548.5,928.5,550.5,978.2z M446.1,1012h-87.8
			c-9.3,0-16.9-7.6-16.9-16.9c0-111.8-90.9-202.7-202.7-202.7c-9.3,0-16.9-7.6-16.9-16.9v-87.8c0-9.3,7.6-16.9,16.9-16.9
			c86.7,0,168.2,33.7,229.4,94.9c61.2,61.2,94.9,142.7,94.9,229.4C463,1004.4,455.5,1012,446.1,1012z M374.6,978.2h54.1
			c-4.1-71.3-33.7-137.7-84.5-188.6c-50.8-50.8-117.3-80.5-188.6-84.5v54.1C272.6,767.5,366.3,861.2,374.6,978.2z M270.5,1012H138.7
			c-9.3,0-16.9-7.6-16.9-16.9V863.3c0-9.3,7.6-16.9,16.9-16.9c39.8,0,77.1,15.4,105.2,43.5s43.5,65.4,43.5,105.2
			C287.4,1004.4,279.8,1012,270.5,1012z M155.6,978.2h96.7c-3.5-24.3-14.7-46.7-32.4-64.4s-40-28.8-64.4-32.4V978.2z M797.5,968.1
			h-91.3c-8.8,0-16.2-6.8-16.9-15.6c-4.7-59.8-18.3-117.1-40.5-170.5c-2.2-5.2-1.6-11.2,1.5-15.9c3.1-4.7,8.4-7.5,14.1-7.5h116.2
			V221.5H375.2v247c0,5.7-2.8,11-7.6,14.1c-4.7,3.1-10.7,3.7-15.9,1.5c-26.1-11-54.8-20.2-85.1-27.2c-7.7-1.8-13.1-8.6-13.1-16.5
			V116.7C253.5,59,300.5,12,358.3,12l439.2,0.4c57.7,0,104.7,46.8,104.7,104.3v746.6C902.2,921.1,855.2,968.1,797.5,968.1z
			 M721.6,934.3h75.9c39.1,0,70.9-31.8,70.9-70.9V116.7c0-38.9-31.8-70.5-70.9-70.5c0,0,0,0,0,0l-439.2-0.4
			c-39.1,0-70.9,31.8-70.9,70.9v310.4c18.7,4.8,36.8,10.3,54,16.6V204.6c0-9.3,7.6-16.9,16.9-16.9h439.2c9.3,0,16.9,7.6,16.9,16.9
			v570.9c0,9.3-7.6,16.9-16.9,16.9H689.1C705.6,837.5,716.5,885.1,721.6,934.3z"/>
	</g>
</g>
</svg>
