<?xml version="1.0" encoding="utf-8"?>
<!-- Generator: Adobe Illustrator 24.1.0, SVG Export Plug-In . SVG Version: 6.00 Build 0)  -->
<svg version="1.1" xmlns="http://www.w3.org/2000/svg" xmlns:xlink="http://www.w3.org/1999/xlink" x="0px" y="0px"
	 viewBox="0 0 1024 1024" style="enable-background:new 0 0 1024 1024;" xml:space="preserve">
<style type="text/css">
	.st0{fill:#5F5E5E;}
	.st1{fill-rule:evenodd;clip-rule:evenodd;fill:#5F5E5E;}
	.st2{fill:#E30613;}
</style>
<g id="Layer_2">
</g>
<g id="Layer_1">
	<g>
		<g>
			<path class="st0" d="M55.7,1012c-24.5,0-43.7-19.2-43.7-43.7V156.7c0-19.1,12.1-35.6,30.9-41.8l302.7-102c3.6-1.2,7.4-1.2,11,0.1
				l316.2,110.7L953.6,14.8c1-0.4,2-0.7,3-0.9l8.6-1.6c1-0.2,2.1-0.3,3.1-0.3c24.5,0,43.7,19.2,43.7,43.7v811.6
				c0,19.1-12.1,35.6-30.9,41.8l-302.7,102c-3.6,1.2-7.4,1.2-11-0.1L351.3,900.4L70.4,1009.2c-1,0.4-2,0.7-3,0.9l-8.6,1.6
				C57.8,1011.9,56.8,1012,55.7,1012z M350.9,46.8L53.6,146.9c-2.4,0.8-7.8,3.3-7.8,9.7v811.6c0,5.2,3.7,9.3,8.7,9.9l5.1-1
				l285.2-110.5c3.8-1.5,7.9-1.5,11.7-0.2l316.6,110.8l297.2-100.1c2.4-0.8,7.8-3.3,7.8-9.7V55.7c0-5.2-3.7-9.3-8.7-9.9l-5.1,1
				L679.1,157.4c-3.8,1.5-7.9,1.5-11.7,0.2L350.9,46.8z"/>
		</g>
	</g>
	<path class="st0" d="M367.9,160.1v602.4l288.2,101.4V261.5L367.9,160.1z M621.1,814.5l-218.2-76.7V209.5l218.2,76.8V814.5z"/>
</g>
</svg>
