<?xml version="1.0" encoding="utf-8"?>
<!-- Generator: Adobe Illustrator 24.1.0, SVG Export Plug-In . SVG Version: 6.00 Build 0)  -->
<svg version="1.1" xmlns="http://www.w3.org/2000/svg" xmlns:xlink="http://www.w3.org/1999/xlink" x="0px" y="0px"
	 viewBox="0 0 1024 1024" style="enable-background:new 0 0 1024 1024;" xml:space="preserve">
<style type="text/css">
	.st0{fill:#5F5E5E;}
	.st1{fill-rule:evenodd;clip-rule:evenodd;fill:#5F5E5E;}
	.st2{fill:#E30613;}
</style>
<g id="Layer_2">
</g>
<g id="Layer_1">
	<g>
		<path class="st0" d="M912,1004.5H112c-31.5,0-61.1-12.2-83.2-34.3C6.7,948.1-5.5,918.5-5.5,887L-5,337c0-31.5,12.1-61,34-83.1
			c22-22.2,51.5-34.4,83-34.4h85.9c-2.3-10.9-3.4-21.8-3.4-32.5c0-44.8,17.4-86.9,49-118.5s73.7-49,118.5-49
			c55.7,0,107.7,27.8,139.3,74.4l10.8,14.7l10.6-14.2c31.5-46.9,83.5-74.9,139.3-74.9c44.8,0,86.9,17.4,118.5,49s49,73.7,49,118.5
			c0,10.7-1.1,21.6-3.4,32.5H912c31.5,0,61.1,12.2,83.2,34.3c22.1,22.1,34.3,51.7,34.3,83.2v550c0,31.5-12.2,61.1-34.3,83.2
			C973.1,992.3,943.5,1004.5,912,1004.5z M112,254.5c-22.1,0-42.8,8.5-58.1,24C38.5,294,30,314.8,30,337l-0.5,550
			c0,22.2,8.5,42.9,24.1,58.4s36.3,24.1,58.4,24.1h800c22.2,0,42.9-8.5,58.4-24.1s24.1-36.3,24.1-58.4V337
			c0-22.2-8.5-42.9-24.1-58.4s-36.3-24.1-58.4-24.1H803c-5.7,0-11-2.8-14.3-7.4c-3.3-4.6-4.1-10.6-2.2-15.9c5.3-14.9,8-29.8,8-44.1
			c0-35.5-13.8-68.8-38.7-93.8c-25-25-58.3-38.7-93.8-38.7c-44.2,0-85.5,22.3-110.4,59.7c-0.2,0.3-0.4,0.5-0.5,0.8l-25,33.5
			c-3.3,4.4-8.5,7-14,7c0,0,0,0-0.1,0c-5.5,0-10.8-2.7-14-7.1l-25-34c-0.1-0.2-0.3-0.4-0.4-0.6C447.4,76.7,406.1,54.5,362,54.5
			c-35.5,0-68.8,13.8-93.8,38.7c-25,25-38.7,58.3-38.7,93.8c0,14.3,2.7,29.2,8,44.1c1.9,5.4,1.1,11.3-2.2,15.9
			c-3.3,4.6-8.6,7.4-14.3,7.4H112z M662,254.5c-37.2,0-67.5-30.3-67.5-67.5s30.3-67.5,67.5-67.5s67.5,30.3,67.5,67.5
			S699.2,254.5,662,254.5z M662,154.5c-17.9,0-32.5,14.6-32.5,32.5s14.6,32.5,32.5,32.5s32.5-14.6,32.5-32.5S679.9,154.5,662,154.5z
			 M362,254.5c-37.2,0-67.5-30.3-67.5-67.5s30.3-67.5,67.5-67.5s67.5,30.3,67.5,67.5S399.2,254.5,362,254.5z M362,154.5
			c-17.9,0-32.5,14.6-32.5,32.5s14.6,32.5,32.5,32.5s32.5-14.6,32.5-32.5S379.9,154.5,362,154.5z"/>
	</g>
	<path class="st0" d="M912,769.5H112c-9.7,0-17.5,7.8-17.5,17.5v100c0,9.7,7.8,17.5,17.5,17.5h800c9.7,0,17.5-7.8,17.5-17.5V787
		C929.5,777.3,921.7,769.5,912,769.5z M894.5,869.5h-765v-65h765V869.5z"/>
	<path class="st0" d="M912,319.5H658c-6.6,0-12.6,3.7-15.6,9.6c-3,5.9-2.4,12.9,1.5,18.3l93.5,127.3l-52.6,38l-108.7-148l-50-68
		c-3.3-4.5-8.5-7.1-14.1-7.1s-10.8,2.6-14.1,7.1l-50,68l-108.7,148l-52.6-38l93.5-127.3c3.9-5.3,4.5-12.4,1.5-18.3
		c-3-5.9-9-9.6-15.6-9.6H112c-9.7,0-17.5,7.8-17.5,17.5v300c0,9.7,7.8,17.5,17.5,17.5h800c9.7,0,17.5-7.8,17.5-17.5V337
		C929.5,327.3,921.7,319.5,912,319.5z M894.5,619.5h-765v-265h201.9l-73.1,99.4l-20.9,28.4l28.6,20.7l52.6,38l28.1,20.3l20.6-28
		l108.7-148l35.9-48.8l35.9,48.8l108.7,148l20.6,28l28.1-20.3l52.6-38l28.6-20.7l-20.9-28.4l-73.1-99.4h201.9V619.5z"/>
</g>
</svg>
