<?xml version="1.0" encoding="utf-8"?>
<!-- Generator: Adobe Illustrator 24.1.0, SVG Export Plug-In . SVG Version: 6.00 Build 0)  -->
<svg version="1.1" id="Layer_1" xmlns="http://www.w3.org/2000/svg" xmlns:xlink="http://www.w3.org/1999/xlink" x="0px" y="0px"
	 viewBox="0 0 340 100" style="enable-background:new 0 0 340 100;" xml:space="preserve">
<style type="text/css">
	.st0{fill:#A6A8AB;}
	.st1{fill:#FFFFFF;}
	.st2{fill:#FFFFFF;stroke:#231F20;stroke-miterlimit:10;}
</style>
<g>
	<path d="M326.9,98.7H13.1C6.6,98.7,1.4,93.5,1.4,87V13c0-6.5,5.2-11.7,11.7-11.7h313.8c6.5,0,11.7,5.2,11.7,11.7V87
		C338.6,93.5,333.4,98.7,326.9,98.7z"/>
	<path class="st0" d="M327.1,100H12.9c-7,0-12.8-5.7-12.8-12.8V12.8C0.1,5.7,5.9,0,12.9,0h314.2c7,0,12.8,5.7,12.8,12.8v74.4
		C339.9,94.3,334.1,100,327.1,100z M12.9,2.5C7.3,2.5,2.7,7.1,2.7,12.8v74.4c0,5.7,4.6,10.3,10.3,10.3h314.2
		c5.7,0,10.3-4.6,10.3-10.3V12.8c0-5.7-4.6-10.3-10.3-10.3H12.9z"/>
	<path class="st1" d="M75.9,49c-0.1-8.1,6.7-12.1,7-12.3c-3.8-5.6-9.7-6.3-11.8-6.4c-5-0.5-9.8,3-12.3,3c-2.6,0-6.5-2.9-10.7-2.8
		c-5.4,0.1-10.5,3.2-13.2,8.1C29.2,48.5,33.5,63,39,71c2.7,3.9,5.9,8.3,10.1,8.1c4.1-0.2,5.6-2.6,10.6-2.6c4.9,0,6.3,2.6,10.6,2.5
		c4.4-0.1,7.2-3.9,9.8-7.9c3.2-4.5,4.4-8.9,4.5-9.1C84.5,62,76,58.8,75.9,49"/>
	<path class="st1" d="M67.9,25.1c2.2-2.8,3.7-6.5,3.3-10.3C68,14.9,64,17,61.7,19.7c-2,2.4-3.9,6.3-3.4,9.9
		C61.9,29.9,65.6,27.8,67.9,25.1"/>
	<path class="st1" d="M135.2,78.5h-5.7l-3.1-9.8h-10.9l-3,9.8h-5.6L117.7,45h6.6L135.2,78.5z M125.4,64.5l-2.8-8.7
		c-0.3-0.9-0.9-3-1.7-6.3h-0.1c-0.3,1.4-0.9,3.5-1.6,6.3l-2.8,8.7H125.4z"/>
	<path class="st1" d="M162.9,66.1c0,4.1-1.1,7.3-3.3,9.7c-2,2.1-4.5,3.2-7.4,3.2c-3.2,0-5.5-1.1-6.9-3.4h-0.1v12.7h-5.4v-26
		c0-2.6-0.1-5.2-0.2-7.9h4.7l0.3,3.8h0.1c1.8-2.9,4.5-4.3,8.1-4.3c2.8,0,5.2,1.1,7.1,3.4C161.9,59.5,162.9,62.5,162.9,66.1
		 M157.4,66.3c0-2.3-0.5-4.3-1.6-5.8c-1.2-1.6-2.7-2.4-4.7-2.4c-1.3,0-2.5,0.4-3.6,1.3c-1.1,0.9-1.8,2-2.1,3.5
		c-0.2,0.7-0.2,1.2-0.2,1.6v4c0,1.8,0.5,3.2,1.6,4.4c1.1,1.2,2.5,1.8,4.2,1.8c2,0,3.6-0.8,4.7-2.3C156.9,70.9,157.4,68.9,157.4,66.3
		"/>
	<path class="st1" d="M190.7,66.1c0,4.1-1.1,7.3-3.3,9.7c-2,2.1-4.4,3.2-7.4,3.2c-3.2,0-5.5-1.1-6.8-3.4H173v12.7h-5.4v-26
		c0-2.6-0.1-5.2-0.2-7.9h4.7l0.3,3.8h0.1c1.8-2.9,4.5-4.3,8.1-4.3c2.8,0,5.2,1.1,7.1,3.4C189.7,59.5,190.7,62.5,190.7,66.1
		 M185.2,66.3c0-2.3-0.5-4.3-1.6-5.8c-1.2-1.6-2.7-2.4-4.7-2.4c-1.3,0-2.5,0.4-3.6,1.3c-1.1,0.9-1.8,2-2.1,3.5
		c-0.2,0.7-0.3,1.2-0.3,1.6v4c0,1.8,0.5,3.2,1.6,4.4c1.1,1.2,2.5,1.8,4.2,1.8c2,0,3.6-0.8,4.7-2.3C184.6,70.9,185.2,68.9,185.2,66.3
		"/>
	<path class="st1" d="M221.7,69.1c0,2.8-1,5.2-3,7c-2.2,2-5.2,2.9-9.1,2.9c-3.6,0-6.5-0.7-8.7-2.1l1.2-4.5c2.4,1.4,4.9,2.1,7.8,2.1
		c2,0,3.6-0.5,4.7-1.4c1.1-0.9,1.7-2.1,1.7-3.7c0-1.4-0.5-2.5-1.4-3.4c-0.9-0.9-2.5-1.8-4.6-2.6c-5.9-2.2-8.8-5.4-8.8-9.6
		c0-2.8,1-5,3.1-6.8c2.1-1.8,4.8-2.6,8.2-2.6c3,0,5.6,0.5,7.6,1.6l-1.3,4.4c-1.9-1-4-1.5-6.4-1.5c-1.9,0-3.4,0.5-4.4,1.4
		c-0.9,0.8-1.3,1.8-1.3,3c0,1.3,0.5,2.4,1.5,3.3c0.9,0.8,2.5,1.7,4.9,2.6c2.9,1.2,5,2.5,6.4,4.1C221,64.9,221.7,66.8,221.7,69.1"/>
	<path class="st1" d="M239.4,58.4h-5.9v11.7c0,3,1,4.5,3.1,4.5c1,0,1.7-0.1,2.4-0.2l0.1,4.1c-1.1,0.4-2.4,0.6-4.2,0.6
		c-2.1,0-3.8-0.6-5-1.9c-1.2-1.3-1.8-3.5-1.8-6.5V58.4h-3.5v-4h3.5V50l5.3-1.6v6h5.9V58.4z"/>
	<path class="st1" d="M266.1,66.2c0,3.7-1.1,6.8-3.2,9.1c-2.2,2.5-5.2,3.7-8.8,3.7c-3.5,0-6.4-1.2-8.5-3.5c-2.1-2.3-3.2-5.3-3.2-8.9
		c0-3.7,1.1-6.8,3.3-9.2c2.2-2.4,5.1-3.6,8.8-3.6c3.5,0,6.4,1.2,8.5,3.5C265.1,59.7,266.1,62.6,266.1,66.2 M260.5,66.4
		c0-2.2-0.5-4.1-1.4-5.7c-1.1-1.9-2.7-2.9-4.8-2.9c-2.2,0-3.8,1-4.9,2.9c-1,1.6-1.4,3.5-1.4,5.8c0,2.2,0.5,4.1,1.4,5.7
		c1.2,1.9,2.8,2.9,4.9,2.9c2,0,3.7-1,4.8-2.9C260,70.6,260.5,68.6,260.5,66.4"/>
	<path class="st1" d="M283.5,59.1c-0.5-0.1-1.1-0.1-1.7-0.1c-1.9,0-3.3,0.7-4.4,2.1c-0.9,1.3-1.3,2.8-1.3,4.8v12.7h-5.4l0-16.5
		c0-2.8-0.1-5.3-0.2-7.6h4.7l0.2,4.6h0.1c0.6-1.6,1.5-2.9,2.7-3.8c1.2-0.9,2.5-1.3,3.9-1.3c0.5,0,0.9,0,1.3,0.1V59.1z"/>
	<path class="st1" d="M307.5,65.3c0,1-0.1,1.8-0.2,2.4h-16.1c0.1,2.4,0.8,4.2,2.3,5.5c1.4,1.1,3.1,1.7,5.3,1.7
		c2.4,0,4.5-0.4,6.5-1.1l0.8,3.7c-2.3,1-5,1.5-8.1,1.5c-3.7,0-6.7-1.1-8.8-3.3c-2.1-2.2-3.2-5.2-3.2-8.9c0-3.6,1-6.7,3-9.1
		c2.1-2.6,4.9-3.9,8.4-3.9c3.5,0,6.1,1.3,7.9,3.9C306.8,59.7,307.5,62.3,307.5,65.3 M302.4,63.9c0-1.6-0.3-3-1-4.1
		c-0.9-1.5-2.4-2.2-4.3-2.2c-1.8,0-3.2,0.7-4.3,2.2c-0.9,1.2-1.4,2.5-1.6,4.2H302.4z"/>
	<g>
		<path class="st1" d="M116.4,16.3c5.1,0,7.5,3,7.5,8.5c0,5.5-2.5,8.5-7.5,8.5h-5.9v-17H116.4z M113.3,30.9h2.7
			c3.1,0,4.9-1.7,4.9-6.1c0-3.9-1.5-6.1-4.9-6.1h-2.7V30.9z"/>
		<path class="st1" d="M128.2,15.3c0.9,0,1.6,0.7,1.6,1.6c0,0.9-0.7,1.6-1.6,1.6c-0.9,0-1.6-0.6-1.6-1.6
			C126.5,16,127.3,15.3,128.2,15.3z M126.8,20.1h2.8v13.1h-2.8V20.1z"/>
		<path class="st1" d="M137.8,19.9c3.1,0,4.9,1.7,4.9,4h-2.5c-0.1-0.9-0.7-1.9-2.4-1.9c-1.4,0-2.4,0.6-2.4,1.7
			c0,1.4,1.8,1.6,3.3,1.9c2.4,0.4,4.4,1.2,4.4,3.7c0,2.7-2.1,4.2-5.4,4.2c-3.2,0-5.1-1.5-5.1-3.8h2.7c0.1,1.1,1.1,1.8,2.6,1.8
			c1.8,0,2.6-0.8,2.6-1.8c0-1.4-1.5-1.6-3.3-1.9c-2.4-0.5-4.4-1.3-4.4-3.7C132.7,21.1,135.1,19.9,137.8,19.9z"/>
		<path class="st1" d="M148.7,31.4L148.7,31.4l-0.1,6.2h-2.8V20.1h2.7V22h0.1c0.7-1.3,2.1-2.1,3.8-2.1c2.9,0,5,2.2,5,6.2v1.2
			c0,3.9-2.1,6.2-5.1,6.2C150.7,33.4,149.4,32.6,148.7,31.4z M154.7,27.1v-0.9c0-2.5-1.1-4-3-4c-1.9,0-3.1,1.6-3.1,4v0.9
			c0,2.5,1.2,4.1,3.2,4.1C153.5,31.2,154.7,29.8,154.7,27.1z"/>
		<path class="st1" d="M171.7,26.1v1.1c0,3.7-2,6.3-5.8,6.3c-3.8,0-5.9-2.6-5.9-6.3v-1.1c0-3.6,2.1-6.2,5.9-6.2
			S171.7,22.5,171.7,26.1z M162.8,26.2v1c0,2.4,1,4.1,3.1,4.1c2.1,0,3.1-1.7,3.1-4.1v-1c0-2.4-1-4.1-3.1-4.1
			C163.8,22.1,162.8,23.8,162.8,26.2z"/>
		<path class="st1" d="M174.7,20.1h2.7v1.8h0.1c0.4-0.9,1.7-2,3.8-2c2.7,0,4.6,1.7,4.6,4.9v8.4h-2.7v-7.9c0-2.1-1.2-3.1-2.9-3.1
			c-1.9,0-2.9,1.4-2.9,3.1v7.8h-2.7V20.1z"/>
		<path class="st1" d="M189.4,20.1h2.8v13.1h-2.8V20.1z M189.6,18.5L192,15h2.6l-3,3.5H189.6z"/>
		<path class="st1" d="M194.3,20.1h2.9l3,10.2h0.1l3.3-10.2h2.8l-4.6,13.1h-3.1L194.3,20.1z"/>
		<path class="st1" d="M207.6,27.3v-1.3c0-3.7,2.2-6,5.6-6c3.5,0,5.6,2.5,5.6,6.2v1.3h-8.5v0.3c0,2.2,1.2,3.7,3.1,3.7
			c1.4,0,2.4-0.7,2.7-1.8h2.6c-0.4,2.1-2.1,4-5.4,4C209.8,33.5,207.6,31.1,207.6,27.3z M216.2,25.4L216.2,25.4
			c0-1.9-1.2-3.4-2.9-3.4c-1.8,0-2.9,1.5-2.9,3.3v0H216.2z"/>
		<path class="st1" d="M221.9,15.4h2.8v17.9h-2.8V15.4z"/>
		<path class="st1" d="M238.4,20.1h2.7v1.8h0.1c0.4-0.9,1.7-2,3.8-2c2.7,0,4.6,1.7,4.6,4.9v8.4h-2.7v-7.9c0-2.1-1.2-3.1-2.9-3.1
			c-1.9,0-2.9,1.4-2.9,3.1v7.8h-2.7V20.1z"/>
		<path class="st1" d="M256.6,33.4c-2.5,0-4.3-1.5-4.3-4c0-2.3,1.6-3.8,4.6-3.8h3.3v-1.3c0-1.5-0.9-2.3-2.4-2.3
			c-1.5,0-2.4,0.8-2.5,2h-2.6c0.1-2.2,1.6-4.1,5.1-4.1c2.9,0,5.1,1.5,5.1,4.4v9h-2.6v-1.6h-0.1C259.7,32.6,258.5,33.4,256.6,33.4z
			 M260.2,28.9v-1.5h-2.9c-1.6,0-2.3,0.8-2.3,1.9c0,1.4,1.1,2,2.4,2C259,31.3,260.2,30.4,260.2,28.9z"/>
	</g>
</g>
</svg>
