<?xml version="1.0" encoding="utf-8"?>
<!-- Generator: Adobe Illustrator 24.1.0, SVG Export Plug-In . SVG Version: 6.00 Build 0)  -->
<svg version="1.1" id="Layer_1" xmlns="http://www.w3.org/2000/svg" xmlns:xlink="http://www.w3.org/1999/xlink" x="0px" y="0px"
	 viewBox="0 0 340 100" style="enable-background:new 0 0 340 100;" xml:space="preserve">
<style type="text/css">
	.st0{fill:#A6A8AB;}
	.st1{fill:#FFFFFF;}
	.st2{fill:#FFFFFF;stroke:#231F20;stroke-miterlimit:10;}
</style>
<g>
	<path d="M327.1,98.7H12.9c-6.4,0-11.5-5.2-11.5-11.5V12.8c0-6.4,5.2-11.5,11.5-11.5h314.2c6.4,0,11.5,5.2,11.5,11.5v74.4
		C338.6,93.6,333.5,98.7,327.1,98.7z"/>
	<path class="st0" d="M327.1,100H12.9c-7,0-12.8-5.7-12.8-12.8V12.8C0.1,5.7,5.9,0,12.9,0h314.2c7,0,12.8,5.7,12.8,12.8v74.4
		C339.9,94.3,334.1,100,327.1,100z M12.9,2.5C7.3,2.5,2.7,7.1,2.7,12.8v74.4c0,5.7,4.6,10.3,10.3,10.3h314.2
		c5.7,0,10.3-4.6,10.3-10.3V12.8c0-5.7-4.6-10.3-10.3-10.3H12.9z"/>
	<path class="st1" d="M171.5,54.7c-5.9,0-10.7,4.5-10.7,10.7c0,6.1,4.8,10.7,10.7,10.7c5.9,0,10.7-4.5,10.7-10.7
		C182.2,59.2,177.4,54.7,171.5,54.7z M171.5,71.8c-3.2,0-6-2.7-6-6.5c0-3.8,2.8-6.5,6-6.5c3.2,0,6,2.6,6,6.5
		C177.5,69.2,174.7,71.8,171.5,71.8z M148.1,54.7c-5.9,0-10.7,4.5-10.7,10.7c0,6.1,4.8,10.7,10.7,10.7c5.9,0,10.7-4.5,10.7-10.7
		C158.8,59.2,154,54.7,148.1,54.7z M148.1,71.8c-3.2,0-6-2.7-6-6.5c0-3.8,2.8-6.5,6-6.5c3.2,0,6,2.6,6,6.5
		C154.2,69.2,151.4,71.8,148.1,71.8z M120.3,58v4.5h10.8c-0.3,2.5-1.2,4.4-2.5,5.7c-1.6,1.6-4,3.3-8.4,3.3
		c-6.7,0-11.9-5.4-11.9-12.1c0-6.7,5.2-12.1,11.9-12.1c3.6,0,6.2,1.4,8.2,3.2l3.2-3.2c-2.7-2.6-6.3-4.6-11.4-4.6
		c-9.1,0-16.8,7.4-16.8,16.6c0,9.1,7.7,16.6,16.8,16.6c4.9,0,8.7-1.6,11.6-4.7c3-3,3.9-7.2,3.9-10.6c0-1.1-0.1-2-0.2-2.8H120.3z
		 M234.1,61.5c-0.9-2.4-3.6-6.8-9.1-6.8c-5.5,0-10.1,4.3-10.1,10.7c0,6,4.5,10.7,10.6,10.7c4.9,0,7.7-3,8.9-4.7l-3.6-2.4
		c-1.2,1.8-2.9,3-5.3,3c-2.4,0-4.1-1.1-5.2-3.2l14.3-5.9L234.1,61.5z M219.5,65c-0.1-4.1,3.2-6.2,5.6-6.2c1.9,0,3.4,0.9,4,2.3
		L219.5,65z M207.9,75.4h4.7V44h-4.7V75.4z M200.2,57.1h-0.2c-1.1-1.3-3.1-2.4-5.6-2.4c-5.3,0-10.2,4.7-10.2,10.7
		c0,6,4.9,10.6,10.2,10.6c2.5,0,4.6-1.1,5.6-2.4h0.2v1.5c0,4.1-2.2,6.3-5.7,6.3c-2.9,0-4.7-2.1-5.4-3.8l-4.1,1.7
		c1.2,2.8,4.3,6.3,9.5,6.3c5.5,0,10.2-3.2,10.2-11.1V55.3h-4.5V57.1z M194.8,71.8c-3.2,0-5.9-2.7-5.9-6.4c0-3.8,2.7-6.5,5.9-6.5
		c3.2,0,5.7,2.8,5.7,6.5C200.5,69.1,198,71.8,194.8,71.8z M256.1,44h-11.2v31.4h4.7V63.5h6.5c5.2,0,10.3-3.8,10.3-9.7
		C266.4,47.8,261.3,44,256.1,44z M256.2,59.1h-6.7V48.4h6.7c3.5,0,5.5,2.9,5.5,5.4C261.7,56.2,259.7,59.1,256.2,59.1z M285.1,54.6
		c-3.4,0-6.9,1.5-8.4,4.8l4.2,1.7c0.9-1.7,2.5-2.3,4.3-2.3c2.4,0,4.9,1.5,4.9,4v0.3c-0.8-0.5-2.7-1.2-4.9-1.2c-4.5,0-9,2.5-9,7.1
		c0,4.2,3.7,6.9,7.8,6.9c3.2,0,4.9-1.4,6-3.1h0.2v2.4h4.5v-12C294.7,57.7,290.5,54.6,285.1,54.6z M284.6,71.8
		c-1.5,0-3.7-0.8-3.7-2.7c0-2.4,2.7-3.4,5-3.4c2.1,0,3,0.4,4.3,1.1C289.8,69.8,287.3,71.8,284.6,71.8z M311.1,55.3l-5.4,13.6h-0.2
		L300,55.3h-5l8.4,19l-4.8,10.6h4.9l12.9-29.6H311.1z M268.9,75.4h4.7V44h-4.7V75.4z"/>
	<path class="st2" d="M26.6,19c-0.7,0.8-1.2,2-1.2,3.5V78c0,1.6,0.4,2.8,1.2,3.5l0.2,0.2l31.1-31.1v-0.4v-0.4L26.8,18.8L26.6,19z"/>
	<path class="st2" d="M68.3,61L57.9,50.7v-0.4v-0.4l10.4-10.4l0.2,0.1l12.3,7c3.5,2,3.5,5.3,0,7.2l-12.3,7L68.3,61z"/>
	<path class="st2" d="M68.5,60.9L57.9,50.3L26.6,81.6c1.2,1.2,3.1,1.4,5.2,0.2L68.5,60.9"/>
	<path class="st2" d="M68.5,39.7L31.8,18.9c-2.1-1.2-4.1-1.1-5.2,0.2l31.3,31.3L68.5,39.7z"/>
	<g>
		<path class="st1" d="M105.3,17.8h4c4.5,0,7.2,2.7,7.2,7.2c0,2.5-0.8,4.6-2.3,6c-1.3,1.2-3,1.7-5.2,1.7h-3.6V17.8z M107.2,31.1h0.7
			c2.5,0,3.6-0.3,4.7-1.1c1.3-1.1,2-2.7,2-4.9c0-3.6-1.9-5.7-5.3-5.7h-2V31.1z"/>
		<path class="st1" d="M121.5,19.5c0,0.6-0.5,1.1-1.1,1.1s-1.1-0.5-1.1-1.1s0.5-1.1,1.1-1.1C121,18.4,121.5,18.9,121.5,19.5z
			 M121.3,32.7h-1.7V22.4h1.7V32.7z"/>
		<path class="st1" d="M129.9,25.2v-0.1c0-1-0.8-1.6-2-1.6c-1.1,0-1.9,0.6-1.9,1.5s0.4,1.2,2.3,1.7c1.3,0.4,2,0.7,2.5,1.2
			c0.5,0.5,0.8,1.3,0.8,2c0,1.8-1.5,3-3.7,3c-2.3,0-3.7-1.1-3.8-3.2h1.7c0.1,1.2,0.9,1.8,2.2,1.8c1.2,0,1.9-0.6,1.9-1.5
			c0-0.9-0.6-1.3-2.3-1.8c-2.2-0.6-3.2-1.5-3.2-3.1c0-1.8,1.5-3,3.6-3c2.2,0,3.5,1.1,3.6,3.1H129.9z"/>
		<path class="st1" d="M136.4,22.4v1.9c1-1.5,2-2.1,3.8-2.1c2.9,0,4.9,2.2,4.9,5.3c0,3.2-2,5.5-4.9,5.5c-0.8,0-1.5-0.2-2.3-0.5
			c-0.6-0.3-0.9-0.6-1.5-1.3v6.4h-1.7V22.4H136.4z M136.4,27.7c0,2.3,1.4,3.8,3.4,3.8c2,0,3.4-1.6,3.4-3.9c0-1.2-0.3-2.1-0.9-2.8
			c-0.6-0.7-1.5-1.1-2.4-1.1C137.8,23.6,136.4,25.3,136.4,27.7z"/>
		<path class="st1" d="M157.7,27.6c0,3-2.3,5.4-5.3,5.4c-3.1,0-5.2-2.2-5.2-5.4c0-3.2,2.1-5.4,5.3-5.4
			C155.5,22.1,157.7,24.4,157.7,27.6z M148.9,27.5c0,2.3,1.4,3.8,3.5,3.8c2,0,3.5-1.6,3.5-3.8c0-2.3-1.4-3.8-3.5-3.8
			C150.3,23.7,148.9,25.2,148.9,27.5z"/>
		<path class="st1" d="M162.4,22.4v1.5c0.9-1.2,1.8-1.7,3.1-1.7c0.9,0,1.8,0.3,2.4,0.8c0.6,0.6,0.9,1.3,0.9,2.8v7H167v-6.6
			c0-0.9-0.1-1.4-0.4-1.8c-0.3-0.4-0.9-0.7-1.6-0.7c-0.8,0-1.5,0.3-2,0.9c-0.5,0.5-0.7,1-0.7,1.9v6.3h-1.7V22.4H162.4z"/>
		<path class="st1" d="M176.4,17.9l-2.6,3h-1.2l1.9-3H176.4z M174.3,32.7h-1.7V22.4h1.7V32.7z"/>
		<path class="st1" d="M185.9,22.4l-3.9,10.3h-1.8l-3.8-10.3h1.8l2.9,7.9l3-7.9H185.9z"/>
		<path class="st1" d="M188.9,28.1c0.1,0.9,0.2,1.3,0.7,1.9c0.7,0.9,1.7,1.4,2.8,1.4c1.3,0,2.5-0.7,3.1-1.8l1.5,0.6
			c-0.9,1.7-2.6,2.8-4.6,2.8c-3.1,0-5.3-2.2-5.3-5.4c0-3.2,2.2-5.4,5.2-5.4c3,0,5.2,2.3,5.2,5.3c0,0.1,0,0.4,0,0.7H188.9z
			 M195.7,26.8c-0.1-0.8-0.2-1.3-0.6-1.8c-0.6-0.9-1.7-1.4-2.8-1.4s-2.2,0.5-2.8,1.4c-0.3,0.5-0.4,0.9-0.6,1.7H195.7z"/>
		<path class="st1" d="M200.3,32.7V17.8h1.7v14.9H200.3z"/>
		<path class="st1" d="M214.8,22.4v1.5c0.9-1.2,1.8-1.7,3.1-1.7c0.9,0,1.8,0.3,2.4,0.8c0.6,0.6,0.9,1.3,0.9,2.8v7h-1.7v-6.6
			c0-0.9-0.1-1.4-0.4-1.8c-0.3-0.4-0.9-0.7-1.6-0.7c-0.8,0-1.5,0.3-2,0.9c-0.5,0.5-0.7,1-0.7,1.9v6.3h-1.7V22.4H214.8z"/>
		<path class="st1" d="M234.5,27.6c0,3-2.3,5.4-5.3,5.4c-3.1,0-5.2-2.2-5.2-5.4c0-3.2,2.1-5.4,5.3-5.4
			C232.4,22.1,234.5,24.4,234.5,27.6z M225.8,27.5c0,2.3,1.4,3.8,3.5,3.8c2,0,3.5-1.6,3.5-3.8c0-2.3-1.4-3.8-3.5-3.8
			C227.2,23.7,225.8,25.2,225.8,27.5z"/>
	</g>
</g>
</svg>
