<?xml version="1.0" encoding="utf-8"?>
<!-- Generator: Adobe Illustrator 24.2.1, SVG Export Plug-In . SVG Version: 6.00 Build 0)  -->
<svg version="1.1" id="Layer_1" xmlns="http://www.w3.org/2000/svg" xmlns:xlink="http://www.w3.org/1999/xlink" x="0px" y="0px"
	 viewBox="0 0 18 18" style="enable-background:new 0 0 18 18;" xml:space="preserve">
<style type="text/css">
	.st0{fill:none;}
	.st1{fill:#5F5E5E;}
</style>
<path class="st0" d="M0,0h18v18H0V0z"/>
<path class="st1" d="M9,9C8.2,9,7.5,8.3,7.5,7.5S8.2,6,9,6s1.5,0.7,1.5,1.5S9.8,9,9,9z M13.5,7.6c0-2.7-2-4.6-4.5-4.6
	S4.5,4.9,4.5,7.6c0,1.8,1.5,4.1,4.5,6.9C12,11.7,13.5,9.4,13.5,7.6z M9,1.5c3.2,0,6,2.4,6,6.1c0,2.5-2,5.4-6,8.9c-4-3.4-6-6.4-6-8.9
	C3,3.9,5.9,1.5,9,1.5z"/>
</svg>
