<?xml version="1.0" encoding="utf-8"?>
<!-- Generator: Adobe Illustrator 24.1.0, SVG Export Plug-In . SVG Version: 6.00 Build 0)  -->
<svg version="1.1" xmlns="http://www.w3.org/2000/svg" xmlns:xlink="http://www.w3.org/1999/xlink" x="0px" y="0px"
	 viewBox="0 0 1024 1024" style="enable-background:new 0 0 1024 1024;" xml:space="preserve">
<style type="text/css">
	.st0{fill:#5F5E5E;}
	.st1{fill-rule:evenodd;clip-rule:evenodd;fill:#5F5E5E;}
</style>
<g id="Layer_2">
</g>
<g id="Layer_1">
	<g>
		<path class="st0" d="M958.3,1012c-297.5,0-595.1,0-892.6,0c-1.8-0.6-3.6-1.2-5.4-1.6c-22.5-5.7-37.5-19.7-45.3-41.5
			c-1.2-3.5-2-7.1-3-10.6c0-283.5,0-567,0-850.5c2.2-6.6,3.6-13.6,6.8-19.6c12.2-23.1,31.8-34.5,57.9-34.5
			c33.5-0.1,67.1-0.1,100.6,0c3.3,0,5.1-0.7,6.6-4c11.2-24,30.3-37.2,56.8-37.4c69.7-0.4,139.3-0.3,209,0
			c26,0.1,44.9,12.8,56.3,35.9c2.2,4.4,4.5,5.6,9.1,5.6c70.3-0.1,140.6-0.1,210.9-0.1c73.7,0,147.5,0,221.2,0
			c37.9,0,64.8,27,64.8,65c0,276.8,0,553.6,0,830.4c0,26.2-15.3,49-39.5,58.5C967.9,1009.4,963,1010.6,958.3,1012z M178.5,95.9
			c-1.2-0.3-1.8-0.5-2.4-0.5c-33.9,0-67.7-0.3-101.6,0.1c-12.6,0.1-20.7,9.3-20.7,21.9c0,277,0,553.9,0,830.9c0,2.3,0.1,4.6,0.7,6.7
			c2.7,9.9,10.7,15.2,22.7,15.2c289.5,0,579.1-0.1,868.6,0.2c14.5,0,24.5-9.8,24.5-24.3c-0.3-275.5-0.3-551,0-826.5
			c0-14.3-9.2-24.4-24.5-24.4c-142.7,0.2-285.5,0.1-428.2,0.1c-1.7,0-3.5,0-5.7,0c0,2.7,0,4.7,0,6.8c0,115.7,0,231.4,0,347.1
			c0,4.4-0.3,8.8-1.1,13.1c-3.4,20-19.1,31.9-37.4,28.1c-10.9-2.3-18.9-9.1-25.9-17.2c-28.4-32.4-56.8-64.9-85.2-97.3
			c-5.6-6.4-11.3-12.8-17.1-19.4c-1.5,1.6-2.6,2.8-3.7,4c-32.7,37.3-65.2,74.7-98.1,111.9c-4.4,4.9-9.4,9.6-14.9,13.2
			c-19.4,12.3-41.2,4.1-47.6-18c-1.8-6.3-2.4-13.1-2.5-19.7c-0.1-115.1-0.1-230.1-0.1-345.2C178.5,100.4,178.5,98.1,178.5,95.9z
			 M469.9,435.2c0.1-2.1,0.2-2.9,0.2-3.6c0-119.2-0.1-238.5-0.1-357.7c0-10.8-9-19.8-20-19.8c-69.8-0.1-139.6,0-209.4,0
			c-5.5,0-10,2.2-14,5.9c-6.4,5.8-6.4,13.5-6.4,21.2c0,116.3,0,232.6,0,349c0,1.4,0.1,2.7,0.3,5.2c1.9-2,3.1-3.3,4.2-4.6
			c34.5-39.4,69-78.8,103.5-118.2c10.1-11.6,23.9-11.7,34.1-0.1c24.1,27.5,48.2,55,72.3,82.6C446,407.9,457.6,421.1,469.9,435.2z"/>
		<path class="st0" d="M511.8,637.1c-117.5,0-235,0-352.5,0c-15.7,0-25.9-13.3-21.3-27.5c2.7-8.3,10-13.8,19.1-14.3
			c1.1-0.1,2.3,0,3.4,0c234.4,0,468.7,0,703.1,0c11.9,0,19.9,5.4,22.7,15.3c3.7,12.9-5.6,25.9-19,26.5c-1.5,0.1-2.9,0-4.4,0
			C745.8,637.1,628.8,637.1,511.8,637.1z"/>
		<path class="st0" d="M501.5,762c114.2,0,228.5,0,342.7,0c9.3,0,16.2,3.9,19.9,12.2c3.6,8.1,2.4,15.9-3.6,22.7
			c-4.1,4.7-9.6,6.5-15.6,6.9c-1.1,0.1-2.3,0-3.4,0c-226.7,0-453.4,0-680.1,0c-12.1,0-20-4.8-23.3-14c-5-14.1,5.2-27.8,20.7-27.8
			c108.2,0,216.5,0,324.7,0C489.5,762,495.5,762,501.5,762z"/>
		<path class="st0" d="M741.4,262.1c41.2,0,82.3,0,123.5,0c12.5,0,21.8,8.3,22.1,19.8c0.4,12.3-8.3,21.3-21.1,22c-0.8,0-1.6,0-2.4,0
			c-81.5,0-163,0-244.5,0c-12.4,0-20.9-6.1-23.2-16.7c-2.8-13.1,6.7-25.1,20.2-25.1c32.9-0.1,65.7,0,98.6,0
			C723.5,262.1,732.4,262.1,741.4,262.1z"/>
		<path class="st0" d="M741.3,470.2c-41.8,0-83.6,0-125.4,0c-10.9,0-18.8-7.3-20.5-18.4c-1.4-9.4,4.9-19.3,14.5-22.1
			c2.9-0.8,6.1-1.1,9.1-1.1c81.5-0.1,163,0.1,244.5-0.2c18.4-0.1,26.5,15.4,22.5,27.4c-2.9,8.9-10.4,14.3-20.4,14.3
			C824.2,470.3,782.7,470.2,741.3,470.2z"/>
	</g>
</g>
</svg>
