<?xml version="1.0" encoding="utf-8"?>
<!-- Generator: Adobe Illustrator 24.1.0, SVG Export Plug-In . SVG Version: 6.00 Build 0)  -->
<svg version="1.1" xmlns="http://www.w3.org/2000/svg" xmlns:xlink="http://www.w3.org/1999/xlink" x="0px" y="0px"
	 viewBox="0 0 1024 1024" style="enable-background:new 0 0 1024 1024;" xml:space="preserve">
<style type="text/css">
	.st0{fill:#5F5E5E;}
	.st1{fill-rule:evenodd;clip-rule:evenodd;fill:#5F5E5E;}
	.st2{fill:#E30613;}
</style>
<g id="Layer_2">
</g>
<g id="Layer_1">
	<g>
		<g>
			<path class="st0" d="M731.6,1012H292.4c-57.8,0-104.7-47-104.7-104.7V731.6c0-9.3,7.6-16.9,16.9-16.9h87.8
				c9.3,0,16.9,7.6,16.9,16.9v70.9h405.4v-70.9c0-9.3,7.6-16.9,16.9-16.9h87.8c9.3,0,16.9,7.6,16.9,16.9v175.7
				C836.3,965,789.3,1012,731.6,1012z M221.5,748.5v158.8c0,39.1,31.8,70.9,70.9,70.9h439.2c39.1,0,70.9-31.8,70.9-70.9V748.5h-54
				v70.9c0,9.3-7.6,16.9-16.9,16.9H292.4c-9.3,0-16.9-7.6-16.9-16.9v-70.9H221.5z M661.8,730.5C661.7,730.5,661.7,730.5,661.8,730.5
				c-4.5,0-8.8-1.8-12-5l-61.9-62.4c-6.6-6.6-6.5-17.3,0-23.9L715.1,512L587.9,384.7c-6.6-6.6-6.6-17.3,0-23.9l61.9-62.4
				c3.2-3.2,7.5-5,12-5c0,0,0,0,0,0c4.5,0,8.8,1.8,12,5L875.3,500c3.2,3.2,5,7.5,5,12c0,4.5-1.8,8.8-5,12L673.7,725.5
				C670.5,728.7,666.2,730.5,661.8,730.5z M623.7,651.3l38.1,38.4L839.4,512L661.8,334.4l-38.1,38.4L751,500
				c6.6,6.6,6.6,17.3,0,23.9L623.7,651.3z M362.2,730.5c-4.5,0-8.8-1.8-12-5L148.7,524c-3.2-3.2-5-7.5-5-12c0-4.5,1.8-8.8,5-12
				l201.6-201.6c3.2-3.2,7.5-5,12-5c0,0,0,0,0,0c4.5,0,8.8,1.8,12,5l61.9,62.4c6.6,6.6,6.5,17.3,0,23.9L308.9,512l127.3,127.3
				c6.6,6.6,6.6,17.3,0,23.9l-61.9,62.4C371.1,728.7,366.8,730.5,362.2,730.5C362.3,730.5,362.3,730.5,362.2,730.5z M184.6,512
				l177.6,177.6l38.1-38.4L273,524c-6.6-6.6-6.6-17.3,0-23.9l127.3-127.3l-38.1-38.4L184.6,512z M819.4,309.3h-87.8
				c-9.3,0-16.9-7.6-16.9-16.9v-70.9H309.3v70.9c0,9.3-7.6,16.9-16.9,16.9h-87.8c-9.3,0-16.9-7.6-16.9-16.9V116.7
				C187.7,59,234.7,12,292.4,12l439.2,0.4c57.7,0,104.7,46.8,104.7,104.3v175.7C836.3,301.8,828.8,309.3,819.4,309.3z M748.5,275.5
				h54V116.7c0-38.9-31.8-70.5-70.9-70.5l-439.2-0.4c-39.1,0-70.9,31.8-70.9,70.9v158.8h54v-70.9c0-9.3,7.6-16.9,16.9-16.9h439.2
				c9.3,0,16.9,7.6,16.9,16.9V275.5z"/>
		</g>
	</g>
</g>
</svg>
