<?xml version="1.0" encoding="utf-8"?>
<!-- Generator: Adobe Illustrator 24.1.0, SVG Export Plug-In . SVG Version: 6.00 Build 0)  -->
<svg version="1.1" xmlns="http://www.w3.org/2000/svg" xmlns:xlink="http://www.w3.org/1999/xlink" x="0px" y="0px"
	 viewBox="0 0 1024 1024" style="enable-background:new 0 0 1024 1024;" xml:space="preserve">
<style type="text/css">
	.st0{fill:#5F5E5E;}
	.st1{fill-rule:evenodd;clip-rule:evenodd;fill:#5F5E5E;}
	.st2{fill:#004E7C;}
</style>
<g id="Layer_2">
</g>
<g id="Layer_1">
	<g>
		<path class="st0" d="M586.3,12c5.9,1.4,11.9,2.8,17.8,4.2C666.8,31.4,713,88.9,714.5,153.7c0.4,16.5-9.4,28.1-24.2,28.4
			c-15,0.4-25.1-10.1-25.8-26.9c-2.4-52-40.1-90.3-92.1-92.9c-16.6-0.8-33.2-0.4-49.8-0.4c-113.9,0-227.9,0.1-341.8-0.1
			c-42.4-0.1-74.6,17.1-92.6,56c-5.9,12.8-9,28.2-9.1,42.4c-0.5,234.7-0.5,469.3-0.3,704c0.1,54.8,38.9,95.2,93.6,97.5
			c24,1,48.2,0.4,72.3,0.4c106.1,0,212.2-0.1,318.4,0.1c42,0.1,74-17.1,92-55.4c6-12.8,8.7-28.1,9.1-42.3
			c1.1-45.2,0.3-90.5,0.5-135.7c0-17.2,10.4-28.2,25.8-27.8c11.4,0.3,20.6,7.6,23.1,18.8c0.8,3.5,1.1,7.1,1.1,10.6
			c0.1,44.9,0.4,89.8,0,134.7c-0.6,71.6-47.6,129.4-116.8,143.9c-10.4,2.2-21.3,2.9-32,2.9c-129.2,0.2-258.5,0.2-387.7,0.1
			c-85.3,0-148.8-63.2-148.8-148.6c-0.1-234.3-0.1-468.7,0-703c0-76,49.8-134.3,124.7-146.8c1.6-0.3,3-1,4.6-1.6
			C301,12,443.7,12,586.3,12z"/>
		<path class="st0" d="M162.8,174.2c0,200.1,0,399.1,0,598.7c139.2,0,278,0,418.3,0c0-9.9-0.1-19.5,0-29.1
			c0.1-5.2-0.1-10.5,0.7-15.6c2-13.1,12.1-21.4,25.1-21.1c12.6,0.3,23.5,9.6,23.9,22.5c0.7,23.7,0.7,47.5,0,71.2
			c-0.4,12.5-10.5,21-23.3,22.1c-3.2,0.3-6.5,0.2-9.8,0.2c-150.7,0-301.4,0-452.1,0c-3.6,0-7.2,0-10.7-0.4
			c-11.5-1.2-19.8-8.8-21.8-20.3c-0.7-4.1-0.8-8.4-0.8-12.6c0-210.9,0-421.8,0-632.6c0-4.5,0.2-9.2,1-13.6c2-10,9.9-17.3,20-18.6
			c4.5-0.6,9.1-0.6,13.6-0.6c149.7,0,299.5,0,449.2,0c4.5,0,9.1,0,13.6,0.6c12.2,1.6,21.1,12.1,21.2,24.2c0,12.5-9.4,23.3-21.9,24.7
			c-3.5,0.4-7.2,0.2-10.7,0.2c-140.9,0-281.9,0-422.8,0C171.7,174.2,167.8,174.2,162.8,174.2z"/>
		<path class="st0" d="M713.9,652.7c-84.3,0-168.6,0.1-252.9,0c-21.6,0-34.3-20-23.8-37.3c2.3-3.8,5.9-6.9,9.4-9.7
			c41.8-33.1,83.6-66.3,125.8-99c6.7-5.2,9-10.5,9-18.7c-0.3-71.9-0.2-143.9-0.2-215.8c0-24.9,8.4-33.2,33.5-33.2
			c115.9,0,231.8,0,347.7,0c24.4,0,32.6,8.3,32.6,32.9c0,115.9,0,231.7,0,347.6c0,25.6-7.7,33.4-32.9,33.4
			C879.3,652.7,796.6,652.7,713.9,652.7z M531.2,602.3c139.5,0,276.4,0,413.5,0c0-104.6,0-208.6,0-312.7c-104.7,0-208.7,0-313.5,0
			c0,4.1,0,7.6,0,11.1c0,67-0.4,134.1,0.3,201.1c0.2,15.7-5.2,26.3-17.5,35.5C586.7,557.9,560.2,579.4,531.2,602.3z"/>
		<path class="st0" d="M346.9,883.3c0-13.5,11.3-24.9,24.9-24.9c13.5,0,24.9,11.4,24.9,24.9c0,13.5-11.5,24.9-24.9,24.9
			C358.3,908.3,346.9,896.8,346.9,883.3z"/>
		<path class="st0" d="M818.4,401.6c0,13,0.2,26,0,39c-0.3,16.6-10.7,27.5-25.5,27.2c-14.4-0.2-24.4-11-24.6-27.1
			c-0.2-26.3-0.2-52.7,0-79c0.1-16.5,10.8-27.6,25.5-27.3c14.3,0.3,24.3,11.1,24.6,27.2C818.6,374.9,818.4,388.2,818.4,401.6z"/>
		<path class="st0" d="M793,507.8c13.8-0.1,25.1,10.7,25.3,24.4c0.2,13.6-10.9,24.8-24.7,25c-13.8,0.1-25.1-10.7-25.3-24.4
			C768.2,519.2,779.3,508,793,507.8z"/>
	</g>
</g>
</svg>
