<?xml version="1.0" encoding="utf-8"?>
<!-- Generator: Adobe Illustrator 24.1.0, SVG Export Plug-In . SVG Version: 6.00 Build 0)  -->
<svg version="1.1" xmlns="http://www.w3.org/2000/svg" xmlns:xlink="http://www.w3.org/1999/xlink" x="0px" y="0px"
	 viewBox="0 0 1024 1024" style="enable-background:new 0 0 1024 1024;" xml:space="preserve">
<style type="text/css">
	.st0{fill:#5F5E5E;}
	.st1{fill-rule:evenodd;clip-rule:evenodd;fill:#5F5E5E;}
	.st2{fill:#004E7C;}
</style>
<g id="Layer_2">
</g>
<g id="Layer_1">
	<g>
		<path class="st0" d="M11.7,510.2c0.4-1.3,0.9-2.5,1.2-3.8c2.2-8.5,9.8-14.9,18.7-15.6c1.7-0.1,3.4-0.1,5.1-0.1
			c85,0,170.1,0,255.1-0.1c7.3,0,13.9,1.4,18.8,7.1c5.9,6.9,7.4,14.8,3.6,23.2c-3.8,8.3-10.5,12.7-19.7,12.7
			c-66.9,0-133.8,0-200.6,0c-19.4,0-38.7,0-58.1,0c-13.1,0-20-5.4-23.3-18.1c-0.1-0.4-0.5-0.8-0.8-1.2
			C11.7,512.9,11.7,511.5,11.7,510.2z"/>
		<path class="st0" d="M512.1,403.5c59.7,0,108.6,48.8,108.4,108.7c-0.2,59-46.5,108.5-108.5,108.5c-61,0.1-108.6-48.2-108.6-108.9
			C403.3,451.7,452.2,403.5,512.1,403.5z M577.2,512.2c0-36.1-29.3-65.4-65.4-65.4c-35.7,0-65.2,29.3-65.3,65
			c-0.2,35.9,29.3,65.7,65.2,65.8C547.7,577.7,577.2,548.2,577.2,512.2z"/>
		<path class="st0" d="M490.5,164c0-43.5,0-87,0-130.4c0-11.2,7.5-19.6,18.6-21.3c10-1.5,20.2,4.9,23.2,14.9c0.7,2.2,0.8,4.7,0.8,7
			c0.1,86.8,0.1,173.6,0.1,260.4c0,12.3-9.4,21.8-21.4,21.8c-12,0-21.3-9.5-21.3-21.9C490.5,250.9,490.5,207.5,490.5,164z"/>
		<path class="st0" d="M859.5,533.6c-43.6,0-87.2,0-130.9,0c-10.7,0-19.4-7.9-20.9-18.6c-1.5-10.2,4.8-20.3,14.8-23.3
			c2.5-0.8,5.3-1,8-1c86.1-0.1,172.1-0.1,258.2,0c12.9,0,21.3,7.5,22.8,19.9c1.2,9.9-5.9,19.9-16.1,22.4c-2.4,0.6-5,0.6-7.6,0.6
			C945.1,533.6,902.3,533.6,859.5,533.6z"/>
		<path class="st0" d="M533.2,860.4c0,43.5,0,87,0,130.4c0,10.6-7.3,19.4-17.2,20.9c-11.7,1.7-21.4-4-24.6-14.7
			c-0.7-2.2-0.8-4.7-0.8-7c0-86.6,0-173.2,0-259.8c0-12.8,9.1-22.1,21.5-22.1c12.1,0.1,21.2,9.4,21.2,21.9
			C533.2,773.4,533.2,816.9,533.2,860.4z"/>
	</g>
</g>
</svg>
