<?xml version="1.0" encoding="utf-8"?>
<!-- Generator: Adobe Illustrator 24.1.0, SVG Export Plug-In . SVG Version: 6.00 Build 0)  -->
<svg version="1.1" xmlns="http://www.w3.org/2000/svg" xmlns:xlink="http://www.w3.org/1999/xlink" x="0px" y="0px"
	 viewBox="0 0 1024 1024" style="enable-background:new 0 0 1024 1024;" xml:space="preserve">
<style type="text/css">
	.st0{fill:#5F5E5E;}
	.st1{fill-rule:evenodd;clip-rule:evenodd;fill:#5F5E5E;}
	.st2{fill:#E30613;}
</style>
<g id="Layer_2">
</g>
<g id="Layer_1">
	<g>
		<g>
			<path class="st0" d="M374,888.5c-4.3,0-8.7-1.7-12-5L17,538.4c-6.6-6.6-6.6-17.3,0-23.9l97.3-97.3c6.6-6.6,17.3-6.6,23.9,0
				L374,652.4l511.9-511.9c3.2-3.2,7.5-4.9,12-5c4.5,0,8.8,1.8,12,5l97.3,98c6.6,6.6,6.5,17.3,0,23.9L385.9,883.5
				C382.6,886.8,378.3,888.5,374,888.5z M52.8,526.5L374,847.6l597.2-597.2l-73.5-74L385.9,688.2c-6.6,6.6-17.3,6.6-23.9,0
				L126.2,453.1L52.8,526.5z"/>
		</g>
	</g>
</g>
</svg>
