<?xml version="1.0" encoding="utf-8"?>
<!-- Generator: Adobe Illustrator 24.1.0, SVG Export Plug-In . SVG Version: 6.00 Build 0)  -->
<svg version="1.1" xmlns="http://www.w3.org/2000/svg" xmlns:xlink="http://www.w3.org/1999/xlink" x="0px" y="0px"
	 viewBox="0 0 1024 1024" style="enable-background:new 0 0 1024 1024;" xml:space="preserve">
<style type="text/css">
	.st0{fill:#5F5E5E;}
	.st1{fill-rule:evenodd;clip-rule:evenodd;fill:#5F5E5E;}
	.st2{fill:#004E7C;}
</style>
<g id="Layer_2">
</g>
<g id="Layer_1">
	<g>
		<path class="st0" d="M229.2,1012c12.1-4.4,16.3-13.2,16.3-25.8c-0.3-57.9-0.2-115.9,0-173.8c0-10-3.5-17.1-11.5-23.2
			C154,728.5,103.1,649.1,85.1,550.3c-21.2-116.1,8.8-219.4,85.1-308.7c61.2-71.7,139-116.8,231-137.3c2.7-0.6,5.4-1.1,8.1-1.6
			c0.6-0.1,1.3-0.1,2.4-0.2c0,1.9,0,3.6,0,5.4c0,83.2,0,166.3,0.1,249.5c0,4.1-1.4,5.8-4.9,7.5c-69.1,34.5-110,89.9-118.8,166.7
			c-12.4,108.7,62.1,207.6,169.8,227.1c45.2,8.2,88.7,1.9,130-18.5c3.9-1.9,5.9-1.1,8.8,1.4c31.8,27.7,66.5,51.1,105,68.5
			c26.2,11.8,53.4,20.3,82.1,23.3c4,0.4,6,1.7,7.5,5.8c10.3,28.8,37.6,47.9,68.2,47.7c12.6-0.1,25.6,0.3,37.9-2.1
			c33.5-6.7,57-38.2,56.1-73.1c-0.8-33.7-26.5-64.1-59.9-69.1c-17.5-2.6-35.5-3.4-52.8,1.2c-25.2,6.7-41.8,23.4-50.6,47.9
			c-32.1,3.8-129.5-43.3-160.5-77.2c10.2-11.2,21.1-21.7,30.4-33.5c62.9-79.9,56.8-197.3-13.5-270.5c-18.7-19.5-40.1-35-64.7-46.2
			c-2.4-1.1-3.3-2.4-3.3-5.1c0.1-83.8,0.1-167.6,0.1-251.5c0-0.8,0.1-1.6,0.3-3.3c10.1,2.7,20,5,29.8,7.8
			c72.3,21.4,129,64.5,173.4,124.7c33,44.7,57.2,94,78,145.2c25.4,62.5,45.2,127,65.4,191.3c6.1,19.4,12.2,38.7,18.3,58.1
			c0.5,1.7,0.9,3.4,1.5,5.6c-2.3,0-4,0-5.8,0c-29.5,0-58.9,0-88.4,0c-14.1,0-22.5,8.4-22.5,22.4c0,6.7-0.1,13.3,0,20
			c0.2,10.4,8.3,19.2,18.4,20.1c11,1,20.8-5.8,22.6-16.4c0.6-3.6,2-4.4,5.3-4.4c23.4,0.1,46.9,0.1,70.3,0.1
			c28.4-0.1,48.8-26.7,40.2-53.7c-21.3-67.2-42.6-134.4-65.1-201.2c-19.2-57-42.7-112.4-73.3-164.4c-29-49.2-64.1-93.2-109.7-128.3
			C691.7,96.1,640.1,74.1,583.7,63c-4.4-0.9-6.7-2.3-8.1-7c-7.8-26.1-32.1-43.9-59.2-43.9c-14,0-28,0-42,0
			c-27.4,0-51.3,17.4-59.6,43.5c-0.9,2.8-2,4.1-5.1,4.6c-90.7,16.3-170.1,55.7-237.3,118.7C110,237.2,67,307.3,47.4,390.8
			c-19.7,84.1-12.2,166.4,19.2,246.5c28.1,71.5,73,130.8,133.2,178.5c2.9,2.3,3.9,4.6,3.9,8.2c-0.1,54,0.2,108.1-0.3,162.1
			c-0.1,12.6,4,21.3,16,25.9C222.6,1012,225.9,1012,229.2,1012z M543.6,622c2.2-1.8,3.3-2.7,4.4-3.7c19-16.1,29.6-36.6,30.5-61.5
			c1.8-50.9-40.8-90.8-91.5-86c-50.8,4.8-85.5,54.3-72.6,103.7c10.2,38.8,43.9,63.5,85.3,62.4c3.6-0.1,5.4,1.1,7.5,3.8
			c10.7,14.5,21.5,29,32.7,43.1c6.3,8,13.3,15.3,20.5,23.6c-58.8,21.8-114.3,17.4-164.3-20.2c-53.6-40.3-75.7-95.6-65-161.7
			c9.1-56.2,41.8-96.4,92.2-122.5c1,1.1,1.6,1.7,2.1,2.3c11.2,13.6,25.5,22,43.1,23c17.4,0.9,34.8,0.7,52.2,0.2
			c14.6-0.5,27.4-6.6,38.1-16.6c2.8-2.6,5.3-5.6,8.3-8.9c56.8,30.4,90.1,76.7,94.1,141.3c3.5,57.4-19.4,104.1-64.5,141.8
			C578.8,664.3,561.3,643.3,543.6,622z M453.6,220.1c0,0,0.1,0,0.1,0c0-48.2,0-96.3,0-144.5c0-13,8.5-21.7,21.6-21.8
			c13.2-0.1,26.4,0,39.5,0c13.3,0,21.9,8.7,21.9,22.1c0,96.3,0,192.6,0,289c0,13.3-8.8,22.1-21.9,22.1c-12.5,0-25.1,0-37.6,0
			c-15.5,0-23.6-8.2-23.6-23.9C453.6,315.5,453.6,267.8,453.6,220.1z M495.1,595.2c-23,0-41.6-18.6-41.5-41.5
			c0.1-22.8,18.9-41.6,41.7-41.6c22.7,0,41.5,19,41.5,41.8C536.7,576.7,518.1,595.2,495.1,595.2z M870.4,845.2c-3.6,0-7.2,0-10.7,0
			c-17.1-0.1-30.8-13.6-31-30.4c-0.1-17.6,13.3-31.4,30.7-31.7c7-0.1,14-0.1,21,0c17.5,0.2,31.4,14,31.3,31.2
			c0,17.2-14,30.8-31.6,30.9C876.9,845.2,873.7,845.2,870.4,845.2z"/>
		<path class="st0" d="M646.1,1012c3-1.8,6.3-3.3,9-5.5c4.6-3.9,6.7-9,6.7-15.1c0-18.9,0-37.7,0-56.6c0-1.8,0-3.5,0-5.9
			c2.2,0,4.1,0,6,0c23.4-0.2,46.9,0.1,70.2-1c10.2-0.5,20.5-3.2,30.5-6c11.4-3.2,17.2-14.9,13.9-25.8c-3.4-11.2-14.7-17.3-26.3-13.8
			c-12,3.5-24.1,5-36.6,4.9c-25.5-0.2-51.1-0.1-76.6-0.1c-14.3,0-22.6,8.4-22.6,22.8c0,25.7,0.3,51.4-0.2,77.1
			c-0.2,12.6,4.4,20.9,16.3,25.1C639.6,1012,642.9,1012,646.1,1012z"/>
	</g>
</g>
</svg>
