<?xml version="1.0" encoding="utf-8"?>
<!-- Generator: Adobe Illustrator 24.1.0, SVG Export Plug-In . SVG Version: 6.00 Build 0)  -->
<svg version="1.1" xmlns="http://www.w3.org/2000/svg" xmlns:xlink="http://www.w3.org/1999/xlink" x="0px" y="0px"
	 viewBox="0 0 1024 1024" style="enable-background:new 0 0 1024 1024;" xml:space="preserve">
<style type="text/css">
	.st0{fill:#5F5E5E;}
	.st1{fill-rule:evenodd;clip-rule:evenodd;fill:#5F5E5E;}
	.st2{fill:#E30613;}
</style>
<g id="Layer_2">
</g>
<g id="Layer_1">
	<g>
		<path class="st0" d="M941.4,958.3h-53.7c-38.9,0-70.6-31.7-70.6-70.6V851H206.8v36.8c0,38.9-31.7,70.6-70.6,70.6H82.6
			c-38.9,0-70.6-31.7-70.6-70.6V458.3c0-1.9,0.3-3.8,0.9-5.5l111.6-321.5c0,0,0-0.1,0-0.1c6.8-19,18.9-35.3,35-47
			c16.6-12.1,36.4-18.5,57.1-18.5h590.4c41.8,0,78.9,26.4,92.2,65.6l111.6,321.5c0.6,1.8,0.9,3.7,0.9,5.5v429.4
			C1012,926.7,980.3,958.3,941.4,958.3z M189.9,817.2h644.1c9.3,0,16.9,7.6,16.9,16.9v53.7c0,20.3,16.5,36.8,36.8,36.8h53.7
			c20.3,0,36.8-16.5,36.8-36.8V461.2L867.5,142.3c0,0,0-0.1,0-0.1c-8.7-25.6-32.9-42.7-60.2-42.7H216.8c-27.3,0-51,16.8-60.3,42.9
			L45.8,461.2v426.6c0,20.3,16.5,36.8,36.8,36.8h53.7c20.3,0,36.8-16.5,36.8-36.8v-53.7C173,824.7,180.6,817.2,189.9,817.2z
			 M807.2,689.9c-53.7,0-97.4-43.7-97.4-97.4c0-53.7,43.7-97.4,97.4-97.4c53.7,0,97.4,43.7,97.4,97.4
			C904.6,646.2,860.9,689.9,807.2,689.9z M807.2,528.9c-35.1,0-63.6,28.5-63.6,63.6c0,35.1,28.5,63.6,63.6,63.6
			c35.1,0,63.6-28.5,63.6-63.6C870.8,557.4,842.3,528.9,807.2,528.9z M216.8,689.9c-53.7,0-97.4-43.7-97.4-97.4
			c0-53.7,43.7-97.4,97.4-97.4s97.4,43.7,97.4,97.4C314.2,646.2,270.5,689.9,216.8,689.9z M216.8,528.9c-35.1,0-63.6,28.5-63.6,63.6
			c0,35.1,28.5,63.6,63.6,63.6s63.6-28.5,63.6-63.6C280.4,557.4,251.9,528.9,216.8,528.9z M887.7,421.6H136.3
			c-5.4,0-10.5-2.6-13.7-7c-3.2-4.4-4-10.1-2.3-15.2l80.5-241.5c2.3-6.9,8.8-11.6,16-11.6h590.4c7.3,0,13.7,4.7,16,11.6l80.5,241.5
			c1.7,5.2,0.9,10.8-2.3,15.2C898.3,418.9,893.2,421.6,887.7,421.6z M159.7,387.7h704.6L795,180H229L159.7,387.7z"/>
	</g>
</g>
</svg>
