<?xml version="1.0" encoding="utf-8"?>
<!-- Generator: Adobe Illustrator 24.1.0, SVG Export Plug-In . SVG Version: 6.00 Build 0)  -->
<svg version="1.1" xmlns="http://www.w3.org/2000/svg" xmlns:xlink="http://www.w3.org/1999/xlink" x="0px" y="0px"
	 viewBox="0 0 1024 1024" style="enable-background:new 0 0 1024 1024;" xml:space="preserve">
<style type="text/css">
	.st0{fill:#5F5E5E;}
	.st1{fill-rule:evenodd;clip-rule:evenodd;fill:#5F5E5E;}
	.st2{fill:#004E7C;}
</style>
<g id="Layer_2">
</g>
<g id="Layer_1">
	<g>
		<g>
			<path class="st0" d="M748.5,528.4c-7.8,0-15.7-0.2-23.5,0.1c-2.2,0.1-4.9,1.2-6.5,2.7c-10,9.7-19.8,19.6-29.6,29.4
				c-10.5,10.4-21.9,10.4-32.4,0c-9.9-9.8-19.6-19.8-29.6-29.4c-1.6-1.5-4.2-2.3-6.5-2.7c-13.6-2.4-24.2,1.9-32.8,13.1
				c-5.6,7.3-12.8,13.2-19.4,19.7c-9.8,9.6-21.4,9.6-31.1,0c-10.1-10-20.1-20.2-30.3-30.1c-1.6-1.5-4.2-2.6-6.5-2.7
				c-5.6-0.4-11.3,0.1-16.9-0.2c-3.5-0.2-5.1,0.9-6.4,4.3c-12.1,32.4-30.3,61-54.8,85.3c-37.3,37-81.9,60.3-134,67.7
				c-72.1,10.2-136.6-7.8-192.1-55c-47.4-40.2-75.3-91.8-82.3-153.7C5,399.6,28.5,332.4,83.5,277.3c41.3-41.4,91.9-64.3,150.3-68.5
				c98.5-7,186.9,42.8,232.4,130.4c4.1,7.9,7.5,16.2,10.7,24.4c1.3,3.4,2.8,4.7,6.6,4.7c49.9-0.2,99.8-0.1,149.7-0.1
				c45.8,0,91.7,0.1,137.5-0.1c7.2,0,12.9,2.3,18,7.4c18.9,19.1,38,38.1,57,57.1c9.7,9.7,9.9,21.3,0.2,31
				c-19.1,19.2-38.3,38.3-57.4,57.5c-5.1,5.1-10.9,7.5-18.1,7.3C763.2,528.3,755.9,528.4,748.5,528.4z M804.5,448.2
				c-12.2-12.2-24.1-23.9-35.7-35.9c-2.8-2.9-5.7-4.1-9.8-4.1c-97.1,0.1-194.3,0.1-291.4,0.1c-13.8,0-19.9-4.5-23.8-17.7
				c-29.2-97.6-128.4-158.1-228-139.2C107.8,271.8,36.6,373.9,54.9,482c20,118.2,140.2,193.2,254.7,157.8
				c68.6-21.2,113-67.7,134.8-136c3.3-10.5,9.8-15.4,20.7-15.4c15,0,30,0.2,45-0.1c7.6-0.2,13.6,2.4,18.8,7.8
				c7.6,8,15.6,15.7,23.7,23.9c8.5-8.5,16.7-16.7,24.7-24.9c4.5-4.6,9.8-6.9,16.4-6.7c12,0.2,24.1,0.3,36.1,0
				c8-0.2,14.2,2.5,19.6,8.2c7.5,7.9,15.3,15.5,23.3,23.5c8.1-8.1,15.9-15.8,23.4-23.7c5.3-5.6,11.3-8.2,19.1-8.1
				c15,0.3,30,0.2,45,0c1.9,0,4.2-0.5,5.5-1.6C778.7,474.1,791.4,461.3,804.5,448.2z"/>
			<path class="st0" d="M172.2,528.4c-44,0.1-80.1-35.7-80.4-79.7c-0.3-43.7,35.5-79.8,78.5-80.6c43.4-0.8,81.6,33.7,81.8,79
				C252.4,492.4,217,528.3,172.2,528.4z M212,448.2c0-22.1-17.8-39.9-39.9-39.9c-21.9,0-40.1,18-40,39.9c0,21.8,18.3,40.2,40,40.1
				C194,488.4,212,470.2,212,448.2z"/>
		</g>
		<path class="st0" d="M476.5,31.4c-5.7,1.3-11.4,2.7-17.1,4c-60.3,14.6-104.7,69.9-106.1,132.1c-0.4,15.9,9.1,27,23.3,27.3
			c14.4,0.4,24.1-9.7,24.8-25.8c2.3-50,38.6-86.8,88.5-89.3c15.9-0.8,31.9-0.4,47.9-0.4c109.5,0,219,0.1,328.5-0.1
			c40.7-0.1,71.7,16.4,89,53.8c5.7,12.3,8.7,27.1,8.7,40.7c0.5,225.5,0.5,451.1,0.3,676.6c0,52.7-37.4,91.5-89.9,93.7
			c-23.1,1-46.3,0.4-69.4,0.4c-102,0-204-0.1-306,0.1c-40.4,0.1-71.1-16.4-88.4-53.2c-5.8-12.3-8.4-27-8.7-40.7
			c-1.1-43.5-0.3-87-0.4-130.4c0-16.5-10-27.1-24.8-26.7c-10.9,0.3-19.8,7.3-22.2,18c-0.8,3.3-1.1,6.8-1.1,10.2
			c-0.1,43.2-0.4,86.3,0,129.5c0.6,68.8,45.8,124.4,112.3,138.3c10,2.1,20.5,2.8,30.7,2.8c124.2,0.2,248.4,0.2,372.6,0.1
			c82,0,143-60.8,143-142.8c0.1-225.2,0.1-450.5,0-675.7C1011.9,101,964,44.9,892,32.9c-1.5-0.3-2.9-1-4.4-1.5
			C750.6,31.4,613.6,31.4,476.5,31.4z"/>
		<path class="st0" d="M883.5,187.3c0,192.3,0,383.6,0,575.4c-133.8,0-267.2,0-402,0c0-9.5,0.1-18.7,0-28c0-5,0.1-10.1-0.6-15
			c-1.9-12.6-11.7-20.6-24.1-20.3c-12.1,0.3-22.6,9.2-23,21.6c-0.7,22.8-0.7,45.7,0,68.5c0.4,12,10.1,20.2,22.4,21.2
			c3.1,0.3,6.3,0.2,9.4,0.2c144.8,0,289.7,0,434.5,0c3.4,0,6.9,0,10.3-0.3c11.1-1.1,19.1-8.5,20.9-19.5c0.7-4,0.7-8.1,0.7-12.1
			c0-202.7,0-405.4,0-608c0-4.4-0.2-8.8-1-13c-1.9-9.6-9.5-16.6-19.3-17.9c-4.3-0.6-8.7-0.6-13.1-0.6c-143.9,0-287.8,0-431.7,0
			c-4.4,0-8.8,0-13.1,0.5c-11.7,1.6-20.3,11.6-20.4,23.3c0,12,9.1,22.4,21.1,23.7c3.4,0.4,6.9,0.2,10.3,0.2c135.5,0,270.9,0,406.4,0
			C874.9,187.3,878.7,187.3,883.5,187.3z"/>
		<path class="st0" d="M706.6,868.9c0-13-10.9-24-23.9-24c-13,0-23.9,11-23.9,24c0,12.9,11,24,23.9,24
			C695.6,892.9,706.5,881.9,706.6,868.9z"/>
	</g>
</g>
</svg>
