<?xml version="1.0" encoding="utf-8"?>
<!-- Generator: Adobe Illustrator 24.1.0, SVG Export Plug-In . SVG Version: 6.00 Build 0)  -->
<svg version="1.1" xmlns="http://www.w3.org/2000/svg" xmlns:xlink="http://www.w3.org/1999/xlink" x="0px" y="0px"
	 viewBox="0 0 1024 1024" style="enable-background:new 0 0 1024 1024;" xml:space="preserve">
<style type="text/css">
	.st0{fill:#5F5E5E;}
	.st1{fill-rule:evenodd;clip-rule:evenodd;fill:#5F5E5E;}
	.st2{fill:#E30613;}
</style>
<g id="Layer_2">
</g>
<g id="Layer_1">
	<g>
		<path class="st0" d="M600.4,1012H161.2c-57.8,0-104.7-47-104.7-104.7V116.7C56.5,59,103.5,12,161.2,12h439.2
			c57.8,0,104.7,47,104.7,104.7v790.5C705.1,965,658.1,1012,600.4,1012z M161.2,45.8c-39.1,0-70.9,31.8-70.9,70.9v790.5
			c0,39.1,31.8,70.9,70.9,70.9h439.2c39.1,0,70.9-31.8,70.9-70.9V116.7c0-39.1-31.8-70.9-70.9-70.9H161.2z M600.4,880.2H161.2
			c-9.3,0-16.9-7.6-16.9-16.9V160.7c0-9.3,7.6-16.9,16.9-16.9h439.2c9.3,0,16.9,7.6,16.9,16.9v702.7
			C617.3,872.7,609.7,880.2,600.4,880.2z M178.1,846.4h405.4V177.6H178.1V846.4z M868.3,713.4c-4.3,0-8.7-1.7-12-5l-43.9-43.9
			c-6.5-6.5-6.6-16.9-0.3-23.6c72.7-76.8,72.9-189.3,0.3-261.9c-6.6-6.6-6.6-17.3,0-23.9l43.9-43.9c6.5-6.5,17-6.6,23.7-0.2
			c28.9,27.7,51.1,59.8,66.2,95.5c14.6,34.5,21.8,70.8,21.4,107.8c-0.8,74.1-32,143.3-87.8,194.6
			C876.5,711.9,872.4,713.4,868.3,713.4z M847.6,651.8l20.8,20.8c41.6-43.5,64.7-99.3,65.3-158.7c0.7-61.4-22.5-120-65.5-166.7
			l-20.3,20.3c34.1,39.6,52.7,88.9,52.7,140.6C900.6,560,881.9,610.4,847.6,651.8z M776.1,621.1c-4.3,0-8.7-1.7-12-5l-43.9-43.9
			c-5.8-5.8-6.6-15.1-1.8-21.8c17.7-24.7,17.7-56.6,0-81.4c-4.8-6.7-4-15.9,1.8-21.8l43.9-43.9c3.3-3.3,7.7-5.1,12.3-4.9
			c4.6,0.1,9,2.1,12.1,5.4c58.9,63.8,58.7,153.1-0.5,212.3C784.7,619.5,780.4,621.1,776.1,621.1z M753.5,557.8l21.7,21.7
			c15.2-20,23.4-43.7,23.4-68.1c0-24.7-8.4-49.3-23.9-70.9l-21.3,21.3C769.5,492.1,769.5,527.5,753.5,557.8z"/>
	</g>
</g>
</svg>
