<?xml version="1.0" encoding="utf-8"?>
<!-- Generator: Adobe Illustrator 24.1.0, SVG Export Plug-In . SVG Version: 6.00 Build 0)  -->
<svg version="1.1" xmlns="http://www.w3.org/2000/svg" xmlns:xlink="http://www.w3.org/1999/xlink" x="0px" y="0px"
	 viewBox="0 0 1024 1024" style="enable-background:new 0 0 1024 1024;" xml:space="preserve">
<style type="text/css">
	.st0{fill:#5F5E5E;}
	.st1{fill-rule:evenodd;clip-rule:evenodd;fill:#5F5E5E;}
	.st2{fill:#E30613;}
</style>
<g id="Layer_2">
</g>
<g id="Layer_1">
	<g>
		<path class="st0" d="M784.4,1012c-59.8,0-108.5-48.9-108.5-108.9c0-60.1,48.7-108.9,108.5-108.9c60.1,0,108.9,48.9,108.9,108.9
			C893.3,963.1,844.4,1012,784.4,1012z M784.4,828c-41.2,0-74.6,33.7-74.6,75.1c0,41.4,33.5,75.1,74.6,75.1
			c41.4,0,75.1-33.7,75.1-75.1C859.5,861.7,825.8,828,784.4,828z M324.3,1012c-59.8,0-108.5-48.9-108.5-108.9
			c0-60.1,48.7-108.9,108.5-108.9c60.1,0,108.9,48.9,108.9,108.9C433.2,963.1,384.3,1012,324.3,1012z M324.3,828
			c-41.2,0-74.6,33.7-74.6,75.1c0,41.4,33.5,75.1,74.6,75.1c41.4,0,75.1-33.7,75.1-75.1C399.4,861.7,365.7,828,324.3,828z
			 M876.4,782H324.3c-60.1,0-108.9-48.9-108.9-108.9c0-18.6,4.7-36.7,13.7-52.4l57.9-105L129.6,183.8H48.2
			c-9.3,0-16.9-7.6-16.9-16.9v-92c0-9.3,7.6-16.9,16.9-16.9h150.4c6.6,0,12.5,3.8,15.3,9.7l43.2,92l43.7,92l103,217.6l1.4,2.8h302.4
			l122.2-221.3l50.6-92c3-5.4,8.6-8.8,14.8-8.8h0.5c2.9,0,5.7,0.7,8.2,2.1l80.1,44.2c8.2,4.5,11.1,14.8,6.6,23L813,541.8
			c-19,34.6-55.5,56.1-95.3,56.1H384.9l-32.1,58.2h523.7c9.3,0,16.9,7.6,16.9,16.9v92C893.3,774.4,885.7,782,876.4,782z M65.1,150
			h75.1c6.5,0,12.5,3.8,15.3,9.7l165.6,349.2c2.3,4.9,2.2,10.6-0.5,15.4L258.6,637c0,0.1-0.1,0.2-0.1,0.2c-6.1,10.6-9.3,23-9.3,35.8
			c0,41.4,33.7,75.1,75.1,75.1h535.2v-58.2H343.6c-15.7,0-28.4-12.7-28.4-28.4c0-1.4,0.2-2.8,0.5-4.1l1.4-5.5
			c0.4-1.4,0.9-2.8,1.6-4.1l41.4-75c3-5.4,8.6-8.7,14.8-8.7h342.8c27.5,0,52.6-14.8,65.7-38.6l169.5-307.7l-50.8-28l-42.6,77.4
			l-127,230.1c-3,5.4-8.6,8.7-14.8,8.7h-323c-6.5,0-12.4-3.7-15.2-9.6l-6-12.4c0,0,0-0.1,0-0.1L270.4,266.2l-43.7-92l-38.7-82.4
			H65.1V150z M600.3,413.9h-92c-9.3,0-16.9-7.6-16.9-16.9V275.9H370.3c-9.3,0-16.9-7.6-16.9-16.9v-92c0-9.3,7.6-16.9,16.9-16.9
			h121.1V28.9c0-9.3,7.6-16.9,16.9-16.9h92c9.3,0,16.9,7.6,16.9,16.9V150h121.1c9.3,0,16.9,7.6,16.9,16.9v92
			c0,9.3-7.6,16.9-16.9,16.9H617.2V397C617.2,406.3,609.7,413.9,600.3,413.9z M525.2,380.1h58.2V259c0-9.3,7.6-16.9,16.9-16.9h121.1
			v-58.2H600.3c-9.3,0-16.9-7.6-16.9-16.9V45.8h-58.2v121.1c0,9.3-7.6,16.9-16.9,16.9H387.2V242h121.1c9.3,0,16.9,7.6,16.9,16.9
			V380.1z"/>
	</g>
</g>
</svg>
