<?xml version="1.0" encoding="utf-8"?>
<!-- Generator: Adobe Illustrator 24.1.0, SVG Export Plug-In . SVG Version: 6.00 Build 0)  -->
<svg version="1.1" xmlns="http://www.w3.org/2000/svg" xmlns:xlink="http://www.w3.org/1999/xlink" x="0px" y="0px"
	 viewBox="0 0 1024 1024" style="enable-background:new 0 0 1024 1024;" xml:space="preserve">
<style type="text/css">
	.st0{fill:#5F5E5E;}
	.st1{fill-rule:evenodd;clip-rule:evenodd;fill:#5F5E5E;}
	.st2{fill:#E30613;}
</style>
<g id="Layer_2">
</g>
<g id="Layer_1">
	<g>
		<g>
			<path class="st0" d="M512,1012c-4.3,0-8.7-1.7-12-5L367,874h-177C129.9,874,81,825.1,81,765V120.9C81,60.9,129.9,12,189.9,12
				h644.1C894.1,12,943,60.9,943,120.9V765c0,60.1-48.9,108.9-108.9,108.9H657L524,1007C520.7,1010.3,516.3,1012,512,1012z
				 M189.9,45.8c-41.4,0-75.1,33.7-75.1,75.1V765c0,41.4,33.7,75.1,75.1,75.1h184c4.5,0,8.8,1.8,12,5L512,971.2l126.1-126.1
				c3.2-3.2,7.5-5,12-5h184c41.4,0,75.1-33.7,75.1-75.1V120.9c0-41.4-33.7-75.1-75.1-75.1H189.9z M558,782h-92
				c-9.3,0-16.9-7.6-16.9-16.9v-92c0-9.3,7.6-16.9,16.9-16.9h92c9.3,0,16.9,7.6,16.9,16.9v92C574.9,774.4,567.3,782,558,782z
				 M482.9,748.1h58.2v-58.2h-58.2V748.1z M558,597.9h-92c-9.3,0-16.9-7.6-16.9-16.9v-23c0-53.2,20.8-103.7,58.7-142.1l57-58
				c0.1-0.1,0.2-0.2,0.3-0.3c14.2-13.8,22-32.6,22-52.8c0-41.4-33.7-75.1-75.1-75.1s-75.1,33.7-75.1,75.1c0,9.3-7.6,16.9-16.9,16.9
				h-92c-9.3,0-16.9-7.6-16.9-16.9c0-53.7,20.9-104.2,58.8-142.1S458.3,104,512,104s104.2,20.9,142.1,58.8s58.8,88.4,58.8,142.1
				c0,43-17.4,85.1-47.7,115.4l-41.3,42.3c-30.5,30.9-49,54.3-49,118.4C574.9,590.4,567.3,597.9,558,597.9z M482.9,564.1h58.6
				c3.5-64.5,27.6-94,58.3-125.2l41.4-42.3c0,0,0.1-0.1,0.1-0.1c24-24,37.8-57.4,37.8-91.6c0-44.7-17.4-86.6-48.9-118.2
				s-73.5-48.9-118.2-48.9s-86.6,17.4-118.2,48.9c-27.5,27.5-44.3,63-48.1,101.3h58.7c8.1-52.1,53.3-92,107.6-92
				c60.1,0,108.9,48.9,108.9,108.9c0,29.3-11.4,56.6-32.1,76.9l-56.9,57.8c-31.6,32-49,74-49,118.3V564.1z"/>
		</g>
	</g>
</g>
</svg>
