<?xml version="1.0" encoding="utf-8"?>
<!-- Generator: Adobe Illustrator 24.1.0, SVG Export Plug-In . SVG Version: 6.00 Build 0)  -->
<svg version="1.1" xmlns="http://www.w3.org/2000/svg" xmlns:xlink="http://www.w3.org/1999/xlink" x="0px" y="0px"
	 viewBox="0 0 1024 1024" style="enable-background:new 0 0 1024 1024;" xml:space="preserve">
<style type="text/css">
	.st0{fill:#5F5E5E;}
	.st1{fill-rule:evenodd;clip-rule:evenodd;fill:#5F5E5E;}
	.st2{fill:#E30613;}
</style>
<g id="Layer_2">
</g>
<g id="Layer_1">
	<g>
		<g>
			<path class="st0" d="M834.1,1012H189.9c-9.3,0-16.9-7.6-16.9-16.9v-80.5c0-9.3,7.6-16.9,16.9-16.9h644.1
				c9.3,0,16.9,7.6,16.9,16.9v80.5C851,1004.4,843.4,1012,834.1,1012z M206.8,978.2h610.3v-46.7H206.8V978.2z M834.1,851H189.9
				c-53.7,0-97.4-43.7-97.4-97.4V270.5c0-53.7,43.7-97.4,97.4-97.4h644.1c53.7,0,97.4,43.7,97.4,97.4v483.1
				C931.5,807.3,887.8,851,834.1,851z M189.9,206.8c-35.1,0-63.6,28.5-63.6,63.6v483.1c0,35.1,28.5,63.6,63.6,63.6h644.1
				c35.1,0,63.6-28.5,63.6-63.6V270.5c0-35.1-28.5-63.6-63.6-63.6H189.9z M713.3,730.2H310.7c-9.3,0-16.9-7.6-16.9-16.9v-60.4
				c0-37.2,29.8-68.7,86.1-91.2c30.4-12.1,83.2-26.3,132.1-26.3c30.6,0,83.5,6.9,132.1,26.3c56.3,22.5,86.1,54.1,86.1,91.2v60.4
				C730.2,722.6,722.6,730.2,713.3,730.2z M327.6,696.4h368.8v-43.5c0-12.7-8.4-37.3-64.8-59.8c-41.3-16.5-89.8-23.9-119.6-23.9
				s-78.3,7.4-119.6,23.9c-24.2,9.7-64.8,30.3-64.8,59.8V696.4z M512,498.7c-59.3,0-107.5-48.2-107.5-107.5S452.7,283.7,512,283.7
				S619.5,332,619.5,391.2S571.3,498.7,512,498.7z M512,317.6c-40.6,0-73.7,33-73.7,73.7s33,73.7,73.7,73.7s73.7-33,73.7-73.7
				S552.6,317.6,512,317.6z M834.1,126.3H189.9c-9.3,0-16.9-7.6-16.9-16.9V28.9c0-9.3,7.6-16.9,16.9-16.9h644.1
				c9.3,0,16.9,7.6,16.9,16.9v80.5C851,118.8,843.4,126.3,834.1,126.3z M206.8,92.5h610.3V45.8H206.8V92.5z"/>
		</g>
	</g>
</g>
</svg>
