<?xml version="1.0" encoding="utf-8"?>
<!-- Generator: Adobe Illustrator 24.1.0, SVG Export Plug-In . SVG Version: 6.00 Build 0)  -->
<svg version="1.1" xmlns="http://www.w3.org/2000/svg" xmlns:xlink="http://www.w3.org/1999/xlink" x="0px" y="0px"
	 viewBox="0 0 1024 1024" style="enable-background:new 0 0 1024 1024;" xml:space="preserve">
<style type="text/css">
	.st0{fill:#5F5E5E;}
	.st1{fill-rule:evenodd;clip-rule:evenodd;fill:#5F5E5E;}
	.st2{fill:#004E7C;}
</style>
<g id="Layer_2">
</g>
<g id="Layer_1">
	<g>
		<path class="st0" d="M12,778.5c0.3-0.5,0.8-1,1-1.6c3.8-10.5,12.8-16.3,23-14.7c10.4,1.6,17.5,10,17.7,21.3
			c0.2,10.3,0,20.5,0,30.8c0,39.7,0,79.4,0,119.1c0,1.9,0,3.8,0,7.2c2.3-2.2,3.8-3.6,5.2-5c41.5-41.5,83.1-83.1,124.6-124.6
			c10.2-10.2,24.9-9.6,32.7,1.1c5.4,7.4,5.3,17.7-0.4,25c-1.5,1.9-3.2,3.6-5,5.4c-40.7,40.7-81.5,81.5-122.2,122.2
			c-1.5,1.5-3.4,2.4-5.2,3.6c0.4,0.7,0.7,1.3,1.1,2c1.8,0,3.7,0,5.5,0c49.8,0,99.6,0,149.4,0c13.6,0,23,9,22.4,21.6
			c-0.4,8.3-4.5,14.4-12.1,18c-1.4,0.7-2.9,1.4-4.3,2c-72.6,0-145.2,0-217.8,0c-7.4-3-12.6-8.2-15.6-15.6
			C12,923.7,12,851.1,12,778.5z"/>
		<path class="st0" d="M12,27.5c0.5-0.8,1-1.6,1.3-2.5c4-8.4,10.2-13.1,19.8-13c68.8,0.1,137.6,0,206.5,0c12.6,0,21.8,8.2,22.2,19.7
			c0.4,11.9-8.2,20.8-20.9,21.7c-1.5,0.1-2.9,0-4.4,0c-48.6,0-97.3,0-145.9,0c-1.9,0-3.9,0-7.3,0c2.2,2.3,3.5,3.8,4.9,5.1
			c41.4,41.4,82.8,82.9,124.3,124.2c6.3,6.3,9.1,13.5,6.9,22.1c-3.8,14.2-20.9,19.7-32.6,10.7c-1.9-1.5-3.6-3.2-5.4-5
			c-40.6-40.6-81.2-81.2-121.8-121.9c-1.6-1.6-2.7-3.6-4.1-5.4c-0.6,0.3-1.3,0.6-1.9,0.9c0,1.8,0,3.6,0,5.5c0,49.6,0,99.3,0,148.9
			c0,7.8-2.3,14.4-8.7,19.1c-10,7.3-24.3,4.1-30.2-6.9c-1-1.8-1.8-3.7-2.7-5.6C12,172.7,12,100.1,12,27.5z"/>
		<path class="st0" d="M778.7,1011.9c-0.7-0.4-1.3-0.8-2-1.1c-10.1-3.8-15.8-13.1-14.2-22.8c1.7-10.5,10-17.6,21.3-17.6
			c20.3-0.1,40.7,0,61,0c29.9,0,59.9,0,89.8,0c1.7,0,3.5,0,6.4,0c-2.1-2.3-3.4-3.7-4.7-5c-41.7-41.7-83.3-83.4-125-125
			c-6.2-6.2-8.7-13.3-6.5-21.7c3.9-14.6,21.8-19.8,33.3-10c1.2,1.1,2.3,2.3,3.5,3.4c41.1,41.1,82.2,82.2,123.2,123.3
			c1.5,1.5,2.4,3.4,3.6,5.2c0.7-0.4,1.4-0.8,2-1.1c0-1.8,0-3.7,0-5.5c0-49.6,0-99.3,0-148.9c0-13.6,8.4-22.8,20.6-22.9
			c11.6-0.1,20.7,8.9,20.8,20.7c0.1,18.6,0,37.1,0,55.7c0,50.3-0.1,100.6,0.1,150.9c0,10.8-4.5,18-14.6,21.7c-0.4,0.1-0.7,0.6-1,1
			C923.9,1011.9,851.3,1011.9,778.7,1011.9z"/>
		<path class="st0" d="M761.9,511.9c0,62.2,0,124.3,0,186.5c0,35.8-27.6,63.3-63.4,63.3c-124.3,0-248.7,0-373,0
			c-35.8,0-63.3-27.6-63.3-63.4c0-124.3,0-248.7,0-373c0-35.9,27.5-63.3,63.4-63.3c124.5,0,249,0,373.5,0
			c35.2,0,62.8,27.7,62.8,62.9C761.9,387.2,761.9,449.6,761.9,511.9z M720.4,511.7c0-61.7,0-123.4,0-185c0-15-8.2-23.1-23.3-23.1
			c-123.5,0-247,0-370.6,0c-14.6,0-22.9,8.3-22.9,23c0,123.5,0,247,0,370.6c0,14.8,8.4,23.2,23.3,23.2c123.4,0,246.7,0,370.1,0
			c15.2,0,23.4-8.3,23.4-23.6C720.4,635,720.4,573.3,720.4,511.7z"/>
		<path class="st0" d="M970.5,83.1c-2.6,2.4-4.1,3.8-5.5,5.3c-41.1,41.1-82.2,82.2-123.3,123.3c-4.9,4.9-10.2,8.4-17.5,8.2
			c-8.1-0.3-14.1-3.8-17.8-10.9c-3.7-7.2-3.3-14.5,1.1-21.3c1.3-2,3.1-3.8,4.8-5.5c41.2-41.2,82.4-82.4,123.6-123.6
			c1.3-1.3,2.6-2.7,4.8-5.1c-3.1,0-4.9,0-6.8,0c-49.5,0-99,0-148.4,0c-12.1,0-20.1-5.7-22.7-16c-3.1-12.6,6.2-25.2,19.3-25.4
			c9.9-0.2,19.9,0,29.8,0c59.6,0,119.1,0,178.7,0c12.9,0,21.3,8.5,21.3,21.3c0,69,0,138,0,207c0,10.4-6.1,18.3-15.9,20.7
			c-9.2,2.3-18.9-1.8-22.9-10.5c-1.8-3.8-2.5-8.4-2.5-12.7c-0.2-49.2-0.1-98.3-0.1-147.5C970.5,88.5,970.5,86.6,970.5,83.1z"/>
	</g>
</g>
</svg>
