<?xml version="1.0" encoding="utf-8"?>
<!-- Generator: Adobe Illustrator 24.1.0, SVG Export Plug-In . SVG Version: 6.00 Build 0)  -->
<svg version="1.1" xmlns="http://www.w3.org/2000/svg" xmlns:xlink="http://www.w3.org/1999/xlink" x="0px" y="0px"
	 viewBox="0 0 1024 1024" style="enable-background:new 0 0 1024 1024;" xml:space="preserve">
<style type="text/css">
	.st0{fill:#5F5E5E;}
	.st1{fill-rule:evenodd;clip-rule:evenodd;fill:#5F5E5E;}
	.st2{fill:#004E7C;}
</style>
<g id="Layer_2">
</g>
<g id="Layer_1">
	<g>
		<g>
			<path class="st0" d="M846.3,1012H177.7C86.3,1012,12,937.7,12,846.3V177.7C12,86.3,86.3,12,177.7,12h668.5
				c91.4,0,165.7,74.3,165.7,165.7v668.5C1012,937.7,937.7,1012,846.3,1012z M177.7,54.4c-68,0-123.4,55.3-123.4,123.4v668.5
				c0,68,55.3,123.4,123.4,123.4h668.5c68,0,123.4-55.4,123.4-123.4V177.7c0-68-55.3-123.4-123.4-123.4H177.7z"/>
		</g>
	</g>
	<g>
		<path class="st0" d="M220.7,840.8h101c12.3,0,22.2-9.9,22.2-22.2V634.5c0-12.3-9.9-22.2-22.2-22.2h-101
			c-12.3,0-22.2,9.9-22.2,22.2v184.1C198.5,830.9,208.4,840.8,220.7,840.8z"/>
		<path class="st0" d="M461.5,840.8h101c12.3,0,22.2-9.9,22.2-22.2V287c0-12.3-9.9-22.2-22.2-22.2h-101c-12.3,0-22.2,9.9-22.2,22.2
			v531.7C439.3,830.9,449.3,840.8,461.5,840.8z"/>
		<path class="st0" d="M702.4,840.8h101c12.3,0,22.2-9.9,22.2-22.2v-374c0-12.3-9.9-22.2-22.2-22.2h-101c-12.3,0-22.2,9.9-22.2,22.2
			v374C680.2,830.9,690.1,840.8,702.4,840.8z"/>
	</g>
</g>
</svg>
