<?xml version="1.0" encoding="utf-8"?>
<!-- Generator: Adobe Illustrator 24.1.0, SVG Export Plug-In . SVG Version: 6.00 Build 0)  -->
<svg version="1.1" xmlns="http://www.w3.org/2000/svg" xmlns:xlink="http://www.w3.org/1999/xlink" x="0px" y="0px"
	 viewBox="0 0 1024 1024" style="enable-background:new 0 0 1024 1024;" xml:space="preserve">
<style type="text/css">
	.st0{fill:#5F5E5E;}
	.st1{fill-rule:evenodd;clip-rule:evenodd;fill:#5F5E5E;}
	.st2{fill:#004E7C;}
</style>
<g id="Layer_2">
</g>
<g id="Layer_1">
	<g id="Forma_1">
		<g>
			<path class="st1" d="M366.2,407.8v208.3c0,11.5,9.3,20.8,20.8,20.8h250c11.5,0,20.8-9.3,20.8-20.8V407.8
				c0-11.5-9.3-20.8-20.8-20.8H387C375.5,387,366.2,396.3,366.2,407.8z M407.9,428.7h208.3v166.7H407.9V428.7z M941.7,349.9
				L525,16.6c-7.6-6.1-18.4-6.1-26,0L82.3,349.9c-6.9,5.5-9.6,14.8-6.6,23.2c3,8.3,10.8,13.9,19.7,13.9h104.2v395.8
				c0,11.5,9.3,20.8,20.8,20.8h270.8v41.7h-20.8c-11.5,0-20.8,9.3-20.8,20.8V887h-20.8c-11.5,0-20.8,9.3-20.8,20.8v20.8H220.3
				c-11.5,0-20.8,9.3-20.8,20.8c0,11.5,9.3,20.8,20.8,20.8h187.5v20.8c0,11.5,9.3,20.8,20.8,20.8h166.7c11.5,0,20.8-9.3,20.8-20.8
				v-20.8h187.5c11.5,0,20.8-9.3,20.8-20.8c0-11.5-9.3-20.8-20.8-20.8H616.2v-20.8c0-11.5-9.3-20.8-20.8-20.8h-20.8v-20.8
				c0-11.5-9.3-20.8-20.8-20.8h-20.8v-41.7h270.8c11.5,0,20.8-9.3,20.8-20.8V387h104.2c8.8,0,16.7-5.6,19.6-13.9
				C951.2,364.7,948.6,355.4,941.7,349.9z M532.9,887v20.8c0,11.5,9.3,20.8,20.8,20.8h20.8v41.7h-125v-41.7h20.8
				c11.5,0,20.8-9.3,20.8-20.8V887H532.9z M803.7,345.3c-11.5,0-20.8,9.3-20.8,20.8V762H241.2V366.2c0-11.5-9.3-20.8-20.8-20.8
				h-65.6L512,59.5l357.3,285.8H803.7z"/>
		</g>
	</g>
</g>
</svg>
