<?xml version="1.0" encoding="utf-8"?>
<!-- Generator: Adobe Illustrator 24.1.0, SVG Export Plug-In . SVG Version: 6.00 Build 0)  -->
<svg version="1.1" xmlns="http://www.w3.org/2000/svg" xmlns:xlink="http://www.w3.org/1999/xlink" x="0px" y="0px"
	 viewBox="0 0 1024 1024" style="enable-background:new 0 0 1024 1024;" xml:space="preserve">
<style type="text/css">
	.st0{fill:#5F5E5E;}
	.st1{fill-rule:evenodd;clip-rule:evenodd;fill:#5F5E5E;}
	.st2{fill:#E30613;}
</style>
<g id="Layer_2">
</g>
<g id="Layer_1">
	<g>
		<path class="st0" d="M512,1012c-4.3,0-8.7-1.7-12-5L391.6,898.6c-46.1-12.7-89.6-32.6-129.6-59.1c-40.6-27-76.3-60.1-106.3-98.5
			c-30.3-38.8-53.9-81.9-70.1-128.1c-16.8-47.8-25.3-98.1-25.3-149.2c0-61,11.9-120.1,35.5-175.8c22.8-53.8,55.3-102.1,96.8-143.6
			s89.8-74,143.6-96.8C391.9,23.9,451,12,512,12s120.1,11.9,175.8,35.5c53.8,22.8,102.1,55.3,143.6,96.8
			c41.5,41.5,74,89.8,96.8,143.6c23.6,55.7,35.5,114.8,35.5,175.8c0,51.2-8.5,101.4-25.3,149.2c-16.2,46.2-39.8,89.4-70.1,128.1
			c-30,38.4-65.8,71.5-106.3,98.5c-39.9,26.5-83.5,46.4-129.6,59.1L524,1007C520.7,1010.3,516.3,1012,512,1012z M512,45.8
			c-56.4,0-111.1,11-162.6,32.8c-49.8,21-94.4,51.2-132.8,89.6c-38.4,38.4-68.5,83.1-89.6,132.8c-21.8,51.5-32.8,106.2-32.8,162.6
			c0,47.4,7.9,93.8,23.4,138.1c15,42.8,36.8,82.6,64.9,118.5c27.8,35.5,60.9,66.2,98.4,91.1c38.1,25.3,79.8,44.1,123.9,55.8
			c2.9,0.8,5.5,2.3,7.6,4.4l99.6,99.6l99.6-99.6c2.1-2.1,4.7-3.6,7.6-4.4c44.1-11.7,85.8-30.5,123.9-55.8
			c37.5-24.9,70.7-55.6,98.4-91.1c28-35.9,49.9-75.7,64.9-118.5c15.5-44.2,23.4-90.7,23.4-138.1c0-56.4-11-111.1-32.8-162.6
			c-21-49.8-51.2-94.4-89.6-132.8c-38.4-38.4-83.1-68.5-132.8-89.6C623.1,56.9,568.4,45.8,512,45.8z M512,833.3
			c-122.4,0-236-61-303.9-163.1c-1.9-2.8-2.9-6.2-2.8-9.6c0.8-49.9,42.1-93.4,119.6-125.8c57.6-24.1,131.1-39.7,187.1-39.7
			c55.9,0,129.3,15.6,187,39.7c77.6,32.4,119.1,75.9,119.8,125.8c0.1,3.4-0.9,6.8-2.8,9.6C748,772.3,634.4,833.3,512,833.3z
			 M239.4,656.1c62,89.9,163.4,143.4,272.6,143.4S722.7,746,784.6,656.1c-2.4-21.2-19.8-57.2-98.7-90.1
			c-61.2-25.6-131.5-37-173.9-37c-42.6,0-112.9,11.5-174.1,37C259.1,598.9,241.8,634.9,239.4,656.1z M512,432.3
			c-43.3,0-84-16.8-114.5-47.3c-30.5-30.5-47.3-71.2-47.3-114.5s16.8-84,47.3-114.5c30.5-30.5,71.2-47.3,114.5-47.3
			s84,16.8,114.5,47.3c30.5,30.5,47.3,71.2,47.3,114.5s-16.8,84-47.3,114.5C596,415.5,555.3,432.3,512,432.3z M512,142.4
			c-34.3,0-66.4,13.3-90.6,37.4C397.3,204,384,236.2,384,270.5s13.3,66.4,37.4,90.6c24.1,24.1,56.3,37.4,90.6,37.4
			s66.4-13.3,90.6-37.4c24.1-24.1,37.4-56.3,37.4-90.6s-13.3-66.4-37.4-90.6C578.4,155.7,546.3,142.4,512,142.4z"/>
	</g>
</g>
</svg>
