<?xml version="1.0" encoding="utf-8"?>
<!-- Generator: Adobe Illustrator 24.1.0, SVG Export Plug-In . SVG Version: 6.00 Build 0)  -->
<svg version="1.1" xmlns="http://www.w3.org/2000/svg" xmlns:xlink="http://www.w3.org/1999/xlink" x="0px" y="0px"
	 viewBox="0 0 1024 1024" style="enable-background:new 0 0 1024 1024;" xml:space="preserve">
<style type="text/css">
	.st0{fill:#5F5E5E;}
	.st1{fill-rule:evenodd;clip-rule:evenodd;fill:#5F5E5E;}
	.st2{fill:#004E7C;}
</style>
<g id="Layer_2">
</g>
<g id="Layer_1">
	<g>
		<path class="st0" d="M1012,495.2c-2.7-63.9-14.9-115.7-32.3-159.9c-52.7-134.6-145.9-230.1-279-286.3c-42.6-18-87.2-29-133.2-33.8
			c-18.3-1.9-36.7-2.4-55-3.1c-10.3-0.4-19,7-20.7,16.6c-1.9,10.2,3.6,20.2,13.3,23.3c3.9,1.3,8.3,1.5,12.5,1.5
			c36.9,0.3,73.4,4.6,109,14.4c138,37.9,238.5,121.4,301,250.2c24.8,51.2,38.2,105.6,41.9,162.3c0.7,11.4,0.6,22.8,1.6,34.1
			c1.1,11.5,10.4,18.6,22.1,17.9c10.3-0.6,18.5-9.3,18.8-20.1C1012.1,506.6,1012,500.9,1012,495.2z M845.1,503.2
			c0.4,0,0.7-0.1,1.1-0.1c-2.3-17.9-3.5-36-7.1-53.6C817.3,342.8,757.6,264.3,661.2,214c-41.2-21.5-85.6-32.3-131.9-34.9
			c-6-0.3-12-0.4-18.1-0.2c-11.1,0.3-19.6,9.1-19.7,20.1c-0.1,11.2,8,20.5,19,20.8c21.2,0.6,42.3,1.8,62.9,6.8
			c112.5,27.7,185.8,97,219.9,207.7c7.8,25.3,10.3,51.6,10.7,78c0.2,11.7,9.1,20.2,20.6,20.2c11.5-0.1,20.2-8.7,20.4-20.5
			C845.2,509,845.1,506.1,845.1,503.2z M519.1,345.1c-4.5,0.4-9.2,0.3-13.5,1.5c-9.7,2.8-15.4,12.5-13.9,22.9
			c1.3,9.3,9.8,16.6,19.6,17.3c8.6,0.6,17.3,0.8,25.6,2.6c58.9,12.5,99,61.3,100.2,121.7c0.3,12.7,8.9,21.5,21,21.4
			c11.7-0.1,20.7-9.1,20.2-21.6c-0.4-10.4-1.1-20.9-3.2-31C659.5,403,597.4,349.8,519.1,345.1z"/>
		<path class="st0" d="M654.7,1012c-6.9-1.1-13.8-2-20.6-3.4c-18.5-3.9-35.5-11.3-51.3-21.8C431.9,886.6,297.8,767.3,179.9,629.9
			c-50.5-58.8-97.1-120.6-140.3-185c-14.8-22-24.5-45.7-26.7-72.3c-0.1-1.1-0.6-2.2-0.9-3.3c0-6.5,0-13,0-19.5
			c1.3-7.3,2.3-14.7,3.9-22C21.6,301.2,34,278,53,258.6c17-17.5,34.3-34.8,51.8-51.8c40.2-39,104.6-38.9,144.6,0.4
			c30.3,29.8,60.4,59.8,90.1,90.1c40.2,40.9,39.7,105.6-0.7,146.4c-5.2,5.3-10.7,10.4-16.3,15.9c73.8,87.9,154.1,168.2,241.9,241.9
			c5-5.2,9.7-10.1,14.6-14.9c42.7-42.6,107.2-42.6,149.9-0.1c28.4,28.4,56.9,56.8,85.3,85.3c43.1,43.1,43.1,107.5,0,150.6
			c-15.9,15.9-31.7,31.9-47.7,47.6c-24.7,24.2-54.4,37.9-88.9,41.1c-1.4,0.1-2.8,0.6-4.2,0.9C667,1012,660.8,1012,654.7,1012z
			 M53.7,350c-0.1,31,5.8,49.9,18.7,69.4c96,144.4,210,273.1,340.9,386.7c60.9,52.9,125,101.6,192.2,146.2
			c42.1,27.9,95.9,23.3,131.5-11.3c16.7-16.2,33.1-32.7,49.4-49.4c25.1-25.6,24.9-63.9-0.5-89.3c-28.8-29-57.7-57.9-86.7-86.7
			c-26.3-26.2-64.3-26.1-90.8-0.1c-9,8.9-18,18-26.9,26.9c-9.6,9.6-20.3,10.2-30.9,1.5c-98.9-81.5-189.1-171.7-270.6-270.7
			c-8.6-10.5-8-21.2,1.6-30.9c9.6-9.7,19.5-19.2,28.9-29.1c23.2-24.4,23.3-62.5-0.2-86.5c-29.5-30.1-59.3-59.9-89.4-89.4
			c-25.4-25-63.6-24.4-89,0.7c-16.1,15.9-32.1,31.9-48,48C64,306.3,53.9,330.8,53.7,350z"/>
		<path class="st0" d="M1012,495.2c0,5.7,0.1,11.4,0,17.1c-0.3,10.8-8.5,19.5-18.8,20.1c-11.7,0.7-21.1-6.4-22.1-17.9
			c-1.1-11.3-0.9-22.8-1.6-34.1c-3.6-56.8-17.1-111.2-41.9-162.3c-62.4-128.8-163-212.3-301-250.2c-35.6-9.8-72.1-14.1-109-14.4
			c-4.2,0-8.6-0.3-12.5-1.5c-9.7-3.1-15.1-13.1-13.3-23.3c1.7-9.5,10.4-16.9,20.7-16.6c18.4,0.7,36.8,1.2,55,3.1
			c46,4.8,90.6,15.8,133.2,33.8c133.1,56.3,226.2,151.8,279,286.3C997,379.5,1009.2,431.3,1012,495.2z"/>
		<path class="st0" d="M845.1,503.2c0,2.9,0,5.9,0,8.8c-0.2,11.7-8.9,20.4-20.4,20.5c-11.6,0.1-20.5-8.4-20.6-20.2
			c-0.4-26.5-2.9-52.7-10.7-78c-34.1-110.6-107.4-180-219.9-207.7c-20.6-5.1-41.8-6.2-62.9-6.8c-11-0.3-19.1-9.6-19-20.8
			c0.1-11,8.6-19.9,19.7-20.1c6-0.1,12.1-0.1,18.1,0.2c46.4,2.6,90.7,13.4,131.9,34.9c96.3,50.3,156.1,128.8,177.9,235.4
			c3.6,17.6,4.8,35.7,7.1,53.6C845.9,503.1,845.5,503.1,845.1,503.2z"/>
		<path class="st0" d="M519.1,345.1c78.3,4.7,140.4,57.9,156.2,134.8c2.1,10.1,2.8,20.6,3.2,31c0.4,12.5-8.5,21.5-20.2,21.6
			c-12.1,0.1-20.8-8.7-21-21.4C636,450.7,595.9,401.9,537,389.4c-8.4-1.8-17.1-2-25.6-2.6c-9.9-0.7-18.3-7.9-19.6-17.3
			c-1.5-10.4,4.1-20.1,13.9-22.9C509.9,345.4,514.6,345.6,519.1,345.1z"/>
	</g>
</g>
</svg>
