<?xml version="1.0" encoding="utf-8"?>
<!-- Generator: Adobe Illustrator 24.1.0, SVG Export Plug-In . SVG Version: 6.00 Build 0)  -->
<svg version="1.1" xmlns="http://www.w3.org/2000/svg" xmlns:xlink="http://www.w3.org/1999/xlink" x="0px" y="0px"
	 viewBox="0 0 1024 1024" style="enable-background:new 0 0 1024 1024;" xml:space="preserve">
<style type="text/css">
	.st0{fill:#5F5E5E;}
	.st1{fill-rule:evenodd;clip-rule:evenodd;fill:#5F5E5E;}
	.st2{fill:#E30613;}
</style>
<g id="Layer_2">
</g>
<g id="Layer_1">
	<g>
		<g>
			<path class="st0" d="M512,1012c-67.5,0-132.9-13.2-194.6-39.3c-59.5-25.2-113-61.3-158.9-107.2c-45.9-45.9-82-99.4-107.2-158.9
				C25.2,644.9,12,579.5,12,512s13.2-132.9,39.3-194.6c25.2-59.5,61.3-113,107.2-158.9c45.9-45.9,99.4-82,158.9-107.2
				C379.1,25.2,444.5,12,512,12s132.9,13.2,194.6,39.3c59.5,25.2,113,61.3,158.9,107.2c45.9,45.9,82,99.4,107.2,158.9
				c26.1,61.7,39.3,127.1,39.3,194.6s-13.2,132.9-39.3,194.6c-25.2,59.5-61.3,113-107.2,158.9c-45.9,45.9-99.4,82-158.9,107.2
				C644.9,998.8,579.5,1012,512,1012z M512,45.8c-62.9,0-123.9,12.3-181.4,36.6c-55.5,23.5-105.4,57.1-148.2,99.9
				c-42.8,42.8-76.5,92.7-99.9,148.2C58.1,388.1,45.8,449.1,45.8,512s12.3,123.9,36.6,181.4c23.5,55.5,57.1,105.4,99.9,148.2
				c42.8,42.8,92.7,76.5,148.2,99.9c57.5,24.3,118.5,36.6,181.4,36.6s123.9-12.3,181.4-36.6c55.5-23.5,105.4-57.1,148.2-99.9
				c42.8-42.8,76.5-92.7,99.9-148.2c24.3-57.5,36.6-118.5,36.6-181.4s-12.3-123.9-36.6-181.4c-23.5-55.5-57.1-105.4-99.9-148.2
				c-42.8-42.8-92.7-76.5-148.2-99.9C635.9,58.1,574.9,45.8,512,45.8z M512,876.7c-122.4,0-236-61-303.9-163.1
				c-1.9-2.8-2.9-6.2-2.8-9.6c0.8-49.9,42.1-93.4,119.6-125.8c57.6-24.1,131.1-39.7,187.1-39.7c55.9,0,129.3,15.6,187,39.7
				C776.6,610.7,818,654.2,818.8,704c0.1,3.4-0.9,6.8-2.8,9.6C748,815.8,634.4,876.7,512,876.7z M239.4,699.6
				c62,89.9,163.4,143.4,272.6,143.4s210.7-53.5,272.6-143.4c-2.4-21.2-19.8-57.2-98.7-90.1c-61.2-25.6-131.5-37-173.9-37
				c-42.6,0-112.9,11.5-174.1,37C259.1,642.4,241.8,678.3,239.4,699.6z M512,480.6c-43.3,0-84-16.8-114.5-47.3
				s-47.3-71.2-47.3-114.5s16.8-84,47.3-114.5s71.2-47.3,114.5-47.3s84,16.8,114.5,47.3s47.3,71.2,47.3,114.5s-16.8,84-47.3,114.5
				S555.3,480.6,512,480.6z M512,190.7c-34.3,0-66.4,13.3-90.6,37.4c-24.1,24.1-37.4,56.3-37.4,90.6s13.3,66.4,37.4,90.6
				c24.1,24.1,56.3,37.4,90.6,37.4s66.4-13.3,90.6-37.4c24.1-24.1,37.4-56.3,37.4-90.6s-13.3-66.4-37.4-90.6
				C578.4,204,546.3,190.7,512,190.7z"/>
		</g>
	</g>
</g>
</svg>
