<?xml version="1.0" encoding="utf-8"?>
<!-- Generator: Adobe Illustrator 24.1.0, SVG Export Plug-In . SVG Version: 6.00 Build 0)  -->
<svg version="1.1" xmlns="http://www.w3.org/2000/svg" xmlns:xlink="http://www.w3.org/1999/xlink" x="0px" y="0px"
	 viewBox="0 0 1024 1024" style="enable-background:new 0 0 1024 1024;" xml:space="preserve">
<style type="text/css">
	.st0{fill:#5F5E5E;}
	.st1{fill-rule:evenodd;clip-rule:evenodd;fill:#5F5E5E;}
	.st2{fill:#E30613;}
</style>
<g id="Layer_2">
</g>
<g id="Layer_1">
	<g>
		<path class="st0" d="M898.5,915.4H125.5C62.9,915.4,12,864.5,12,801.9l0.5-579.7c0-62.6,50.7-113.5,113-113.5h772.9
			c62.6,0,113.5,50.9,113.5,113.5v579.7C1012,864.5,961.1,915.4,898.5,915.4z M125.5,142.4c-43.7,0-79.2,35.8-79.2,79.7l-0.5,579.7
			c0,43.9,35.8,79.7,79.7,79.7h772.9c44,0,79.7-35.8,79.7-79.7V222.1c0-44-35.8-79.7-79.7-79.7H125.5z M898.5,818.8H705.2
			c-9.3,0-16.9-7.6-16.9-16.9V367.1c0-9.3,7.6-16.9,16.9-16.9h193.2c9.3,0,16.9,7.6,16.9,16.9v434.8
			C915.4,811.2,907.8,818.8,898.5,818.8z M722.1,784.9h159.4V384H722.1V784.9z M656.9,818.8H125.5c-9.3,0-16.9-7.6-16.9-16.9V608.6
			c0-9.3,7.6-16.9,16.9-16.9h531.4c9.3,0,16.9,7.6,16.9,16.9v193.2C673.8,811.2,666.3,818.8,656.9,818.8z M142.4,784.9H640V625.5
			H142.4V784.9z M656.9,577.2H125.5c-9.3,0-16.9-7.6-16.9-16.9V367.1c0-9.3,7.6-16.9,16.9-16.9h531.4c9.3,0,16.9,7.6,16.9,16.9
			v193.2C673.8,569.6,666.3,577.2,656.9,577.2z M142.4,543.4H640V384H142.4V543.4z"/>
	</g>
</g>
</svg>
