<?xml version="1.0" encoding="utf-8"?>
<!-- Generator: Adobe Illustrator 24.1.0, SVG Export Plug-In . SVG Version: 6.00 Build 0)  -->
<svg version="1.1" xmlns="http://www.w3.org/2000/svg" xmlns:xlink="http://www.w3.org/1999/xlink" x="0px" y="0px"
	 viewBox="0 0 1024 1024" style="enable-background:new 0 0 1024 1024;" xml:space="preserve">
<style type="text/css">
	.st0{fill:#5F5E5E;}
	.st1{fill-rule:evenodd;clip-rule:evenodd;fill:#5F5E5E;}
	.st2{fill:#004E7C;}
</style>
<g id="Layer_2">
</g>
<g id="Layer_1">
	<g>
		<path class="st0" d="M1012,287.5c-2.7,7.3-7,13.2-14.9,15.5c-14,4-26.8-6-26.9-21.2c-0.1-16.6,0-33.2,0-49.8c0-24.6,0-49.1,0-73.7
			c0-58.2-46.2-104.4-104.4-104.4c-40.8,0-81.7,0-122.5,0c-11.8,0-20.2-6.2-22.4-16.4c-2.9-13.4,6.7-25.4,20.4-25.4
			c41.7-0.1,83.3,0,125,0c18.1,0,35.7,2.8,52.4,9.7c53.4,22.3,84.3,62.1,92.5,119.5c0.1,0.9,0.6,1.7,0.9,2.6
			C1012,191.8,1012,239.6,1012,287.5z"/>
		<path class="st0" d="M143.9,1012c-4.9-0.9-9.8-1.9-14.6-2.8C66.7,996.9,19.1,944.6,12.9,881.3c-0.5-5.2-0.8-10.4-0.8-15.6
			c-0.1-41,0-82,0-123c0-13.1,8.5-22.3,20.6-22.5c12-0.2,21.2,9.5,21.2,22.6c0.1,41.3,0,82.7,0,124c0,56.8,46.6,103.4,103.4,103.4
			c41.2,0,82.3,0,123.5,0c11.3,0,19.8,5.9,22.2,15.4c2.7,10.5-2.2,20.5-12.1,24.9c-1.2,0.5-2.3,1.1-3.5,1.6
			C239.6,1012,191.7,1012,143.9,1012z"/>
		<path class="st0" d="M736.6,1012c-3.7-2.3-8-4-10.9-7c-6-6.3-7.2-14.1-3.7-22.2c3.6-8.3,10.4-12.3,19.2-12.6c4.4-0.2,8.8,0,13.2,0
			c37.1,0,74.2,0,111.3,0c58.2,0,104.4-46.2,104.4-104.4c0-40.8,0-81.7,0-122.5c0-8,2.6-14.7,9.3-19.4c10.3-7.2,24.8-3.4,30.4,7.9
			c0.8,1.6,1.5,3.2,2.2,4.8c0,47.8,0,95.7,0,143.5c-0.3,0.9-0.8,1.7-0.9,2.6c-7,62.8-54.4,114.3-116.3,126.4
			c-4.9,1-9.7,1.9-14.6,2.8C832.3,1012,784.5,1012,736.6,1012z"/>
		<path class="st0" d="M696.1,396.9c-1.4,41.7-5.4,82.8-19.9,122.3c-10.3,28.1-25.3,53.7-45.8,75.4c-16.3,17.2-19,37.3-17.2,59.2
			c0.8,9.8,3,19.3,7.8,28c2.5,4.4,5.9,7.4,10.8,9.2c49.3,18.7,98.8,37.3,147.8,56.7c27.2,10.8,53.3,24,77.4,41
			c5.5,3.9,9.8,8.5,10.6,15.6c1.1,8.5-1.7,15.5-8.8,20.3c-7.2,4.9-15.4,5.6-22.5,0.6c-39.5-27.9-84.4-44.3-128.9-61.6
			c-28.5-11-57-21.9-85.9-31.7c-22.1-7.5-36-22.2-43.1-43.6c-11.1-33.4-10.7-66.5,4.3-98.8c2.6-5.5,6.3-10.8,10.5-15.2
			c35-36.7,52.7-80.9,57.8-130.9c2.5-24.6,4.1-49.3,1.8-74c-3.6-38-16.6-71.8-45.7-97.9c-20.5-18.4-44.8-28.4-71.9-32.2
			c-28.1-3.9-55.6-1.4-81.8,9.7c-41.2,17.4-65.7,49.1-76.9,91.8c-6.3,23.9-6.6,48.2-5.4,72.7c1.3,27.7,4.6,55,12.9,81.6
			c8.5,27.3,22.3,51.7,41.7,72.5c15.4,16.4,23.8,35.4,26.5,57.3c2.9,23.6,0.9,46.8-8.4,68.9c-7.5,17.9-20.1,30.3-38.9,37.2
			c-47.1,17.3-94,35.2-140.7,53.6c-26.4,10.5-52,23-75.2,39.8c-9.3,6.8-21.9,4.4-28.7-4.7c-6.8-9.1-5.5-22.5,4.4-29
			c16.2-10.5,32.6-20.9,49.9-29.5c48.8-24.2,100.4-41.8,151.4-60.8c8.1-3,16-6.4,24.3-8.8c8.1-2.3,12.5-7.8,15.4-15.1
			c5.4-13.6,6.9-27.7,5.5-42.2c-0.5-5-1.4-10-2.5-14.9c-1.7-7.4-5-14-10.3-19.6c-39-41.7-59.6-91.6-66-147.9
			c-3.1-27.4-4.9-54.8-2.8-82.3c3.6-46.1,18.4-87.7,51.1-121.5c26.1-26.9,58.1-42.9,94.9-49.3c45-7.8,88.3-2.7,128.6,19.5
			c45.4,25,72.3,64.2,84.6,114c2.1,8.3,3.8,16.9,4.7,25.4C694.7,370.9,695.2,383.9,696.1,396.9z"/>
		<path class="st0" d="M12,216.3c0-20.3,0-40.7,0-61c0-66.5,50.6-127.7,116-140c10.3-1.9,21-2.9,31.5-3c41.2-0.3,82.3-0.2,123.5-0.1
			c10.4,0,18.4,7,20.4,17.4c1.8,9.5-3.5,19.3-12.8,22.7c-3.3,1.2-7,1.6-10.5,1.7c-41,0.1-82,0.1-123,0.1
			c-56.5,0-103.2,46.7-103.2,103.1c0,41.3,0,82.7,0,124c0,11.9-6.4,20.2-17.1,22.3c-12.8,2.5-24.7-7-24.7-20.2
			C12,260.8,12,238.5,12,216.3z"/>
	</g>
</g>
</svg>
