<?xml version="1.0" encoding="utf-8"?>
<!-- Generator: Adobe Illustrator 24.1.0, SVG Export Plug-In . SVG Version: 6.00 Build 0)  -->
<svg version="1.1" xmlns="http://www.w3.org/2000/svg" xmlns:xlink="http://www.w3.org/1999/xlink" x="0px" y="0px"
	 viewBox="0 0 1024 1024" style="enable-background:new 0 0 1024 1024;" xml:space="preserve">
<style type="text/css">
	.st0{fill:#5F5E5E;}
	.st1{fill-rule:evenodd;clip-rule:evenodd;fill:#5F5E5E;}
	.st2{fill:#004E7C;}
</style>
<g id="Layer_2">
</g>
<g id="Layer_1">
	<path class="st0" d="M789.3,741.1c-184.9,0-369.8,0-554.7,0c-7.5-0.7-15.1-1.3-22.6-2.3c-54.5-7.4-100.8-30.9-138.4-71
		C41.6,633.5,22,593,14.9,546.6c-1.1-7-1.9-14.1-2.9-21.1c0-9.1,0-18.2,0-27.3c1.1-8.2,1.9-16.4,3.3-24.5
		C33.8,365.3,127,283.2,241.5,283.1c180.3-0.2,360.6-0.2,540.9,0.1c14.9,0,29.9,1.6,44.5,4.4c119.6,23.3,200,136,182.8,255.8
		c-7.7,53.5-31.3,99-71,135.9c-37,34.4-80.8,54.3-131.1,59.8C801.5,739.8,795.4,740.4,789.3,741.1z M512.1,699.3
		c89.5,0,179,0.2,268.5-0.2c13.2,0,26.7-1.4,39.7-3.8c98.1-18.5,165.3-116.6,147.6-214.9c-16.4-91.4-93.7-155.9-186.7-155.9
		c-179.7,0-359.3-0.1-539,0.2c-12.8,0-25.7,1.4-38.2,3.8c-98.6,19-165,115.7-147.9,214.7c15.7,90.5,93.7,156.2,185.6,156.2
		C331.8,699.3,421.9,699.3,512.1,699.3z"/>
	<path class="st0" d="M777.5,597.2c-13.8,9.4-27.8,16.1-43,20.1c-72.1,19.1-146.4-29.1-158.1-102.6c-11.2-70.5,35-135.5,105.7-146.7
		c74.5-11.9,136.3,40.4,146.3,105.9c5,32.9-1.7,63.2-20,91c-1.9,2.8-1.5,4.3,0.7,6.5c16.9,16.7,33.7,33.4,50.4,50.3
		c11.5,11.6,6.9,30.5-8.4,34.7c-7.9,2.2-15,0.4-21-5.7c-16.3-16.4-32.7-32.7-49-49C779.9,600.5,778.9,599,777.5,597.2z M616.1,493.7
		c0,47.5,38.4,86.4,85.5,86.4c48.3,0.1,87.1-38.4,87.1-86.4c0-47.2-38.7-86.1-85.8-86.1C654.8,407.6,616.2,446,616.1,493.7z"/>
</g>
</svg>
