<?xml version="1.0" encoding="utf-8"?>
<!-- Generator: Adobe Illustrator 24.1.0, SVG Export Plug-In . SVG Version: 6.00 Build 0)  -->
<svg version="1.1" xmlns="http://www.w3.org/2000/svg" xmlns:xlink="http://www.w3.org/1999/xlink" x="0px" y="0px"
	 viewBox="0 0 1024 1024" style="enable-background:new 0 0 1024 1024;" xml:space="preserve">
<style type="text/css">
	.st0{fill:#5F5E5E;}
	.st1{fill-rule:evenodd;clip-rule:evenodd;fill:#5F5E5E;}
	.st2{fill:#E30613;}
</style>
<g id="Layer_2">
</g>
<g id="Layer_1">
	<g>
		<path class="st0" d="M887.7,1012H136.3C67.7,1012,12,956.3,12,887.7v-161c0-9.3,7.6-16.9,16.9-16.9H351c9.3,0,16.9,7.6,16.9,16.9
			c0,38.6,15,74.8,42.1,102c27.2,27.2,63.4,42.1,102,42.1s74.8-15,102-42.1c27.2-27.2,42.1-63.4,42.1-102c0-9.3,7.6-16.9,16.9-16.9
			h322.1c9.3,0,16.9,7.6,16.9,16.9v161C1012,956.3,956.3,1012,887.7,1012z M45.8,743.6v144.1c0,49.9,40.6,90.4,90.4,90.4h751.5
			c49.9,0,90.4-40.6,90.4-90.4V743.6h-289c-3.8,41.2-21.7,79.4-51.3,109c-33.6,33.6-78.3,52.1-125.9,52.1s-92.3-18.5-125.9-52.1
			c-29.6-29.6-47.4-67.8-51.3-109H45.8z M887.7,636.3H136.3C67.7,636.3,12,580.5,12,512V136.3C12,67.7,67.7,12,136.3,12h751.5
			c68.5,0,124.3,55.7,124.3,124.3V512C1012,580.5,956.3,636.3,887.7,636.3z M136.3,45.8c-49.9,0-90.4,40.6-90.4,90.4V512
			c0,49.9,40.6,90.4,90.4,90.4h751.5c49.9,0,90.4-40.6,90.4-90.4V136.3c0-49.9-40.6-90.4-90.4-90.4H136.3z M512,528.9
			c-90.8,0-168.3-72.2-177.1-161H136.3c-9.3,0-16.9-7.6-16.9-16.9V136.3c0-9.3,7.6-16.9,16.9-16.9h751.5c9.3,0,16.9,7.6,16.9,16.9
			V351c0,9.3-7.6,16.9-16.9,16.9H689.1C680.3,456.8,602.8,528.9,512,528.9z M153.2,334.1H351c9.3,0,16.9,7.6,16.9,16.9
			c0,37.5,15.3,73.5,43,101.2s63.6,43,101.2,43s73.5-15.3,101.2-43s43-63.6,43-101.2c0-9.3,7.6-16.9,16.9-16.9h197.8V153.2H153.2
			V334.1z"/>
	</g>
</g>
</svg>
