<?xml version="1.0" encoding="utf-8"?>
<!-- Generator: Adobe Illustrator 24.1.0, SVG Export Plug-In . SVG Version: 6.00 Build 0)  -->
<svg version="1.1" xmlns="http://www.w3.org/2000/svg" xmlns:xlink="http://www.w3.org/1999/xlink" x="0px" y="0px"
	 viewBox="0 0 1024 1024" style="enable-background:new 0 0 1024 1024;" xml:space="preserve">
<style type="text/css">
	.st0{fill:#5F5E5E;}
	.st1{fill-rule:evenodd;clip-rule:evenodd;fill:#5F5E5E;}
	.st2{fill:#004E7C;}
</style>
<g id="Layer_2">
</g>
<g id="Layer_1">
	<path class="st0" d="M1006.1,711.8c-5.8-4-14.6-6-21.4-4.9c-20.1,3.3-40.3,7.3-59.9,11.2c-7.9,1.6-15.9,3.1-23.8,4.7
		c-0.8,0.2-1.7,0.3-2.6,0.4l0.5-1.3c1.9-5,3.6-9.6,5.4-14.2c6-16,6.2-31.2,0.4-43.9c-5.8-12.7-17.3-22.6-33.3-28.7l-85.6-32.6
		c-122-46.5-248.3-94.6-372.4-141.8c-5-1.9-6.1-3.4-6.1-8.6c0.2-37.4,0.2-75.6,0.2-112.5c0-11.1,0-22.2,0-33.3
		c21-8.4,34.2-22.8,39.2-42.6c1.2-4.9,1.9-10.4,1.9-16.3c0.1-69.4,0.1-137.8,0.1-195.7c0-16.1-8.4-20.8-15.5-22
		c-5.6-0.9-11,0.4-15.1,3.6c-4.1,3.2-6.5,8-6.9,13.6c-0.4,5.3-0.3,10.7-0.3,15.9c0,1.9,0,3.8,0,5.7l0,31.4c0,47.2,0,95.9,0,143.9
		c0,5.8-0.7,10.9-3.4,15.7c0-3.3,0-6.3-0.1-9.4c-0.6-26.9-21.4-47.9-47.3-47.9h-0.1c-25.9,0.1-46.2,20.3-47.3,47
		c-0.1,3.5-0.1,7-0.1,10.6c-2.5-3.8-3.2-8.4-3.3-13.7c-0.2-11.2-0.1-22.7-0.1-33.7c0-4.6,0-9.1,0-13.7v-34c0-36.1,0-72.2,0-108.3
		c0-0.6,0-1.3,0-1.9c0-2.7,0-5.4-0.3-8.2c-1.1-10.3-8.8-17.1-18.9-16.9c-10,0.2-17.4,7.2-18.4,17.5c-0.2,1.9-0.2,3.8-0.1,5.6
		c0,0.5,0,1.1,0,1.6c0,18.6,0,37.1,0,55.7c0,44,0.1,89.4-0.1,134.1c-0.1,29.4,12.4,49.5,38.4,61.2c1,0.4,2.5,2.4,2.6,3.2
		c0.2,32.2,0.2,63.9,0.2,97.4l0,16.4c-3-1.2-6-2.4-8.9-3.6c-11.2-4.5-21.7-8.7-32.8-12c-8.1-2.4-20.2-4.9-31.8-3.3
		c-17.6,2.5-30.8,13.6-38.3,32.3c-3,7.4-5.7,14.7-8.7,22.5c-0.8,2.1-1.6,4.2-2.4,6.4C95.4,410.8,49.8,336.8,50.3,238
		c0.3-66.6,17.2-127.9,50.3-182c7-11.4,5.5-22-3.8-28.3c-4.4-3-9.2-4.1-13.9-3.1c-5.4,1.1-10.4,5-14.4,11.2
		c-27.2,42.5-44.4,89.9-52.6,145c-0.9,6.1-1.8,12.2-2.6,18.3c-0.4,2.8-0.8,5.6-1.2,8.4l0,0.3v52.6l0,0.6c0.7,4.6,1.3,9.3,2,13.8
		c1.4,9.9,2.8,20.2,4.9,30.2C35,381.3,79,440.9,153.6,487.6c5.4,3.4,11,6.5,16.8,9.7c1.8,1,3.6,2,5.4,3c-0.9,2.5-1.8,4.9-2.8,7.4
		c-2.8,7.5-5.7,15.2-8.5,22.7c-6.4,16.9-12.8,33.7-19.3,50.6c-10.7,28.1-21.8,57.2-32.7,85.9c-12.2,32.2,0.1,59.8,32.2,72.1
		C289.3,794,436.3,850.1,578.5,904.3l145.3,55.4c2.6,1,5.2,2,7.8,3c5.4,2.1,11.1,4.3,16.7,6.3c28.4,10.1,56.3-2.3,67.7-30.2
		c2.2-5.5,4.4-11,6.6-16.9c0.3-0.8,0.6-1.6,0.9-2.5c2.2,2.8,4.1,5.3,6.1,7.8c4.3,5.6,8.6,11.3,12.9,16.9
		c11.2,14.7,22.7,29.9,34.6,44.5c4.8,5.8,12.6,10.4,19,11.1c0.6,0.1,1.1,0.1,1.7,0.1c10.6,0,14.9-11.2,16.8-16.1
		c29-76.3,60-157.5,94.7-248.4C1011.2,730.2,1015.7,718.4,1006.1,711.8z M350.6,250L350.6,250c0-0.4,0.1-0.6,0.1-0.6c0,0,0,0,0,0
		c0,0,0,0,0,0c0.2-4.5,3.2-8.8,8.9-8.8c4.6,0,7.4,2.7,8.5,6.1c0.2,0.2,0.4,0.4,0.5,0.6c0,0,0.1,0.1,0.2,0.5c0.1,0.5,0.2,1.2,0.2,2
		c0,0.4,0,0.9,0,1.4c0,0.2,0,0.5,0,0.7c0,0.5,0,0.9,0,1.4l0,0.2c0,0.8-0.1,1.6-0.1,2.4c0,30.5,0,60.9,0,91.4c0,18.9,0,37.8,0,56.7
		l0,39.6l-0.6-0.2c-3.4-1.3-6.2-2.4-9.3-3.1c-0.9-0.2-1.8-0.5-2.5-0.8c-0.4-0.1-0.7-0.3-1-0.4c-0.6-0.3-1.1-0.6-1.6-0.9
		c-0.4-0.3-0.8-0.7-1.1-1c-1.6-1.8-2.3-4.7-2.2-9.1c0.1-13.4,0.2-27.4,0.3-42.8c0.1-27.6,0.1-55.6,0-82.7c0-15.2,0-30.4,0-45.6
		c0-1-0.1-2.1-0.2-3.1C350.6,252.2,350.5,250.9,350.6,250z M782,921.2c-5.1,13.3-10.5,15.8-23.4,10.9
		c-198.7-75.7-400.5-152.5-599.9-228.5c-12.7-4.9-15.4-10.9-10.5-23.8c9.4-24.7,19-49.8,28.2-74.1l10-26.2
		c4.4-11.6,8.8-23.1,13.2-34.7c11.5-30.1,23.4-61.2,35-91.8c3-8,6.6-12.7,15.9-13.2c0.6,0.2,1.3,0.4,2.1,0.6
		c2.4,0.7,5.5,1.6,8.3,2.7c19.1,7.2,38.5,14.7,57.2,21.8c11,4.2,22.1,8.4,33.1,12.6l219.6,83.7c95.4,36.4,190.9,72.8,286.3,109.2
		c13.7,5.2,16.4,10.9,11.4,24C841.1,766.5,812,842.8,782,921.2z M889.4,942.5l-5.9-7.7c-13.9-18-28.2-36.7-42-55.2
		c-0.5-0.7-0.8-3.8,0-5.7c15.7-42.1,28.1-74.3,40-104.6c0.8-1.9,4.1-4.5,6.6-5.1c12.4-2.9,25.3-5.3,37.7-7.7
		c2.9-0.5,5.7-1.1,8.6-1.6c7.8-1.5,15.6-2.9,23.9-4.4c1.6-0.3,3.1-0.6,4.7-0.8L889.4,942.5z"/>
	<path class="st0" d="M795.1,688c-19.3-7.6-39-15.1-58-22.4l-8.7-3.3C625.7,623,523.1,583.8,420.5,544.6c-0.6-0.2-1.1-0.4-1.7-0.7
		c-2.5-1-5.1-2-7.9-2.6c-10.5-2.4-19.8,2.5-22.6,11.9c-3.1,10.4,0.7,19.2,10.1,23.3c8.6,3.8,17.5,7.2,26.1,10.4
		c2.1,0.8,4.3,1.6,6.4,2.4c115,44,230.5,88.2,343.1,131.2c3.1,1.2,6.4,2.3,9.5,3.3c1.2,0.4,2.4,0.8,3.6,1.2c0.7,0.1,1.4,0.3,2,0.5
		c-0.7-0.3-0.3-0.2,0-0.1c0.2,0,0.6,0.1,0.8,0.1c0.4,0,0.9,0,1.3-0.1c0.1,0,0.2,0,0.2,0c0.1,0,0.2,0,0.3,0c0.5-0.1,1-0.1,1.4,0
		c0.7-0.6,1.5-1,2.6-1.1c0.8-0.8,1.7-1.6,2.6-2.5c3.6-3.3,7.3-6.7,9-11.3C810.7,701.1,805.9,692.2,795.1,688z"/>
</g>
</svg>
