<?xml version="1.0" encoding="utf-8"?>
<!-- Generator: Adobe Illustrator 24.1.0, SVG Export Plug-In . SVG Version: 6.00 Build 0)  -->
<svg version="1.1" xmlns="http://www.w3.org/2000/svg" xmlns:xlink="http://www.w3.org/1999/xlink" x="0px" y="0px"
	 viewBox="0 0 1024 1024" style="enable-background:new 0 0 1024 1024;" xml:space="preserve">
<style type="text/css">
	.st0{fill:#5F5E5E;}
	.st1{fill-rule:evenodd;clip-rule:evenodd;fill:#5F5E5E;}
	.st2{fill:#004E7C;}
</style>
<g id="Layer_2">
</g>
<g id="Layer_1">
	<g>
		<path class="st0" d="M12,725.5c1.2-8.1,2.3-16.3,3.8-24.4c5.6-32,18.1-61.2,36.1-88.2c3.9-5.9,7.1-12.4,9.9-18.9
			c39.2-91.2,78.2-182.5,117.5-273.7c1.7-4.1,4.5-8,7.6-11.1c17.9-18.2,36.1-36.2,54.1-54.3c2-2,3.6-4.6,4.6-7.2
			c19.6-51.8,38.9-103.7,58.6-155.5c1.9-4.9,5.3-9.8,9.2-13.4c18.5-16.7,40.7-24.5,65.3-26c29.2-1.7,56,4.9,79.5,23.4
			c8.6,6.8,12.4,14.7,12.3,25.9c-0.4,53.5-0.2,107.1-0.2,160.6c0,12.3-8.7,21.4-20.4,21.5c-12.1,0.1-20.9-8.9-20.9-21.4
			c0-50.4,0-100.9,0.1-151.3c0-3.7-0.9-6-4.3-7.7c-25.7-13.1-51.1-13-76.5,0.8c-3.9,2.1-6.3,5.1-7.9,9.4
			c-19.1,51.4-38.4,102.9-57.9,154.2c-1.6,4.3-4.3,8.4-7.5,11.7c-18.1,18.5-36.5,36.7-54.8,55c-1.7,1.7-3.2,3.7-4.1,5.9
			c-28.3,65.8-56.5,131.7-84.8,197.5c-0.4,0.9-0.6,1.8-1.3,3.6c51.8-27.6,105.8-35.4,162.1-22.8c56.5,12.7,101.5,43.6,136.4,90.9
			c0-77.1,0-153.2,0-230.1c-2.1,0.6-4.2,1.2-6.2,1.9c-15.5,5.6-30.3,12.6-42.7,23.9c-7.6,7-13,14.9-13.6,26
			c-0.6,11.6-10.9,20.1-21.8,19.2c-11.7-0.9-19.9-9.7-19.7-21.9c0.3-21.5,10.3-38.6,25.5-53c21.4-20.1,47.6-31.4,75.5-39.1
			c47.8-13.1,96.3-14.3,145-6.2c28.1,4.7,55,13.1,79.7,27.6c18.8,11.1,35.2,24.9,43.7,45.7c3.2,7.8,4.8,16.6,5.4,25
			c0.9,12-7.8,21-19.6,21.8c-10.9,0.8-21.1-7.6-21.7-19.3c-0.6-11.1-6-19-13.6-26c-14-12.7-30.8-20-48.9-26c0,76.8,0,153,0,230.4
			c34.8-47.2,79.7-78.2,136.1-90.9c56.5-12.8,110.5-5,162.4,22.6c-0.7-2-1.1-3.3-1.6-4.5c-27.9-65.1-55.8-130.2-83.7-195.3
			c-1.2-2.7-3-5.4-5.1-7.5C785.3,316.1,767,298,749,279.6c-3.1-3.1-5.8-7.1-7.4-11.2c-19.5-50.6-38.7-101.3-57.9-152
			c-1.5-4-3.8-7-7.5-9.1c-25.6-14.2-51.4-14.3-77.3-0.8c-3,1.6-3.9,3.7-3.9,7c0.1,50,0.1,99.9,0.1,149.9c0,10.4-7.1,18.9-17.2,20.6
			c-10,1.7-19.9-4.1-23.1-13.8c-0.8-2.6-1-5.4-1-8.1c-0.1-53.7,0-107.4-0.1-161.1c0-7.8,2.8-13.7,8.4-18.8
			c20.2-18.1,44.3-26.3,70.9-27c29.6-0.8,56.7,7,79,27.5c3.2,3,6,7,7.6,11.1c19.7,51.2,39.2,102.6,58.8,153.8c1,2.6,2.6,5.2,4.6,7.2
			c18.1,18.3,36.4,36.3,54.4,54.7c2.9,2.9,5.4,6.6,7,10.3c40.2,93.4,80.2,186.9,120.4,280.4c1.8,4.1,4,8.2,6.6,11.9
			c92.4,134.3,19.2,320.1-139.8,354.4c-9.3,2-18.9,2.9-28.4,4.3c-1.1,0.2-2.1,0.6-3.2,0.9c-11.4,0-22.8,0-34.2,0
			c-7.2-1-14.4-1.7-21.6-3.1c-87.9-17.7-147.6-68.4-178.6-152.6c-10.5-28.4-12.2-58.2-12.1-88.4c0.4-117.3,0.2-234.6,0.2-351.9
			c0-1.7-0.1-3.4-0.2-5.3c-28-3.6-55.5-3.7-83.4,0.1c0,2.5,0,4.6,0,6.7c0,116.3,0,232.6,0,349c0,1.5,0.1,2.9,0,4.4
			c-1,16.7-0.7,33.6-3.2,50c-14.3,93.5-90.5,170.9-183.5,187.2c-8.4,1.5-16.9,2.6-25.4,3.9c-11.4,0-22.8,0-34.2,0
			c-0.9-0.3-1.7-0.7-2.6-0.8c-10.7-1.7-21.6-2.8-32.2-5.1C101,945.7,31.4,872.7,15.8,784c-1.4-8.1-2.5-16.2-3.8-24.4
			C12,748.3,12,736.9,12,725.5z M241.4,555c-103.1-0.4-185.5,82.9-187.7,183.1c-2.2,104.7,81.5,189.4,183.2,191.6
			c103.7,2.2,188.5-79.9,191.5-181.2C431.7,639.2,343.3,554.6,241.4,555z M595.6,742.2c-1.5,98.2,78.6,185,182.6,187.5
			C883,932.2,967.8,848.6,970.2,747c2.5-105.2-82.4-191.6-186.7-192C677.2,554.6,594.2,642.5,595.6,742.2z"/>
	</g>
</g>
</svg>
