<?xml version="1.0" encoding="utf-8"?>
<!-- Generator: Adobe Illustrator 24.1.0, SVG Export Plug-In . SVG Version: 6.00 Build 0)  -->
<svg version="1.1" xmlns="http://www.w3.org/2000/svg" xmlns:xlink="http://www.w3.org/1999/xlink" x="0px" y="0px"
	 viewBox="0 0 1024 1024" style="enable-background:new 0 0 1024 1024;" xml:space="preserve">
<style type="text/css">
	.st0{fill:#5F5E5E;}
	.st1{fill-rule:evenodd;clip-rule:evenodd;fill:#5F5E5E;}
	.st2{fill:#E30613;}
</style>
<g id="Layer_2">
</g>
<g id="Layer_1">
	<g>
		<path class="st0" d="M270.8,891.3c-9.3,0-16.9-7.6-16.9-16.9L253.4,150c0-4.5,1.8-8.8,4.9-12c3.2-3.2,7.5-5,11.9-5l482.9-0.3
			c0,0,0,0,0,0c9.3,0,16.9,7.6,16.9,16.9l0.4,724.4c0,4.5-1.8,8.8-4.9,12c-3.2,3.2-7.5,5-11.9,5L270.8,891.3
			C270.8,891.3,270.8,891.3,270.8,891.3z M287.2,166.8l0.4,690.6l449.1-0.3l-0.4-690.6L287.2,166.8z M29.2,794.8
			c-4.5,0-8.8-1.8-11.9-4.9c-3.2-3.2-5-7.5-5-11.9L12,246.7c0-9.3,7.6-16.9,16.9-16.9l193.2-0.1c0,0,0,0,0,0c4.5,0,8.8,1.8,11.9,4.9
			c3.2,3.2,5,7.5,5,11.9l0.3,531.2c0,9.3-7.6,16.9-16.9,16.9L29.2,794.8C29.2,794.8,29.2,794.8,29.2,794.8z M45.8,263.6L46.1,761
			l159.4-0.1l-0.3-497.4L45.8,263.6z M801.9,794.3c-9.3,0-16.9-7.6-16.9-16.9l-0.3-531.2c0-4.5,1.8-8.8,4.9-12c3.2-3.2,7.5-5,11.9-5
			l193.2-0.1c0,0,0,0,0,0c9.3,0,16.9,7.6,16.9,16.9l0.3,531.2c0,4.5-1.8,8.8-4.9,12c-3.2,3.2-7.5,5-11.9,5L801.9,794.3
			C801.9,794.3,801.9,794.3,801.9,794.3z M818.5,263.1l0.3,497.4l159.4-0.1L977.9,263L818.5,263.1z"/>
	</g>
</g>
</svg>
