<?xml version="1.0" encoding="utf-8"?>
<!-- Generator: Adobe Illustrator 24.1.0, SVG Export Plug-In . SVG Version: 6.00 Build 0)  -->
<svg version="1.1" xmlns="http://www.w3.org/2000/svg" xmlns:xlink="http://www.w3.org/1999/xlink" x="0px" y="0px"
	 viewBox="0 0 1024 1024" style="enable-background:new 0 0 1024 1024;" xml:space="preserve">
<style type="text/css">
	.st0{fill:#5F5E5E;}
	.st1{fill-rule:evenodd;clip-rule:evenodd;fill:#5F5E5E;}
	.st2{fill:#E30613;}
</style>
<g id="Layer_2">
</g>
<g id="Layer_1">
	<g>
		<g>
			<path class="st0" d="M941.4,1012H82.6c-38.9,0-70.6-31.7-70.6-70.6V619.4c0-38.9,31.7-70.6,70.6-70.6h858.8
				c38.9,0,70.6,31.7,70.6,70.6v322.1C1012,980.3,980.3,1012,941.4,1012z M82.6,582.6c-20.3,0-36.8,16.5-36.8,36.8v322.1
				c0,20.3,16.5,36.8,36.8,36.8h858.8c20.3,0,36.8-16.5,36.8-36.8V619.4c0-20.3-16.5-36.8-36.8-36.8H82.6z M243.6,904.6
				c-68.5,0-124.3-55.7-124.3-124.3c0-68.5,55.7-124.3,124.3-124.3s124.3,55.7,124.3,124.3C367.9,848.9,312.1,904.6,243.6,904.6z
				 M243.6,689.9c-49.9,0-90.4,40.6-90.4,90.4s40.6,90.4,90.4,90.4s90.4-40.6,90.4-90.4S293.5,689.9,243.6,689.9z M941.4,475.2H82.6
				c-38.9,0-70.6-31.7-70.6-70.6V82.6C12,43.7,43.7,12,82.6,12h858.8c38.9,0,70.6,31.7,70.6,70.6v322.1
				C1012,443.6,980.3,475.2,941.4,475.2z M82.6,45.8c-20.3,0-36.8,16.5-36.8,36.8v322.1c0,20.3,16.5,36.8,36.8,36.8h858.8
				c20.3,0,36.8-16.5,36.8-36.8V82.6c0-20.3-16.5-36.8-36.8-36.8H82.6z M243.6,367.9c-68.5,0-124.3-55.7-124.3-124.3
				c0-68.5,55.7-124.3,124.3-124.3s124.3,55.7,124.3,124.3C367.9,312.1,312.1,367.9,243.6,367.9z M243.6,153.2
				c-49.9,0-90.4,40.6-90.4,90.4s40.6,90.4,90.4,90.4s90.4-40.6,90.4-90.4S293.5,153.2,243.6,153.2z"/>
		</g>
	</g>
</g>
</svg>
