<?xml version="1.0" encoding="utf-8"?>
<!-- Generator: Adobe Illustrator 24.1.0, SVG Export Plug-In . SVG Version: 6.00 Build 0)  -->
<svg version="1.1" xmlns="http://www.w3.org/2000/svg" xmlns:xlink="http://www.w3.org/1999/xlink" x="0px" y="0px"
	 viewBox="0 0 1024 1024" style="enable-background:new 0 0 1024 1024;" xml:space="preserve">
<style type="text/css">
	.st0{fill:#5F5E5E;}
	.st1{fill-rule:evenodd;clip-rule:evenodd;fill:#5F5E5E;}
	.st2{fill:#004E7C;}
</style>
<g id="Layer_2">
</g>
<g id="Layer_1">
	<g>
		<path class="st0" d="M152.3,1012c-2.8-1.6-5.8-2.9-8.3-4.9c-6.8-5.5-9.1-14.8-6.2-23c3-8.5,10.9-13.9,20.9-13.9
			c18.4-0.1,36.8,0,55.2,0c1.8,0,3.5,0,6,0c0-2.3,0-4.1,0-6c0-59.9-0.3-119.8,0.1-179.7c0.5-82.6,30.1-153.2,89-211.2
			c25.8-25.4,55.7-44.8,89-59c1.3-0.6,2.6-1.1,4.8-2.1c-3.5-1.6-6.2-2.7-8.9-4c-90.8-42.6-147.3-112.7-168.4-210.8
			c-4.1-19-5.5-38.3-5.6-57.7c-0.1-59.7,0-119.5,0-179.2c0-1.9,0-3.9,0-6.5c-2,0-3.7,0-5.4,0c-18.7,0-37.5,0.1-56.2,0
			c-17.1-0.1-27.1-17.2-18.7-31.6c3.6-6.2,9.3-9.4,16.4-10.1c1.1-0.1,2.3,0,3.4,0c235.1,0,470.2,0,705.3,0
			c12.9,0,22.1,7.9,22.7,19.3c0.7,12.8-8.4,22.4-21.5,22.5c-18.6,0.1-37.1,0-55.7,0c-1.8,0-3.5,0-6,0c0,2.2,0,4.1,0,6
			c0,59.7,0.2,119.5-0.1,179.2c-0.4,83.2-30.2,154.2-89.7,212.4c-25.2,24.7-54.4,43.8-86.9,57.8c-1.8,0.8-3.5,1.6-6.1,2.7
			c2,1,3.3,1.6,4.7,2.3c92.1,41.6,150,111.5,171.8,210.2c4.2,18.9,5.7,38.7,6,58.1c0.7,60.4,0.3,120.8,0.3,181.1c0,1.9,0,3.9,0,6.5
			c2,0,3.8,0,5.5,0c18.6,0,37.1-0.1,55.7,0c10.1,0.1,17.9,5.4,20.9,13.9c2.9,8.2,0.6,17.5-6.2,23c-2.5,2-5.5,3.3-8.3,4.9
			C631.9,1012,392.1,1012,152.3,1012z M762.3,54.3c-167.1,0-333.7,0-500.5,0c0,2.3,0,4.2,0,6.1c0,60.5-0.2,121.1,0.1,181.6
			c0.2,51.7,15.2,98.9,44.5,141.5c1.8,2.6,3.7,3.5,6.8,3.5c132.6-0.1,265.2-0.1,397.8,0c3.1,0,5-0.8,6.8-3.4
			C747,341,762,293.8,762.2,242.1c0.3-60.5,0.1-121.1,0.1-181.6C762.3,58.6,762.3,56.6,762.3,54.3z M761.8,803.8
			c6.4-91.6-34.7-184.5-124-236.9c-87.1-51-198.1-44.3-277,17.1c-71.5,55.6-102.5,129.9-98.9,219.9c2.3,0,3.9,0,5.5,0
			c35.2,0,70.4-0.1,105.6,0.1c3.6,0,6-1.1,8.5-3.6c37.5-37.6,75.1-75.1,112.6-112.6c12.4-12.4,23.5-12.4,35.9,0
			c37.6,37.5,75.1,75,112.6,112.6c2.5,2.5,4.9,3.6,8.5,3.6c28.2-0.2,56.4-0.1,84.5-0.1C744.2,803.8,752.8,803.8,761.8,803.8z
			 M512,729.4c-1.5,1.4-2.8,2.6-4,3.8c-34.4,34.4-69,68.7-103.2,103.3c-6.3,6.4-13.3,9.2-22.2,9.1c-38.1-0.2-76.2-0.1-114.3-0.1
			c-2,0-4.1,0-6.1,0c0,41.9,0,83.2,0,124.3c166.8,0,333.2,0,499.8,0c0-41.5,0-82.7,0-124.3c-2.4,0-4.5,0-6.6,0
			c-38.1,0-76.2-0.1-114.3,0.1c-8.5,0-15.3-2.6-21.3-8.7c-34.4-34.7-69-69.1-103.6-103.6C514.8,732,513.5,730.8,512,729.4z
			 M347.7,429c38.8,35.8,104.2,66.9,183.7,61.5c49.4-3.4,126.8-35.8,144.3-61.5C566.5,429,457.5,429,347.7,429z"/>
	</g>
</g>
</svg>
