<?xml version="1.0" encoding="utf-8"?>
<!-- Generator: Adobe Illustrator 24.1.0, SVG Export Plug-In . SVG Version: 6.00 Build 0)  -->
<svg version="1.1" xmlns="http://www.w3.org/2000/svg" xmlns:xlink="http://www.w3.org/1999/xlink" x="0px" y="0px"
	 viewBox="0 0 1024 1024" style="enable-background:new 0 0 1024 1024;" xml:space="preserve">
<style type="text/css">
	.st0{fill:#5F5E5E;}
	.st1{fill-rule:evenodd;clip-rule:evenodd;fill:#5F5E5E;}
	.st2{fill:#E30613;}
</style>
<g id="Layer_2">
</g>
<g id="Layer_1">
	<g>
		<g>
			<path class="st0" d="M643.8,924.2H424.2c-9.3,0-16.9-7.6-16.9-16.9V572.8H265.4v334.4c0,9.3-7.6,16.9-16.9,16.9H28.9
				c-9.3,0-16.9-7.6-16.9-16.9v-462c0-5.7,2.8-10.9,7.5-14.1l314.9-209.9c5.7-3.8,13.1-3.8,18.8,0l300,199.8
				c4.7,3.1,7.5,8.4,7.5,14.1v472.1C660.7,916.6,653.1,924.2,643.8,924.2z M441.1,890.3h185.8V444.2l-283-188.6l-298,198.7v436.1
				h185.8V555.9c0-9.3,7.6-16.9,16.9-16.9h175.7c9.3,0,16.9,7.6,16.9,16.9V890.3z"/>
		</g>
		<g>
			<path class="st0" d="M995.1,924.2H731.6c-9.3,0-16.9-7.6-16.9-16.9V731.6c0-9.3,7.6-16.9,16.9-16.9h70.9v-54h-70.9
				c-9.3,0-16.9-7.6-16.9-16.9v-87.8c0-9.3,7.6-16.9,16.9-16.9h70.9v-54h-70.9c-9.3,0-16.9-7.6-16.9-16.9v-70.5l-80.3-53.8
				c-4.7-3.1-7.5-8.4-7.5-14v-20.4H588c-3.4,0-6.6-1-9.4-2.9l-76-50.9l-87.8-58.4c-4.7-3.1-7.5-8.4-7.5-14.1v-66.3
				c0-9.3,7.6-16.9,16.9-16.9h570.9c9.3,0,16.9,7.6,16.9,16.9v790.5C1012,916.6,1004.4,924.2,995.1,924.2z M748.5,890.3h229.7V133.7
				H441.1V174l80.3,53.4l71.8,48.1h50.6c9.3,0,16.9,7.6,16.9,16.9v28.3l54,36.2v-64.5c0-9.3,7.6-16.9,16.9-16.9h87.8
				c9.3,0,16.9,7.6,16.9,16.9v87.8c0,9.3-7.6,16.9-16.9,16.9h-70.9v54h70.9c9.3,0,16.9,7.6,16.9,16.9v87.8c0,9.3-7.6,16.9-16.9,16.9
				h-70.9v54h70.9c9.3,0,16.9,7.6,16.9,16.9v87.8c0,9.3-7.6,16.9-16.9,16.9h-70.9V890.3z M748.5,363.3h54v-54h-54V363.3z"/>
		</g>
	</g>
</g>
</svg>
