<?xml version="1.0" encoding="utf-8"?>
<!-- Generator: Adobe Illustrator 24.1.0, SVG Export Plug-In . SVG Version: 6.00 Build 0)  -->
<svg version="1.1" xmlns="http://www.w3.org/2000/svg" xmlns:xlink="http://www.w3.org/1999/xlink" x="0px" y="0px"
	 viewBox="0 0 1024 1024" style="enable-background:new 0 0 1024 1024;" xml:space="preserve">
<style type="text/css">
	.st0{fill:#5F5E5E;}
	.st1{fill-rule:evenodd;clip-rule:evenodd;fill:#5F5E5E;}
	.st2{fill:#E30613;}
</style>
<g id="Layer_2">
</g>
<g id="Layer_1">
	<g>
		<g>
			<path class="st0" d="M993.6,836.9H906c-10.2,0-18.4-8.2-18.4-18.4v-613c0-10.2,8.2-18.4,18.4-18.4h87.6
				c10.2,0,18.4,8.2,18.4,18.4v613C1012,828.6,1003.8,836.9,993.6,836.9z M924.4,800.1h50.8V223.9h-50.8V800.1z M818.5,836.9h-87.6
				c-10.2,0-18.4-8.2-18.4-18.4v-613c0-10.2,8.2-18.4,18.4-18.4h87.6c10.2,0,18.4,8.2,18.4,18.4v613
				C836.9,828.6,828.6,836.9,818.5,836.9z M749.3,800.1h50.8V223.9h-50.8V800.1z M599.6,836.9H74.2C39.9,836.9,12,809,12,774.7
				V249.3c0-34.3,27.9-62.2,62.2-62.2h525.4c34.3,0,62.2,27.9,62.2,62.2v525.4C661.7,809,633.8,836.9,599.6,836.9z M74.2,223.9
				c-14,0-25.4,11.4-25.4,25.4v525.4c0,14,11.4,25.4,25.4,25.4h525.4c14,0,25.4-11.4,25.4-25.4V249.3c0-14-11.4-25.4-25.4-25.4H74.2
				z M533.9,749.3h-394c-10.2,0-18.4-8.2-18.4-18.4v-32.8c0-25.9,14.8-62.7,85.4-91c29.9-12,81.9-25.9,130-25.9
				c30,0,82.1,6.8,130,25.9c70.6,28.2,85.4,65.1,85.4,91v32.8C552.3,741.1,544,749.3,533.9,749.3z M158.2,712.5h357.3v-14.4
				c0-11.9-8.1-35.1-62.3-56.8c-40.3-16.1-87.4-23.3-116.3-23.3s-76,7.2-116.3,23.3c-54.2,21.7-62.3,44.9-62.3,56.8V712.5z
				 M336.9,541.3c-64.5,0-116.9-52.4-116.9-116.9s52.4-116.9,116.9-116.9S453.8,360,453.8,424.4S401.3,541.3,336.9,541.3z
				 M336.9,344.3c-44.2,0-80.1,35.9-80.1,80.1s35.9,80.1,80.1,80.1s80.1-35.9,80.1-80.1S381,344.3,336.9,344.3z"/>
		</g>
	</g>
</g>
</svg>
