<?xml version="1.0" encoding="utf-8"?>
<!-- Generator: Adobe Illustrator 24.1.0, SVG Export Plug-In . SVG Version: 6.00 Build 0)  -->
<svg version="1.1" xmlns="http://www.w3.org/2000/svg" xmlns:xlink="http://www.w3.org/1999/xlink" x="0px" y="0px"
	 viewBox="0 0 1024 1024" style="enable-background:new 0 0 1024 1024;" xml:space="preserve">
<style type="text/css">
	.st0{fill:#5F5E5E;}
	.st1{fill-rule:evenodd;clip-rule:evenodd;fill:#5F5E5E;}
	.st2{fill:#E30613;}
</style>
<g id="Layer_2">
</g>
<g id="Layer_1">
	<g>
		<path class="st0" d="M29.4,943c-3.3,0-6.5-0.9-9.3-2.8c-4.7-3.1-7.6-8.4-7.6-14.1L12,604c0-8.5,6.3-15.7,14.7-16.8L591.1,512
			L26.7,436.7C18.3,435.6,12,428.4,12,420l0.5-322.1c0-5.7,2.9-11,7.6-14.1c4.7-3.1,10.7-3.7,16-1.4l965.7,414.1
			c6.2,2.7,10.2,8.8,10.2,15.5c0,6.8-4,12.9-10.2,15.5L36,941.6C33.9,942.5,31.6,943,29.4,943z M45.8,618.8l0.4,281.6L952.2,512
			L46.2,123.6l-0.4,281.6l675.4,90.1c8.4,1.1,14.7,8.3,14.7,16.8c0,8.5-6.3,15.6-14.7,16.8L45.8,618.8z"/>
	</g>
</g>
</svg>
