<?xml version="1.0" encoding="utf-8"?>
<!-- Generator: Adobe Illustrator 24.1.0, SVG Export Plug-In . SVG Version: 6.00 Build 0)  -->
<svg version="1.1" xmlns="http://www.w3.org/2000/svg" xmlns:xlink="http://www.w3.org/1999/xlink" x="0px" y="0px"
	 viewBox="0 0 1024 1024" style="enable-background:new 0 0 1024 1024;" xml:space="preserve">
<style type="text/css">
	.st0{fill:#5F5E5E;}
	.st1{fill-rule:evenodd;clip-rule:evenodd;fill:#5F5E5E;}
	.st2{fill:#E30613;}
</style>
<g id="Layer_2">
</g>
<g id="Layer_1">
	<g>
		<path class="st0" d="M581,943c-114.9,0-223.1-44.9-304.6-126.4c-6.6-6.6-6.6-17.3,0-23.9l65.3-65.3c3.2-3.2,7.5-5,12-5
			c4.5,0,8.8,1.8,12,5c27.9,28.1,60.4,50.2,96.7,65.7c37.6,16,77.5,24.1,118.6,24.1c81.6,0,158.3-31.7,215.8-89.3
			c57.6-57.6,89.3-134.2,89.3-215.8c0-81.6-31.7-158.3-89.3-215.8c-57.6-57.6-134.2-89.3-215.8-89.3c-81.6,0-158.3,31.7-215.8,89.3
			c-53.6,53.6-84.8,123.7-88.9,198.9H397c6.8,0,13,4.1,15.6,10.4c2.6,6.3,1.2,13.6-3.7,18.4L223,709.4c-3.8,3.8-9.3,5.6-14.7,4.7
			c-5.4-0.9-10-4.3-12.4-9.1l-2-4L17,524c-4.8-4.8-6.3-12.1-3.7-18.4c2.6-6.3,8.8-10.4,15.6-10.4h121.4
			c2-52.2,13.3-102.9,33.6-150.8c21.7-51.3,52.8-97.4,92.4-137c39.6-39.6,85.7-70.7,137-92.4C466.4,92.4,522.8,81,581,81
			c58.2,0,114.6,11.4,167.8,33.9c51.3,21.7,97.4,52.8,137,92.4c39.6,39.6,70.7,85.7,92.4,137c22.5,53.1,33.9,109.6,33.9,167.8
			s-11.4,114.6-33.9,167.8c-21.7,51.3-52.8,97.4-92.4,137c-39.6,39.6-85.7,70.7-137,92.4C695.6,931.6,639.2,943,581,943z
			 M312.6,804.4c73.6,67.7,168.2,104.8,268.5,104.8c53.6,0,105.6-10.5,154.6-31.2c47.3-20,89.8-48.6,126.3-85.1
			c36.5-36.5,65.1-79,85.1-126.3c20.7-49,31.2-101,31.2-154.6c0-53.6-10.5-105.6-31.2-154.6c-20-47.3-48.6-89.8-85.1-126.3
			c-36.5-36.5-79-65.1-126.3-85.1c-49-20.7-101-31.2-154.6-31.2c-53.6,0-105.6,10.5-154.6,31.2c-47.3,20-89.8,48.6-126.3,85.1
			s-65.1,79-85.1,126.3c-20.7,49-31.2,101-31.2,154.6c0,9.3-7.6,16.9-16.9,16.9H69.7l143,143l143.4-143H259
			c-9.3,0-16.9-7.6-16.9-16.9c0-45.8,9-90.2,26.6-132c17.1-40.4,41.5-76.6,72.6-107.7s67.4-55.5,107.7-72.6
			C490.8,182,535.2,173,581,173c45.8,0,90.2,9,132,26.6c40.4,17.1,76.6,41.5,107.7,72.6c31.1,31.1,55.5,67.4,72.6,107.7
			C911,421.8,920,466.2,920,512s-9,90.2-26.6,132c-17.1,40.4-41.5,76.6-72.6,107.7c-31.1,31.1-67.4,55.5-107.7,72.6
			C671.2,842,626.8,851,581,851c-45.7,0-90-9-131.8-26.8c-35.1-15-67.1-35.5-95.2-61.2L312.6,804.4z M731.9,691.8
			c-2.9,0-5.9-0.8-8.6-2.4L526.4,572.5c-5.1-3-8.3-8.6-8.3-14.5V328c0-9.3,7.6-16.9,16.9-16.9h69c9.3,0,16.9,7.6,16.9,16.9v185.9
			l152.8,90.8c3.9,2.3,6.6,6,7.7,10.4c1.1,4.3,0.4,9-1.9,12.8l-33.1,55.7C743.3,688.8,737.7,691.8,731.9,691.8z M551.9,548.4
			L726,651.7l15.8-26.6L595.4,538c-5.1-3-8.3-8.6-8.3-14.5V344.9h-35.2V548.4z"/>
	</g>
</g>
</svg>
