<?xml version="1.0" encoding="utf-8"?>
<!-- Generator: Adobe Illustrator 24.1.0, SVG Export Plug-In . SVG Version: 6.00 Build 0)  -->
<svg version="1.1" xmlns="http://www.w3.org/2000/svg" xmlns:xlink="http://www.w3.org/1999/xlink" x="0px" y="0px"
	 viewBox="0 0 1024 1024" style="enable-background:new 0 0 1024 1024;" xml:space="preserve">
<style type="text/css">
	.st0{fill:#5F5E5E;}
	.st1{fill-rule:evenodd;clip-rule:evenodd;fill:#5F5E5E;}
	.st2{fill:#E30613;}
</style>
<g id="Layer_2">
</g>
<g id="Layer_1">
	<g>
		<path class="st0" d="M887.7,1012H136.3C67.7,1012,12,956.3,12,887.7V136.3C12,67.7,67.7,12,136.3,12h751.5
			c68.5,0,124.3,55.7,124.3,124.3v751.5C1012,956.3,956.3,1012,887.7,1012z M136.3,45.8c-49.9,0-90.4,40.6-90.4,90.4v751.5
			c0,49.9,40.6,90.4,90.4,90.4h751.5c49.9,0,90.4-40.6,90.4-90.4V136.3c0-49.9-40.6-90.4-90.4-90.4H136.3z M458.3,851H189.9
			c-9.3,0-16.9-7.6-16.9-16.9V565.7c0-9.3,7.6-16.9,16.9-16.9h268.4c9.3,0,16.9,7.6,16.9,16.9v268.4
			C475.2,843.4,467.7,851,458.3,851z M206.8,817.2h234.6V582.6H206.8V817.2z M404.6,797.3h-161c-9.3,0-16.9-7.6-16.9-16.9v-161
			c0-9.3,7.6-16.9,16.9-16.9h161c9.3,0,16.9,7.6,16.9,16.9v161C421.6,789.7,414,797.3,404.6,797.3z M260.5,763.5h127.2V636.3H260.5
			V763.5z M834.1,770.5H565.7c-9.3,0-16.9-7.6-16.9-16.9V646.2c0-9.3,7.6-16.9,16.9-16.9h268.4c9.3,0,16.9,7.6,16.9,16.9v107.4
			C851,762.9,843.4,770.5,834.1,770.5z M582.6,736.6h234.6v-73.5H582.6V736.6z M458.3,475.2H189.9c-9.3,0-16.9-7.6-16.9-16.9V189.9
			c0-9.3,7.6-16.9,16.9-16.9h268.4c9.3,0,16.9,7.6,16.9,16.9v268.4C475.2,467.7,467.7,475.2,458.3,475.2z M206.8,441.4h234.6V206.8
			H206.8V441.4z M404.6,421.6h-161c-9.3,0-16.9-7.6-16.9-16.9v-161c0-9.3,7.6-16.9,16.9-16.9h161c9.3,0,16.9,7.6,16.9,16.9v161
			C421.6,414,414,421.6,404.6,421.6z M260.5,387.7h127.2V260.5H260.5V387.7z M834.1,394.7H565.7c-9.3,0-16.9-7.6-16.9-16.9V270.5
			c0-9.3,7.6-16.9,16.9-16.9h268.4c9.3,0,16.9,7.6,16.9,16.9v107.4C851,387.1,843.4,394.7,834.1,394.7z M582.6,360.9h234.6v-73.5
			H582.6V360.9z"/>
	</g>
</g>
</svg>
