<?xml version="1.0" encoding="utf-8"?>
<!-- Generator: Adobe Illustrator 24.1.0, SVG Export Plug-In . SVG Version: 6.00 Build 0)  -->
<svg version="1.1" xmlns="http://www.w3.org/2000/svg" xmlns:xlink="http://www.w3.org/1999/xlink" x="0px" y="0px"
	 viewBox="0 0 1024 1024" style="enable-background:new 0 0 1024 1024;" xml:space="preserve">
<style type="text/css">
	.st0{fill:#5F5E5E;}
	.st1{fill-rule:evenodd;clip-rule:evenodd;fill:#5F5E5E;}
	.st2{fill:#004E7C;}
</style>
<g id="Layer_2">
</g>
<g id="Layer_1">
	<g>
		<path class="st0" d="M1011.5,66.1c0,297.3,0,594.5,0,891.8c-0.4,1-0.8,2-1,3.1c-4.3,19.9-15.3,34.8-33.5,43.9
			c-6.3,3.1-13.4,4.5-20.1,6.7c-296.6,0-593.2,0-889.8,0c-1.1-0.3-2.1-0.8-3.2-1c-29.4-5.2-51.4-31.1-51.4-60.6
			c0-292,0-584.1,0-876.1c0-33.6,28-61.4,61.6-61.4c291.8,0,583.7,0,875.5,0.1c23.1,0,41,10.6,52.8,30.2
			C1006.7,49.8,1008.6,58.3,1011.5,66.1z M54.3,511.5c0,145,0,290.1,0,435.1c0,14.9,8.2,23.2,23.2,23.2c289.7,0,579.4,0,869.2,0
			c14.9,0,23.1-8.3,23.1-23.3c0-289.8,0-579.5,0-869.3c0-14.4-7.5-22.4-21.7-23.3c-1.9-0.1-3.9-0.1-5.9-0.1
			c-244.8,0-489.7,0-734.5,0c-42.8,0-85.5,0.3-128.3-0.1c-17.2-0.2-25.3,10.6-25.2,25C54.4,223,54.3,367.3,54.3,511.5z"/>
		<path class="st0" d="M345.4,282.7c0,21,0,41.9,0,62.9c0,22.9-18.1,41.3-41.1,41.4c-41.9,0.2-83.9,0.2-125.8,0
			c-23.1-0.1-41.1-18.6-41.1-41.9c0-41.1,0-82.3,0-123.4c0-24.4,17.3-42.7,41.6-42.9c41.6-0.3,83.2-0.3,124.9,0
			c24.2,0.2,41.5,18.3,41.5,42.4C345.3,241.7,345.3,262.2,345.4,282.7C345.4,282.7,345.4,282.7,345.4,282.7z M179.5,220.7
			c0,41.6,0,82.9,0,124.2c41.6,0,82.9,0,124.2,0c0-41.6,0-82.8,0-124.2C262.1,220.7,220.9,220.7,179.5,220.7z"/>
		<path class="st0" d="M345.4,532.6c0,20.8,0,41.6,0,62.4c0,23.2-18,41.7-41.2,41.8c-41.9,0.1-83.9,0.2-125.8,0
			c-22.9-0.1-41-18.7-41-41.6c0-41.3,0-82.6,0-123.9c0-24.3,17.5-42.6,41.8-42.7c41.5-0.3,82.9-0.2,124.4,0
			c24.4,0.1,41.8,18.2,41.8,42.6C345.3,491.7,345.3,512.2,345.4,532.6C345.4,532.6,345.4,532.6,345.4,532.6z M303.6,594.9
			c0-41.8,0-83.1,0-124.4c-41.6,0-82.8,0-124,0c0,41.7,0,83,0,124.4C221.1,594.9,262.2,594.9,303.6,594.9z"/>
		<path class="st0" d="M345.4,782.6c0,20.8,0,41.6,0,62.4c0,22.9-18,41.5-40.9,41.6c-41.9,0.2-83.9,0.2-125.8,0
			c-23.1-0.1-41.3-18.6-41.3-41.8c0-41.3,0-82.6,0-123.9c0-24,17.4-42.3,41.5-42.5c41.8-0.4,83.6-0.4,125.3,0
			c23.9,0.2,41.1,18.4,41.1,42.2C345.3,741.3,345.3,762,345.4,782.6C345.4,782.6,345.4,782.6,345.4,782.6z M179.5,720.3
			c0,41.6,0,82.9,0,124.2c41.6,0,82.9,0,124.2,0c0-41.6,0-82.8,0-124.2C262.1,720.3,220.9,720.3,179.5,720.3z"/>
		<path class="st0" d="M657.9,636.9c-68.9,0-137.9,0-206.8,0c-13.8,0-22.5-8.8-22.1-22.2c0.3-10.3,8.7-18.8,19.4-19.6
			c1-0.1,2,0,2.9,0c137.7,0,275.4,0,413.1,0c8.5,0,15.3,3.1,19.5,10.5c4,7.1,3.9,14.4-0.3,21.3c-4.4,7.2-11.1,10-19.4,10
			c-48.9-0.1-97.9,0-146.8,0C697.5,636.9,677.7,636.9,657.9,636.9z"/>
		<path class="st0" d="M657.4,470.2c-69.1,0-138.2,0-207.3,0c-8.9,0-15.4-3.8-19.2-11.7c-3.6-7.6-3.3-15.6,2.5-21.9
			c3.2-3.5,8.2-5.4,12.6-7.6c1.6-0.8,3.8-0.5,5.8-0.5c137.2,0,274.4,0,411.7,0c7.2,0,13.6,1.7,18.3,7.4c5.6,6.8,6.7,14.4,3,22.3
			c-3.8,8.1-10.5,12-19.5,12C795.9,470.2,726.6,470.2,657.4,470.2z"/>
		<path class="st0" d="M719.9,303.7c-48.4,0-96.9,0-145.3,0c-9.8,0-17.3-5.6-20.1-14.7c-2.7-8.9,0.6-18.7,8.6-23.4
			c3.2-1.9,7.3-3.2,11-3.2c97.4-0.2,194.8-0.1,292.1-0.1c11.4,0,20.4,9.1,20.4,20.5c0.1,11.9-8.8,21-20.9,21
			C817.1,303.7,768.5,303.7,719.9,303.7z"/>
		<path class="st0" d="M595.4,761.8c48.1,0,96.2,0,144.4,0c12.9,0,22,8.7,22,20.9c-0.1,11.9-9.2,20.5-21.8,20.5
			c-96.6,0-193.1,0-289.7,0c-11.2,0-20-7.4-21.2-17.5c-1.3-11.3,4.7-20.6,15.3-23.4c2-0.5,4.2-0.6,6.3-0.6
			C498.9,761.8,547.2,761.8,595.4,761.8z"/>
	</g>
</g>
</svg>
