<?xml version="1.0" encoding="utf-8"?>
<!-- Generator: Adobe Illustrator 24.1.0, SVG Export Plug-In . SVG Version: 6.00 Build 0)  -->
<svg version="1.1" xmlns="http://www.w3.org/2000/svg" xmlns:xlink="http://www.w3.org/1999/xlink" x="0px" y="0px"
	 viewBox="0 0 1024 1024" style="enable-background:new 0 0 1024 1024;" xml:space="preserve">
<style type="text/css">
	.st0{fill:#5F5E5E;}
	.st1{fill-rule:evenodd;clip-rule:evenodd;fill:#5F5E5E;}
	.st2{fill:#004E7C;}
</style>
<g id="Layer_2">
</g>
<g id="Layer_1">
	<g>
		<path class="st0" d="M12,578.4c1.3-8.3,2.4-16.6,3.8-24.9c16.3-91.7,89.6-166.3,181.5-183c79.5-14.4,149.1,6.7,206.5,63.7
			c44,43.8,66,97.8,66.2,160.2c0.2,48.5,0,97,0,145.5c0,13.8-8.3,22.2-22.1,22.2c-25.9,0-51.7,0-77.6,0c-1.8,0-3.5,0-5.8,0
			c-1,11.6-2,22.9-3,34.1c-3.2,38.1-6.4,76.1-9.5,114.2c-2.1,25.4-4.5,50.9-6.1,76.3c-0.8,12-4.8,21-16.6,25.3
			c-58.9,0-117.8,0-176.7,0c-1.1-0.6-2.2-1.2-3.3-1.8c-7.4-3.5-11.5-9.3-12.3-17.4c-1.4-14.7-2.6-29.5-3.8-44.2
			c-4.7-56.7-9.3-113.4-14-170.1c-0.4-5.4-1-10.8-1.6-16.5c-2.4,0-4.1,0-5.9,0c-26.2,0-52.4,0-78.6,0c-8.2,0-14.3-3.5-18.5-10.6
			c-1-1.6-1.8-3.4-2.7-5C12,690.4,12,634.4,12,578.4z M54.1,720.2c2.2,0,3.9,0,5.7,0c25.2,0,50.4,0,75.7,0
			c12.7,0,21.1,7.4,22.2,19.9c2.5,27.4,4.6,54.8,6.9,82.1c3.2,38.1,6.3,76.2,9.5,114.2c0.9,11.1,1.9,22.3,2.9,33.5
			c42.9,0,85.3,0,128,0c0.2-1.9,0.5-3.7,0.7-5.4c1.4-17.5,2.8-35,4.2-52.5c4.7-56.6,9.5-113.1,14.3-169.6c1.2-14.9,9-22.2,24-22.2
			c24.9,0,49.8,0,74.7,0c1.7,0,3.5,0,5.5,0c0.1-1.8,0.3-3.1,0.3-4.3c0-39.2,0.3-78.4-0.2-117.7c-0.2-13.6-1.3-27.4-4-40.7
			C398.9,431.6,255.4,368,145.4,434.4c-57.4,34.7-88.5,86.7-91.2,153.8c-1.8,43.1-0.4,86.2-0.4,129.4
			C53.8,718.3,54,718.9,54.1,720.2z"/>
		<path class="st0" d="M255.1,12c8.9,1.6,17.9,2.9,26.7,5c66.5,16.1,117.4,74.1,124.8,142.2c9.7,88.3-48.1,167.3-135.3,183.3
			C177,359.9,93,296.2,77.3,209C60.7,116.8,121.3,30,213.5,14.2c4.4-0.8,8.9-1.4,13.3-2.2C236.2,12,245.7,12,255.1,12z M365.9,178.6
			c0-68.4-55.6-124.7-123.1-124.8c-70.3-0.1-126,55-126.6,123.9c-0.6,64.8,51.1,125.8,125.2,125.9
			C310.6,303.7,365.9,247.5,365.9,178.6z"/>
		<path class="st0" d="M939.5,343.9c-4.4-4.3-9-8.5-13.3-12.8c-24.6-24.6-49.3-49.2-73.9-73.9c-9.4-9.4-9.8-22.2-1-30.8
			c7.3-7.2,18.5-8.2,26.8-2.2c2,1.4,3.7,3.2,5.4,4.9c40.5,40.5,81,81,121.6,121.4c9.1,9.1,9.3,22,0.5,30.9
			c-41.3,41.3-82.6,82.6-124,123.8c-10.4,10.4-26.2,8.8-33.4-3.2c-5.2-8.6-3.7-18.6,3.9-26.2c28.1-28.1,56.1-56.2,84.2-84.2
			c1.2-1.2,2.4-2.5,4.2-4.5c-2.8,0-4.7,0-6.6,0c-119.6,0-239.1,0-358.7,0c-9.9,0-17.5-5.4-20.5-14.3c-2.8-8.4-0.3-18.4,7.3-23
			c4.5-2.7,10.3-4.4,15.5-4.4c100.2-0.3,200.4-0.2,300.6-0.2c18.5,0,37.1,0,55.6,0c1.7,0,3.5,0,5.2,0
			C939,344.7,939.3,344.3,939.5,343.9z"/>
	</g>
</g>
</svg>
